%TF.GenerationSoftware,KiCad,Pcbnew,7.0.11*%
%TF.CreationDate,2024-11-21T23:02:42-06:00*%
%TF.ProjectId,lightsaber_necklace,6c696768-7473-4616-9265-725f6e65636b,rev?*%
%TF.SameCoordinates,Original*%
%TF.FileFunction,Copper,L3,Inr*%
%TF.FilePolarity,Positive*%
%FSLAX46Y46*%
G04 Gerber Fmt 4.6, Leading zero omitted, Abs format (unit mm)*
G04 Created by KiCad (PCBNEW 7.0.11) date 2024-11-21 23:02:42*
%MOMM*%
%LPD*%
G01*
G04 APERTURE LIST*
G04 Aperture macros list*
%AMRoundRect*
0 Rectangle with rounded corners*
0 $1 Rounding radius*
0 $2 $3 $4 $5 $6 $7 $8 $9 X,Y pos of 4 corners*
0 Add a 4 corners polygon primitive as box body*
4,1,4,$2,$3,$4,$5,$6,$7,$8,$9,$2,$3,0*
0 Add four circle primitives for the rounded corners*
1,1,$1+$1,$2,$3*
1,1,$1+$1,$4,$5*
1,1,$1+$1,$6,$7*
1,1,$1+$1,$8,$9*
0 Add four rect primitives between the rounded corners*
20,1,$1+$1,$2,$3,$4,$5,0*
20,1,$1+$1,$4,$5,$6,$7,0*
20,1,$1+$1,$6,$7,$8,$9,0*
20,1,$1+$1,$8,$9,$2,$3,0*%
G04 Aperture macros list end*
%TA.AperFunction,ComponentPad*%
%ADD10C,1.800000*%
%TD*%
%TA.AperFunction,ComponentPad*%
%ADD11RoundRect,0.450000X0.450000X-0.450000X0.450000X0.450000X-0.450000X0.450000X-0.450000X-0.450000X0*%
%TD*%
%TA.AperFunction,ComponentPad*%
%ADD12O,1.200000X1.600000*%
%TD*%
%TA.AperFunction,ComponentPad*%
%ADD13O,1.350000X1.350000*%
%TD*%
%TA.AperFunction,ComponentPad*%
%ADD14RoundRect,0.337500X0.337500X-0.337500X0.337500X0.337500X-0.337500X0.337500X-0.337500X-0.337500X0*%
%TD*%
%TA.AperFunction,ComponentPad*%
%ADD15RoundRect,0.337500X0.337500X0.337500X-0.337500X0.337500X-0.337500X-0.337500X0.337500X-0.337500X0*%
%TD*%
%TA.AperFunction,ViaPad*%
%ADD16C,0.700000*%
%TD*%
%TA.AperFunction,ViaPad*%
%ADD17C,0.680000*%
%TD*%
%TA.AperFunction,Conductor*%
%ADD18C,0.600000*%
%TD*%
%TA.AperFunction,Conductor*%
%ADD19C,0.800000*%
%TD*%
%TA.AperFunction,Conductor*%
%ADD20C,0.300000*%
%TD*%
%TA.AperFunction,Conductor*%
%ADD21C,0.540000*%
%TD*%
G04 APERTURE END LIST*
D10*
%TO.N,Net-(D1-A)*%
%TO.C,D6*%
X150000000Y-98730000D03*
D11*
%TO.N,Net-(D1-K)*%
X150000000Y-101270000D03*
%TD*%
D12*
%TO.N,/cpfs*%
%TO.C,C1*%
X152500000Y-100000000D03*
%TO.N,GND*%
X147500000Y-100000000D03*
%TD*%
D13*
%TO.N,GND*%
%TO.C,SC2*%
X151000000Y-94500000D03*
D14*
%TO.N,/cell2*%
X149000000Y-94500000D03*
%TD*%
D13*
%TO.N,GND*%
%TO.C,SC1*%
X144500000Y-99270000D03*
D15*
%TO.N,/cell1*%
X144500000Y-101270000D03*
%TD*%
%TO.N,/cell3*%
%TO.C,SC3*%
X155500000Y-101270000D03*
D13*
%TO.N,GND*%
X155500000Y-99270000D03*
%TD*%
D14*
%TO.N,/cell4*%
%TO.C,SC4*%
X149000000Y-105500000D03*
D13*
%TO.N,GND*%
X151000000Y-105500000D03*
%TD*%
D16*
%TO.N,Net-(D1-A)*%
X154500000Y-97200000D03*
X154196747Y-95783789D03*
%TO.N,GND*%
X151850000Y-102050000D03*
%TO.N,supaCap*%
X147400000Y-102900000D03*
%TO.N,combined_solars*%
X151600000Y-103900000D03*
D17*
%TO.N,supaCap*%
X153450000Y-103100000D03*
D16*
X153550000Y-101700000D03*
%TO.N,/cell1*%
X145700000Y-97800000D03*
%TO.N,combined_solars*%
X146300000Y-95710407D03*
X152756343Y-94728878D03*
%TD*%
D18*
%TO.N,supaCap*%
X147400000Y-102900000D02*
X153550000Y-102900000D01*
X153550000Y-102900000D02*
X153550000Y-101700000D01*
%TO.N,Net-(D1-A)*%
X154196747Y-95783789D02*
X154196747Y-96896747D01*
X154196747Y-96896747D02*
X154500000Y-97200000D01*
X154500000Y-97200000D02*
X154050000Y-96750000D01*
X154050000Y-96750000D02*
X153230536Y-96750000D01*
X154196747Y-95783789D02*
X153230536Y-96750000D01*
D19*
X153230536Y-96750000D02*
X151980000Y-96750000D01*
X151980000Y-96750000D02*
X150000000Y-98730000D01*
D20*
%TO.N,combined_solars*%
X146300000Y-96600000D02*
X146550000Y-96850000D01*
X145700000Y-102200000D02*
X145700000Y-103400000D01*
X146400000Y-98800000D02*
X146400000Y-101500000D01*
X145700000Y-103400000D02*
X146900000Y-104600000D01*
X146550000Y-96850000D02*
X146550000Y-98650000D01*
X146400000Y-101500000D02*
X145700000Y-102200000D01*
X146550000Y-98650000D02*
X146400000Y-98800000D01*
X146900000Y-104600000D02*
X147700000Y-104600000D01*
X147700000Y-104600000D02*
X148400000Y-103900000D01*
X148400000Y-103900000D02*
X151600000Y-103900000D01*
D18*
X146300000Y-95710407D02*
X146300000Y-96600000D01*
X152756343Y-94728878D02*
X151774814Y-95710407D01*
D21*
X151774814Y-95710407D02*
X146300000Y-95710407D01*
D20*
%TO.N,/cell1*%
X145700000Y-97800000D02*
X145700000Y-99800000D01*
X145300000Y-100470000D02*
X144500000Y-101270000D01*
X145700000Y-99800000D02*
X145300000Y-100200000D01*
X145300000Y-100200000D02*
X145300000Y-100470000D01*
D19*
%TO.N,supaCap*%
X153550000Y-101900000D02*
X153550000Y-102600000D01*
%TD*%
%TA.AperFunction,Conductor*%
%TO.N,GND*%
G36*
X154567428Y-102084832D02*
G01*
X154573646Y-102090620D01*
X154689161Y-102206135D01*
X154839975Y-102299158D01*
X155008176Y-102354894D01*
X155067778Y-102360983D01*
X155111990Y-102365500D01*
X155111992Y-102365500D01*
X155654927Y-102365500D01*
X155719263Y-102384391D01*
X155763173Y-102435066D01*
X155772716Y-102501435D01*
X155762996Y-102534318D01*
X155749508Y-102563578D01*
X155614854Y-102855664D01*
X155610612Y-102863989D01*
X155373492Y-103287398D01*
X155368610Y-103295365D01*
X155099000Y-103698866D01*
X155093508Y-103706425D01*
X154793067Y-104087531D01*
X154786998Y-104094636D01*
X154457592Y-104450985D01*
X154450985Y-104457592D01*
X154094636Y-104786998D01*
X154087531Y-104793067D01*
X153706425Y-105093508D01*
X153698866Y-105099000D01*
X153295365Y-105368610D01*
X153287398Y-105373492D01*
X152863989Y-105610612D01*
X152855664Y-105614854D01*
X152414966Y-105818019D01*
X152406333Y-105821595D01*
X151965253Y-105984319D01*
X151898355Y-105988863D01*
X151839620Y-105956519D01*
X151807695Y-105897554D01*
X151810889Y-105835902D01*
X151822553Y-105800000D01*
X151265686Y-105800000D01*
X151327641Y-105738045D01*
X151385165Y-105625148D01*
X151404986Y-105500000D01*
X151385165Y-105374852D01*
X151327641Y-105261955D01*
X151265686Y-105200000D01*
X151822553Y-105200000D01*
X151822553Y-105199999D01*
X151803758Y-105142151D01*
X151803754Y-105142143D01*
X151711790Y-104982857D01*
X151604978Y-104864230D01*
X151575967Y-104803778D01*
X151584244Y-104737239D01*
X151627181Y-104685737D01*
X151680088Y-104666351D01*
X151772537Y-104655935D01*
X151936423Y-104598589D01*
X152083438Y-104506213D01*
X152206213Y-104383438D01*
X152298589Y-104236423D01*
X152355935Y-104072537D01*
X152375375Y-103900000D01*
X152364883Y-103806880D01*
X152358793Y-103752823D01*
X152370362Y-103686776D01*
X152415802Y-103637469D01*
X152477045Y-103620500D01*
X152845699Y-103620500D01*
X152910035Y-103639391D01*
X152929844Y-103655353D01*
X152972836Y-103698345D01*
X153003173Y-103717407D01*
X153117942Y-103789521D01*
X153117946Y-103789523D01*
X153167550Y-103806880D01*
X153279702Y-103846124D01*
X153450000Y-103865312D01*
X153620298Y-103846124D01*
X153782056Y-103789522D01*
X153927164Y-103698345D01*
X154048345Y-103577164D01*
X154139522Y-103432056D01*
X154196124Y-103270298D01*
X154200122Y-103234815D01*
X154213618Y-103193802D01*
X154213335Y-103193680D01*
X154214701Y-103190511D01*
X154215320Y-103188632D01*
X154216079Y-103187318D01*
X154219166Y-103177003D01*
X154226824Y-103157726D01*
X154231658Y-103148103D01*
X154245448Y-103089912D01*
X154247238Y-103083235D01*
X154250442Y-103072534D01*
X154264384Y-103025965D01*
X154264384Y-103025952D01*
X154265412Y-103020129D01*
X154281845Y-102977474D01*
X154293923Y-102958254D01*
X154354990Y-102783734D01*
X154370500Y-102646080D01*
X154370500Y-102174766D01*
X154389391Y-102110430D01*
X154440066Y-102066520D01*
X154506435Y-102056977D01*
X154567428Y-102084832D01*
G37*
%TD.AperFunction*%
%TA.AperFunction,Conductor*%
G36*
X150945774Y-96419798D02*
G01*
X150989684Y-96470473D01*
X150999227Y-96536842D01*
X150971372Y-96597835D01*
X150965584Y-96604053D01*
X150191129Y-97378506D01*
X150132278Y-97410641D01*
X150096613Y-97412907D01*
X150000004Y-97404456D01*
X149999998Y-97404456D01*
X149769819Y-97424594D01*
X149546637Y-97484396D01*
X149546636Y-97484396D01*
X149337230Y-97582044D01*
X149337225Y-97582047D01*
X149147957Y-97714573D01*
X148984573Y-97877957D01*
X148852047Y-98067225D01*
X148852044Y-98067230D01*
X148754396Y-98276636D01*
X148754396Y-98276637D01*
X148694594Y-98499819D01*
X148674456Y-98729998D01*
X148674456Y-98730001D01*
X148694594Y-98960180D01*
X148725270Y-99074664D01*
X148754396Y-99183363D01*
X148852045Y-99392772D01*
X148927431Y-99500434D01*
X148984573Y-99582042D01*
X149147957Y-99745426D01*
X149236432Y-99807377D01*
X149278297Y-99859753D01*
X149285200Y-99926449D01*
X149254949Y-99986290D01*
X149221050Y-100011465D01*
X149078410Y-100082208D01*
X148930836Y-100200831D01*
X148930831Y-100200836D01*
X148812207Y-100348412D01*
X148728081Y-100518035D01*
X148728081Y-100518036D01*
X148728079Y-100518041D01*
X148705217Y-100609973D01*
X148682381Y-100701797D01*
X148679500Y-100744294D01*
X148679500Y-101795701D01*
X148679501Y-101795708D01*
X148682381Y-101838199D01*
X148682382Y-101838206D01*
X148682383Y-101838210D01*
X148728079Y-102021959D01*
X148728080Y-102021962D01*
X148729637Y-102028220D01*
X148727777Y-102028682D01*
X148731615Y-102086375D01*
X148699187Y-102145064D01*
X148640177Y-102176905D01*
X148615462Y-102179500D01*
X147694023Y-102179500D01*
X147654720Y-102172822D01*
X147643071Y-102168746D01*
X147572537Y-102144065D01*
X147572536Y-102144064D01*
X147572535Y-102144064D01*
X147400000Y-102124625D01*
X147227465Y-102144064D01*
X147063578Y-102201410D01*
X147063575Y-102201411D01*
X146916567Y-102293782D01*
X146793782Y-102416567D01*
X146701411Y-102563575D01*
X146701410Y-102563578D01*
X146644064Y-102727465D01*
X146624625Y-102900000D01*
X146644064Y-103072534D01*
X146701410Y-103236421D01*
X146701411Y-103236424D01*
X146745054Y-103305881D01*
X146763288Y-103370407D01*
X146743742Y-103434547D01*
X146692622Y-103477938D01*
X146626158Y-103486803D01*
X146565452Y-103458328D01*
X146560148Y-103453339D01*
X146305354Y-103198545D01*
X146273220Y-103139694D01*
X146270500Y-103114399D01*
X146270500Y-102485600D01*
X146289391Y-102421264D01*
X146305350Y-102401458D01*
X146771455Y-101935352D01*
X146783143Y-101925103D01*
X146806886Y-101906886D01*
X146898331Y-101787711D01*
X146955816Y-101648930D01*
X146970500Y-101537394D01*
X146970500Y-101537392D01*
X146975423Y-101500000D01*
X146971518Y-101470337D01*
X146970500Y-101454805D01*
X146970500Y-101027425D01*
X146989391Y-100963089D01*
X147040066Y-100919179D01*
X147106435Y-100909636D01*
X147144163Y-100923490D01*
X147144672Y-100922435D01*
X147150689Y-100925332D01*
X147200000Y-100942586D01*
X147200000Y-100942585D01*
X147800000Y-100942585D01*
X147849306Y-100925333D01*
X148001944Y-100829425D01*
X148129425Y-100701944D01*
X148225335Y-100549304D01*
X148225336Y-100549301D01*
X148284877Y-100379141D01*
X148293794Y-100300000D01*
X147800001Y-100300000D01*
X147800000Y-100300001D01*
X147800000Y-100942585D01*
X147200000Y-100942585D01*
X147200000Y-100265686D01*
X147261955Y-100327641D01*
X147374852Y-100385165D01*
X147468519Y-100400000D01*
X147531481Y-100400000D01*
X147625148Y-100385165D01*
X147738045Y-100327641D01*
X147827641Y-100238045D01*
X147885165Y-100125148D01*
X147904986Y-100000000D01*
X147885165Y-99874852D01*
X147827641Y-99761955D01*
X147738045Y-99672359D01*
X147625148Y-99614835D01*
X147531481Y-99600000D01*
X147468519Y-99600000D01*
X147374852Y-99614835D01*
X147261955Y-99672359D01*
X147200000Y-99734314D01*
X147200000Y-99057412D01*
X147800000Y-99057412D01*
X147800000Y-99699999D01*
X147800001Y-99700000D01*
X148293794Y-99700000D01*
X148293794Y-99699999D01*
X148284877Y-99620858D01*
X148225336Y-99450698D01*
X148225335Y-99450695D01*
X148129425Y-99298055D01*
X148001944Y-99170574D01*
X147849304Y-99074664D01*
X147800000Y-99057412D01*
X147200000Y-99057412D01*
X147193849Y-99053047D01*
X147148686Y-99055353D01*
X147090503Y-99022025D01*
X147059576Y-98962531D01*
X147065722Y-98895761D01*
X147066406Y-98894074D01*
X147076378Y-98870000D01*
X147105816Y-98798931D01*
X147125424Y-98650000D01*
X147121518Y-98620332D01*
X147120500Y-98604799D01*
X147120500Y-96895192D01*
X147121518Y-96879659D01*
X147123635Y-96863577D01*
X147125423Y-96850000D01*
X147120500Y-96812606D01*
X147105816Y-96701070D01*
X147049637Y-96565443D01*
X147042471Y-96498778D01*
X147072485Y-96438818D01*
X147130151Y-96404603D01*
X147159580Y-96400907D01*
X150881438Y-96400907D01*
X150945774Y-96419798D01*
G37*
%TD.AperFunction*%
%TA.AperFunction,Conductor*%
G36*
X155373530Y-96767282D02*
G01*
X155426378Y-96808551D01*
X155433505Y-96819761D01*
X155610612Y-97136010D01*
X155614854Y-97144335D01*
X155637652Y-97193787D01*
X155818024Y-97585046D01*
X155821593Y-97593663D01*
X155962415Y-97975375D01*
X155989565Y-98048966D01*
X155992450Y-98057848D01*
X156008505Y-98114775D01*
X156076320Y-98355232D01*
X156075602Y-98422281D01*
X156038748Y-98478297D01*
X155977460Y-98505496D01*
X155913385Y-98496245D01*
X155800000Y-98445761D01*
X155800000Y-99004314D01*
X155738045Y-98942359D01*
X155625148Y-98884835D01*
X155531481Y-98870000D01*
X155468519Y-98870000D01*
X155374852Y-98884835D01*
X155261955Y-98942359D01*
X155172359Y-99031955D01*
X155114835Y-99144852D01*
X155095014Y-99270000D01*
X155114835Y-99395148D01*
X155172359Y-99508045D01*
X155234314Y-99570000D01*
X154677446Y-99570000D01*
X154696241Y-99627848D01*
X154696245Y-99627856D01*
X154788210Y-99787144D01*
X154788212Y-99787147D01*
X154911283Y-99923831D01*
X155001010Y-99989022D01*
X155041955Y-100042121D01*
X155047693Y-100108928D01*
X155016402Y-100168231D01*
X154968494Y-100198255D01*
X154839973Y-100240842D01*
X154689161Y-100333865D01*
X154689158Y-100333867D01*
X154563867Y-100459158D01*
X154563865Y-100459161D01*
X154470842Y-100609973D01*
X154415105Y-100778178D01*
X154415105Y-100778181D01*
X154404500Y-100881990D01*
X154404500Y-101198649D01*
X154385609Y-101262985D01*
X154334934Y-101306895D01*
X154268565Y-101316438D01*
X154207572Y-101288583D01*
X154184740Y-101261961D01*
X154156217Y-101216567D01*
X154156214Y-101216564D01*
X154156213Y-101216562D01*
X154033438Y-101093787D01*
X154033435Y-101093785D01*
X154033432Y-101093782D01*
X153886424Y-101001411D01*
X153886421Y-101001410D01*
X153722534Y-100944064D01*
X153722535Y-100944064D01*
X153571907Y-100927093D01*
X153550000Y-100924625D01*
X153549999Y-100924625D01*
X153476872Y-100932864D01*
X153410825Y-100921295D01*
X153361518Y-100875854D01*
X153344605Y-100810970D01*
X153358599Y-100758517D01*
X153447381Y-100592418D01*
X153505734Y-100400053D01*
X153520500Y-100250135D01*
X153520500Y-99749865D01*
X153505734Y-99599947D01*
X153447381Y-99407582D01*
X153352621Y-99230297D01*
X153225094Y-99074906D01*
X153097267Y-98970000D01*
X153097266Y-98969999D01*
X154677446Y-98969999D01*
X154677447Y-98970000D01*
X155199999Y-98970000D01*
X155200000Y-98969999D01*
X155200000Y-98445761D01*
X155060084Y-98508057D01*
X154911285Y-98616166D01*
X154788212Y-98752852D01*
X154788210Y-98752855D01*
X154696245Y-98912143D01*
X154696241Y-98912151D01*
X154677446Y-98969999D01*
X153097266Y-98969999D01*
X153069705Y-98947380D01*
X153069703Y-98947379D01*
X152892418Y-98852619D01*
X152700051Y-98794265D01*
X152500000Y-98774562D01*
X152299948Y-98794265D01*
X152107581Y-98852619D01*
X151930296Y-98947379D01*
X151930294Y-98947380D01*
X151774909Y-99074903D01*
X151774903Y-99074909D01*
X151647380Y-99230294D01*
X151647379Y-99230296D01*
X151552619Y-99407581D01*
X151494265Y-99599948D01*
X151479500Y-99749868D01*
X151479500Y-100250131D01*
X151494265Y-100400051D01*
X151552619Y-100592418D01*
X151647379Y-100769703D01*
X151647380Y-100769705D01*
X151681246Y-100810970D01*
X151774906Y-100925094D01*
X151784374Y-100932864D01*
X151930294Y-101052619D01*
X151930295Y-101052619D01*
X151930297Y-101052621D01*
X152107582Y-101147381D01*
X152299947Y-101205734D01*
X152500000Y-101225438D01*
X152700053Y-101205734D01*
X152706969Y-101203635D01*
X152774015Y-101203035D01*
X152830746Y-101238780D01*
X152859146Y-101299520D01*
X152851471Y-101356518D01*
X152853618Y-101357269D01*
X152794064Y-101527464D01*
X152787486Y-101585841D01*
X152781557Y-101611817D01*
X152745011Y-101716262D01*
X152745009Y-101716271D01*
X152729500Y-101853918D01*
X152729500Y-102060500D01*
X152710609Y-102124836D01*
X152659934Y-102168746D01*
X152610500Y-102179500D01*
X151384538Y-102179500D01*
X151320202Y-102160609D01*
X151276292Y-102109934D01*
X151266749Y-102043565D01*
X151270609Y-102028281D01*
X151270363Y-102028220D01*
X151271919Y-102021962D01*
X151271921Y-102021959D01*
X151317617Y-101838210D01*
X151320500Y-101795695D01*
X151320499Y-100744306D01*
X151320499Y-100744305D01*
X151320499Y-100744298D01*
X151320498Y-100744291D01*
X151317618Y-100701800D01*
X151317617Y-100701793D01*
X151317617Y-100701790D01*
X151271921Y-100518041D01*
X151187793Y-100348412D01*
X151069166Y-100200834D01*
X151069163Y-100200831D01*
X150975240Y-100125334D01*
X150921588Y-100082207D01*
X150820695Y-100032169D01*
X150778950Y-100011465D01*
X150729706Y-99965955D01*
X150712884Y-99901048D01*
X150733824Y-99837349D01*
X150763568Y-99807377D01*
X150792459Y-99787147D01*
X150852043Y-99745426D01*
X151015426Y-99582043D01*
X151147955Y-99392772D01*
X151245604Y-99183363D01*
X151305406Y-98960178D01*
X151325544Y-98730000D01*
X151317091Y-98633385D01*
X151330302Y-98567649D01*
X151351489Y-98538872D01*
X152285009Y-97605354D01*
X152343860Y-97573219D01*
X152369155Y-97570500D01*
X153276616Y-97570500D01*
X153414270Y-97554990D01*
X153588790Y-97493923D01*
X153597039Y-97488740D01*
X153660351Y-97470500D01*
X153694892Y-97470500D01*
X153759228Y-97489391D01*
X153796549Y-97531585D01*
X153797856Y-97530765D01*
X153893782Y-97683432D01*
X153893785Y-97683435D01*
X153893787Y-97683438D01*
X154016562Y-97806213D01*
X154016564Y-97806214D01*
X154016567Y-97806217D01*
X154130741Y-97877957D01*
X154163577Y-97898589D01*
X154327463Y-97955935D01*
X154500000Y-97975375D01*
X154672537Y-97955935D01*
X154836423Y-97898589D01*
X154983438Y-97806213D01*
X155106213Y-97683438D01*
X155198589Y-97536423D01*
X155255935Y-97372537D01*
X155275375Y-97200000D01*
X155255935Y-97027463D01*
X155217356Y-96917210D01*
X155213938Y-96850245D01*
X155247267Y-96792062D01*
X155306760Y-96761135D01*
X155373530Y-96767282D01*
G37*
%TD.AperFunction*%
%TA.AperFunction,Conductor*%
G36*
X145458387Y-95742387D02*
G01*
X145513602Y-95780431D01*
X145539463Y-95842106D01*
X145544064Y-95882939D01*
X145544065Y-95882944D01*
X145572822Y-95965126D01*
X145579500Y-96004429D01*
X145579500Y-96641967D01*
X145594146Y-96767282D01*
X145594149Y-96767295D01*
X145636595Y-96883914D01*
X145640848Y-96950831D01*
X145608247Y-97009425D01*
X145549144Y-97041092D01*
X145538101Y-97042865D01*
X145527470Y-97044063D01*
X145527465Y-97044064D01*
X145363578Y-97101410D01*
X145363575Y-97101411D01*
X145216567Y-97193782D01*
X145093782Y-97316567D01*
X145001411Y-97463575D01*
X145001410Y-97463578D01*
X144944064Y-97627465D01*
X144924625Y-97800000D01*
X144944064Y-97972534D01*
X145001410Y-98136421D01*
X145001411Y-98136424D01*
X145093782Y-98283432D01*
X145093785Y-98283435D01*
X145093787Y-98283438D01*
X145094647Y-98284298D01*
X145095024Y-98284989D01*
X145097949Y-98288656D01*
X145097306Y-98289168D01*
X145126780Y-98343147D01*
X145129500Y-98368442D01*
X145129500Y-98412248D01*
X145110609Y-98476584D01*
X145059934Y-98520494D01*
X144993565Y-98530037D01*
X144945651Y-98510590D01*
X144945315Y-98511174D01*
X144941115Y-98508749D01*
X144940557Y-98508523D01*
X144939916Y-98508058D01*
X144800000Y-98445761D01*
X144800000Y-99004314D01*
X144738045Y-98942359D01*
X144625148Y-98884835D01*
X144531481Y-98870000D01*
X144468519Y-98870000D01*
X144374852Y-98884835D01*
X144261955Y-98942359D01*
X144200000Y-99004314D01*
X144200000Y-98445761D01*
X144086613Y-98496245D01*
X144020156Y-98505155D01*
X143959430Y-98476722D01*
X143923718Y-98419971D01*
X143923679Y-98355232D01*
X144007555Y-98057825D01*
X144010424Y-98048994D01*
X144178414Y-97593641D01*
X144181965Y-97585068D01*
X144385151Y-97144321D01*
X144389387Y-97136010D01*
X144626513Y-96712590D01*
X144631382Y-96704643D01*
X144901017Y-96301108D01*
X144906472Y-96293599D01*
X145206932Y-95912468D01*
X145212995Y-95905370D01*
X145333829Y-95774651D01*
X145391369Y-95740233D01*
X145458387Y-95742387D01*
G37*
%TD.AperFunction*%
%TD*%
M02*
