%TF.GenerationSoftware,KiCad,Pcbnew,7.0.11*%
%TF.CreationDate,2024-11-21T23:02:42-06:00*%
%TF.ProjectId,lightsaber_necklace,6c696768-7473-4616-9265-725f6e65636b,rev?*%
%TF.SameCoordinates,Original*%
%TF.FileFunction,Copper,L2,Inr*%
%TF.FilePolarity,Positive*%
%FSLAX46Y46*%
G04 Gerber Fmt 4.6, Leading zero omitted, Abs format (unit mm)*
G04 Created by KiCad (PCBNEW 7.0.11) date 2024-11-21 23:02:42*
%MOMM*%
%LPD*%
G01*
G04 APERTURE LIST*
G04 Aperture macros list*
%AMRoundRect*
0 Rectangle with rounded corners*
0 $1 Rounding radius*
0 $2 $3 $4 $5 $6 $7 $8 $9 X,Y pos of 4 corners*
0 Add a 4 corners polygon primitive as box body*
4,1,4,$2,$3,$4,$5,$6,$7,$8,$9,$2,$3,0*
0 Add four circle primitives for the rounded corners*
1,1,$1+$1,$2,$3*
1,1,$1+$1,$4,$5*
1,1,$1+$1,$6,$7*
1,1,$1+$1,$8,$9*
0 Add four rect primitives between the rounded corners*
20,1,$1+$1,$2,$3,$4,$5,0*
20,1,$1+$1,$4,$5,$6,$7,0*
20,1,$1+$1,$6,$7,$8,$9,0*
20,1,$1+$1,$8,$9,$2,$3,0*%
G04 Aperture macros list end*
%TA.AperFunction,ComponentPad*%
%ADD10C,1.800000*%
%TD*%
%TA.AperFunction,ComponentPad*%
%ADD11RoundRect,0.450000X0.450000X-0.450000X0.450000X0.450000X-0.450000X0.450000X-0.450000X-0.450000X0*%
%TD*%
%TA.AperFunction,ComponentPad*%
%ADD12O,1.200000X1.600000*%
%TD*%
%TA.AperFunction,ComponentPad*%
%ADD13O,1.350000X1.350000*%
%TD*%
%TA.AperFunction,ComponentPad*%
%ADD14RoundRect,0.337500X0.337500X-0.337500X0.337500X0.337500X-0.337500X0.337500X-0.337500X-0.337500X0*%
%TD*%
%TA.AperFunction,ComponentPad*%
%ADD15RoundRect,0.337500X0.337500X0.337500X-0.337500X0.337500X-0.337500X-0.337500X0.337500X-0.337500X0*%
%TD*%
%TA.AperFunction,ViaPad*%
%ADD16C,0.700000*%
%TD*%
%TA.AperFunction,ViaPad*%
%ADD17C,0.680000*%
%TD*%
G04 APERTURE END LIST*
D10*
%TO.N,Net-(D1-A)*%
%TO.C,D6*%
X150000000Y-98730000D03*
D11*
%TO.N,Net-(D1-K)*%
X150000000Y-101270000D03*
%TD*%
D12*
%TO.N,/cpfs*%
%TO.C,C1*%
X152500000Y-100000000D03*
%TO.N,GND*%
X147500000Y-100000000D03*
%TD*%
D13*
%TO.N,GND*%
%TO.C,SC2*%
X151000000Y-94500000D03*
D14*
%TO.N,/cell2*%
X149000000Y-94500000D03*
%TD*%
D13*
%TO.N,GND*%
%TO.C,SC1*%
X144500000Y-99270000D03*
D15*
%TO.N,/cell1*%
X144500000Y-101270000D03*
%TD*%
%TO.N,/cell3*%
%TO.C,SC3*%
X155500000Y-101270000D03*
D13*
%TO.N,GND*%
X155500000Y-99270000D03*
%TD*%
D14*
%TO.N,/cell4*%
%TO.C,SC4*%
X149000000Y-105500000D03*
D13*
%TO.N,GND*%
X151000000Y-105500000D03*
%TD*%
D16*
%TO.N,Net-(D1-A)*%
X154500000Y-97200000D03*
X154196747Y-95783789D03*
%TO.N,GND*%
X151850000Y-102050000D03*
%TO.N,supaCap*%
X147400000Y-102900000D03*
%TO.N,combined_solars*%
X151600000Y-103900000D03*
D17*
%TO.N,supaCap*%
X153450000Y-103100000D03*
D16*
X153550000Y-101700000D03*
%TO.N,/cell1*%
X145700000Y-97800000D03*
%TO.N,combined_solars*%
X146300000Y-95710407D03*
X152756343Y-94728878D03*
%TD*%
%TA.AperFunction,Conductor*%
%TO.N,GND*%
G36*
X147869946Y-94150628D02*
G01*
X147901870Y-94209593D01*
X147904500Y-94234473D01*
X147904500Y-94888009D01*
X147915105Y-94991818D01*
X147915105Y-94991821D01*
X147970842Y-95160026D01*
X148017353Y-95235432D01*
X148063865Y-95310839D01*
X148189161Y-95436135D01*
X148339975Y-95529158D01*
X148508176Y-95584894D01*
X148570465Y-95591257D01*
X148611990Y-95595500D01*
X148611992Y-95595500D01*
X149388010Y-95595500D01*
X149413962Y-95592848D01*
X149491824Y-95584894D01*
X149660025Y-95529158D01*
X149810839Y-95436135D01*
X149936135Y-95310839D01*
X150029158Y-95160025D01*
X150070286Y-95035906D01*
X150108453Y-94980780D01*
X150170367Y-94955038D01*
X150236370Y-94966856D01*
X150285506Y-95012481D01*
X150286302Y-95013839D01*
X150288210Y-95017144D01*
X150288212Y-95017147D01*
X150411285Y-95153833D01*
X150560086Y-95261943D01*
X150700000Y-95324237D01*
X150700000Y-94765686D01*
X150761955Y-94827641D01*
X150874852Y-94885165D01*
X150968519Y-94900000D01*
X151031481Y-94900000D01*
X151125148Y-94885165D01*
X151238045Y-94827641D01*
X151300000Y-94765686D01*
X151300000Y-95324237D01*
X151439913Y-95261943D01*
X151588714Y-95153833D01*
X151711787Y-95017147D01*
X151711792Y-95017140D01*
X151787005Y-94886867D01*
X151835533Y-94840595D01*
X151901373Y-94827905D01*
X151963622Y-94852825D01*
X152002384Y-94907063D01*
X152057753Y-95065298D01*
X152057754Y-95065302D01*
X152150125Y-95212310D01*
X152150128Y-95212313D01*
X152150130Y-95212316D01*
X152272905Y-95335091D01*
X152272907Y-95335092D01*
X152272910Y-95335095D01*
X152419918Y-95427466D01*
X152419920Y-95427467D01*
X152583806Y-95484813D01*
X152756343Y-95504253D01*
X152928880Y-95484813D01*
X153092766Y-95427467D01*
X153239781Y-95335091D01*
X153362556Y-95212316D01*
X153454932Y-95065301D01*
X153497027Y-94944997D01*
X153536103Y-94890516D01*
X153598437Y-94865806D01*
X153664234Y-94878719D01*
X153675461Y-94885361D01*
X153698866Y-94901000D01*
X153706424Y-94906491D01*
X153768334Y-94955297D01*
X153807163Y-95009963D01*
X153810274Y-95076943D01*
X153776679Y-95134972D01*
X153757974Y-95149510D01*
X153713314Y-95177571D01*
X153590529Y-95300356D01*
X153498158Y-95447364D01*
X153498157Y-95447367D01*
X153440811Y-95611254D01*
X153421372Y-95783789D01*
X153440811Y-95956323D01*
X153498157Y-96120210D01*
X153498158Y-96120213D01*
X153590529Y-96267221D01*
X153590532Y-96267224D01*
X153590534Y-96267227D01*
X153713309Y-96390002D01*
X153713311Y-96390003D01*
X153713314Y-96390006D01*
X153787429Y-96436575D01*
X153860324Y-96482378D01*
X153875629Y-96487733D01*
X153879834Y-96489205D01*
X153934320Y-96528285D01*
X153959029Y-96590619D01*
X153946115Y-96656416D01*
X153924677Y-96685672D01*
X153893782Y-96716567D01*
X153801411Y-96863575D01*
X153801410Y-96863578D01*
X153744064Y-97027465D01*
X153724625Y-97200000D01*
X153744064Y-97372534D01*
X153801410Y-97536421D01*
X153801411Y-97536424D01*
X153893782Y-97683432D01*
X153893785Y-97683435D01*
X153893787Y-97683438D01*
X154016562Y-97806213D01*
X154016564Y-97806214D01*
X154016567Y-97806217D01*
X154130741Y-97877957D01*
X154163577Y-97898589D01*
X154327463Y-97955935D01*
X154500000Y-97975375D01*
X154672537Y-97955935D01*
X154836423Y-97898589D01*
X154983438Y-97806213D01*
X155106213Y-97683438D01*
X155198589Y-97536423D01*
X155255935Y-97372537D01*
X155275375Y-97200000D01*
X155255935Y-97027463D01*
X155217356Y-96917210D01*
X155213938Y-96850245D01*
X155247267Y-96792062D01*
X155306760Y-96761135D01*
X155373530Y-96767282D01*
X155426378Y-96808551D01*
X155433505Y-96819761D01*
X155610612Y-97136010D01*
X155614854Y-97144335D01*
X155637652Y-97193787D01*
X155818024Y-97585046D01*
X155821593Y-97593663D01*
X155962415Y-97975375D01*
X155989565Y-98048966D01*
X155992450Y-98057848D01*
X156008505Y-98114775D01*
X156076320Y-98355232D01*
X156075602Y-98422281D01*
X156038748Y-98478297D01*
X155977460Y-98505496D01*
X155913385Y-98496245D01*
X155800000Y-98445761D01*
X155800000Y-99004314D01*
X155738045Y-98942359D01*
X155625148Y-98884835D01*
X155531481Y-98870000D01*
X155468519Y-98870000D01*
X155374852Y-98884835D01*
X155261955Y-98942359D01*
X155172359Y-99031955D01*
X155114835Y-99144852D01*
X155095014Y-99270000D01*
X155114835Y-99395148D01*
X155172359Y-99508045D01*
X155234314Y-99570000D01*
X154677446Y-99570000D01*
X154696241Y-99627848D01*
X154696245Y-99627856D01*
X154788210Y-99787144D01*
X154788212Y-99787147D01*
X154911283Y-99923831D01*
X155001010Y-99989022D01*
X155041955Y-100042121D01*
X155047693Y-100108928D01*
X155016402Y-100168231D01*
X154968494Y-100198255D01*
X154839973Y-100240842D01*
X154689161Y-100333865D01*
X154689158Y-100333867D01*
X154563867Y-100459158D01*
X154563865Y-100459161D01*
X154470842Y-100609973D01*
X154415105Y-100778178D01*
X154415105Y-100778181D01*
X154404500Y-100881990D01*
X154404500Y-101198649D01*
X154385609Y-101262985D01*
X154334934Y-101306895D01*
X154268565Y-101316438D01*
X154207572Y-101288583D01*
X154184740Y-101261961D01*
X154156217Y-101216567D01*
X154156214Y-101216564D01*
X154156213Y-101216562D01*
X154033438Y-101093787D01*
X154033435Y-101093785D01*
X154033432Y-101093782D01*
X153886424Y-101001411D01*
X153886421Y-101001410D01*
X153722534Y-100944064D01*
X153722535Y-100944064D01*
X153571907Y-100927093D01*
X153550000Y-100924625D01*
X153549999Y-100924625D01*
X153476872Y-100932864D01*
X153410825Y-100921295D01*
X153361518Y-100875854D01*
X153344605Y-100810970D01*
X153358599Y-100758517D01*
X153447381Y-100592418D01*
X153505734Y-100400053D01*
X153520500Y-100250135D01*
X153520500Y-99749865D01*
X153505734Y-99599947D01*
X153447381Y-99407582D01*
X153352621Y-99230297D01*
X153225094Y-99074906D01*
X153097267Y-98970000D01*
X153097266Y-98969999D01*
X154677446Y-98969999D01*
X154677447Y-98970000D01*
X155199999Y-98970000D01*
X155200000Y-98969999D01*
X155200000Y-98445761D01*
X155060084Y-98508057D01*
X154911285Y-98616166D01*
X154788212Y-98752852D01*
X154788210Y-98752855D01*
X154696245Y-98912143D01*
X154696241Y-98912151D01*
X154677446Y-98969999D01*
X153097266Y-98969999D01*
X153069705Y-98947380D01*
X153069703Y-98947379D01*
X152892418Y-98852619D01*
X152700051Y-98794265D01*
X152500000Y-98774562D01*
X152299948Y-98794265D01*
X152107581Y-98852619D01*
X151930296Y-98947379D01*
X151930294Y-98947380D01*
X151774909Y-99074903D01*
X151774903Y-99074909D01*
X151647380Y-99230294D01*
X151647379Y-99230296D01*
X151552619Y-99407581D01*
X151494265Y-99599948D01*
X151479500Y-99749868D01*
X151479500Y-100250131D01*
X151494265Y-100400051D01*
X151552619Y-100592418D01*
X151647379Y-100769703D01*
X151647380Y-100769705D01*
X151681246Y-100810970D01*
X151774906Y-100925094D01*
X151784374Y-100932864D01*
X151930294Y-101052619D01*
X151930295Y-101052619D01*
X151930297Y-101052621D01*
X152107582Y-101147381D01*
X152299947Y-101205734D01*
X152500000Y-101225438D01*
X152700053Y-101205734D01*
X152706969Y-101203635D01*
X152774015Y-101203035D01*
X152830746Y-101238780D01*
X152859146Y-101299520D01*
X152851471Y-101356518D01*
X152853618Y-101357269D01*
X152794064Y-101527465D01*
X152774625Y-101700000D01*
X152794064Y-101872534D01*
X152851410Y-102036421D01*
X152851411Y-102036424D01*
X152943782Y-102183432D01*
X152943785Y-102183435D01*
X152943787Y-102183438D01*
X153044906Y-102284557D01*
X153077039Y-102343406D01*
X153072256Y-102410287D01*
X153032073Y-102463965D01*
X153024072Y-102469461D01*
X152972837Y-102501654D01*
X152851652Y-102622839D01*
X152760478Y-102767942D01*
X152760476Y-102767946D01*
X152703877Y-102929697D01*
X152703877Y-102929699D01*
X152703876Y-102929702D01*
X152684688Y-103100000D01*
X152703876Y-103270298D01*
X152703877Y-103270300D01*
X152703877Y-103270302D01*
X152760476Y-103432053D01*
X152760478Y-103432057D01*
X152843118Y-103563578D01*
X152851655Y-103577164D01*
X152972836Y-103698345D01*
X152972838Y-103698346D01*
X152972839Y-103698347D01*
X153117942Y-103789521D01*
X153117946Y-103789523D01*
X153171863Y-103808389D01*
X153279702Y-103846124D01*
X153450000Y-103865312D01*
X153620298Y-103846124D01*
X153782056Y-103789522D01*
X153927164Y-103698345D01*
X154048345Y-103577164D01*
X154139522Y-103432056D01*
X154196124Y-103270298D01*
X154215312Y-103100000D01*
X154196124Y-102929702D01*
X154139522Y-102767944D01*
X154114087Y-102727465D01*
X154048347Y-102622839D01*
X154048346Y-102622838D01*
X154048345Y-102622836D01*
X153953660Y-102528151D01*
X153921528Y-102469303D01*
X153926311Y-102402422D01*
X153966494Y-102348744D01*
X153974487Y-102343254D01*
X154033438Y-102306213D01*
X154156213Y-102183438D01*
X154248589Y-102036423D01*
X154270301Y-101974371D01*
X154309378Y-101919888D01*
X154371711Y-101895178D01*
X154437509Y-101908091D01*
X154483905Y-101951204D01*
X154563865Y-102080839D01*
X154689161Y-102206135D01*
X154839975Y-102299158D01*
X155008176Y-102354894D01*
X155070465Y-102361257D01*
X155111990Y-102365500D01*
X155111992Y-102365500D01*
X155654927Y-102365500D01*
X155719263Y-102384391D01*
X155763173Y-102435066D01*
X155772716Y-102501435D01*
X155762996Y-102534318D01*
X155737098Y-102590498D01*
X155614854Y-102855664D01*
X155610612Y-102863989D01*
X155373492Y-103287398D01*
X155368610Y-103295365D01*
X155099000Y-103698866D01*
X155093508Y-103706425D01*
X154793067Y-104087531D01*
X154786998Y-104094636D01*
X154457592Y-104450985D01*
X154450985Y-104457592D01*
X154094636Y-104786998D01*
X154087531Y-104793067D01*
X153706425Y-105093508D01*
X153698866Y-105099000D01*
X153295365Y-105368610D01*
X153287398Y-105373492D01*
X152863989Y-105610612D01*
X152855664Y-105614854D01*
X152414966Y-105818019D01*
X152406333Y-105821595D01*
X151965253Y-105984319D01*
X151898355Y-105988863D01*
X151839620Y-105956519D01*
X151807695Y-105897554D01*
X151810889Y-105835902D01*
X151822553Y-105800000D01*
X151265686Y-105800000D01*
X151327641Y-105738045D01*
X151385165Y-105625148D01*
X151404986Y-105500000D01*
X151385165Y-105374852D01*
X151327641Y-105261955D01*
X151238045Y-105172359D01*
X151125148Y-105114835D01*
X151031481Y-105100000D01*
X150968519Y-105100000D01*
X150874852Y-105114835D01*
X150761955Y-105172359D01*
X150700000Y-105234314D01*
X150700000Y-104675761D01*
X150560084Y-104738057D01*
X150411285Y-104846166D01*
X150288212Y-104982852D01*
X150288208Y-104982858D01*
X150286299Y-104986165D01*
X150284693Y-104987695D01*
X150284543Y-104987903D01*
X150284505Y-104987875D01*
X150237769Y-105032434D01*
X150171927Y-105045121D01*
X150109679Y-105020197D01*
X150070788Y-104965575D01*
X150070285Y-104964090D01*
X150029158Y-104839974D01*
X149966294Y-104738057D01*
X149936135Y-104689161D01*
X149810839Y-104563865D01*
X149717377Y-104506217D01*
X149660026Y-104470842D01*
X149575167Y-104442723D01*
X149491824Y-104415106D01*
X149491822Y-104415105D01*
X149491820Y-104415105D01*
X149388010Y-104404500D01*
X149388008Y-104404500D01*
X148611992Y-104404500D01*
X148611990Y-104404500D01*
X148508181Y-104415105D01*
X148508178Y-104415105D01*
X148339973Y-104470842D01*
X148189161Y-104563865D01*
X148189158Y-104563867D01*
X148063867Y-104689158D01*
X148063865Y-104689161D01*
X147970842Y-104839973D01*
X147915105Y-105008178D01*
X147915105Y-105008181D01*
X147904500Y-105111990D01*
X147904500Y-105765526D01*
X147885609Y-105829862D01*
X147834934Y-105873772D01*
X147768565Y-105883315D01*
X147744312Y-105877171D01*
X147616075Y-105829862D01*
X147593663Y-105821593D01*
X147585046Y-105818024D01*
X147166664Y-105625148D01*
X147144335Y-105614854D01*
X147136010Y-105610612D01*
X146712601Y-105373492D01*
X146704634Y-105368610D01*
X146410923Y-105172359D01*
X146301125Y-105098994D01*
X146293583Y-105093514D01*
X145912468Y-104793067D01*
X145905363Y-104786998D01*
X145549014Y-104457592D01*
X145542407Y-104450985D01*
X145213001Y-104094636D01*
X145206932Y-104087531D01*
X145059094Y-103900000D01*
X150824625Y-103900000D01*
X150844064Y-104072534D01*
X150901410Y-104236421D01*
X150901411Y-104236424D01*
X150993782Y-104383432D01*
X150993785Y-104383435D01*
X150993787Y-104383438D01*
X151116562Y-104506213D01*
X151116564Y-104506214D01*
X151116567Y-104506217D01*
X151244312Y-104586484D01*
X151288736Y-104636708D01*
X151300000Y-104687244D01*
X151300000Y-105199999D01*
X151300001Y-105200000D01*
X151822553Y-105200000D01*
X151822553Y-105199999D01*
X151803758Y-105142151D01*
X151803754Y-105142143D01*
X151711790Y-104982857D01*
X151604978Y-104864230D01*
X151575967Y-104803778D01*
X151584244Y-104737239D01*
X151627181Y-104685737D01*
X151680088Y-104666351D01*
X151772537Y-104655935D01*
X151936423Y-104598589D01*
X152083438Y-104506213D01*
X152206213Y-104383438D01*
X152298589Y-104236423D01*
X152355935Y-104072537D01*
X152375375Y-103900000D01*
X152355935Y-103727463D01*
X152298589Y-103563577D01*
X152298588Y-103563575D01*
X152206217Y-103416567D01*
X152206214Y-103416564D01*
X152206213Y-103416562D01*
X152083438Y-103293787D01*
X152083435Y-103293785D01*
X152083432Y-103293782D01*
X151936424Y-103201411D01*
X151936421Y-103201410D01*
X151772534Y-103144064D01*
X151772535Y-103144064D01*
X151600000Y-103124625D01*
X151427465Y-103144064D01*
X151263578Y-103201410D01*
X151263575Y-103201411D01*
X151116567Y-103293782D01*
X150993782Y-103416567D01*
X150901411Y-103563575D01*
X150901410Y-103563578D01*
X150844064Y-103727465D01*
X150824625Y-103900000D01*
X145059094Y-103900000D01*
X145031748Y-103865312D01*
X144906481Y-103706412D01*
X144901008Y-103698879D01*
X144631389Y-103295365D01*
X144626507Y-103287398D01*
X144409554Y-102900000D01*
X146624625Y-102900000D01*
X146644064Y-103072534D01*
X146701410Y-103236421D01*
X146701411Y-103236424D01*
X146793782Y-103383432D01*
X146793785Y-103383435D01*
X146793787Y-103383438D01*
X146916562Y-103506213D01*
X146916564Y-103506214D01*
X146916567Y-103506217D01*
X147029479Y-103577164D01*
X147063577Y-103598589D01*
X147227463Y-103655935D01*
X147400000Y-103675375D01*
X147572537Y-103655935D01*
X147736423Y-103598589D01*
X147883438Y-103506213D01*
X148006213Y-103383438D01*
X148098589Y-103236423D01*
X148155935Y-103072537D01*
X148175375Y-102900000D01*
X148155935Y-102727463D01*
X148098589Y-102563577D01*
X148084980Y-102541918D01*
X148006217Y-102416567D01*
X148006214Y-102416564D01*
X148006213Y-102416562D01*
X147883438Y-102293787D01*
X147883435Y-102293785D01*
X147883432Y-102293782D01*
X147736424Y-102201411D01*
X147736421Y-102201410D01*
X147572534Y-102144064D01*
X147572535Y-102144064D01*
X147400000Y-102124625D01*
X147227465Y-102144064D01*
X147063578Y-102201410D01*
X147063575Y-102201411D01*
X146916567Y-102293782D01*
X146793782Y-102416567D01*
X146701411Y-102563575D01*
X146701410Y-102563578D01*
X146644064Y-102727465D01*
X146624625Y-102900000D01*
X144409554Y-102900000D01*
X144389387Y-102863989D01*
X144385145Y-102855663D01*
X144237004Y-102534320D01*
X144227225Y-102467985D01*
X144254861Y-102406893D01*
X144311139Y-102370441D01*
X144345073Y-102365500D01*
X144888010Y-102365500D01*
X144913962Y-102362848D01*
X144991824Y-102354894D01*
X145160025Y-102299158D01*
X145310839Y-102206135D01*
X145436135Y-102080839D01*
X145529158Y-101930025D01*
X145584894Y-101761824D01*
X145595500Y-101658008D01*
X145595500Y-100881992D01*
X145584894Y-100778176D01*
X145529158Y-100609975D01*
X145436135Y-100459161D01*
X145310839Y-100333865D01*
X145255936Y-100300000D01*
X146706206Y-100300000D01*
X146715122Y-100379141D01*
X146774663Y-100549301D01*
X146774664Y-100549304D01*
X146870574Y-100701944D01*
X146998055Y-100829425D01*
X147150693Y-100925333D01*
X147200000Y-100942586D01*
X147200000Y-100942585D01*
X147800000Y-100942585D01*
X147849306Y-100925333D01*
X148001944Y-100829425D01*
X148129425Y-100701944D01*
X148225335Y-100549304D01*
X148225336Y-100549301D01*
X148284877Y-100379141D01*
X148293794Y-100300000D01*
X147800001Y-100300000D01*
X147800000Y-100300001D01*
X147800000Y-100942585D01*
X147200000Y-100942585D01*
X147200000Y-100300001D01*
X147199999Y-100300000D01*
X146706206Y-100300000D01*
X145255936Y-100300000D01*
X145235432Y-100287353D01*
X145160026Y-100240842D01*
X145058374Y-100207158D01*
X145031504Y-100198254D01*
X144976376Y-100160086D01*
X144950635Y-100098172D01*
X144962453Y-100032169D01*
X144989694Y-100000000D01*
X147095014Y-100000000D01*
X147114835Y-100125148D01*
X147172359Y-100238045D01*
X147261955Y-100327641D01*
X147374852Y-100385165D01*
X147468519Y-100400000D01*
X147531481Y-100400000D01*
X147625148Y-100385165D01*
X147738045Y-100327641D01*
X147827641Y-100238045D01*
X147885165Y-100125148D01*
X147904986Y-100000000D01*
X147885165Y-99874852D01*
X147827641Y-99761955D01*
X147738045Y-99672359D01*
X147625148Y-99614835D01*
X147531481Y-99600000D01*
X147468519Y-99600000D01*
X147374852Y-99614835D01*
X147261955Y-99672359D01*
X147172359Y-99761955D01*
X147114835Y-99874852D01*
X147095014Y-100000000D01*
X144989694Y-100000000D01*
X144998990Y-99989022D01*
X145088714Y-99923833D01*
X145211787Y-99787147D01*
X145211789Y-99787144D01*
X145262102Y-99699999D01*
X146706205Y-99699999D01*
X146706206Y-99700000D01*
X147199999Y-99700000D01*
X147200000Y-99699999D01*
X147200000Y-99057412D01*
X147800000Y-99057412D01*
X147800000Y-99699999D01*
X147800001Y-99700000D01*
X148293794Y-99700000D01*
X148293794Y-99699999D01*
X148284877Y-99620858D01*
X148225336Y-99450698D01*
X148225335Y-99450695D01*
X148129425Y-99298055D01*
X148001944Y-99170574D01*
X147849304Y-99074664D01*
X147800000Y-99057412D01*
X147200000Y-99057412D01*
X147150696Y-99074664D01*
X147150695Y-99074664D01*
X146998055Y-99170574D01*
X146870574Y-99298055D01*
X146774664Y-99450695D01*
X146774663Y-99450698D01*
X146715122Y-99620858D01*
X146706205Y-99699999D01*
X145262102Y-99699999D01*
X145303754Y-99627856D01*
X145303758Y-99627848D01*
X145322553Y-99570000D01*
X144765686Y-99570000D01*
X144827641Y-99508045D01*
X144885165Y-99395148D01*
X144904986Y-99270000D01*
X144885165Y-99144852D01*
X144827641Y-99031955D01*
X144738045Y-98942359D01*
X144625148Y-98884835D01*
X144531481Y-98870000D01*
X144468519Y-98870000D01*
X144374852Y-98884835D01*
X144261955Y-98942359D01*
X144200000Y-99004314D01*
X144200000Y-98445761D01*
X144800000Y-98445761D01*
X144800000Y-98969999D01*
X144800001Y-98970000D01*
X145322553Y-98970000D01*
X145322553Y-98969999D01*
X145303758Y-98912151D01*
X145303754Y-98912143D01*
X145211789Y-98752855D01*
X145211787Y-98752852D01*
X145191212Y-98730001D01*
X148674456Y-98730001D01*
X148694594Y-98960180D01*
X148725270Y-99074664D01*
X148754396Y-99183363D01*
X148852045Y-99392772D01*
X148927431Y-99500434D01*
X148984573Y-99582042D01*
X149147957Y-99745426D01*
X149236432Y-99807377D01*
X149278297Y-99859753D01*
X149285200Y-99926449D01*
X149254949Y-99986290D01*
X149221050Y-100011465D01*
X149078410Y-100082208D01*
X148930836Y-100200831D01*
X148930831Y-100200836D01*
X148812207Y-100348412D01*
X148728081Y-100518035D01*
X148728081Y-100518036D01*
X148728079Y-100518041D01*
X148705217Y-100609973D01*
X148682381Y-100701797D01*
X148679500Y-100744294D01*
X148679500Y-101795701D01*
X148679501Y-101795708D01*
X148682381Y-101838199D01*
X148682382Y-101838206D01*
X148682383Y-101838210D01*
X148728079Y-102021959D01*
X148812207Y-102191588D01*
X148880690Y-102276785D01*
X148930831Y-102339163D01*
X148930836Y-102339168D01*
X148950400Y-102354894D01*
X149078412Y-102457793D01*
X149248041Y-102541921D01*
X149431790Y-102587617D01*
X149431794Y-102587617D01*
X149431797Y-102587618D01*
X149460440Y-102589559D01*
X149474305Y-102590500D01*
X150525694Y-102590499D01*
X150525701Y-102590499D01*
X150525707Y-102590498D01*
X150532804Y-102590017D01*
X150568199Y-102587618D01*
X150568202Y-102587617D01*
X150568210Y-102587617D01*
X150751959Y-102541921D01*
X150921588Y-102457793D01*
X151069166Y-102339166D01*
X151187793Y-102191588D01*
X151271921Y-102021959D01*
X151317617Y-101838210D01*
X151320500Y-101795695D01*
X151320499Y-100744306D01*
X151320499Y-100744305D01*
X151320499Y-100744298D01*
X151320498Y-100744291D01*
X151317618Y-100701800D01*
X151317617Y-100701793D01*
X151317617Y-100701790D01*
X151271921Y-100518041D01*
X151187793Y-100348412D01*
X151069166Y-100200834D01*
X151069163Y-100200831D01*
X150975240Y-100125334D01*
X150921588Y-100082207D01*
X150820695Y-100032169D01*
X150778950Y-100011465D01*
X150729706Y-99965955D01*
X150712884Y-99901048D01*
X150733824Y-99837349D01*
X150763568Y-99807377D01*
X150792459Y-99787147D01*
X150852043Y-99745426D01*
X151015426Y-99582043D01*
X151147955Y-99392772D01*
X151245604Y-99183363D01*
X151305406Y-98960178D01*
X151325544Y-98730000D01*
X151305406Y-98499822D01*
X151245604Y-98276637D01*
X151147955Y-98067228D01*
X151015426Y-97877957D01*
X150852043Y-97714574D01*
X150662772Y-97582045D01*
X150453363Y-97484396D01*
X150375658Y-97463575D01*
X150230179Y-97424594D01*
X150230181Y-97424594D01*
X150000002Y-97404456D01*
X149999998Y-97404456D01*
X149769819Y-97424594D01*
X149546637Y-97484396D01*
X149546636Y-97484396D01*
X149337230Y-97582044D01*
X149337225Y-97582047D01*
X149147957Y-97714573D01*
X148984573Y-97877957D01*
X148852047Y-98067225D01*
X148852044Y-98067230D01*
X148754396Y-98276636D01*
X148754396Y-98276637D01*
X148694594Y-98499819D01*
X148674456Y-98729998D01*
X148674456Y-98730001D01*
X145191212Y-98730001D01*
X145088714Y-98616166D01*
X144939915Y-98508057D01*
X144800000Y-98445761D01*
X144200000Y-98445761D01*
X144086613Y-98496245D01*
X144020156Y-98505155D01*
X143959430Y-98476722D01*
X143923718Y-98419971D01*
X143923679Y-98355232D01*
X143943927Y-98283438D01*
X144007555Y-98057825D01*
X144010424Y-98048994D01*
X144102284Y-97800000D01*
X144924625Y-97800000D01*
X144944064Y-97972534D01*
X145001410Y-98136421D01*
X145001411Y-98136424D01*
X145093782Y-98283432D01*
X145093785Y-98283435D01*
X145093787Y-98283438D01*
X145216562Y-98406213D01*
X145216564Y-98406214D01*
X145216567Y-98406217D01*
X145363575Y-98498588D01*
X145363577Y-98498589D01*
X145527463Y-98555935D01*
X145700000Y-98575375D01*
X145872537Y-98555935D01*
X146036423Y-98498589D01*
X146157866Y-98422281D01*
X146183432Y-98406217D01*
X146183432Y-98406216D01*
X146183438Y-98406213D01*
X146306213Y-98283438D01*
X146310487Y-98276637D01*
X146398588Y-98136424D01*
X146398589Y-98136423D01*
X146455935Y-97972537D01*
X146475375Y-97800000D01*
X146455935Y-97627463D01*
X146398589Y-97463577D01*
X146398588Y-97463575D01*
X146306217Y-97316567D01*
X146306214Y-97316564D01*
X146306213Y-97316562D01*
X146183438Y-97193787D01*
X146183435Y-97193785D01*
X146183432Y-97193782D01*
X146036424Y-97101411D01*
X146036421Y-97101410D01*
X145872534Y-97044064D01*
X145872535Y-97044064D01*
X145700000Y-97024625D01*
X145527465Y-97044064D01*
X145363578Y-97101410D01*
X145363575Y-97101411D01*
X145216567Y-97193782D01*
X145093782Y-97316567D01*
X145001411Y-97463575D01*
X145001410Y-97463578D01*
X144944064Y-97627465D01*
X144924625Y-97800000D01*
X144102284Y-97800000D01*
X144178414Y-97593641D01*
X144181965Y-97585068D01*
X144385151Y-97144321D01*
X144389387Y-97136010D01*
X144626513Y-96712590D01*
X144631382Y-96704643D01*
X144901017Y-96301108D01*
X144906472Y-96293599D01*
X145206932Y-95912468D01*
X145212995Y-95905370D01*
X145333829Y-95774651D01*
X145391369Y-95740233D01*
X145458387Y-95742387D01*
X145513602Y-95780431D01*
X145539463Y-95842106D01*
X145544064Y-95882942D01*
X145601410Y-96046828D01*
X145601411Y-96046831D01*
X145693782Y-96193839D01*
X145693785Y-96193842D01*
X145693787Y-96193845D01*
X145816562Y-96316620D01*
X145816564Y-96316621D01*
X145816567Y-96316624D01*
X145963575Y-96408995D01*
X145963577Y-96408996D01*
X146127463Y-96466342D01*
X146300000Y-96485782D01*
X146472537Y-96466342D01*
X146636423Y-96408996D01*
X146783438Y-96316620D01*
X146906213Y-96193845D01*
X146907222Y-96192240D01*
X146998588Y-96046831D01*
X146998589Y-96046830D01*
X147055935Y-95882944D01*
X147075375Y-95710407D01*
X147055935Y-95537870D01*
X146998589Y-95373984D01*
X146998588Y-95373982D01*
X146906217Y-95226974D01*
X146906214Y-95226971D01*
X146906213Y-95226969D01*
X146783438Y-95104194D01*
X146783435Y-95104192D01*
X146783432Y-95104189D01*
X146636424Y-95011818D01*
X146636420Y-95011816D01*
X146532630Y-94975499D01*
X146478143Y-94936419D01*
X146453434Y-94874086D01*
X146466348Y-94808289D01*
X146505818Y-94764234D01*
X146704643Y-94631382D01*
X146712590Y-94626513D01*
X147136014Y-94389384D01*
X147144321Y-94385151D01*
X147585068Y-94181965D01*
X147593641Y-94178414D01*
X147744312Y-94122827D01*
X147811210Y-94118284D01*
X147869946Y-94150628D01*
G37*
%TD.AperFunction*%
%TD*%
M02*
