%TF.GenerationSoftware,KiCad,Pcbnew,7.0.11*%
%TF.CreationDate,2026-04-20T08:28:50-05:00*%
%TF.ProjectId,lightsaber_necklace,6c696768-7473-4616-9265-725f6e65636b,rev?*%
%TF.SameCoordinates,Original*%
%TF.FileFunction,Paste,Top*%
%TF.FilePolarity,Positive*%
%FSLAX46Y46*%
G04 Gerber Fmt 4.6, Leading zero omitted, Abs format (unit mm)*
G04 Created by KiCad (PCBNEW 7.0.11) date 2026-04-20 08:28:50*
%MOMM*%
%LPD*%
G01*
G04 APERTURE LIST*
G04 Aperture macros list*
%AMRoundRect*
0 Rectangle with rounded corners*
0 $1 Rounding radius*
0 $2 $3 $4 $5 $6 $7 $8 $9 X,Y pos of 4 corners*
0 Add a 4 corners polygon primitive as box body*
4,1,4,$2,$3,$4,$5,$6,$7,$8,$9,$2,$3,0*
0 Add four circle primitives for the rounded corners*
1,1,$1+$1,$2,$3*
1,1,$1+$1,$4,$5*
1,1,$1+$1,$6,$7*
1,1,$1+$1,$8,$9*
0 Add four rect primitives between the rounded corners*
20,1,$1+$1,$2,$3,$4,$5,0*
20,1,$1+$1,$4,$5,$6,$7,0*
20,1,$1+$1,$6,$7,$8,$9,0*
20,1,$1+$1,$8,$9,$2,$3,0*%
%AMFreePoly0*
4,1,14,0.334644,0.085355,0.385355,0.034644,0.400000,-0.000711,0.400000,-0.050000,0.385355,-0.085355,0.350000,-0.100000,-0.350000,-0.100000,-0.385355,-0.085355,-0.400000,-0.050000,-0.400000,0.050000,-0.385355,0.085355,-0.350000,0.100000,0.299289,0.100000,0.334644,0.085355,0.334644,0.085355,$1*%
%AMFreePoly1*
4,1,14,0.385355,0.085355,0.400000,0.050000,0.400000,0.000711,0.385355,-0.034644,0.334644,-0.085355,0.299289,-0.100000,-0.350000,-0.100000,-0.385355,-0.085355,-0.400000,-0.050000,-0.400000,0.050000,-0.385355,0.085355,-0.350000,0.100000,0.350000,0.100000,0.385355,0.085355,0.385355,0.085355,$1*%
%AMFreePoly2*
4,1,14,0.085355,0.385355,0.100000,0.350000,0.100000,-0.350000,0.085355,-0.385355,0.050000,-0.400000,-0.050000,-0.400000,-0.085355,-0.385355,-0.100000,-0.350000,-0.100000,0.299289,-0.085355,0.334644,-0.034644,0.385355,0.000711,0.400000,0.050000,0.400000,0.085355,0.385355,0.085355,0.385355,$1*%
%AMFreePoly3*
4,1,14,0.034644,0.385355,0.085355,0.334644,0.100000,0.299289,0.100000,-0.350000,0.085355,-0.385355,0.050000,-0.400000,-0.050000,-0.400000,-0.085355,-0.385355,-0.100000,-0.350000,-0.100000,0.350000,-0.085355,0.385355,-0.050000,0.400000,-0.000711,0.400000,0.034644,0.385355,0.034644,0.385355,$1*%
%AMFreePoly4*
4,1,14,0.385355,0.085355,0.400000,0.050000,0.400000,-0.050000,0.385355,-0.085355,0.350000,-0.100000,-0.299289,-0.100000,-0.334644,-0.085355,-0.385355,-0.034644,-0.400000,0.000711,-0.400000,0.050000,-0.385355,0.085355,-0.350000,0.100000,0.350000,0.100000,0.385355,0.085355,0.385355,0.085355,$1*%
%AMFreePoly5*
4,1,14,0.385355,0.085355,0.400000,0.050000,0.400000,-0.050000,0.385355,-0.085355,0.350000,-0.100000,-0.350000,-0.100000,-0.385355,-0.085355,-0.400000,-0.050000,-0.400000,-0.000711,-0.385355,0.034644,-0.334644,0.085355,-0.299289,0.100000,0.350000,0.100000,0.385355,0.085355,0.385355,0.085355,$1*%
%AMFreePoly6*
4,1,14,0.085355,0.385355,0.100000,0.350000,0.100000,-0.299289,0.085355,-0.334644,0.034644,-0.385355,-0.000711,-0.400000,-0.050000,-0.400000,-0.085355,-0.385355,-0.100000,-0.350000,-0.100000,0.350000,-0.085355,0.385355,-0.050000,0.400000,0.050000,0.400000,0.085355,0.385355,0.085355,0.385355,$1*%
%AMFreePoly7*
4,1,14,0.085355,0.385355,0.100000,0.350000,0.100000,-0.350000,0.085355,-0.385355,0.050000,-0.400000,0.000711,-0.400000,-0.034644,-0.385355,-0.085355,-0.334644,-0.100000,-0.299289,-0.100000,0.350000,-0.085355,0.385355,-0.050000,0.400000,0.050000,0.400000,0.085355,0.385355,0.085355,0.385355,$1*%
G04 Aperture macros list end*
%ADD10RoundRect,0.150000X-0.200000X0.150000X-0.200000X-0.150000X0.200000X-0.150000X0.200000X0.150000X0*%
%ADD11RoundRect,0.112500X-0.112500X0.187500X-0.112500X-0.187500X0.112500X-0.187500X0.112500X0.187500X0*%
%ADD12RoundRect,0.140000X0.170000X-0.140000X0.170000X0.140000X-0.170000X0.140000X-0.170000X-0.140000X0*%
%ADD13RoundRect,0.250000X-0.650000X0.325000X-0.650000X-0.325000X0.650000X-0.325000X0.650000X0.325000X0*%
%ADD14RoundRect,0.135000X-0.135000X-0.185000X0.135000X-0.185000X0.135000X0.185000X-0.135000X0.185000X0*%
%ADD15RoundRect,0.150000X0.512500X0.150000X-0.512500X0.150000X-0.512500X-0.150000X0.512500X-0.150000X0*%
%ADD16RoundRect,0.250000X0.390000X0.050000X-0.390000X0.050000X-0.390000X-0.050000X0.390000X-0.050000X0*%
%ADD17RoundRect,0.200000X0.275000X-0.200000X0.275000X0.200000X-0.275000X0.200000X-0.275000X-0.200000X0*%
%ADD18RoundRect,0.250000X0.412500X0.050000X-0.412500X0.050000X-0.412500X-0.050000X0.412500X-0.050000X0*%
%ADD19RoundRect,0.100000X0.466250X0.200000X-0.466250X0.200000X-0.466250X-0.200000X0.466250X-0.200000X0*%
%ADD20RoundRect,0.270000X0.385000X0.030000X-0.385000X0.030000X-0.385000X-0.030000X0.385000X-0.030000X0*%
%ADD21RoundRect,0.137500X0.137500X-0.600000X0.137500X0.600000X-0.137500X0.600000X-0.137500X-0.600000X0*%
%ADD22RoundRect,0.150000X0.150000X-0.587500X0.150000X0.587500X-0.150000X0.587500X-0.150000X-0.587500X0*%
%ADD23RoundRect,0.150000X0.150000X-0.520000X0.150000X0.520000X-0.150000X0.520000X-0.150000X-0.520000X0*%
%ADD24RoundRect,0.250000X-0.475000X0.250000X-0.475000X-0.250000X0.475000X-0.250000X0.475000X0.250000X0*%
%ADD25RoundRect,0.218750X0.218750X0.256250X-0.218750X0.256250X-0.218750X-0.256250X0.218750X-0.256250X0*%
%ADD26RoundRect,0.250000X-0.162500X0.150000X-0.162500X-0.150000X0.162500X-0.150000X0.162500X0.150000X0*%
%ADD27RoundRect,0.240000X-0.197500X0.160000X-0.197500X-0.160000X0.197500X-0.160000X0.197500X0.160000X0*%
%ADD28RoundRect,0.250000X0.475000X-0.250000X0.475000X0.250000X-0.475000X0.250000X-0.475000X-0.250000X0*%
%ADD29RoundRect,0.150000X0.145000X-0.120000X0.145000X0.120000X-0.145000X0.120000X-0.145000X-0.120000X0*%
%ADD30RoundRect,0.127500X0.167500X-0.127500X0.167500X0.127500X-0.167500X0.127500X-0.167500X-0.127500X0*%
%ADD31RoundRect,0.100000X-0.100000X0.712500X-0.100000X-0.712500X0.100000X-0.712500X0.100000X0.712500X0*%
%ADD32RoundRect,0.078750X-0.078750X0.733750X-0.078750X-0.733750X0.078750X-0.733750X0.078750X0.733750X0*%
%ADD33RoundRect,0.112500X0.112500X-0.187500X0.112500X0.187500X-0.112500X0.187500X-0.112500X-0.187500X0*%
%ADD34RoundRect,0.250000X0.650000X-0.325000X0.650000X0.325000X-0.650000X0.325000X-0.650000X-0.325000X0*%
%ADD35RoundRect,0.500000X0.400000X-0.075000X0.400000X0.075000X-0.400000X0.075000X-0.400000X-0.075000X0*%
%ADD36RoundRect,0.240000X-0.222500X0.160000X-0.222500X-0.160000X0.222500X-0.160000X0.222500X0.160000X0*%
%ADD37RoundRect,0.200000X-0.275000X0.200000X-0.275000X-0.200000X0.275000X-0.200000X0.275000X0.200000X0*%
%ADD38RoundRect,0.172500X-0.172500X-0.172500X0.172500X-0.172500X0.172500X0.172500X-0.172500X0.172500X0*%
%ADD39FreePoly0,0.000000*%
%ADD40RoundRect,0.050000X-0.350000X-0.050000X0.350000X-0.050000X0.350000X0.050000X-0.350000X0.050000X0*%
%ADD41FreePoly1,0.000000*%
%ADD42FreePoly2,0.000000*%
%ADD43RoundRect,0.050000X-0.050000X-0.350000X0.050000X-0.350000X0.050000X0.350000X-0.050000X0.350000X0*%
%ADD44FreePoly3,0.000000*%
%ADD45FreePoly4,0.000000*%
%ADD46FreePoly5,0.000000*%
%ADD47FreePoly6,0.000000*%
%ADD48RoundRect,0.050000X-0.050000X-0.325000X0.050000X-0.325000X0.050000X0.325000X-0.050000X0.325000X0*%
%ADD49FreePoly7,0.000000*%
G04 APERTURE END LIST*
D10*
%TO.C,D4*%
X105800000Y-84200000D03*
X105800000Y-82800000D03*
%TD*%
D11*
%TO.C,D8*%
X94200000Y-70450000D03*
X94200000Y-72550000D03*
%TD*%
D12*
%TO.C,C8*%
X101600000Y-103880000D03*
X101600000Y-102920000D03*
%TD*%
D13*
%TO.C,C7*%
X97500000Y-93525000D03*
X97500000Y-96475000D03*
%TD*%
D14*
%TO.C,R4*%
X96670000Y-102580000D03*
X97690000Y-102580000D03*
%TD*%
D15*
%TO.C,Q1*%
X97187500Y-105712500D03*
D16*
X97187500Y-104762500D03*
D15*
X97187500Y-103812500D03*
X94912500Y-103812500D03*
X94912500Y-104762500D03*
X94912500Y-105712500D03*
%TD*%
D17*
%TO.C,R6*%
X106050000Y-101350000D03*
X106050000Y-99700000D03*
%TD*%
D18*
%TO.C,Q3*%
X104057500Y-97952500D03*
D15*
X104057500Y-97002500D03*
X104057500Y-96052500D03*
X101782500Y-96052500D03*
D19*
X101876250Y-97002500D03*
D20*
X101782500Y-97952500D03*
%TD*%
D21*
%TO.C,Q4*%
X93700000Y-94187500D03*
D22*
X95600000Y-94187500D03*
D23*
X94650000Y-92380000D03*
%TD*%
D24*
%TO.C,C4*%
X94200000Y-86200000D03*
X94200000Y-88100000D03*
%TD*%
D25*
%TO.C,L1*%
X95497500Y-102330000D03*
X93922500Y-102330000D03*
%TD*%
D26*
%TO.C,R3*%
X98262500Y-99450000D03*
D27*
X98237500Y-101100000D03*
%TD*%
D28*
%TO.C,C5*%
X94200000Y-83800000D03*
X94200000Y-81900000D03*
%TD*%
D14*
%TO.C,R1*%
X93890000Y-90600000D03*
X94910000Y-90600000D03*
%TD*%
D29*
%TO.C,R2*%
X106275000Y-97080000D03*
D30*
X106275000Y-96075000D03*
%TD*%
D31*
%TO.C,U1*%
X95550000Y-96275000D03*
X94900000Y-96275000D03*
X94250000Y-96275000D03*
X93600000Y-96275000D03*
X93600000Y-100500000D03*
X94250000Y-100500000D03*
X94900000Y-100500000D03*
D32*
X95507500Y-100500000D03*
%TD*%
D15*
%TO.C,Q2*%
X105720000Y-94890000D03*
X105720000Y-93940000D03*
X105720000Y-92990000D03*
X103445000Y-92990000D03*
X103445000Y-93940000D03*
X103445000Y-94890000D03*
%TD*%
D14*
%TO.C,R7*%
X93890000Y-89400000D03*
X94910000Y-89400000D03*
%TD*%
D33*
%TO.C,D2*%
X105750000Y-77850000D03*
X105750000Y-75750000D03*
%TD*%
D34*
%TO.C,C2*%
X105600000Y-72875000D03*
D35*
X105600000Y-69925000D03*
%TD*%
D33*
%TO.C,D9*%
X94190000Y-75950000D03*
X94190000Y-73850000D03*
%TD*%
D36*
%TO.C,R5*%
X101797500Y-99375000D03*
D37*
X101810000Y-101025000D03*
%TD*%
D38*
%TO.C,U2*%
X103775000Y-103725000D03*
X103775000Y-104575000D03*
X104625000Y-103725000D03*
X104625000Y-104575000D03*
D39*
X102750000Y-103350000D03*
D40*
X102750000Y-103750000D03*
X102750000Y-104150000D03*
X102750000Y-104550000D03*
D41*
X102750000Y-104950000D03*
D42*
X103400000Y-105600000D03*
D43*
X103800000Y-105600000D03*
X104200000Y-105600000D03*
X104600000Y-105600000D03*
D44*
X105000000Y-105600000D03*
D45*
X105650000Y-104950000D03*
D40*
X105650000Y-104550000D03*
X105650000Y-104150000D03*
X105650000Y-103750000D03*
D46*
X105650000Y-103350000D03*
D47*
X105000000Y-102700000D03*
D43*
X104600000Y-102700000D03*
D48*
X104200000Y-102725000D03*
D43*
X103800000Y-102700000D03*
D49*
X103400000Y-102700000D03*
%TD*%
D33*
%TO.C,D1*%
X105750000Y-81350000D03*
X105750000Y-79250000D03*
%TD*%
D24*
%TO.C,C9*%
X94200000Y-77700000D03*
X94200000Y-79600000D03*
%TD*%
M02*
