%TF.GenerationSoftware,KiCad,Pcbnew,7.0.11*%
%TF.CreationDate,2026-03-17T23:03:58-05:00*%
%TF.ProjectId,lightsaber_necklace,6c696768-7473-4616-9265-725f6e65636b,rev?*%
%TF.SameCoordinates,Original*%
%TF.FileFunction,Soldermask,Top*%
%TF.FilePolarity,Negative*%
%FSLAX46Y46*%
G04 Gerber Fmt 4.6, Leading zero omitted, Abs format (unit mm)*
G04 Created by KiCad (PCBNEW 7.0.11) date 2026-03-17 23:03:58*
%MOMM*%
%LPD*%
G01*
G04 APERTURE LIST*
G04 Aperture macros list*
%AMRoundRect*
0 Rectangle with rounded corners*
0 $1 Rounding radius*
0 $2 $3 $4 $5 $6 $7 $8 $9 X,Y pos of 4 corners*
0 Add a 4 corners polygon primitive as box body*
4,1,4,$2,$3,$4,$5,$6,$7,$8,$9,$2,$3,0*
0 Add four circle primitives for the rounded corners*
1,1,$1+$1,$2,$3*
1,1,$1+$1,$4,$5*
1,1,$1+$1,$6,$7*
1,1,$1+$1,$8,$9*
0 Add four rect primitives between the rounded corners*
20,1,$1+$1,$2,$3,$4,$5,0*
20,1,$1+$1,$4,$5,$6,$7,0*
20,1,$1+$1,$6,$7,$8,$9,0*
20,1,$1+$1,$8,$9,$2,$3,0*%
%AMFreePoly0*
4,1,14,0.334644,0.085355,0.385355,0.034644,0.400000,-0.000711,0.400000,-0.050000,0.385355,-0.085355,0.350000,-0.100000,-0.350000,-0.100000,-0.385355,-0.085355,-0.400000,-0.050000,-0.400000,0.050000,-0.385355,0.085355,-0.350000,0.100000,0.299289,0.100000,0.334644,0.085355,0.334644,0.085355,$1*%
%AMFreePoly1*
4,1,14,0.385355,0.085355,0.400000,0.050000,0.400000,0.000711,0.385355,-0.034644,0.334644,-0.085355,0.299289,-0.100000,-0.350000,-0.100000,-0.385355,-0.085355,-0.400000,-0.050000,-0.400000,0.050000,-0.385355,0.085355,-0.350000,0.100000,0.350000,0.100000,0.385355,0.085355,0.385355,0.085355,$1*%
%AMFreePoly2*
4,1,14,0.085355,0.385355,0.100000,0.350000,0.100000,-0.350000,0.085355,-0.385355,0.050000,-0.400000,-0.050000,-0.400000,-0.085355,-0.385355,-0.100000,-0.350000,-0.100000,0.299289,-0.085355,0.334644,-0.034644,0.385355,0.000711,0.400000,0.050000,0.400000,0.085355,0.385355,0.085355,0.385355,$1*%
%AMFreePoly3*
4,1,14,0.034644,0.385355,0.085355,0.334644,0.100000,0.299289,0.100000,-0.350000,0.085355,-0.385355,0.050000,-0.400000,-0.050000,-0.400000,-0.085355,-0.385355,-0.100000,-0.350000,-0.100000,0.350000,-0.085355,0.385355,-0.050000,0.400000,-0.000711,0.400000,0.034644,0.385355,0.034644,0.385355,$1*%
%AMFreePoly4*
4,1,14,0.385355,0.085355,0.400000,0.050000,0.400000,-0.050000,0.385355,-0.085355,0.350000,-0.100000,-0.299289,-0.100000,-0.334644,-0.085355,-0.385355,-0.034644,-0.400000,0.000711,-0.400000,0.050000,-0.385355,0.085355,-0.350000,0.100000,0.350000,0.100000,0.385355,0.085355,0.385355,0.085355,$1*%
%AMFreePoly5*
4,1,14,0.385355,0.085355,0.400000,0.050000,0.400000,-0.050000,0.385355,-0.085355,0.350000,-0.100000,-0.350000,-0.100000,-0.385355,-0.085355,-0.400000,-0.050000,-0.400000,-0.000711,-0.385355,0.034644,-0.334644,0.085355,-0.299289,0.100000,0.350000,0.100000,0.385355,0.085355,0.385355,0.085355,$1*%
%AMFreePoly6*
4,1,14,0.085355,0.385355,0.100000,0.350000,0.100000,-0.299289,0.085355,-0.334644,0.034644,-0.385355,-0.000711,-0.400000,-0.050000,-0.400000,-0.085355,-0.385355,-0.100000,-0.350000,-0.100000,0.350000,-0.085355,0.385355,-0.050000,0.400000,0.050000,0.400000,0.085355,0.385355,0.085355,0.385355,$1*%
%AMFreePoly7*
4,1,14,0.085355,0.385355,0.100000,0.350000,0.100000,-0.350000,0.085355,-0.385355,0.050000,-0.400000,0.000711,-0.400000,-0.034644,-0.385355,-0.085355,-0.334644,-0.100000,-0.299289,-0.100000,0.350000,-0.085355,0.385355,-0.050000,0.400000,0.050000,0.400000,0.085355,0.385355,0.085355,0.385355,$1*%
G04 Aperture macros list end*
%ADD10C,0.100000*%
%ADD11C,2.000000*%
%ADD12RoundRect,0.150000X-0.200000X0.150000X-0.200000X-0.150000X0.200000X-0.150000X0.200000X0.150000X0*%
%ADD13RoundRect,0.112500X-0.112500X0.187500X-0.112500X-0.187500X0.112500X-0.187500X0.112500X0.187500X0*%
%ADD14RoundRect,0.520000X-3.230000X-0.530000X3.230000X-0.530000X3.230000X0.530000X-3.230000X0.530000X0*%
%ADD15RoundRect,0.525000X-3.225000X-0.525000X3.225000X-0.525000X3.225000X0.525000X-3.225000X0.525000X0*%
%ADD16RoundRect,0.400000X0.100000X-0.100000X0.100000X0.100000X-0.100000X0.100000X-0.100000X-0.100000X0*%
%ADD17O,1.000000X1.000000*%
%ADD18RoundRect,0.140000X0.170000X-0.140000X0.170000X0.140000X-0.170000X0.140000X-0.170000X-0.140000X0*%
%ADD19RoundRect,0.250000X-0.650000X0.325000X-0.650000X-0.325000X0.650000X-0.325000X0.650000X0.325000X0*%
%ADD20RoundRect,0.135000X-0.135000X-0.185000X0.135000X-0.185000X0.135000X0.185000X-0.135000X0.185000X0*%
%ADD21RoundRect,0.150000X0.512500X0.150000X-0.512500X0.150000X-0.512500X-0.150000X0.512500X-0.150000X0*%
%ADD22RoundRect,0.250000X0.390000X0.050000X-0.390000X0.050000X-0.390000X-0.050000X0.390000X-0.050000X0*%
%ADD23RoundRect,0.200000X0.275000X-0.200000X0.275000X0.200000X-0.275000X0.200000X-0.275000X-0.200000X0*%
%ADD24RoundRect,0.250000X0.412500X0.050000X-0.412500X0.050000X-0.412500X-0.050000X0.412500X-0.050000X0*%
%ADD25RoundRect,0.100000X0.466250X0.200000X-0.466250X0.200000X-0.466250X-0.200000X0.466250X-0.200000X0*%
%ADD26RoundRect,0.270000X0.385000X0.030000X-0.385000X0.030000X-0.385000X-0.030000X0.385000X-0.030000X0*%
%ADD27C,1.000000*%
%ADD28RoundRect,0.250000X-0.250000X-0.250000X0.250000X-0.250000X0.250000X0.250000X-0.250000X0.250000X0*%
%ADD29RoundRect,0.137500X0.137500X-0.600000X0.137500X0.600000X-0.137500X0.600000X-0.137500X-0.600000X0*%
%ADD30RoundRect,0.150000X0.150000X-0.587500X0.150000X0.587500X-0.150000X0.587500X-0.150000X-0.587500X0*%
%ADD31RoundRect,0.150000X0.150000X-0.520000X0.150000X0.520000X-0.150000X0.520000X-0.150000X-0.520000X0*%
%ADD32RoundRect,0.250000X-0.475000X0.250000X-0.475000X-0.250000X0.475000X-0.250000X0.475000X0.250000X0*%
%ADD33RoundRect,0.218750X0.218750X0.256250X-0.218750X0.256250X-0.218750X-0.256250X0.218750X-0.256250X0*%
%ADD34RoundRect,0.250000X-0.162500X0.150000X-0.162500X-0.150000X0.162500X-0.150000X0.162500X0.150000X0*%
%ADD35RoundRect,0.240000X-0.197500X0.160000X-0.197500X-0.160000X0.197500X-0.160000X0.197500X0.160000X0*%
%ADD36RoundRect,0.250000X0.475000X-0.250000X0.475000X0.250000X-0.475000X0.250000X-0.475000X-0.250000X0*%
%ADD37RoundRect,0.150000X0.145000X-0.120000X0.145000X0.120000X-0.145000X0.120000X-0.145000X-0.120000X0*%
%ADD38RoundRect,0.127500X0.167500X-0.127500X0.167500X0.127500X-0.167500X0.127500X-0.167500X-0.127500X0*%
%ADD39C,3.750000*%
%ADD40RoundRect,0.100000X-0.100000X0.712500X-0.100000X-0.712500X0.100000X-0.712500X0.100000X0.712500X0*%
%ADD41RoundRect,0.078750X-0.078750X0.733750X-0.078750X-0.733750X0.078750X-0.733750X0.078750X0.733750X0*%
%ADD42RoundRect,0.112500X0.112500X-0.187500X0.112500X0.187500X-0.112500X0.187500X-0.112500X-0.187500X0*%
%ADD43RoundRect,0.250000X0.650000X-0.325000X0.650000X0.325000X-0.650000X0.325000X-0.650000X-0.325000X0*%
%ADD44RoundRect,0.500000X0.400000X-0.075000X0.400000X0.075000X-0.400000X0.075000X-0.400000X-0.075000X0*%
%ADD45RoundRect,0.240000X-0.222500X0.160000X-0.222500X-0.160000X0.222500X-0.160000X0.222500X0.160000X0*%
%ADD46RoundRect,0.200000X-0.275000X0.200000X-0.275000X-0.200000X0.275000X-0.200000X0.275000X0.200000X0*%
%ADD47FreePoly0,0.000000*%
%ADD48RoundRect,0.050000X-0.350000X-0.050000X0.350000X-0.050000X0.350000X0.050000X-0.350000X0.050000X0*%
%ADD49FreePoly1,0.000000*%
%ADD50FreePoly2,0.000000*%
%ADD51RoundRect,0.050000X-0.050000X-0.350000X0.050000X-0.350000X0.050000X0.350000X-0.050000X0.350000X0*%
%ADD52FreePoly3,0.000000*%
%ADD53FreePoly4,0.000000*%
%ADD54FreePoly5,0.000000*%
%ADD55FreePoly6,0.000000*%
%ADD56RoundRect,0.050000X-0.050000X-0.325000X0.050000X-0.325000X0.050000X0.325000X-0.050000X0.325000X0*%
%ADD57FreePoly7,0.000000*%
%ADD58R,1.700000X1.700000*%
%ADD59O,1.670000X1.500000*%
%ADD60C,1.500000*%
%ADD61C,2.100000*%
%ADD62C,1.480000*%
%ADD63O,1.800000X2.400000*%
%ADD64O,1.670000X1.450000*%
%ADD65C,1.400000*%
G04 APERTURE END LIST*
D10*
G36*
X103039281Y-85715758D02*
G01*
X103052268Y-85716127D01*
X103065190Y-85716743D01*
X103078049Y-85717606D01*
X103090843Y-85718715D01*
X103103574Y-85720070D01*
X103116241Y-85721672D01*
X103128844Y-85723521D01*
X103141383Y-85725615D01*
X103153858Y-85727956D01*
X103166269Y-85730544D01*
X103178616Y-85733378D01*
X103190899Y-85736458D01*
X103203118Y-85739785D01*
X103215274Y-85743359D01*
X103227365Y-85747178D01*
X103239393Y-85751245D01*
X103251356Y-85755557D01*
X103263256Y-85760116D01*
X103275092Y-85764922D01*
X103286864Y-85769974D01*
X103298571Y-85775272D01*
X103310215Y-85780817D01*
X103321796Y-85786608D01*
X103333312Y-85792646D01*
X103344764Y-85798930D01*
X103356152Y-85805461D01*
X103367477Y-85812238D01*
X103378737Y-85819261D01*
X103389934Y-85826531D01*
X103401066Y-85834048D01*
X103412135Y-85841810D01*
X103426500Y-85852451D01*
X103440410Y-85863434D01*
X103453863Y-85874761D01*
X103466861Y-85886430D01*
X103479402Y-85898443D01*
X103491487Y-85910798D01*
X103503116Y-85923497D01*
X103514289Y-85936538D01*
X103525007Y-85949923D01*
X103535268Y-85963651D01*
X103545073Y-85977722D01*
X103554422Y-85992135D01*
X103563315Y-86006892D01*
X103571751Y-86021992D01*
X103579732Y-86037435D01*
X103587257Y-86053221D01*
X103594326Y-86069350D01*
X103600938Y-86085822D01*
X103607095Y-86102637D01*
X103612796Y-86119795D01*
X103618040Y-86137296D01*
X103622829Y-86155140D01*
X103627161Y-86173327D01*
X103631038Y-86191858D01*
X103634458Y-86210731D01*
X103637422Y-86229947D01*
X103639930Y-86249507D01*
X103641983Y-86269409D01*
X103643579Y-86289654D01*
X103644719Y-86310243D01*
X103645403Y-86331174D01*
X103645631Y-86352449D01*
X103645601Y-86361483D01*
X103645509Y-86370589D01*
X103645356Y-86379766D01*
X103645143Y-86389014D01*
X103644868Y-86398334D01*
X103644532Y-86407725D01*
X103644135Y-86417187D01*
X103643677Y-86426720D01*
X103643158Y-86436325D01*
X103642578Y-86446001D01*
X103641937Y-86455748D01*
X103641235Y-86465566D01*
X103640471Y-86475456D01*
X103639647Y-86485417D01*
X103638762Y-86495449D01*
X103637815Y-86505553D01*
X103636808Y-86515727D01*
X103635739Y-86525973D01*
X103634610Y-86536291D01*
X103633419Y-86546679D01*
X103632167Y-86557139D01*
X103630854Y-86567670D01*
X103629480Y-86578273D01*
X103628046Y-86588946D01*
X103626550Y-86599691D01*
X103624993Y-86610507D01*
X103623374Y-86621395D01*
X103621695Y-86632353D01*
X103619955Y-86643383D01*
X103618154Y-86654485D01*
X103616291Y-86665657D01*
X103614368Y-86676901D01*
X103504947Y-86590952D01*
X103508924Y-86582705D01*
X103512793Y-86573683D01*
X103516556Y-86563883D01*
X103520212Y-86553308D01*
X103523761Y-86541957D01*
X103526353Y-86532933D01*
X103528885Y-86523474D01*
X103531356Y-86513577D01*
X103533768Y-86503244D01*
X103527806Y-86494927D01*
X103521552Y-86487119D01*
X103515006Y-86479821D01*
X103508168Y-86473033D01*
X103501038Y-86466755D01*
X103493617Y-86460988D01*
X103483267Y-86454091D01*
X103472398Y-86448101D01*
X103461010Y-86443018D01*
X103455122Y-86440816D01*
X103445336Y-86437705D01*
X103433933Y-86434636D01*
X103420910Y-86431610D01*
X103411329Y-86429616D01*
X103401029Y-86427641D01*
X103390010Y-86425685D01*
X103378271Y-86423748D01*
X103365812Y-86421830D01*
X103352635Y-86419930D01*
X103338738Y-86418050D01*
X103324121Y-86416188D01*
X103308786Y-86414346D01*
X103292730Y-86412522D01*
X103275956Y-86410717D01*
X103267299Y-86409822D01*
X102754389Y-86358604D01*
X102756763Y-86375833D01*
X102759428Y-86392516D01*
X102762385Y-86408652D01*
X102765632Y-86424240D01*
X102769170Y-86439282D01*
X102772999Y-86453777D01*
X102777119Y-86467724D01*
X102781530Y-86481125D01*
X102786233Y-86493979D01*
X102791226Y-86506286D01*
X102796510Y-86518046D01*
X102802085Y-86529259D01*
X102807951Y-86539925D01*
X102814108Y-86550043D01*
X102820556Y-86559615D01*
X102827295Y-86568640D01*
X102834325Y-86577119D01*
X102841647Y-86585050D01*
X102849259Y-86592434D01*
X102857162Y-86599271D01*
X102865356Y-86605561D01*
X102873841Y-86611304D01*
X102882617Y-86616500D01*
X102891684Y-86621150D01*
X102901042Y-86625252D01*
X102910691Y-86628807D01*
X102920631Y-86631816D01*
X102930862Y-86634277D01*
X102941384Y-86636191D01*
X102952197Y-86637559D01*
X102963301Y-86638379D01*
X102974696Y-86638653D01*
X102985089Y-86638413D01*
X102995567Y-86637694D01*
X103006132Y-86636497D01*
X103016782Y-86634820D01*
X103027518Y-86632663D01*
X103038340Y-86630028D01*
X103049248Y-86626914D01*
X103060242Y-86623320D01*
X103071322Y-86619248D01*
X103082487Y-86614696D01*
X103089979Y-86611395D01*
X103192316Y-86711632D01*
X103181161Y-86715559D01*
X103171120Y-86718221D01*
X103160087Y-86720457D01*
X103148062Y-86722267D01*
X103135045Y-86723651D01*
X103124631Y-86724409D01*
X103113658Y-86724928D01*
X103102128Y-86725208D01*
X103094131Y-86725261D01*
X103081539Y-86725120D01*
X103069134Y-86724698D01*
X103056916Y-86723994D01*
X103044885Y-86723008D01*
X103033041Y-86721741D01*
X103021384Y-86720192D01*
X103009915Y-86718361D01*
X102998632Y-86716249D01*
X102987536Y-86713855D01*
X102976627Y-86711179D01*
X102965905Y-86708222D01*
X102955370Y-86704983D01*
X102945022Y-86701462D01*
X102934861Y-86697660D01*
X102924888Y-86693576D01*
X102915101Y-86689211D01*
X102905501Y-86684564D01*
X102896088Y-86679635D01*
X102886862Y-86674425D01*
X102877823Y-86668933D01*
X102868971Y-86663159D01*
X102860306Y-86657104D01*
X102851828Y-86650767D01*
X102843538Y-86644148D01*
X102835434Y-86637248D01*
X102827517Y-86630066D01*
X102819787Y-86622602D01*
X102812244Y-86614857D01*
X102804888Y-86606831D01*
X102797719Y-86598522D01*
X102790737Y-86589932D01*
X102783942Y-86581060D01*
X102777331Y-86571909D01*
X102770929Y-86562509D01*
X102764737Y-86552859D01*
X102758755Y-86542959D01*
X102752983Y-86532811D01*
X102747420Y-86522412D01*
X102742068Y-86511765D01*
X102736926Y-86500868D01*
X102731993Y-86489721D01*
X102727270Y-86478325D01*
X102722758Y-86466680D01*
X102718455Y-86454785D01*
X102714362Y-86442640D01*
X102710479Y-86430247D01*
X102706805Y-86417603D01*
X102703342Y-86404711D01*
X102700089Y-86391569D01*
X102697045Y-86378177D01*
X102694212Y-86364536D01*
X102691588Y-86350646D01*
X102689174Y-86336506D01*
X102686970Y-86322117D01*
X102684976Y-86307478D01*
X102683192Y-86292590D01*
X102681618Y-86277452D01*
X102680254Y-86262065D01*
X102679900Y-86257267D01*
X102739002Y-86257267D01*
X103256308Y-86309145D01*
X103321032Y-86315300D01*
X103332108Y-86316517D01*
X103342804Y-86317862D01*
X103353121Y-86319334D01*
X103363057Y-86320932D01*
X103377250Y-86323569D01*
X103390589Y-86326491D01*
X103403073Y-86329700D01*
X103414703Y-86333194D01*
X103425479Y-86336974D01*
X103435400Y-86341041D01*
X103444467Y-86345393D01*
X103452679Y-86350031D01*
X103463105Y-86357113D01*
X103471065Y-86363426D01*
X103479145Y-86370596D01*
X103487345Y-86378624D01*
X103495666Y-86387510D01*
X103504107Y-86397254D01*
X103512668Y-86407855D01*
X103518442Y-86415399D01*
X103524269Y-86423325D01*
X103530150Y-86431632D01*
X103536084Y-86440320D01*
X103542072Y-86449389D01*
X103545148Y-86432533D01*
X103548025Y-86415818D01*
X103550705Y-86399245D01*
X103553185Y-86382811D01*
X103555467Y-86366519D01*
X103557551Y-86350367D01*
X103559436Y-86334357D01*
X103561123Y-86318487D01*
X103562611Y-86302758D01*
X103563901Y-86287170D01*
X103564993Y-86271722D01*
X103565886Y-86256416D01*
X103566580Y-86241250D01*
X103567076Y-86226225D01*
X103567374Y-86211341D01*
X103567473Y-86196598D01*
X103567340Y-86183109D01*
X103566939Y-86170010D01*
X103566271Y-86157301D01*
X103565336Y-86144981D01*
X103564134Y-86133052D01*
X103562665Y-86121512D01*
X103560928Y-86110363D01*
X103558925Y-86099603D01*
X103556654Y-86089232D01*
X103554116Y-86079252D01*
X103551311Y-86069662D01*
X103548239Y-86060461D01*
X103544900Y-86051650D01*
X103541294Y-86043229D01*
X103535383Y-86031329D01*
X103533279Y-86027557D01*
X103526285Y-86016411D01*
X103518218Y-86005311D01*
X103512244Y-85997937D01*
X103505792Y-85990583D01*
X103498864Y-85983250D01*
X103491458Y-85975937D01*
X103483576Y-85968646D01*
X103475216Y-85961375D01*
X103466380Y-85954124D01*
X103457066Y-85946894D01*
X103447275Y-85939685D01*
X103437008Y-85932496D01*
X103426263Y-85925328D01*
X103415041Y-85918180D01*
X103403342Y-85911053D01*
X103394991Y-85906144D01*
X103386576Y-85901391D01*
X103378098Y-85896793D01*
X103369556Y-85892351D01*
X103360951Y-85888066D01*
X103352283Y-85883936D01*
X103343551Y-85879962D01*
X103325897Y-85872481D01*
X103307989Y-85865624D01*
X103289827Y-85859390D01*
X103271412Y-85853779D01*
X103252742Y-85848792D01*
X103233819Y-85844428D01*
X103224263Y-85842480D01*
X103214642Y-85840688D01*
X103204959Y-85839051D01*
X103195212Y-85837571D01*
X103185401Y-85836246D01*
X103175527Y-85835077D01*
X103165590Y-85834064D01*
X103155589Y-85833207D01*
X103145525Y-85832506D01*
X103135397Y-85831960D01*
X103125206Y-85831571D01*
X103114951Y-85831337D01*
X103104633Y-85831259D01*
X103082138Y-85831655D01*
X103060357Y-85832843D01*
X103039291Y-85834824D01*
X103018938Y-85837596D01*
X102999300Y-85841161D01*
X102980376Y-85845517D01*
X102962165Y-85850666D01*
X102944669Y-85856607D01*
X102927887Y-85863340D01*
X102911820Y-85870865D01*
X102896466Y-85879182D01*
X102881826Y-85888292D01*
X102867901Y-85898193D01*
X102854690Y-85908887D01*
X102842193Y-85920373D01*
X102830409Y-85932650D01*
X102819341Y-85945720D01*
X102808986Y-85959582D01*
X102799345Y-85974237D01*
X102790419Y-85989683D01*
X102782206Y-86005921D01*
X102774708Y-86022952D01*
X102767924Y-86040775D01*
X102761854Y-86059390D01*
X102756498Y-86078796D01*
X102751856Y-86098996D01*
X102747928Y-86119987D01*
X102744715Y-86141770D01*
X102742215Y-86164345D01*
X102740430Y-86187713D01*
X102739359Y-86211873D01*
X102739002Y-86236824D01*
X102739002Y-86257267D01*
X102679900Y-86257267D01*
X102679099Y-86246428D01*
X102678155Y-86230542D01*
X102677420Y-86214407D01*
X102676895Y-86198022D01*
X102676580Y-86181388D01*
X102676475Y-86164504D01*
X102676817Y-86136888D01*
X102677842Y-86110149D01*
X102679549Y-86084286D01*
X102681940Y-86059300D01*
X102685014Y-86035191D01*
X102688772Y-86011959D01*
X102693212Y-85989603D01*
X102698335Y-85968124D01*
X102704142Y-85947521D01*
X102710631Y-85927796D01*
X102717804Y-85908946D01*
X102725660Y-85890974D01*
X102734199Y-85873879D01*
X102743421Y-85857660D01*
X102753326Y-85842317D01*
X102763914Y-85827852D01*
X102775186Y-85814263D01*
X102787140Y-85801551D01*
X102799778Y-85789716D01*
X102813099Y-85778757D01*
X102827103Y-85768675D01*
X102841790Y-85759469D01*
X102857160Y-85751141D01*
X102873213Y-85743689D01*
X102889949Y-85737114D01*
X102907369Y-85731415D01*
X102925471Y-85726593D01*
X102944257Y-85722648D01*
X102963726Y-85719580D01*
X102983878Y-85717388D01*
X103004713Y-85716073D01*
X103026231Y-85715635D01*
X103039281Y-85715758D01*
G37*
G36*
X103449140Y-85282947D02*
G01*
X103458491Y-85286617D01*
X103467028Y-85290945D01*
X103476504Y-85296509D01*
X103486919Y-85303310D01*
X103495346Y-85309222D01*
X103504301Y-85315829D01*
X103510565Y-85320621D01*
X103518874Y-85327226D01*
X103526920Y-85333827D01*
X103534703Y-85340422D01*
X103542221Y-85347013D01*
X103549475Y-85353598D01*
X103556466Y-85360178D01*
X103563193Y-85366752D01*
X103575856Y-85379887D01*
X103587463Y-85393000D01*
X103598015Y-85406093D01*
X103607512Y-85419165D01*
X103615953Y-85432217D01*
X103623340Y-85445248D01*
X103629671Y-85458259D01*
X103634947Y-85471249D01*
X103639168Y-85484218D01*
X103642334Y-85497167D01*
X103644444Y-85510095D01*
X103645499Y-85523002D01*
X103645631Y-85529448D01*
X103645144Y-85541082D01*
X103643682Y-85552326D01*
X103641245Y-85563179D01*
X103637834Y-85573642D01*
X103633449Y-85583715D01*
X103628088Y-85593397D01*
X103621754Y-85602690D01*
X103614444Y-85611592D01*
X103606160Y-85620103D01*
X103596902Y-85628225D01*
X103590188Y-85633422D01*
X103579524Y-85640690D01*
X103568323Y-85647243D01*
X103556586Y-85653080D01*
X103544312Y-85658203D01*
X103531502Y-85662612D01*
X103518154Y-85666305D01*
X103504270Y-85669284D01*
X103489850Y-85671547D01*
X103479938Y-85672659D01*
X103469788Y-85673453D01*
X103459399Y-85673930D01*
X103448771Y-85674089D01*
X103429249Y-85673672D01*
X103419478Y-85673152D01*
X103409700Y-85672423D01*
X103399916Y-85671486D01*
X103390124Y-85670341D01*
X103380327Y-85668987D01*
X103370522Y-85667426D01*
X103360711Y-85665656D01*
X103350893Y-85663677D01*
X103341068Y-85661491D01*
X103331237Y-85659097D01*
X103321399Y-85656494D01*
X103311555Y-85653683D01*
X103301703Y-85650663D01*
X103291845Y-85647436D01*
X103281981Y-85644000D01*
X103272109Y-85640356D01*
X103262231Y-85636504D01*
X103252347Y-85632444D01*
X103242455Y-85628175D01*
X103232557Y-85623698D01*
X103222653Y-85619013D01*
X103212741Y-85614120D01*
X103202823Y-85609018D01*
X103192898Y-85603708D01*
X103182967Y-85598190D01*
X103173029Y-85592464D01*
X103163084Y-85586530D01*
X103153133Y-85580387D01*
X103143174Y-85574036D01*
X103133210Y-85567477D01*
X103123382Y-85560816D01*
X103113867Y-85554159D01*
X103104663Y-85547506D01*
X103095772Y-85540858D01*
X103087192Y-85534214D01*
X103078925Y-85527575D01*
X103070969Y-85520939D01*
X103063326Y-85514308D01*
X103055994Y-85507681D01*
X103048974Y-85501059D01*
X103042267Y-85494441D01*
X103029787Y-85481217D01*
X103018556Y-85468011D01*
X103008573Y-85454822D01*
X102999837Y-85441650D01*
X102993508Y-85430530D01*
X103067264Y-85430530D01*
X103067871Y-85440415D01*
X103069694Y-85450123D01*
X103072732Y-85459653D01*
X103076984Y-85469005D01*
X103082452Y-85478179D01*
X103089134Y-85487176D01*
X103097032Y-85495995D01*
X103106144Y-85504636D01*
X103116472Y-85513100D01*
X103128015Y-85521385D01*
X103136385Y-85526810D01*
X103145165Y-85532047D01*
X103154226Y-85537039D01*
X103163567Y-85541787D01*
X103173189Y-85546292D01*
X103183091Y-85550553D01*
X103193274Y-85554569D01*
X103203738Y-85558342D01*
X103214481Y-85561871D01*
X103225506Y-85565157D01*
X103236810Y-85568198D01*
X103248396Y-85570996D01*
X103260262Y-85573549D01*
X103272408Y-85575859D01*
X103284835Y-85577925D01*
X103297542Y-85579747D01*
X103310530Y-85581325D01*
X103313522Y-85572519D01*
X103315866Y-85563104D01*
X103317128Y-85554211D01*
X103317369Y-85548572D01*
X103317168Y-85539058D01*
X103316567Y-85529696D01*
X103315565Y-85520484D01*
X103314163Y-85511423D01*
X103312360Y-85502514D01*
X103310156Y-85493755D01*
X103307551Y-85485148D01*
X103304546Y-85476692D01*
X103301140Y-85468387D01*
X103297333Y-85460233D01*
X103293126Y-85452230D01*
X103288517Y-85444378D01*
X103283509Y-85436678D01*
X103278099Y-85429129D01*
X103272289Y-85421730D01*
X103266078Y-85414483D01*
X103259599Y-85407509D01*
X103252984Y-85400985D01*
X103242808Y-85392042D01*
X103232327Y-85384112D01*
X103221542Y-85377194D01*
X103210451Y-85371289D01*
X103199056Y-85366396D01*
X103187356Y-85362515D01*
X103175351Y-85359647D01*
X103163042Y-85357791D01*
X103150427Y-85356947D01*
X103146154Y-85356891D01*
X103132056Y-85357538D01*
X103119344Y-85359480D01*
X103108019Y-85362716D01*
X103098081Y-85367246D01*
X103089529Y-85373071D01*
X103082364Y-85380191D01*
X103076586Y-85388604D01*
X103072195Y-85398313D01*
X103069190Y-85409315D01*
X103067572Y-85421613D01*
X103067264Y-85430530D01*
X102993508Y-85430530D01*
X102992350Y-85428495D01*
X102986110Y-85415358D01*
X102981118Y-85402237D01*
X102977375Y-85389134D01*
X102974879Y-85376048D01*
X102973631Y-85362979D01*
X102973475Y-85356451D01*
X102973827Y-85347321D01*
X102975675Y-85334730D01*
X102979108Y-85323464D01*
X102984124Y-85313524D01*
X102990725Y-85304910D01*
X102998911Y-85297620D01*
X103008680Y-85291656D01*
X103020034Y-85287017D01*
X103032972Y-85283704D01*
X103047494Y-85281716D01*
X103058056Y-85281127D01*
X103063600Y-85281053D01*
X103076251Y-85281398D01*
X103088864Y-85282431D01*
X103101439Y-85284152D01*
X103113975Y-85286562D01*
X103126474Y-85289661D01*
X103138934Y-85293449D01*
X103151356Y-85297925D01*
X103163740Y-85303090D01*
X103176086Y-85308944D01*
X103188393Y-85315486D01*
X103200663Y-85322717D01*
X103212894Y-85330636D01*
X103225087Y-85339244D01*
X103237242Y-85348541D01*
X103249358Y-85358526D01*
X103261437Y-85369200D01*
X103273238Y-85380343D01*
X103284583Y-85391790D01*
X103295472Y-85403541D01*
X103305905Y-85415596D01*
X103315881Y-85427955D01*
X103325402Y-85440617D01*
X103334467Y-85453584D01*
X103343075Y-85466855D01*
X103351228Y-85480430D01*
X103358924Y-85494308D01*
X103366165Y-85508491D01*
X103372949Y-85522977D01*
X103379278Y-85537768D01*
X103385150Y-85552862D01*
X103390566Y-85568261D01*
X103395526Y-85583963D01*
X103414455Y-85582062D01*
X103432163Y-85579436D01*
X103448649Y-85576086D01*
X103463914Y-85572011D01*
X103477958Y-85567211D01*
X103490781Y-85561686D01*
X103502383Y-85555437D01*
X103512763Y-85548463D01*
X103521922Y-85540764D01*
X103529860Y-85532340D01*
X103536577Y-85523192D01*
X103542072Y-85513319D01*
X103546346Y-85502721D01*
X103549399Y-85491399D01*
X103551231Y-85479352D01*
X103551842Y-85466580D01*
X103551292Y-85453731D01*
X103549644Y-85441177D01*
X103546896Y-85428919D01*
X103543049Y-85416956D01*
X103538103Y-85405289D01*
X103532058Y-85393916D01*
X103524914Y-85382840D01*
X103516671Y-85372058D01*
X103507329Y-85361572D01*
X103496887Y-85351381D01*
X103485347Y-85341486D01*
X103472707Y-85331886D01*
X103458968Y-85322582D01*
X103444131Y-85313573D01*
X103428194Y-85304859D01*
X103411158Y-85296441D01*
X103417963Y-85289002D01*
X103426340Y-85283593D01*
X103436546Y-85281113D01*
X103438513Y-85281053D01*
X103449140Y-85282947D01*
G37*
G36*
X103610216Y-85243464D02*
G01*
X103536210Y-85158175D01*
X103544591Y-85148930D01*
X103552147Y-85139249D01*
X103558879Y-85129131D01*
X103564787Y-85118576D01*
X103569870Y-85107585D01*
X103574129Y-85096157D01*
X103577564Y-85084293D01*
X103580174Y-85071992D01*
X103581960Y-85059254D01*
X103582922Y-85046080D01*
X103583105Y-85037055D01*
X103582737Y-85026274D01*
X103581632Y-85016189D01*
X103579790Y-85006800D01*
X103577213Y-84998106D01*
X103571965Y-84986369D01*
X103565060Y-84976197D01*
X103556497Y-84967590D01*
X103546278Y-84960547D01*
X103534401Y-84955070D01*
X103520867Y-84951158D01*
X103510923Y-84949419D01*
X103500244Y-84948376D01*
X103488827Y-84948028D01*
X103478664Y-84948745D01*
X103467775Y-84950895D01*
X103456161Y-84954479D01*
X103443822Y-84959496D01*
X103435192Y-84963638D01*
X103426240Y-84968416D01*
X103416965Y-84973832D01*
X103407368Y-84979885D01*
X103397449Y-84986574D01*
X103387207Y-84993901D01*
X103376642Y-85001866D01*
X103365755Y-85010467D01*
X103354546Y-85019705D01*
X103343014Y-85029581D01*
X103302958Y-85064752D01*
X103292007Y-85074122D01*
X103281320Y-85082887D01*
X103270896Y-85091048D01*
X103260735Y-85098604D01*
X103250837Y-85105556D01*
X103241203Y-85111903D01*
X103231832Y-85117646D01*
X103222725Y-85122784D01*
X103213880Y-85127318D01*
X103201108Y-85132985D01*
X103188927Y-85137292D01*
X103177340Y-85140239D01*
X103166345Y-85141826D01*
X103159344Y-85142128D01*
X103144818Y-85141583D01*
X103130736Y-85139949D01*
X103117095Y-85137224D01*
X103103897Y-85133411D01*
X103091140Y-85128507D01*
X103078826Y-85122514D01*
X103066955Y-85115432D01*
X103055525Y-85107259D01*
X103048151Y-85101206D01*
X103040974Y-85094668D01*
X103033993Y-85087646D01*
X103027208Y-85080139D01*
X103020701Y-85072251D01*
X103014614Y-85064137D01*
X103008947Y-85055798D01*
X103003700Y-85047235D01*
X102998872Y-85038447D01*
X102994464Y-85029433D01*
X102990476Y-85020195D01*
X102986908Y-85010731D01*
X102983760Y-85001043D01*
X102981031Y-84991130D01*
X102978722Y-84980991D01*
X102976833Y-84970628D01*
X102975364Y-84960040D01*
X102974314Y-84949227D01*
X102973685Y-84938189D01*
X102973475Y-84926926D01*
X102973651Y-84917571D01*
X102974179Y-84908054D01*
X102975059Y-84898374D01*
X102976291Y-84888533D01*
X102977875Y-84878529D01*
X102979812Y-84868363D01*
X102982100Y-84858034D01*
X102984740Y-84847544D01*
X102987733Y-84836891D01*
X102991077Y-84826075D01*
X102993503Y-84818775D01*
X103067264Y-84892854D01*
X103061677Y-84901767D01*
X103056639Y-84910865D01*
X103052151Y-84920149D01*
X103048213Y-84929618D01*
X103044824Y-84939273D01*
X103041985Y-84949113D01*
X103039695Y-84959139D01*
X103037955Y-84969351D01*
X103036764Y-84979747D01*
X103036123Y-84990329D01*
X103036001Y-84997487D01*
X103036544Y-85009508D01*
X103038173Y-85020347D01*
X103040889Y-85030003D01*
X103044691Y-85038477D01*
X103051449Y-85047936D01*
X103060139Y-85055293D01*
X103070760Y-85060548D01*
X103083311Y-85063701D01*
X103093993Y-85064686D01*
X103097794Y-85064752D01*
X103109434Y-85063584D01*
X103119015Y-85061175D01*
X103129326Y-85057453D01*
X103140367Y-85052417D01*
X103152138Y-85046067D01*
X103160391Y-85041104D01*
X103168968Y-85035557D01*
X103177870Y-85029426D01*
X103187096Y-85022711D01*
X103196646Y-85015413D01*
X103206521Y-85007530D01*
X103216720Y-84999064D01*
X103227243Y-84990013D01*
X103271939Y-84951545D01*
X103284003Y-84941217D01*
X103295768Y-84931555D01*
X103307236Y-84922560D01*
X103318407Y-84914231D01*
X103329279Y-84906568D01*
X103339854Y-84899572D01*
X103350132Y-84893242D01*
X103360111Y-84887578D01*
X103369793Y-84882581D01*
X103379177Y-84878249D01*
X103388264Y-84874585D01*
X103401336Y-84870337D01*
X103413738Y-84867588D01*
X103425470Y-84866339D01*
X103429232Y-84866256D01*
X103439839Y-84866548D01*
X103450290Y-84867427D01*
X103460585Y-84868891D01*
X103470723Y-84870940D01*
X103480704Y-84873576D01*
X103490529Y-84876797D01*
X103500198Y-84880603D01*
X103509710Y-84884995D01*
X103519066Y-84889973D01*
X103528265Y-84895536D01*
X103537307Y-84901685D01*
X103546194Y-84908420D01*
X103554923Y-84915740D01*
X103563497Y-84923645D01*
X103571914Y-84932137D01*
X103580174Y-84941214D01*
X103588100Y-84950645D01*
X103595515Y-84960256D01*
X103602419Y-84970044D01*
X103608811Y-84980012D01*
X103614692Y-84990158D01*
X103620062Y-85000482D01*
X103624920Y-85010986D01*
X103629267Y-85021667D01*
X103633102Y-85032528D01*
X103636426Y-85043567D01*
X103639239Y-85054784D01*
X103641540Y-85066181D01*
X103643330Y-85077755D01*
X103644608Y-85089509D01*
X103645375Y-85101441D01*
X103645631Y-85113551D01*
X103645320Y-85126459D01*
X103644386Y-85139216D01*
X103642830Y-85151822D01*
X103640651Y-85164278D01*
X103637849Y-85176583D01*
X103634425Y-85188737D01*
X103630379Y-85200741D01*
X103625710Y-85212593D01*
X103620418Y-85224296D01*
X103614504Y-85235847D01*
X103610216Y-85243464D01*
G37*
G36*
X103426789Y-84457173D02*
G01*
X103432254Y-84449864D01*
X103439669Y-84443224D01*
X103448283Y-84440467D01*
X103459242Y-84442360D01*
X103468447Y-84445726D01*
X103479171Y-84450775D01*
X103488211Y-84455667D01*
X103498105Y-84461504D01*
X103508853Y-84468289D01*
X103520456Y-84476020D01*
X103528665Y-84481700D01*
X103537255Y-84487801D01*
X103546224Y-84494323D01*
X103558262Y-84503321D01*
X103569523Y-84512238D01*
X103580007Y-84521072D01*
X103589715Y-84529823D01*
X103598646Y-84538492D01*
X103606800Y-84547079D01*
X103614178Y-84555583D01*
X103620779Y-84564005D01*
X103626604Y-84572344D01*
X103631652Y-84580601D01*
X103635923Y-84588776D01*
X103640874Y-84600883D01*
X103644078Y-84612805D01*
X103645534Y-84624541D01*
X103645631Y-84628412D01*
X103644604Y-84638974D01*
X103641525Y-84648127D01*
X103636392Y-84655872D01*
X103629206Y-84662209D01*
X103619966Y-84667138D01*
X103608674Y-84670658D01*
X103598857Y-84672375D01*
X103587886Y-84673299D01*
X103579930Y-84673475D01*
X103568420Y-84673024D01*
X103555168Y-84672014D01*
X103542870Y-84670878D01*
X103528549Y-84669418D01*
X103517879Y-84668263D01*
X103506310Y-84666965D01*
X103493842Y-84665523D01*
X103480475Y-84663936D01*
X103466210Y-84662205D01*
X103451046Y-84660329D01*
X103434983Y-84658310D01*
X103418022Y-84656146D01*
X103409204Y-84655010D01*
X103225045Y-84630830D01*
X103178394Y-84624675D01*
X103141025Y-84619619D01*
X103131023Y-84618420D01*
X103120478Y-84617410D01*
X103109747Y-84616734D01*
X103101214Y-84616542D01*
X103091433Y-84616966D01*
X103080526Y-84618984D01*
X103071276Y-84624020D01*
X103067297Y-84632839D01*
X103067264Y-84633907D01*
X103068226Y-84643001D01*
X103071111Y-84652230D01*
X103075919Y-84661595D01*
X103082651Y-84671095D01*
X103091307Y-84680729D01*
X103098145Y-84687228D01*
X103105839Y-84693786D01*
X103114388Y-84700405D01*
X103123791Y-84707084D01*
X103134049Y-84713822D01*
X103145162Y-84720621D01*
X103157130Y-84727480D01*
X103169953Y-84734399D01*
X103176685Y-84737882D01*
X103169510Y-84744025D01*
X103160901Y-84748394D01*
X103153726Y-84749532D01*
X103142968Y-84748447D01*
X103131332Y-84745191D01*
X103122029Y-84741324D01*
X103112232Y-84736236D01*
X103101942Y-84729928D01*
X103091158Y-84722398D01*
X103083694Y-84716700D01*
X103076011Y-84710459D01*
X103068108Y-84703676D01*
X103059986Y-84696350D01*
X103051645Y-84688481D01*
X103043084Y-84680069D01*
X103034655Y-84671470D01*
X103026769Y-84663092D01*
X103019428Y-84654935D01*
X103012630Y-84647000D01*
X103006376Y-84639287D01*
X103000666Y-84631795D01*
X102993120Y-84620973D01*
X102986798Y-84610649D01*
X102981700Y-84600823D01*
X102977825Y-84591496D01*
X102975174Y-84582668D01*
X102973543Y-84571671D01*
X102973475Y-84569061D01*
X102974574Y-84558190D01*
X102977871Y-84548769D01*
X102983367Y-84540797D01*
X102991060Y-84534275D01*
X103000952Y-84529202D01*
X103013042Y-84525578D01*
X103023552Y-84523812D01*
X103035299Y-84522860D01*
X103043817Y-84522679D01*
X103053751Y-84523079D01*
X103064577Y-84523943D01*
X103076015Y-84525069D01*
X103087068Y-84526279D01*
X103096906Y-84527424D01*
X103099504Y-84527735D01*
X103144933Y-84533230D01*
X103155146Y-84534498D01*
X103164889Y-84535711D01*
X103175369Y-84537017D01*
X103185299Y-84538256D01*
X103196603Y-84539666D01*
X103199644Y-84540045D01*
X103393328Y-84565324D01*
X103436803Y-84571479D01*
X103448474Y-84572932D01*
X103459398Y-84574243D01*
X103469574Y-84575411D01*
X103481981Y-84576745D01*
X103493060Y-84577825D01*
X103502811Y-84578651D01*
X103513131Y-84579326D01*
X103522777Y-84579612D01*
X103532654Y-84579071D01*
X103542645Y-84576667D01*
X103550451Y-84570221D01*
X103551842Y-84564225D01*
X103550743Y-84554432D01*
X103547445Y-84544588D01*
X103541950Y-84534694D01*
X103534256Y-84524750D01*
X103524364Y-84514756D01*
X103516549Y-84508065D01*
X103507756Y-84501352D01*
X103497986Y-84494617D01*
X103487240Y-84487859D01*
X103475516Y-84481079D01*
X103462815Y-84474277D01*
X103449138Y-84467452D01*
X103434483Y-84460605D01*
X103426789Y-84457173D01*
G37*
G36*
X102895317Y-84581371D02*
G01*
X102749993Y-84529494D01*
X102745866Y-84520934D01*
X102741547Y-84512568D01*
X102737035Y-84504393D01*
X102732331Y-84496411D01*
X102727433Y-84488621D01*
X102722343Y-84481024D01*
X102717061Y-84473618D01*
X102708775Y-84462871D01*
X102700056Y-84452557D01*
X102690904Y-84442676D01*
X102681317Y-84433227D01*
X102671297Y-84424211D01*
X102660844Y-84415628D01*
X102669533Y-84411420D01*
X102679153Y-84409527D01*
X102681116Y-84409473D01*
X102693001Y-84410144D01*
X102705086Y-84412159D01*
X102717372Y-84415516D01*
X102729858Y-84420216D01*
X102742544Y-84426260D01*
X102755431Y-84433646D01*
X102768518Y-84442375D01*
X102781805Y-84452447D01*
X102795293Y-84463862D01*
X102808981Y-84476620D01*
X102815900Y-84483503D01*
X102822869Y-84490721D01*
X102829889Y-84498275D01*
X102836958Y-84506165D01*
X102844078Y-84514391D01*
X102851247Y-84522952D01*
X102858467Y-84531849D01*
X102865737Y-84541082D01*
X102873057Y-84550651D01*
X102880427Y-84560555D01*
X102887847Y-84570795D01*
X102895317Y-84581371D01*
G37*
G36*
X103016828Y-83872950D02*
G01*
X103022079Y-83874214D01*
X103058227Y-83881029D01*
X103069792Y-83883325D01*
X103079603Y-83885266D01*
X103090394Y-83887390D01*
X103100408Y-83889324D01*
X103101946Y-83889602D01*
X103352540Y-83914221D01*
X103365192Y-83915381D01*
X103379519Y-83916553D01*
X103390000Y-83917340D01*
X103401226Y-83918133D01*
X103413196Y-83918930D01*
X103425910Y-83919733D01*
X103439368Y-83920541D01*
X103453570Y-83921354D01*
X103468517Y-83922173D01*
X103484208Y-83922996D01*
X103500642Y-83923825D01*
X103517821Y-83924659D01*
X103535745Y-83925497D01*
X103554412Y-83926341D01*
X103573824Y-83927191D01*
X103586088Y-83927743D01*
X103598152Y-83928328D01*
X103610014Y-83928947D01*
X103621676Y-83929598D01*
X103633137Y-83930283D01*
X103644397Y-83931001D01*
X103655457Y-83931751D01*
X103666315Y-83932535D01*
X103676973Y-83933352D01*
X103687430Y-83934202D01*
X103697686Y-83935085D01*
X103707741Y-83936001D01*
X103717596Y-83936950D01*
X103736702Y-83938947D01*
X103755005Y-83941076D01*
X103772504Y-83943338D01*
X103789201Y-83945732D01*
X103805094Y-83948258D01*
X103820183Y-83950917D01*
X103834470Y-83953707D01*
X103847953Y-83956630D01*
X103860632Y-83959685D01*
X103866671Y-83961263D01*
X103878497Y-83964575D01*
X103890160Y-83968194D01*
X103901661Y-83972118D01*
X103913001Y-83976348D01*
X103924178Y-83980883D01*
X103935192Y-83985724D01*
X103946045Y-83990871D01*
X103956735Y-83996324D01*
X103967264Y-84002082D01*
X103977630Y-84008146D01*
X103987833Y-84014515D01*
X103997875Y-84021191D01*
X104007754Y-84028172D01*
X104017472Y-84035458D01*
X104027027Y-84043051D01*
X104036420Y-84050949D01*
X104046998Y-84060159D01*
X104057241Y-84069406D01*
X104067148Y-84078692D01*
X104076720Y-84088015D01*
X104085955Y-84097377D01*
X104094855Y-84106776D01*
X104103418Y-84116212D01*
X104111646Y-84125687D01*
X104119538Y-84135199D01*
X104127095Y-84144749D01*
X104134315Y-84154337D01*
X104141200Y-84163963D01*
X104147749Y-84173626D01*
X104153961Y-84183327D01*
X104159839Y-84193066D01*
X104165380Y-84202843D01*
X104170585Y-84212658D01*
X104175455Y-84222510D01*
X104179989Y-84232400D01*
X104184187Y-84242328D01*
X104188049Y-84252294D01*
X104191575Y-84262297D01*
X104194765Y-84272338D01*
X104197620Y-84282418D01*
X104200139Y-84292534D01*
X104202322Y-84302689D01*
X104204169Y-84312881D01*
X104205680Y-84323111D01*
X104206855Y-84333379D01*
X104207695Y-84343685D01*
X104208199Y-84354029D01*
X104208367Y-84364410D01*
X104208130Y-84374333D01*
X104207420Y-84384046D01*
X104206237Y-84393547D01*
X104204581Y-84402837D01*
X104202451Y-84411916D01*
X104199849Y-84420783D01*
X104196773Y-84429439D01*
X104193224Y-84437884D01*
X104189201Y-84446118D01*
X104184706Y-84454140D01*
X104179737Y-84461952D01*
X104174295Y-84469552D01*
X104168379Y-84476941D01*
X104161991Y-84484118D01*
X104155129Y-84491085D01*
X104147794Y-84497840D01*
X104140134Y-84504281D01*
X104132235Y-84510308D01*
X104124098Y-84515918D01*
X104115722Y-84521113D01*
X104107108Y-84525892D01*
X104098255Y-84530256D01*
X104089164Y-84534204D01*
X104079834Y-84537737D01*
X104070265Y-84540854D01*
X104060458Y-84543555D01*
X104050413Y-84545841D01*
X104040129Y-84547711D01*
X104029607Y-84549166D01*
X104018846Y-84550205D01*
X104007846Y-84550828D01*
X103996608Y-84551036D01*
X103985057Y-84550837D01*
X103973515Y-84550242D01*
X103961982Y-84549249D01*
X103950458Y-84547859D01*
X103938943Y-84546072D01*
X103927437Y-84543887D01*
X103915940Y-84541306D01*
X103904452Y-84538328D01*
X103892973Y-84534952D01*
X103881504Y-84531179D01*
X103870043Y-84527009D01*
X103858592Y-84522442D01*
X103847149Y-84517478D01*
X103835716Y-84512117D01*
X103824292Y-84506358D01*
X103812876Y-84500203D01*
X103801470Y-84493650D01*
X103790073Y-84486700D01*
X103778685Y-84479353D01*
X103767306Y-84471609D01*
X103755936Y-84463468D01*
X103744575Y-84454930D01*
X103733223Y-84445994D01*
X103721881Y-84436661D01*
X103710547Y-84426932D01*
X103699222Y-84416805D01*
X103687907Y-84406281D01*
X103676600Y-84395360D01*
X103665303Y-84384041D01*
X103654014Y-84372326D01*
X103642735Y-84360213D01*
X103631465Y-84347704D01*
X103623910Y-84355443D01*
X103615351Y-84362420D01*
X103605787Y-84368637D01*
X103595218Y-84374092D01*
X103583644Y-84378786D01*
X103571066Y-84382719D01*
X103557484Y-84385891D01*
X103547870Y-84387582D01*
X103537811Y-84388936D01*
X103527304Y-84389951D01*
X103516352Y-84390627D01*
X103504952Y-84390966D01*
X103499085Y-84391008D01*
X103486270Y-84390888D01*
X103473559Y-84390528D01*
X103460954Y-84389928D01*
X103448455Y-84389088D01*
X103436060Y-84388008D01*
X103423772Y-84386688D01*
X103411588Y-84385128D01*
X103399511Y-84383328D01*
X103387538Y-84381288D01*
X103375671Y-84379008D01*
X103363910Y-84376488D01*
X103352253Y-84373728D01*
X103340703Y-84370728D01*
X103329257Y-84367488D01*
X103317917Y-84364008D01*
X103306683Y-84360288D01*
X103295554Y-84356328D01*
X103284530Y-84352128D01*
X103273612Y-84347688D01*
X103262799Y-84343008D01*
X103252092Y-84338088D01*
X103241490Y-84332929D01*
X103230994Y-84327529D01*
X103220603Y-84321889D01*
X103210317Y-84316009D01*
X103200137Y-84309889D01*
X103190062Y-84303529D01*
X103180093Y-84296929D01*
X103170229Y-84290089D01*
X103160470Y-84283009D01*
X103150817Y-84275689D01*
X103141270Y-84268129D01*
X103131908Y-84260392D01*
X103122844Y-84252569D01*
X103114076Y-84244658D01*
X103105606Y-84236661D01*
X103097433Y-84228577D01*
X103089558Y-84220406D01*
X103081979Y-84212149D01*
X103074698Y-84203805D01*
X103067714Y-84195374D01*
X103061027Y-84186857D01*
X103054638Y-84178252D01*
X103048545Y-84169561D01*
X103042750Y-84160784D01*
X103037252Y-84151919D01*
X103032051Y-84142968D01*
X103027147Y-84133930D01*
X103022541Y-84124805D01*
X103018231Y-84115594D01*
X103014219Y-84106296D01*
X103010504Y-84096911D01*
X103007324Y-84088098D01*
X103051632Y-84088098D01*
X103052096Y-84098574D01*
X103053487Y-84108847D01*
X103055806Y-84118915D01*
X103059051Y-84128778D01*
X103063224Y-84138437D01*
X103068325Y-84147892D01*
X103074353Y-84157142D01*
X103081308Y-84166188D01*
X103089191Y-84175030D01*
X103098000Y-84183667D01*
X103107738Y-84192100D01*
X103118402Y-84200329D01*
X103129994Y-84208353D01*
X103142514Y-84216173D01*
X103155960Y-84223789D01*
X103170334Y-84231200D01*
X103185385Y-84238280D01*
X103200861Y-84244904D01*
X103216763Y-84251071D01*
X103233090Y-84256781D01*
X103249842Y-84262034D01*
X103267020Y-84266831D01*
X103284624Y-84271171D01*
X103302653Y-84275054D01*
X103321108Y-84278480D01*
X103339988Y-84281449D01*
X103359294Y-84283961D01*
X103369106Y-84285046D01*
X103379025Y-84286017D01*
X103389050Y-84286874D01*
X103399181Y-84287616D01*
X103409419Y-84288244D01*
X103419764Y-84288758D01*
X103430214Y-84289158D01*
X103440771Y-84289443D01*
X103451435Y-84289614D01*
X103462205Y-84289672D01*
X103473059Y-84289485D01*
X103483213Y-84288926D01*
X103497132Y-84287389D01*
X103509474Y-84285013D01*
X103520241Y-84281799D01*
X103529433Y-84277746D01*
X103539237Y-84271038D01*
X103546239Y-84262840D01*
X103550441Y-84253151D01*
X103551842Y-84241971D01*
X103551017Y-84231578D01*
X103548545Y-84220760D01*
X103544423Y-84209517D01*
X103538653Y-84197849D01*
X103533890Y-84189834D01*
X103528394Y-84181631D01*
X103522166Y-84173238D01*
X103515205Y-84164657D01*
X103507512Y-84155886D01*
X103499085Y-84146927D01*
X103489926Y-84137779D01*
X103480034Y-84128441D01*
X103469410Y-84118915D01*
X103458053Y-84109200D01*
X103449867Y-84102490D01*
X103441615Y-84095962D01*
X103433295Y-84089614D01*
X103424908Y-84083447D01*
X103416454Y-84077462D01*
X103407932Y-84071658D01*
X103399343Y-84066035D01*
X103390687Y-84060593D01*
X103381964Y-84055332D01*
X103373173Y-84050253D01*
X103364316Y-84045355D01*
X103355390Y-84040638D01*
X103346398Y-84036102D01*
X103337338Y-84031747D01*
X103328211Y-84027574D01*
X103319017Y-84023581D01*
X103309756Y-84019770D01*
X103300427Y-84016140D01*
X103291031Y-84012691D01*
X103281568Y-84009423D01*
X103272038Y-84006337D01*
X103264009Y-84003907D01*
X103364752Y-84003907D01*
X103382032Y-84014304D01*
X103398764Y-84024640D01*
X103414948Y-84034914D01*
X103430583Y-84045127D01*
X103445669Y-84055278D01*
X103460207Y-84065368D01*
X103474196Y-84075397D01*
X103487636Y-84085364D01*
X103500528Y-84095270D01*
X103512872Y-84105114D01*
X103524666Y-84114897D01*
X103535913Y-84124619D01*
X103546610Y-84134279D01*
X103556759Y-84143878D01*
X103566359Y-84153415D01*
X103575411Y-84162891D01*
X103583914Y-84172306D01*
X103591869Y-84181659D01*
X103599275Y-84190951D01*
X103606132Y-84200181D01*
X103612441Y-84209350D01*
X103618201Y-84218458D01*
X103623413Y-84227504D01*
X103628076Y-84236489D01*
X103632191Y-84245413D01*
X103635756Y-84254275D01*
X103638774Y-84263075D01*
X103641242Y-84271815D01*
X103643162Y-84280493D01*
X103645357Y-84297664D01*
X103645631Y-84306158D01*
X103645245Y-84315122D01*
X103644558Y-84324190D01*
X103644410Y-84325942D01*
X103654359Y-84334773D01*
X103664241Y-84343324D01*
X103674055Y-84351594D01*
X103683802Y-84359584D01*
X103693480Y-84367294D01*
X103703091Y-84374723D01*
X103712634Y-84381872D01*
X103722110Y-84388741D01*
X103731517Y-84395329D01*
X103740857Y-84401637D01*
X103750129Y-84407665D01*
X103759334Y-84413412D01*
X103768470Y-84418879D01*
X103777539Y-84424066D01*
X103786541Y-84428972D01*
X103795474Y-84433598D01*
X103804340Y-84437943D01*
X103813138Y-84442008D01*
X103830531Y-84449298D01*
X103847652Y-84455465D01*
X103864503Y-84460512D01*
X103881083Y-84464437D01*
X103897392Y-84467240D01*
X103913430Y-84468922D01*
X103929197Y-84469483D01*
X103939774Y-84469269D01*
X103950133Y-84468628D01*
X103960275Y-84467559D01*
X103970199Y-84466062D01*
X103979906Y-84464138D01*
X103989395Y-84461786D01*
X103998667Y-84459007D01*
X104012167Y-84454035D01*
X104025177Y-84448102D01*
X104033578Y-84443612D01*
X104041762Y-84438695D01*
X104049729Y-84433350D01*
X104057478Y-84427577D01*
X104065009Y-84421376D01*
X104072323Y-84414748D01*
X104079333Y-84407804D01*
X104085890Y-84400656D01*
X104091995Y-84393303D01*
X104097648Y-84385746D01*
X104102849Y-84377984D01*
X104107597Y-84370019D01*
X104111893Y-84361848D01*
X104115737Y-84353474D01*
X104119129Y-84344895D01*
X104122069Y-84336112D01*
X104124556Y-84327124D01*
X104126591Y-84317932D01*
X104128174Y-84308536D01*
X104129304Y-84298935D01*
X104129983Y-84289130D01*
X104130209Y-84279120D01*
X104129734Y-84263714D01*
X104128308Y-84248765D01*
X104125933Y-84234272D01*
X104122607Y-84220236D01*
X104118331Y-84206657D01*
X104113104Y-84193535D01*
X104106928Y-84180870D01*
X104099801Y-84168661D01*
X104091723Y-84156910D01*
X104082696Y-84145615D01*
X104072718Y-84134777D01*
X104061790Y-84124395D01*
X104049912Y-84114471D01*
X104037084Y-84105003D01*
X104023305Y-84095992D01*
X104008576Y-84087438D01*
X103995872Y-84081212D01*
X103981148Y-84075228D01*
X103964403Y-84069486D01*
X103945638Y-84063987D01*
X103935497Y-84061327D01*
X103924851Y-84058729D01*
X103913700Y-84056191D01*
X103902044Y-84053713D01*
X103889883Y-84051297D01*
X103877216Y-84048940D01*
X103864044Y-84046644D01*
X103850368Y-84044409D01*
X103836186Y-84042234D01*
X103821498Y-84040120D01*
X103806306Y-84038066D01*
X103790608Y-84036073D01*
X103774405Y-84034140D01*
X103757697Y-84032268D01*
X103740484Y-84030457D01*
X103722766Y-84028706D01*
X103704542Y-84027015D01*
X103685814Y-84025385D01*
X103666580Y-84023816D01*
X103646841Y-84022307D01*
X103626597Y-84020859D01*
X103605847Y-84019471D01*
X103584593Y-84018143D01*
X103562833Y-84016877D01*
X103546460Y-84015950D01*
X103530619Y-84015039D01*
X103515311Y-84014144D01*
X103500536Y-84013263D01*
X103486292Y-84012399D01*
X103472581Y-84011550D01*
X103459403Y-84010716D01*
X103446756Y-84009897D01*
X103434642Y-84009095D01*
X103423061Y-84008307D01*
X103412012Y-84007535D01*
X103401495Y-84006779D01*
X103391511Y-84006038D01*
X103377532Y-84004955D01*
X103364752Y-84003907D01*
X103264009Y-84003907D01*
X103262440Y-84003432D01*
X103252775Y-84000708D01*
X103243043Y-83998165D01*
X103233243Y-83995803D01*
X103223376Y-83993622D01*
X103213442Y-83991623D01*
X103203441Y-83989805D01*
X103193372Y-83988168D01*
X103183236Y-83986712D01*
X103173033Y-83985437D01*
X103162763Y-83984344D01*
X103086803Y-83976210D01*
X103080518Y-83984776D01*
X103074851Y-83993740D01*
X103069802Y-84003102D01*
X103065371Y-84012862D01*
X103061559Y-84023019D01*
X103058364Y-84033575D01*
X103055788Y-84044529D01*
X103053831Y-84055881D01*
X103052491Y-84067631D01*
X103051770Y-84079778D01*
X103051632Y-84088098D01*
X103007324Y-84088098D01*
X103007087Y-84087440D01*
X103003966Y-84077881D01*
X103001143Y-84068237D01*
X102998616Y-84058505D01*
X102996388Y-84048686D01*
X102994456Y-84038781D01*
X102992821Y-84028789D01*
X102991484Y-84018711D01*
X102990444Y-84008545D01*
X102989701Y-83998293D01*
X102989255Y-83987955D01*
X102989106Y-83977529D01*
X102989263Y-83964486D01*
X102989733Y-83952065D01*
X102990517Y-83940267D01*
X102991614Y-83929090D01*
X102993024Y-83918536D01*
X102994748Y-83908603D01*
X102996785Y-83899293D01*
X102999135Y-83890605D01*
X103002757Y-83879988D01*
X103006936Y-83870478D01*
X103016828Y-83872950D01*
G37*
G36*
X103603866Y-83629776D02*
G01*
X103647829Y-83722100D01*
X103626580Y-83720341D01*
X103576510Y-83715286D01*
X103529127Y-83710230D01*
X103214298Y-83678136D01*
X103178394Y-83674399D01*
X103168148Y-83673524D01*
X103158412Y-83672764D01*
X103146962Y-83671980D01*
X103136311Y-83671378D01*
X103126459Y-83670958D01*
X103115692Y-83670695D01*
X103110739Y-83670662D01*
X103100550Y-83670972D01*
X103089723Y-83672227D01*
X103079534Y-83675009D01*
X103070703Y-83680883D01*
X103067306Y-83689229D01*
X103067264Y-83690446D01*
X103068226Y-83699203D01*
X103071111Y-83708079D01*
X103075919Y-83717075D01*
X103082651Y-83726191D01*
X103091307Y-83735426D01*
X103101885Y-83744782D01*
X103110006Y-83751085D01*
X103118982Y-83757442D01*
X103128813Y-83763852D01*
X103139499Y-83770315D01*
X103151039Y-83776831D01*
X103163435Y-83783401D01*
X103176685Y-83790024D01*
X103169674Y-83796931D01*
X103161839Y-83802303D01*
X103154214Y-83804312D01*
X103143617Y-83803254D01*
X103132095Y-83800081D01*
X103122848Y-83796312D01*
X103113081Y-83791353D01*
X103102795Y-83785204D01*
X103091990Y-83777865D01*
X103080665Y-83769336D01*
X103072826Y-83762989D01*
X103064756Y-83756113D01*
X103056456Y-83748707D01*
X103047925Y-83740773D01*
X103043572Y-83736608D01*
X103035084Y-83728257D01*
X103027143Y-83720128D01*
X103019750Y-83712224D01*
X103012905Y-83704542D01*
X103006607Y-83697084D01*
X103000857Y-83689848D01*
X102993258Y-83679414D01*
X102986892Y-83669483D01*
X102981758Y-83660053D01*
X102977856Y-83651126D01*
X102974570Y-83640005D01*
X102973475Y-83629776D01*
X102974136Y-83620309D01*
X102977074Y-83609134D01*
X102982364Y-83599615D01*
X102990004Y-83591751D01*
X102999995Y-83585543D01*
X103009031Y-83581973D01*
X103019390Y-83579335D01*
X103031070Y-83577628D01*
X103044073Y-83576852D01*
X103048702Y-83576800D01*
X103059051Y-83576992D01*
X103069460Y-83577476D01*
X103079386Y-83578125D01*
X103090240Y-83578991D01*
X103099993Y-83579877D01*
X103155436Y-83584713D01*
X103201842Y-83589549D01*
X103250446Y-83594605D01*
X103235560Y-83585429D01*
X103221003Y-83576144D01*
X103206777Y-83566751D01*
X103192881Y-83557250D01*
X103179315Y-83547640D01*
X103166079Y-83537923D01*
X103153174Y-83528097D01*
X103140598Y-83518163D01*
X103128352Y-83508121D01*
X103116437Y-83497971D01*
X103104852Y-83487712D01*
X103093596Y-83477346D01*
X103082671Y-83466871D01*
X103072076Y-83456288D01*
X103061811Y-83445597D01*
X103051877Y-83434797D01*
X103042383Y-83424044D01*
X103033501Y-83413492D01*
X103025232Y-83403141D01*
X103017576Y-83392990D01*
X103010532Y-83383041D01*
X103004100Y-83373293D01*
X102998282Y-83363745D01*
X102993075Y-83354398D01*
X102988481Y-83345253D01*
X102984500Y-83336308D01*
X102981131Y-83327564D01*
X102978375Y-83319021D01*
X102975389Y-83306584D01*
X102973781Y-83294598D01*
X102973475Y-83286859D01*
X102974295Y-83276135D01*
X102976755Y-83266465D01*
X102980855Y-83257850D01*
X102986595Y-83250290D01*
X102993975Y-83243785D01*
X103002996Y-83238335D01*
X103013656Y-83233940D01*
X103025956Y-83230599D01*
X103039897Y-83228314D01*
X103050102Y-83227376D01*
X103061035Y-83226907D01*
X103066775Y-83226849D01*
X103078396Y-83227088D01*
X103089602Y-83227654D01*
X103099562Y-83228346D01*
X103110408Y-83229251D01*
X103122139Y-83230369D01*
X103134756Y-83231700D01*
X103144800Y-83232838D01*
X103151772Y-83233663D01*
X103409204Y-83267076D01*
X103423436Y-83268843D01*
X103437096Y-83270437D01*
X103450186Y-83271857D01*
X103462705Y-83273103D01*
X103474652Y-83274176D01*
X103486029Y-83275074D01*
X103496834Y-83275799D01*
X103507069Y-83276349D01*
X103519827Y-83276813D01*
X103531570Y-83276967D01*
X103541913Y-83276543D01*
X103552011Y-83274915D01*
X103561548Y-83270845D01*
X103567158Y-83262705D01*
X103567473Y-83259602D01*
X103565519Y-83248631D01*
X103561489Y-83239998D01*
X103555261Y-83231017D01*
X103546835Y-83221688D01*
X103539996Y-83215275D01*
X103532180Y-83208708D01*
X103523387Y-83201987D01*
X103513618Y-83195110D01*
X103502871Y-83188080D01*
X103491147Y-83180894D01*
X103478447Y-83173554D01*
X103464769Y-83166060D01*
X103450115Y-83158411D01*
X103442421Y-83154528D01*
X103448092Y-83147303D01*
X103455775Y-83141347D01*
X103462937Y-83139581D01*
X103474104Y-83140659D01*
X103486110Y-83143895D01*
X103495665Y-83147737D01*
X103505693Y-83152792D01*
X103516193Y-83159061D01*
X103527166Y-83166543D01*
X103534743Y-83172205D01*
X103542530Y-83178406D01*
X103550527Y-83185147D01*
X103558734Y-83192427D01*
X103567151Y-83200246D01*
X103575778Y-83208604D01*
X103584236Y-83217131D01*
X103592149Y-83225458D01*
X103599517Y-83233583D01*
X103606338Y-83241508D01*
X103612614Y-83249232D01*
X103618345Y-83256754D01*
X103625917Y-83267662D01*
X103632261Y-83278117D01*
X103637377Y-83288120D01*
X103641265Y-83297672D01*
X103643926Y-83306771D01*
X103645563Y-83318199D01*
X103645631Y-83320931D01*
X103644437Y-83332214D01*
X103640853Y-83341992D01*
X103634881Y-83350267D01*
X103626519Y-83357036D01*
X103615769Y-83362302D01*
X103606138Y-83365263D01*
X103595163Y-83367379D01*
X103582845Y-83368648D01*
X103569183Y-83369071D01*
X103558316Y-83368957D01*
X103546689Y-83368615D01*
X103534302Y-83368045D01*
X103521155Y-83367248D01*
X103507248Y-83366222D01*
X103492581Y-83364968D01*
X103482381Y-83364005D01*
X103471844Y-83362941D01*
X103460968Y-83361776D01*
X103449755Y-83360510D01*
X103438204Y-83359142D01*
X103426315Y-83357673D01*
X103414089Y-83356102D01*
X103248981Y-83334340D01*
X103239036Y-83333062D01*
X103229353Y-83331867D01*
X103215319Y-83330229D01*
X103201873Y-83328776D01*
X103189015Y-83327508D01*
X103176746Y-83326427D01*
X103165064Y-83325530D01*
X103153971Y-83324819D01*
X103143466Y-83324294D01*
X103133549Y-83323954D01*
X103121242Y-83323789D01*
X103108591Y-83324321D01*
X103097626Y-83325918D01*
X103086293Y-83329412D01*
X103077596Y-83334569D01*
X103070638Y-83342954D01*
X103067738Y-83351772D01*
X103067264Y-83357861D01*
X103067727Y-83367761D01*
X103069115Y-83377679D01*
X103071429Y-83387613D01*
X103074668Y-83397565D01*
X103078832Y-83407534D01*
X103083922Y-83417521D01*
X103089938Y-83427524D01*
X103096878Y-83437545D01*
X103104745Y-83447583D01*
X103113537Y-83457638D01*
X103123254Y-83467710D01*
X103133896Y-83477799D01*
X103145465Y-83487906D01*
X103157958Y-83498029D01*
X103171377Y-83508170D01*
X103185722Y-83518328D01*
X103200567Y-83528230D01*
X103215550Y-83537604D01*
X103230670Y-83546448D01*
X103245928Y-83554763D01*
X103261323Y-83562549D01*
X103276855Y-83569807D01*
X103292525Y-83576535D01*
X103308332Y-83582735D01*
X103324276Y-83588406D01*
X103340358Y-83593547D01*
X103356577Y-83598160D01*
X103372934Y-83602244D01*
X103389428Y-83605799D01*
X103406059Y-83608825D01*
X103422828Y-83611322D01*
X103439734Y-83613290D01*
X103603866Y-83629776D01*
G37*
G36*
X103449140Y-82697001D02*
G01*
X103458491Y-82700672D01*
X103467028Y-82705000D01*
X103476504Y-82710564D01*
X103486919Y-82717364D01*
X103495346Y-82723276D01*
X103504301Y-82729884D01*
X103510565Y-82734675D01*
X103518874Y-82741281D01*
X103526920Y-82747881D01*
X103534703Y-82754477D01*
X103542221Y-82761067D01*
X103549475Y-82767652D01*
X103556466Y-82774232D01*
X103563193Y-82780807D01*
X103575856Y-82793941D01*
X103587463Y-82807055D01*
X103598015Y-82820148D01*
X103607512Y-82833220D01*
X103615953Y-82846272D01*
X103623340Y-82859303D01*
X103629671Y-82872313D01*
X103634947Y-82885303D01*
X103639168Y-82898272D01*
X103642334Y-82911221D01*
X103644444Y-82924149D01*
X103645499Y-82937057D01*
X103645631Y-82943503D01*
X103645144Y-82955136D01*
X103643682Y-82966380D01*
X103641245Y-82977233D01*
X103637834Y-82987696D01*
X103633449Y-82997769D01*
X103628088Y-83007452D01*
X103621754Y-83016744D01*
X103614444Y-83025646D01*
X103606160Y-83034158D01*
X103596902Y-83042279D01*
X103590188Y-83047477D01*
X103579524Y-83054744D01*
X103568323Y-83061297D01*
X103556586Y-83067135D01*
X103544312Y-83072258D01*
X103531502Y-83076666D01*
X103518154Y-83080359D01*
X103504270Y-83083338D01*
X103489850Y-83085602D01*
X103479938Y-83086714D01*
X103469788Y-83087508D01*
X103459399Y-83087984D01*
X103448771Y-83088143D01*
X103429249Y-83087727D01*
X103419478Y-83087206D01*
X103409700Y-83086477D01*
X103399916Y-83085540D01*
X103390124Y-83084395D01*
X103380327Y-83083042D01*
X103370522Y-83081480D01*
X103360711Y-83079710D01*
X103350893Y-83077732D01*
X103341068Y-83075546D01*
X103331237Y-83073151D01*
X103321399Y-83070548D01*
X103311555Y-83067737D01*
X103301703Y-83064718D01*
X103291845Y-83061490D01*
X103281981Y-83058055D01*
X103272109Y-83054411D01*
X103262231Y-83050558D01*
X103252347Y-83046498D01*
X103242455Y-83042229D01*
X103232557Y-83037752D01*
X103222653Y-83033067D01*
X103212741Y-83028174D01*
X103202823Y-83023072D01*
X103192898Y-83017763D01*
X103182967Y-83012245D01*
X103173029Y-83006518D01*
X103163084Y-83000584D01*
X103153133Y-82994441D01*
X103143174Y-82988090D01*
X103133210Y-82981531D01*
X103123382Y-82974870D01*
X103113867Y-82968213D01*
X103104663Y-82961561D01*
X103095772Y-82954913D01*
X103087192Y-82948269D01*
X103078925Y-82941629D01*
X103070969Y-82934994D01*
X103063326Y-82928363D01*
X103055994Y-82921736D01*
X103048974Y-82915113D01*
X103042267Y-82908495D01*
X103029787Y-82895272D01*
X103018556Y-82882065D01*
X103008573Y-82868876D01*
X102999837Y-82855704D01*
X102993508Y-82844584D01*
X103067264Y-82844584D01*
X103067871Y-82854470D01*
X103069694Y-82864177D01*
X103072732Y-82873707D01*
X103076984Y-82883059D01*
X103082452Y-82892234D01*
X103089134Y-82901231D01*
X103097032Y-82910049D01*
X103106144Y-82918691D01*
X103116472Y-82927154D01*
X103128015Y-82935440D01*
X103136385Y-82940865D01*
X103145165Y-82946101D01*
X103154226Y-82951093D01*
X103163567Y-82955842D01*
X103173189Y-82960346D01*
X103183091Y-82964607D01*
X103193274Y-82968624D01*
X103203738Y-82972397D01*
X103214481Y-82975926D01*
X103225506Y-82979211D01*
X103236810Y-82982253D01*
X103248396Y-82985050D01*
X103260262Y-82987604D01*
X103272408Y-82989914D01*
X103284835Y-82991980D01*
X103297542Y-82993802D01*
X103310530Y-82995380D01*
X103313522Y-82986573D01*
X103315866Y-82977159D01*
X103317128Y-82968266D01*
X103317369Y-82962627D01*
X103317168Y-82953113D01*
X103316567Y-82943750D01*
X103315565Y-82934538D01*
X103314163Y-82925478D01*
X103312360Y-82916568D01*
X103310156Y-82907810D01*
X103307551Y-82899202D01*
X103304546Y-82890746D01*
X103301140Y-82882441D01*
X103297333Y-82874287D01*
X103293126Y-82866285D01*
X103288517Y-82858433D01*
X103283509Y-82850732D01*
X103278099Y-82843183D01*
X103272289Y-82835785D01*
X103266078Y-82828538D01*
X103259599Y-82821563D01*
X103252984Y-82815039D01*
X103242808Y-82806097D01*
X103232327Y-82798167D01*
X103221542Y-82791249D01*
X103210451Y-82785343D01*
X103199056Y-82780450D01*
X103187356Y-82776569D01*
X103175351Y-82773701D01*
X103163042Y-82771845D01*
X103150427Y-82771001D01*
X103146154Y-82770945D01*
X103132056Y-82771592D01*
X103119344Y-82773534D01*
X103108019Y-82776770D01*
X103098081Y-82781301D01*
X103089529Y-82787126D01*
X103082364Y-82794245D01*
X103076586Y-82802659D01*
X103072195Y-82812367D01*
X103069190Y-82823370D01*
X103067572Y-82835667D01*
X103067264Y-82844584D01*
X102993508Y-82844584D01*
X102992350Y-82842550D01*
X102986110Y-82829412D01*
X102981118Y-82816292D01*
X102977375Y-82803188D01*
X102974879Y-82790102D01*
X102973631Y-82777033D01*
X102973475Y-82770505D01*
X102973827Y-82761375D01*
X102975675Y-82748784D01*
X102979108Y-82737519D01*
X102984124Y-82727579D01*
X102990725Y-82718964D01*
X102998911Y-82711675D01*
X103008680Y-82705710D01*
X103020034Y-82701072D01*
X103032972Y-82697758D01*
X103047494Y-82695770D01*
X103058056Y-82695181D01*
X103063600Y-82695108D01*
X103076251Y-82695452D01*
X103088864Y-82696485D01*
X103101439Y-82698207D01*
X103113975Y-82700617D01*
X103126474Y-82703716D01*
X103138934Y-82707503D01*
X103151356Y-82711980D01*
X103163740Y-82717144D01*
X103176086Y-82722998D01*
X103188393Y-82729540D01*
X103200663Y-82736771D01*
X103212894Y-82744690D01*
X103225087Y-82753299D01*
X103237242Y-82762595D01*
X103249358Y-82772581D01*
X103261437Y-82783255D01*
X103273238Y-82794398D01*
X103284583Y-82805845D01*
X103295472Y-82817596D01*
X103305905Y-82829650D01*
X103315881Y-82842009D01*
X103325402Y-82854672D01*
X103334467Y-82867639D01*
X103343075Y-82880909D01*
X103351228Y-82894484D01*
X103358924Y-82908363D01*
X103366165Y-82922545D01*
X103372949Y-82937032D01*
X103379278Y-82951822D01*
X103385150Y-82966917D01*
X103390566Y-82982315D01*
X103395526Y-82998018D01*
X103414455Y-82996117D01*
X103432163Y-82993491D01*
X103448649Y-82990140D01*
X103463914Y-82986065D01*
X103477958Y-82981265D01*
X103490781Y-82975740D01*
X103502383Y-82969491D01*
X103512763Y-82962517D01*
X103521922Y-82954818D01*
X103529860Y-82946395D01*
X103536577Y-82937246D01*
X103542072Y-82927373D01*
X103546346Y-82916776D01*
X103549399Y-82905453D01*
X103551231Y-82893406D01*
X103551842Y-82880635D01*
X103551292Y-82867785D01*
X103549644Y-82855232D01*
X103546896Y-82842973D01*
X103543049Y-82831010D01*
X103538103Y-82819343D01*
X103532058Y-82807971D01*
X103524914Y-82796894D01*
X103516671Y-82786113D01*
X103507329Y-82775627D01*
X103496887Y-82765436D01*
X103485347Y-82755541D01*
X103472707Y-82745941D01*
X103458968Y-82736636D01*
X103444131Y-82727627D01*
X103428194Y-82718913D01*
X103411158Y-82710495D01*
X103417963Y-82703057D01*
X103426340Y-82697647D01*
X103436546Y-82695168D01*
X103438513Y-82695108D01*
X103449140Y-82697001D01*
G37*
G36*
X102515519Y-81831001D02*
G01*
X102512353Y-81840326D01*
X102509723Y-81850166D01*
X102507630Y-81860522D01*
X102506074Y-81871393D01*
X102505215Y-81880460D01*
X102504700Y-81889857D01*
X102504528Y-81899584D01*
X102504810Y-81910996D01*
X102505654Y-81922040D01*
X102507062Y-81932717D01*
X102509032Y-81943026D01*
X102511565Y-81952968D01*
X102514661Y-81962542D01*
X102518320Y-81971748D01*
X102522541Y-81980587D01*
X102527326Y-81989059D01*
X102532674Y-81997163D01*
X102538584Y-82004900D01*
X102545058Y-82012269D01*
X102552094Y-82019270D01*
X102559693Y-82025904D01*
X102567855Y-82032171D01*
X102576580Y-82038070D01*
X102585952Y-82043674D01*
X102596116Y-82049057D01*
X102607071Y-82054219D01*
X102618819Y-82059159D01*
X102631358Y-82063877D01*
X102644690Y-82068374D01*
X102658813Y-82072649D01*
X102673728Y-82076703D01*
X102689435Y-82080535D01*
X102705933Y-82084146D01*
X102723224Y-82087535D01*
X102741307Y-82090703D01*
X102760181Y-82093649D01*
X102769915Y-82095039D01*
X102779847Y-82096373D01*
X102789978Y-82097653D01*
X102800306Y-82098876D01*
X102810832Y-82100045D01*
X102821556Y-82101158D01*
X103398457Y-82158531D01*
X103435582Y-82162927D01*
X103446187Y-82163909D01*
X103456204Y-82164795D01*
X103468646Y-82165825D01*
X103480041Y-82166684D01*
X103490391Y-82167371D01*
X103501858Y-82167988D01*
X103511691Y-82168337D01*
X103518381Y-82168422D01*
X103529752Y-82167858D01*
X103540045Y-82165774D01*
X103548574Y-82160838D01*
X103551842Y-82152376D01*
X103550743Y-82142767D01*
X103547445Y-82133146D01*
X103541950Y-82123513D01*
X103534256Y-82113870D01*
X103524364Y-82104214D01*
X103516549Y-82097771D01*
X103507756Y-82091322D01*
X103497986Y-82084868D01*
X103487240Y-82078409D01*
X103475516Y-82071945D01*
X103462815Y-82065476D01*
X103449138Y-82059002D01*
X103434483Y-82052522D01*
X103426789Y-82049281D01*
X103432285Y-82041972D01*
X103439841Y-82035332D01*
X103448771Y-82032575D01*
X103459788Y-82034337D01*
X103468993Y-82037469D01*
X103479686Y-82042168D01*
X103488683Y-82046719D01*
X103498517Y-82052152D01*
X103509188Y-82058466D01*
X103520696Y-82065661D01*
X103528833Y-82070947D01*
X103537343Y-82076624D01*
X103546224Y-82082693D01*
X103558262Y-82091370D01*
X103569523Y-82099980D01*
X103580007Y-82108523D01*
X103589715Y-82116999D01*
X103598646Y-82125408D01*
X103606800Y-82133749D01*
X103614178Y-82142024D01*
X103620779Y-82150232D01*
X103626604Y-82158373D01*
X103631652Y-82166447D01*
X103635923Y-82174455D01*
X103640874Y-82186340D01*
X103644078Y-82198074D01*
X103645534Y-82209657D01*
X103645631Y-82213485D01*
X103644509Y-82224665D01*
X103641143Y-82234354D01*
X103635533Y-82242553D01*
X103627679Y-82249261D01*
X103617581Y-82254478D01*
X103605239Y-82258205D01*
X103594510Y-82260021D01*
X103582519Y-82260999D01*
X103573824Y-82261186D01*
X103562103Y-82260923D01*
X103552257Y-82260456D01*
X103540785Y-82259755D01*
X103527688Y-82258821D01*
X103516797Y-82257967D01*
X103504993Y-82256982D01*
X103492274Y-82255865D01*
X103478640Y-82254617D01*
X103469043Y-82253712D01*
X103409448Y-82247557D01*
X103359378Y-82242721D01*
X103372043Y-82248174D01*
X103384635Y-82254035D01*
X103397154Y-82260305D01*
X103409601Y-82266984D01*
X103421975Y-82274071D01*
X103434277Y-82281567D01*
X103446506Y-82289472D01*
X103458663Y-82297786D01*
X103470747Y-82306508D01*
X103482759Y-82315639D01*
X103494699Y-82325179D01*
X103506565Y-82335127D01*
X103518360Y-82345485D01*
X103530081Y-82356250D01*
X103541731Y-82367425D01*
X103553307Y-82379009D01*
X103564487Y-82390667D01*
X103574946Y-82402065D01*
X103584683Y-82413205D01*
X103593699Y-82424085D01*
X103601994Y-82434706D01*
X103609567Y-82445067D01*
X103616419Y-82455170D01*
X103622550Y-82465013D01*
X103627960Y-82474596D01*
X103632648Y-82483920D01*
X103636615Y-82492985D01*
X103639861Y-82501791D01*
X103642385Y-82510337D01*
X103644820Y-82522671D01*
X103645631Y-82534420D01*
X103645047Y-82544988D01*
X103643295Y-82554874D01*
X103640376Y-82564078D01*
X103636289Y-82572600D01*
X103631034Y-82580441D01*
X103624611Y-82587599D01*
X103617020Y-82594076D01*
X103608262Y-82599871D01*
X103598336Y-82604985D01*
X103587242Y-82609416D01*
X103574980Y-82613166D01*
X103561550Y-82616234D01*
X103546953Y-82618620D01*
X103531188Y-82620325D01*
X103514255Y-82621347D01*
X103496154Y-82621688D01*
X103483966Y-82621571D01*
X103471856Y-82621218D01*
X103459824Y-82620630D01*
X103447871Y-82619806D01*
X103435995Y-82618747D01*
X103424198Y-82617453D01*
X103412479Y-82615924D01*
X103400839Y-82614159D01*
X103389276Y-82612160D01*
X103377792Y-82609925D01*
X103366386Y-82607454D01*
X103355058Y-82604748D01*
X103343809Y-82601808D01*
X103332638Y-82598631D01*
X103321545Y-82595220D01*
X103310530Y-82591573D01*
X103299593Y-82587691D01*
X103288735Y-82583574D01*
X103277955Y-82579221D01*
X103267253Y-82574633D01*
X103256629Y-82569810D01*
X103246084Y-82564752D01*
X103235617Y-82559458D01*
X103225228Y-82553929D01*
X103214917Y-82548165D01*
X103204685Y-82542165D01*
X103194531Y-82535931D01*
X103184455Y-82529461D01*
X103174457Y-82522755D01*
X103164538Y-82515815D01*
X103154696Y-82508639D01*
X103144933Y-82501228D01*
X103135346Y-82493655D01*
X103126064Y-82486022D01*
X103117085Y-82478330D01*
X103108411Y-82470577D01*
X103100042Y-82462764D01*
X103091976Y-82454891D01*
X103084215Y-82446957D01*
X103076759Y-82438964D01*
X103069607Y-82430911D01*
X103062759Y-82422797D01*
X103056215Y-82414623D01*
X103049976Y-82406390D01*
X103044041Y-82398096D01*
X103038411Y-82389742D01*
X103033085Y-82381328D01*
X103028063Y-82372854D01*
X103023346Y-82364319D01*
X103018933Y-82355725D01*
X103014824Y-82347070D01*
X103011019Y-82338356D01*
X103007519Y-82329581D01*
X103004324Y-82320746D01*
X103001432Y-82311851D01*
X103000893Y-82309986D01*
X103051632Y-82309986D01*
X103052071Y-82321317D01*
X103053388Y-82332397D01*
X103055582Y-82343224D01*
X103058654Y-82353798D01*
X103062604Y-82364120D01*
X103067432Y-82374190D01*
X103073137Y-82384007D01*
X103079720Y-82393572D01*
X103087181Y-82402884D01*
X103095520Y-82411944D01*
X103104736Y-82420751D01*
X103114830Y-82429306D01*
X103125802Y-82437608D01*
X103137652Y-82445658D01*
X103150379Y-82453456D01*
X103163984Y-82461001D01*
X103178236Y-82468188D01*
X103192965Y-82474911D01*
X103208171Y-82481171D01*
X103223854Y-82486967D01*
X103240014Y-82492299D01*
X103256651Y-82497168D01*
X103273766Y-82501573D01*
X103291357Y-82505514D01*
X103309425Y-82508992D01*
X103327970Y-82512006D01*
X103346993Y-82514556D01*
X103366492Y-82516642D01*
X103376421Y-82517512D01*
X103386468Y-82518265D01*
X103396635Y-82518903D01*
X103406922Y-82519425D01*
X103417327Y-82519830D01*
X103427852Y-82520120D01*
X103438496Y-82520294D01*
X103449260Y-82520352D01*
X103459789Y-82520168D01*
X103469639Y-82519617D01*
X103483140Y-82518101D01*
X103495113Y-82515758D01*
X103505557Y-82512588D01*
X103514473Y-82508592D01*
X103523983Y-82501976D01*
X103530776Y-82493891D01*
X103534852Y-82484336D01*
X103536210Y-82473311D01*
X103535412Y-82462464D01*
X103533016Y-82451273D01*
X103529023Y-82439738D01*
X103523433Y-82427860D01*
X103518819Y-82419750D01*
X103513496Y-82411487D01*
X103507462Y-82403071D01*
X103500719Y-82394502D01*
X103493265Y-82385781D01*
X103485102Y-82376907D01*
X103476230Y-82367879D01*
X103466647Y-82358699D01*
X103456354Y-82349367D01*
X103445352Y-82339881D01*
X103437988Y-82333737D01*
X103430519Y-82327752D01*
X103422946Y-82321927D01*
X103415268Y-82316261D01*
X103407486Y-82310754D01*
X103399599Y-82305406D01*
X103391608Y-82300218D01*
X103383513Y-82295189D01*
X103375313Y-82290319D01*
X103367008Y-82285609D01*
X103358599Y-82281058D01*
X103350086Y-82276666D01*
X103341468Y-82272433D01*
X103332745Y-82268360D01*
X103323919Y-82264446D01*
X103314987Y-82260691D01*
X103305951Y-82257096D01*
X103296811Y-82253660D01*
X103287566Y-82250383D01*
X103278217Y-82247265D01*
X103268764Y-82244307D01*
X103259205Y-82241508D01*
X103249543Y-82238868D01*
X103239776Y-82236388D01*
X103229904Y-82234066D01*
X103219928Y-82231904D01*
X103209848Y-82229902D01*
X103199663Y-82228058D01*
X103189373Y-82226374D01*
X103178979Y-82224850D01*
X103168481Y-82223484D01*
X103157878Y-82222278D01*
X103082407Y-82214804D01*
X103076907Y-82224456D01*
X103071948Y-82233957D01*
X103067531Y-82243307D01*
X103063654Y-82252506D01*
X103060318Y-82261555D01*
X103057523Y-82270453D01*
X103055269Y-82279201D01*
X103053105Y-82290630D01*
X103051903Y-82301791D01*
X103051632Y-82309986D01*
X103000893Y-82309986D01*
X102998845Y-82302896D01*
X102996563Y-82293881D01*
X102994585Y-82284806D01*
X102992911Y-82275671D01*
X102991541Y-82266475D01*
X102990476Y-82257220D01*
X102989715Y-82247904D01*
X102989258Y-82238528D01*
X102989106Y-82229092D01*
X102989428Y-82220057D01*
X102990074Y-82210853D01*
X102990572Y-82204912D01*
X102930488Y-82198757D01*
X102916594Y-82197281D01*
X102902848Y-82195628D01*
X102889248Y-82193799D01*
X102875797Y-82191792D01*
X102862492Y-82189608D01*
X102849335Y-82187248D01*
X102836326Y-82184710D01*
X102823464Y-82181996D01*
X102810749Y-82179105D01*
X102798182Y-82176037D01*
X102785762Y-82172792D01*
X102773489Y-82169370D01*
X102761364Y-82165772D01*
X102749387Y-82161996D01*
X102737556Y-82158044D01*
X102725874Y-82153914D01*
X102714338Y-82149608D01*
X102702950Y-82145125D01*
X102691709Y-82140465D01*
X102680616Y-82135628D01*
X102669670Y-82130614D01*
X102658872Y-82125424D01*
X102648221Y-82120056D01*
X102637717Y-82114512D01*
X102627361Y-82108791D01*
X102617152Y-82102892D01*
X102607091Y-82096817D01*
X102597177Y-82090565D01*
X102587410Y-82084137D01*
X102577791Y-82077531D01*
X102568319Y-82070748D01*
X102558995Y-82063789D01*
X102549873Y-82056694D01*
X102541042Y-82049532D01*
X102532500Y-82042304D01*
X102524247Y-82035010D01*
X102516284Y-82027649D01*
X102508611Y-82020221D01*
X102501227Y-82012727D01*
X102494133Y-82005166D01*
X102487328Y-81997539D01*
X102480813Y-81989845D01*
X102474587Y-81982084D01*
X102468651Y-81974257D01*
X102463005Y-81966364D01*
X102457648Y-81958404D01*
X102452581Y-81950377D01*
X102447803Y-81942284D01*
X102443315Y-81934124D01*
X102439116Y-81925898D01*
X102435207Y-81917605D01*
X102431588Y-81909246D01*
X102428258Y-81900820D01*
X102425217Y-81892328D01*
X102422466Y-81883769D01*
X102420005Y-81875143D01*
X102417833Y-81866451D01*
X102415951Y-81857693D01*
X102414359Y-81848867D01*
X102413056Y-81839976D01*
X102412042Y-81831017D01*
X102411318Y-81821993D01*
X102410884Y-81812901D01*
X102410739Y-81803743D01*
X102410906Y-81792931D01*
X102411407Y-81782612D01*
X102412242Y-81772786D01*
X102413411Y-81763455D01*
X102414913Y-81754617D01*
X102417157Y-81744663D01*
X102417578Y-81743073D01*
X102515519Y-81831001D01*
G37*
G36*
X102516252Y-81137473D02*
G01*
X102513504Y-81146249D01*
X102511123Y-81154880D01*
X102508662Y-81165466D01*
X102506772Y-81175827D01*
X102505456Y-81185963D01*
X102504712Y-81195873D01*
X102504528Y-81203639D01*
X102504843Y-81215016D01*
X102505785Y-81226095D01*
X102507356Y-81236874D01*
X102509555Y-81247355D01*
X102512382Y-81257537D01*
X102515837Y-81267420D01*
X102519921Y-81277005D01*
X102524633Y-81286290D01*
X102529973Y-81295277D01*
X102535941Y-81303965D01*
X102542538Y-81312354D01*
X102549763Y-81320445D01*
X102557616Y-81328236D01*
X102566098Y-81335729D01*
X102575207Y-81342923D01*
X102584945Y-81349818D01*
X102595312Y-81356414D01*
X102606306Y-81362712D01*
X102617929Y-81368710D01*
X102630180Y-81374410D01*
X102643059Y-81379811D01*
X102656567Y-81384913D01*
X102670703Y-81389717D01*
X102685467Y-81394221D01*
X102700859Y-81398427D01*
X102716879Y-81402334D01*
X102733528Y-81405942D01*
X102750805Y-81409252D01*
X102768711Y-81412262D01*
X102787244Y-81414974D01*
X102806406Y-81417387D01*
X102826196Y-81419501D01*
X103267299Y-81463464D01*
X103251215Y-81455056D01*
X103235509Y-81446538D01*
X103220181Y-81437910D01*
X103205231Y-81429173D01*
X103190658Y-81420325D01*
X103176463Y-81411367D01*
X103162647Y-81402300D01*
X103149207Y-81393122D01*
X103136146Y-81383835D01*
X103123463Y-81374438D01*
X103111157Y-81364931D01*
X103099229Y-81355314D01*
X103087679Y-81345587D01*
X103076507Y-81335750D01*
X103065713Y-81325803D01*
X103055296Y-81315746D01*
X103045388Y-81305683D01*
X103036119Y-81295770D01*
X103027490Y-81286009D01*
X103019499Y-81276399D01*
X103012148Y-81266940D01*
X103005436Y-81257632D01*
X102999364Y-81248475D01*
X102993930Y-81239469D01*
X102991073Y-81234193D01*
X103082896Y-81234193D01*
X103083716Y-81244789D01*
X103086176Y-81255721D01*
X103090276Y-81266989D01*
X103096016Y-81278593D01*
X103100754Y-81286516D01*
X103106221Y-81294589D01*
X103112416Y-81302810D01*
X103119341Y-81311182D01*
X103126995Y-81319702D01*
X103135377Y-81328372D01*
X103144489Y-81337191D01*
X103154329Y-81346160D01*
X103164898Y-81355278D01*
X103176196Y-81364546D01*
X103184147Y-81370797D01*
X103192183Y-81376885D01*
X103200305Y-81382808D01*
X103208513Y-81388568D01*
X103216806Y-81394163D01*
X103225186Y-81399595D01*
X103233652Y-81404862D01*
X103242203Y-81409966D01*
X103250840Y-81414905D01*
X103259563Y-81419681D01*
X103268372Y-81424292D01*
X103277267Y-81428740D01*
X103286248Y-81433023D01*
X103295314Y-81437143D01*
X103304467Y-81441098D01*
X103313705Y-81444890D01*
X103323029Y-81448517D01*
X103332439Y-81451980D01*
X103341935Y-81455280D01*
X103351517Y-81458415D01*
X103361184Y-81461387D01*
X103370938Y-81464194D01*
X103380777Y-81466838D01*
X103390703Y-81469317D01*
X103400714Y-81471632D01*
X103410811Y-81473784D01*
X103420993Y-81475771D01*
X103431262Y-81477594D01*
X103441617Y-81479254D01*
X103452057Y-81480749D01*
X103462583Y-81482081D01*
X103473196Y-81483248D01*
X103547934Y-81490722D01*
X103554219Y-81479925D01*
X103559887Y-81469132D01*
X103564935Y-81458343D01*
X103569366Y-81447558D01*
X103573179Y-81436777D01*
X103576373Y-81426000D01*
X103578949Y-81415226D01*
X103580907Y-81404457D01*
X103582246Y-81393691D01*
X103582967Y-81382929D01*
X103583105Y-81375757D01*
X103582675Y-81365221D01*
X103581384Y-81354936D01*
X103579232Y-81344901D01*
X103576220Y-81335118D01*
X103572348Y-81325585D01*
X103567615Y-81316303D01*
X103562021Y-81307271D01*
X103555566Y-81298490D01*
X103548252Y-81289960D01*
X103540076Y-81281681D01*
X103531040Y-81273653D01*
X103521144Y-81265875D01*
X103510386Y-81258348D01*
X103498769Y-81251071D01*
X103486290Y-81244046D01*
X103472951Y-81237271D01*
X103458921Y-81230829D01*
X103444367Y-81224803D01*
X103429291Y-81219193D01*
X103413692Y-81213998D01*
X103397570Y-81209218D01*
X103380925Y-81204855D01*
X103363758Y-81200906D01*
X103346067Y-81197374D01*
X103327854Y-81194257D01*
X103309118Y-81191556D01*
X103289859Y-81189270D01*
X103280033Y-81188283D01*
X103270077Y-81187400D01*
X103259990Y-81186620D01*
X103249773Y-81185945D01*
X103239424Y-81185374D01*
X103228945Y-81184906D01*
X103218335Y-81184542D01*
X103207595Y-81184283D01*
X103196724Y-81184127D01*
X103185722Y-81184075D01*
X103173270Y-81184271D01*
X103161622Y-81184858D01*
X103150777Y-81185837D01*
X103140735Y-81187207D01*
X103127179Y-81189997D01*
X103115430Y-81193668D01*
X103105489Y-81198220D01*
X103097355Y-81203652D01*
X103089322Y-81212267D01*
X103084502Y-81222447D01*
X103082896Y-81234193D01*
X102991073Y-81234193D01*
X102989136Y-81230615D01*
X102984981Y-81221911D01*
X102981465Y-81213359D01*
X102977390Y-81200814D01*
X102974753Y-81188609D01*
X102973555Y-81176744D01*
X102973475Y-81172864D01*
X102974138Y-81162084D01*
X102976127Y-81151999D01*
X102979442Y-81142609D01*
X102984084Y-81133915D01*
X102990052Y-81125917D01*
X102997346Y-81118614D01*
X103005966Y-81112006D01*
X103015912Y-81106094D01*
X103027184Y-81100878D01*
X103039783Y-81096357D01*
X103053708Y-81092532D01*
X103068958Y-81089402D01*
X103085535Y-81086967D01*
X103103439Y-81085229D01*
X103122668Y-81084185D01*
X103132780Y-81083925D01*
X103143224Y-81083838D01*
X103156155Y-81083953D01*
X103168968Y-81084298D01*
X103181663Y-81084873D01*
X103194240Y-81085679D01*
X103206698Y-81086714D01*
X103219038Y-81087980D01*
X103231260Y-81089476D01*
X103243363Y-81091202D01*
X103255348Y-81093158D01*
X103267215Y-81095344D01*
X103278963Y-81097760D01*
X103290594Y-81100406D01*
X103302105Y-81103283D01*
X103313499Y-81106390D01*
X103324774Y-81109726D01*
X103335931Y-81113293D01*
X103346970Y-81117090D01*
X103357890Y-81121117D01*
X103368692Y-81125375D01*
X103379376Y-81129862D01*
X103389941Y-81134580D01*
X103400388Y-81139527D01*
X103410717Y-81144705D01*
X103420928Y-81150113D01*
X103431020Y-81155751D01*
X103440994Y-81161619D01*
X103450849Y-81167717D01*
X103460587Y-81174046D01*
X103470206Y-81180604D01*
X103479706Y-81187393D01*
X103489089Y-81194411D01*
X103498353Y-81201660D01*
X103507414Y-81209072D01*
X103516187Y-81216578D01*
X103524673Y-81224179D01*
X103532871Y-81231875D01*
X103540781Y-81239666D01*
X103548404Y-81247552D01*
X103555739Y-81255532D01*
X103562787Y-81263608D01*
X103569547Y-81271778D01*
X103576019Y-81280044D01*
X103582204Y-81288404D01*
X103588100Y-81296859D01*
X103593710Y-81305409D01*
X103599031Y-81314054D01*
X103604065Y-81322793D01*
X103608811Y-81331628D01*
X103613270Y-81340558D01*
X103617441Y-81349582D01*
X103621324Y-81358701D01*
X103624920Y-81367915D01*
X103628228Y-81377224D01*
X103631248Y-81386628D01*
X103633981Y-81396127D01*
X103636426Y-81405721D01*
X103638584Y-81415409D01*
X103640453Y-81425193D01*
X103642035Y-81435071D01*
X103643330Y-81445044D01*
X103644337Y-81455112D01*
X103645056Y-81465275D01*
X103645487Y-81475533D01*
X103645631Y-81485886D01*
X103645526Y-81494791D01*
X103645148Y-81504401D01*
X103644495Y-81513406D01*
X103643433Y-81522815D01*
X103638060Y-81572934D01*
X103637646Y-81581762D01*
X103637016Y-81590838D01*
X103636594Y-81596454D01*
X103626654Y-81593971D01*
X103616524Y-81591630D01*
X103606206Y-81589432D01*
X103595699Y-81587377D01*
X103585003Y-81585465D01*
X103574117Y-81583696D01*
X103563044Y-81582069D01*
X103551781Y-81580586D01*
X103540329Y-81579246D01*
X103528688Y-81578049D01*
X103520823Y-81577330D01*
X102929267Y-81517979D01*
X102915865Y-81516536D01*
X102902589Y-81514899D01*
X102889438Y-81513069D01*
X102876411Y-81511045D01*
X102863510Y-81508827D01*
X102850733Y-81506416D01*
X102838082Y-81503811D01*
X102825555Y-81501012D01*
X102813154Y-81498020D01*
X102800877Y-81494834D01*
X102788726Y-81491454D01*
X102776699Y-81487881D01*
X102764797Y-81484115D01*
X102753021Y-81480154D01*
X102741369Y-81476000D01*
X102729842Y-81471653D01*
X102718441Y-81467111D01*
X102707164Y-81462376D01*
X102696012Y-81457448D01*
X102684986Y-81452326D01*
X102674084Y-81447010D01*
X102663307Y-81441500D01*
X102652656Y-81435797D01*
X102642129Y-81429901D01*
X102631727Y-81423810D01*
X102621450Y-81417526D01*
X102611298Y-81411049D01*
X102601272Y-81404378D01*
X102591370Y-81397513D01*
X102581593Y-81390454D01*
X102571941Y-81383202D01*
X102562414Y-81375757D01*
X102553082Y-81368186D01*
X102544047Y-81360561D01*
X102535308Y-81352880D01*
X102526865Y-81345143D01*
X102518719Y-81337352D01*
X102510868Y-81329505D01*
X102503314Y-81321602D01*
X102496056Y-81313644D01*
X102489095Y-81305631D01*
X102482429Y-81297562D01*
X102476060Y-81289438D01*
X102469987Y-81281259D01*
X102464211Y-81273024D01*
X102458730Y-81264734D01*
X102453546Y-81256388D01*
X102448658Y-81247987D01*
X102444066Y-81239531D01*
X102439771Y-81231019D01*
X102435771Y-81222452D01*
X102432068Y-81213829D01*
X102428662Y-81205151D01*
X102425551Y-81196418D01*
X102422737Y-81187630D01*
X102420219Y-81178785D01*
X102417997Y-81169886D01*
X102416072Y-81160931D01*
X102414442Y-81151921D01*
X102413109Y-81142855D01*
X102412072Y-81133734D01*
X102411332Y-81124558D01*
X102410887Y-81115326D01*
X102410739Y-81106039D01*
X102410924Y-81096418D01*
X102411479Y-81086925D01*
X102412403Y-81077562D01*
X102413697Y-81068327D01*
X102415361Y-81059220D01*
X102417394Y-81050243D01*
X102418311Y-81046688D01*
X102516252Y-81137473D01*
G37*
G36*
X103355715Y-80558911D02*
G01*
X103371267Y-80566738D01*
X103386478Y-80574611D01*
X103401347Y-80582530D01*
X103415875Y-80590496D01*
X103430061Y-80598508D01*
X103443906Y-80606567D01*
X103457409Y-80614672D01*
X103470570Y-80622823D01*
X103483390Y-80631021D01*
X103495868Y-80639265D01*
X103508005Y-80647555D01*
X103519800Y-80655892D01*
X103531254Y-80664275D01*
X103542366Y-80672705D01*
X103553136Y-80681181D01*
X103563565Y-80689703D01*
X103573503Y-80698150D01*
X103582800Y-80706402D01*
X103591455Y-80714458D01*
X103599469Y-80722318D01*
X103606842Y-80729983D01*
X103613574Y-80737452D01*
X103619665Y-80744725D01*
X103627599Y-80755267D01*
X103634091Y-80765369D01*
X103639140Y-80775030D01*
X103642746Y-80784251D01*
X103644910Y-80793031D01*
X103645631Y-80801371D01*
X103644414Y-80812032D01*
X103640762Y-80821757D01*
X103634677Y-80830548D01*
X103626156Y-80838403D01*
X103615202Y-80845324D01*
X103606547Y-80849418D01*
X103596809Y-80853096D01*
X103585990Y-80856359D01*
X103574089Y-80859207D01*
X103561106Y-80861638D01*
X103547041Y-80863655D01*
X103531894Y-80865255D01*
X103515665Y-80866440D01*
X103507145Y-80866877D01*
X103411646Y-80871273D01*
X103217718Y-80879406D01*
X103162030Y-80881165D01*
X103148662Y-80881951D01*
X103136156Y-80882937D01*
X103124512Y-80884122D01*
X103113731Y-80885506D01*
X103103813Y-80887090D01*
X103090552Y-80889838D01*
X103079232Y-80893035D01*
X103069852Y-80896680D01*
X103060365Y-80902237D01*
X103053357Y-80910305D01*
X103051632Y-80917655D01*
X103052594Y-80926660D01*
X103055479Y-80935622D01*
X103060288Y-80944542D01*
X103067020Y-80953420D01*
X103075675Y-80962255D01*
X103086254Y-80971047D01*
X103094375Y-80976886D01*
X103103351Y-80982705D01*
X103113182Y-80988505D01*
X103123867Y-80994286D01*
X103135408Y-81000049D01*
X103147803Y-81005793D01*
X103161053Y-81011517D01*
X103154566Y-81018538D01*
X103146938Y-81024038D01*
X103137144Y-81027313D01*
X103133454Y-81027564D01*
X103123516Y-81026626D01*
X103112876Y-81023813D01*
X103101534Y-81019125D01*
X103092567Y-81014378D01*
X103083205Y-81008576D01*
X103073447Y-81001720D01*
X103063295Y-80993808D01*
X103052748Y-80984842D01*
X103045497Y-80978278D01*
X103038070Y-80971246D01*
X103034291Y-80967554D01*
X103026927Y-80960140D01*
X103020037Y-80952901D01*
X103013623Y-80945838D01*
X103004893Y-80935571D01*
X102997231Y-80925699D01*
X102990639Y-80916220D01*
X102985115Y-80907136D01*
X102980661Y-80898446D01*
X102977276Y-80890150D01*
X102974425Y-80879702D01*
X102973475Y-80869954D01*
X102974085Y-80860584D01*
X102975917Y-80851929D01*
X102979924Y-80842114D01*
X102985840Y-80833416D01*
X102993663Y-80825834D01*
X103003394Y-80819368D01*
X103012554Y-80815000D01*
X103023296Y-80811111D01*
X103032711Y-80808430D01*
X103043289Y-80805949D01*
X103055031Y-80803669D01*
X103067936Y-80801591D01*
X103082004Y-80799713D01*
X103092030Y-80798572D01*
X103102572Y-80797521D01*
X103113632Y-80796560D01*
X103125208Y-80795687D01*
X103137302Y-80794904D01*
X103149913Y-80794210D01*
X103156413Y-80793897D01*
X103398213Y-80782686D01*
X103414924Y-80781810D01*
X103430556Y-80780722D01*
X103445111Y-80779420D01*
X103458587Y-80777905D01*
X103470985Y-80776177D01*
X103482305Y-80774237D01*
X103492547Y-80772083D01*
X103505889Y-80768454D01*
X103516804Y-80764345D01*
X103525294Y-80759757D01*
X103532841Y-80752895D01*
X103536210Y-80743119D01*
X103535085Y-80733511D01*
X103531711Y-80723482D01*
X103526087Y-80713032D01*
X103518213Y-80702160D01*
X103511713Y-80694679D01*
X103504214Y-80687010D01*
X103495716Y-80679154D01*
X103486217Y-80671111D01*
X103475718Y-80662881D01*
X103464220Y-80654463D01*
X103451721Y-80645859D01*
X103438223Y-80637067D01*
X103423725Y-80628088D01*
X103408227Y-80618921D01*
X103392247Y-80609868D01*
X103376304Y-80601229D01*
X103360396Y-80593004D01*
X103344525Y-80585193D01*
X103328691Y-80577796D01*
X103312892Y-80570812D01*
X103297130Y-80564242D01*
X103281404Y-80558087D01*
X103265714Y-80552345D01*
X103250061Y-80547017D01*
X103234443Y-80542102D01*
X103218862Y-80537602D01*
X103203318Y-80533516D01*
X103187809Y-80529843D01*
X103172337Y-80526585D01*
X103156901Y-80523740D01*
X103016217Y-80499560D01*
X102973475Y-80389651D01*
X102985331Y-80393617D01*
X102998279Y-80397603D01*
X103012316Y-80401608D01*
X103022281Y-80404288D01*
X103032730Y-80406978D01*
X103043664Y-80409676D01*
X103055082Y-80412382D01*
X103066985Y-80415097D01*
X103079373Y-80417821D01*
X103092245Y-80420553D01*
X103105602Y-80423294D01*
X103119444Y-80426044D01*
X103133770Y-80428802D01*
X103148581Y-80431568D01*
X103156168Y-80432955D01*
X103616566Y-80515607D01*
X103633342Y-80518709D01*
X103649840Y-80521914D01*
X103666063Y-80525224D01*
X103682008Y-80528638D01*
X103697677Y-80532155D01*
X103713069Y-80535777D01*
X103728184Y-80539502D01*
X103743023Y-80543331D01*
X103757585Y-80547264D01*
X103771870Y-80551301D01*
X103785879Y-80555442D01*
X103799611Y-80559687D01*
X103813066Y-80564036D01*
X103826245Y-80568488D01*
X103839147Y-80573045D01*
X103851772Y-80577705D01*
X103864121Y-80582470D01*
X103876192Y-80587338D01*
X103887988Y-80592310D01*
X103899506Y-80597386D01*
X103910748Y-80602566D01*
X103921713Y-80607850D01*
X103932402Y-80613237D01*
X103942814Y-80618729D01*
X103952949Y-80624324D01*
X103962807Y-80630024D01*
X103972389Y-80635827D01*
X103981694Y-80641734D01*
X103990722Y-80647745D01*
X103999474Y-80653860D01*
X104007949Y-80660079D01*
X104016147Y-80666402D01*
X104027973Y-80675998D01*
X104039424Y-80685688D01*
X104050499Y-80695472D01*
X104061199Y-80705351D01*
X104071523Y-80715325D01*
X104081472Y-80725393D01*
X104091045Y-80735555D01*
X104100243Y-80745812D01*
X104109066Y-80756163D01*
X104117513Y-80766609D01*
X104125585Y-80777149D01*
X104133281Y-80787783D01*
X104140602Y-80798512D01*
X104147547Y-80809336D01*
X104154117Y-80820254D01*
X104160312Y-80831266D01*
X104166131Y-80842373D01*
X104171575Y-80853574D01*
X104176643Y-80864870D01*
X104181336Y-80876260D01*
X104185653Y-80887745D01*
X104189595Y-80899324D01*
X104193162Y-80910998D01*
X104196353Y-80922766D01*
X104199169Y-80934628D01*
X104201609Y-80946585D01*
X104203674Y-80958636D01*
X104205363Y-80970782D01*
X104206677Y-80983022D01*
X104207616Y-80995357D01*
X104208179Y-81007786D01*
X104208367Y-81020310D01*
X104208057Y-81030971D01*
X104207130Y-81041962D01*
X104205584Y-81053283D01*
X104204020Y-81061990D01*
X104202107Y-81070882D01*
X104199846Y-81079960D01*
X104197238Y-81089223D01*
X104194282Y-81098672D01*
X104190979Y-81108306D01*
X104188583Y-81114832D01*
X104098946Y-81038775D01*
X104104533Y-81027849D01*
X104109570Y-81016835D01*
X104114058Y-81005732D01*
X104117997Y-80994540D01*
X104121386Y-80983259D01*
X104124225Y-80971889D01*
X104126515Y-80960430D01*
X104128255Y-80948883D01*
X104129446Y-80937246D01*
X104130087Y-80925521D01*
X104130209Y-80917655D01*
X104129842Y-80901832D01*
X104128743Y-80886513D01*
X104126912Y-80871696D01*
X104124347Y-80857383D01*
X104121050Y-80843573D01*
X104117020Y-80830267D01*
X104112257Y-80817463D01*
X104106762Y-80805163D01*
X104100533Y-80793365D01*
X104093572Y-80782071D01*
X104085879Y-80771281D01*
X104077452Y-80760993D01*
X104068293Y-80751208D01*
X104058401Y-80741927D01*
X104047777Y-80733149D01*
X104036420Y-80724874D01*
X104024116Y-80716905D01*
X104010591Y-80709102D01*
X103995845Y-80701463D01*
X103979877Y-80693989D01*
X103962689Y-80686680D01*
X103953637Y-80683088D01*
X103944279Y-80679536D01*
X103934616Y-80676026D01*
X103924648Y-80672557D01*
X103914375Y-80669129D01*
X103903796Y-80665743D01*
X103892912Y-80662397D01*
X103881722Y-80659093D01*
X103870228Y-80655830D01*
X103858428Y-80652609D01*
X103846322Y-80649428D01*
X103833912Y-80646289D01*
X103821196Y-80643191D01*
X103808175Y-80640134D01*
X103794848Y-80637118D01*
X103781216Y-80634144D01*
X103767279Y-80631211D01*
X103753037Y-80628319D01*
X103738489Y-80625468D01*
X103723636Y-80622658D01*
X103708478Y-80619890D01*
X103693014Y-80617163D01*
X103355715Y-80558911D01*
G37*
G36*
X103395526Y-79321552D02*
G01*
X103400903Y-79314017D01*
X103409054Y-79308659D01*
X103417264Y-79307264D01*
X103429007Y-79308432D01*
X103441642Y-79311935D01*
X103451705Y-79316095D01*
X103462270Y-79321569D01*
X103473338Y-79328357D01*
X103484908Y-79336459D01*
X103492900Y-79342590D01*
X103501116Y-79349304D01*
X103509554Y-79356603D01*
X103518216Y-79364485D01*
X103527102Y-79372952D01*
X103536210Y-79382002D01*
X103543904Y-79389963D01*
X103551353Y-79397992D01*
X103558558Y-79406087D01*
X103565519Y-79414250D01*
X103572236Y-79422481D01*
X103578709Y-79430779D01*
X103584937Y-79439144D01*
X103590921Y-79447577D01*
X103596660Y-79456077D01*
X103602156Y-79464645D01*
X103607407Y-79473280D01*
X103612414Y-79481982D01*
X103617177Y-79490752D01*
X103621695Y-79499589D01*
X103625969Y-79508493D01*
X103630000Y-79517465D01*
X103633785Y-79526505D01*
X103637327Y-79535612D01*
X103640624Y-79544786D01*
X103643677Y-79554027D01*
X103646486Y-79563337D01*
X103649050Y-79572713D01*
X103651371Y-79582157D01*
X103653447Y-79591668D01*
X103655279Y-79601247D01*
X103656866Y-79610893D01*
X103658210Y-79620606D01*
X103659309Y-79630387D01*
X103660163Y-79640235D01*
X103660774Y-79650151D01*
X103661140Y-79660134D01*
X103661263Y-79670184D01*
X103660851Y-79686272D01*
X103659618Y-79701948D01*
X103657562Y-79717212D01*
X103654683Y-79732063D01*
X103650982Y-79746503D01*
X103646459Y-79760530D01*
X103641114Y-79774145D01*
X103634945Y-79787348D01*
X103627955Y-79800138D01*
X103620142Y-79812517D01*
X103611507Y-79824483D01*
X103602049Y-79836038D01*
X103591769Y-79847180D01*
X103580666Y-79857909D01*
X103568741Y-79868227D01*
X103555994Y-79878133D01*
X103542523Y-79887529D01*
X103528490Y-79896319D01*
X103513894Y-79904503D01*
X103498734Y-79912081D01*
X103483012Y-79919053D01*
X103466727Y-79925418D01*
X103449879Y-79931177D01*
X103432468Y-79936330D01*
X103414494Y-79940876D01*
X103395958Y-79944817D01*
X103376858Y-79948151D01*
X103367097Y-79949591D01*
X103357196Y-79950879D01*
X103347153Y-79952016D01*
X103336970Y-79953001D01*
X103326646Y-79953834D01*
X103316182Y-79954516D01*
X103305577Y-79955047D01*
X103294831Y-79955426D01*
X103283944Y-79955653D01*
X103272916Y-79955729D01*
X103257137Y-79955587D01*
X103241518Y-79955161D01*
X103226060Y-79954452D01*
X103210764Y-79953458D01*
X103195629Y-79952181D01*
X103180656Y-79950621D01*
X103165843Y-79948776D01*
X103151192Y-79946647D01*
X103136702Y-79944235D01*
X103122373Y-79941539D01*
X103108206Y-79938559D01*
X103094199Y-79935296D01*
X103080354Y-79931749D01*
X103066671Y-79927917D01*
X103053148Y-79923802D01*
X103039787Y-79919404D01*
X103026587Y-79914721D01*
X103013548Y-79909755D01*
X103000670Y-79904505D01*
X102987954Y-79898971D01*
X102975399Y-79893153D01*
X102963005Y-79887052D01*
X102950772Y-79880666D01*
X102938701Y-79873997D01*
X102926790Y-79867045D01*
X102915042Y-79859808D01*
X102903454Y-79852288D01*
X102892027Y-79844483D01*
X102880762Y-79836395D01*
X102869658Y-79828024D01*
X102858715Y-79819368D01*
X102847934Y-79810429D01*
X102837385Y-79801279D01*
X102827171Y-79791993D01*
X102817292Y-79782571D01*
X102807748Y-79773011D01*
X102798539Y-79763316D01*
X102789665Y-79753484D01*
X102781125Y-79743515D01*
X102772921Y-79733410D01*
X102765051Y-79723168D01*
X102757516Y-79712790D01*
X102750316Y-79702275D01*
X102743451Y-79691624D01*
X102736921Y-79680836D01*
X102730726Y-79669911D01*
X102724866Y-79658850D01*
X102719340Y-79647653D01*
X102714149Y-79636319D01*
X102709294Y-79624849D01*
X102704773Y-79613242D01*
X102700587Y-79601498D01*
X102696736Y-79589618D01*
X102693219Y-79577601D01*
X102690038Y-79565448D01*
X102687192Y-79553159D01*
X102684680Y-79540732D01*
X102682503Y-79528170D01*
X102680661Y-79515470D01*
X102679154Y-79502635D01*
X102677982Y-79489662D01*
X102677145Y-79476553D01*
X102676643Y-79463308D01*
X102676475Y-79449926D01*
X102676661Y-79436212D01*
X102677220Y-79422435D01*
X102678150Y-79408597D01*
X102679452Y-79394697D01*
X102681127Y-79380735D01*
X102683173Y-79366711D01*
X102685592Y-79352626D01*
X102688382Y-79338478D01*
X102691545Y-79324269D01*
X102695080Y-79309998D01*
X102698987Y-79295665D01*
X102703266Y-79281270D01*
X102707917Y-79266814D01*
X102712940Y-79252296D01*
X102718335Y-79237715D01*
X102724103Y-79223073D01*
X102828639Y-79264619D01*
X102859169Y-79276270D01*
X102869583Y-79281102D01*
X102878231Y-79286256D01*
X102886280Y-79292866D01*
X102892458Y-79301164D01*
X102895176Y-79310092D01*
X102895317Y-79312759D01*
X102894081Y-79321703D01*
X102893119Y-79325729D01*
X102883971Y-79322388D01*
X102874403Y-79319575D01*
X102864771Y-79317692D01*
X102857215Y-79317156D01*
X102845556Y-79318021D01*
X102834272Y-79320618D01*
X102823361Y-79324946D01*
X102812824Y-79331004D01*
X102805167Y-79336684D01*
X102797720Y-79343338D01*
X102790484Y-79350966D01*
X102783458Y-79359567D01*
X102776642Y-79369142D01*
X102774417Y-79372550D01*
X102768088Y-79383058D01*
X102762381Y-79393890D01*
X102757297Y-79405046D01*
X102752836Y-79416528D01*
X102748997Y-79428333D01*
X102745780Y-79440464D01*
X102743186Y-79452919D01*
X102741215Y-79465698D01*
X102739866Y-79478802D01*
X102739313Y-79487719D01*
X102739036Y-79496779D01*
X102739002Y-79501364D01*
X102739132Y-79510733D01*
X102739524Y-79519993D01*
X102740178Y-79529141D01*
X102741093Y-79538180D01*
X102742269Y-79547108D01*
X102743707Y-79555926D01*
X102745406Y-79564634D01*
X102749589Y-79581718D01*
X102754817Y-79598360D01*
X102761091Y-79614562D01*
X102768411Y-79630321D01*
X102776776Y-79645640D01*
X102786187Y-79660517D01*
X102796644Y-79674953D01*
X102808146Y-79688948D01*
X102820694Y-79702501D01*
X102827360Y-79709112D01*
X102834288Y-79715613D01*
X102841477Y-79722003D01*
X102848927Y-79728283D01*
X102856639Y-79734453D01*
X102864612Y-79740512D01*
X102872847Y-79746461D01*
X102881275Y-79752263D01*
X102889862Y-79757881D01*
X102898605Y-79763314D01*
X102907506Y-79768564D01*
X102916565Y-79773629D01*
X102925781Y-79778509D01*
X102935154Y-79783206D01*
X102944685Y-79787719D01*
X102954373Y-79792047D01*
X102964218Y-79796191D01*
X102974221Y-79800151D01*
X102984382Y-79803927D01*
X102994700Y-79807518D01*
X103005175Y-79810926D01*
X103015807Y-79814149D01*
X103026598Y-79817188D01*
X103037545Y-79820043D01*
X103048650Y-79822714D01*
X103059912Y-79825200D01*
X103071332Y-79827502D01*
X103082909Y-79829621D01*
X103094644Y-79831554D01*
X103106536Y-79833304D01*
X103118586Y-79834870D01*
X103130792Y-79836251D01*
X103143157Y-79837448D01*
X103155678Y-79838461D01*
X103168358Y-79839290D01*
X103181194Y-79839935D01*
X103194188Y-79840395D01*
X103207340Y-79840672D01*
X103220648Y-79840764D01*
X103230933Y-79840699D01*
X103241086Y-79840505D01*
X103251108Y-79840182D01*
X103260998Y-79839730D01*
X103270758Y-79839148D01*
X103289883Y-79837598D01*
X103308484Y-79835530D01*
X103326559Y-79832945D01*
X103344111Y-79829844D01*
X103361137Y-79826225D01*
X103377639Y-79822090D01*
X103393616Y-79817438D01*
X103409068Y-79812269D01*
X103423995Y-79806582D01*
X103438398Y-79800379D01*
X103452276Y-79793660D01*
X103465629Y-79786423D01*
X103478458Y-79778669D01*
X103484675Y-79774598D01*
X103496594Y-79766154D01*
X103507745Y-79757363D01*
X103518126Y-79748225D01*
X103527738Y-79738740D01*
X103536581Y-79728909D01*
X103544656Y-79718730D01*
X103551961Y-79708204D01*
X103558497Y-79697332D01*
X103564265Y-79686113D01*
X103569263Y-79674546D01*
X103573493Y-79662633D01*
X103576953Y-79650373D01*
X103579644Y-79637766D01*
X103581567Y-79624813D01*
X103582720Y-79611512D01*
X103583105Y-79597864D01*
X103582894Y-79587892D01*
X103582261Y-79577922D01*
X103581207Y-79567957D01*
X103579731Y-79557995D01*
X103577834Y-79548036D01*
X103575514Y-79538080D01*
X103572773Y-79528128D01*
X103569610Y-79518180D01*
X103566026Y-79508235D01*
X103562020Y-79498293D01*
X103557592Y-79488355D01*
X103552742Y-79478420D01*
X103547471Y-79468489D01*
X103541778Y-79458561D01*
X103535664Y-79448637D01*
X103529127Y-79438715D01*
X103522251Y-79428933D01*
X103515179Y-79419478D01*
X103507910Y-79410351D01*
X103500444Y-79401552D01*
X103492782Y-79393082D01*
X103484923Y-79384939D01*
X103476868Y-79377124D01*
X103468616Y-79369637D01*
X103460168Y-79362479D01*
X103451523Y-79355648D01*
X103442681Y-79349145D01*
X103433644Y-79342971D01*
X103424409Y-79337124D01*
X103414978Y-79331605D01*
X103405350Y-79326415D01*
X103395526Y-79321552D01*
G37*
G36*
X103187465Y-78721993D02*
G01*
X103197731Y-78722312D01*
X103207971Y-78722843D01*
X103218187Y-78723587D01*
X103228377Y-78724544D01*
X103238542Y-78725713D01*
X103248682Y-78727094D01*
X103258796Y-78728688D01*
X103268885Y-78730494D01*
X103278949Y-78732513D01*
X103288988Y-78734745D01*
X103299001Y-78737189D01*
X103308989Y-78739845D01*
X103318951Y-78742714D01*
X103328889Y-78745796D01*
X103338801Y-78749090D01*
X103348688Y-78752596D01*
X103358549Y-78756315D01*
X103368386Y-78760247D01*
X103378197Y-78764391D01*
X103387982Y-78768748D01*
X103397743Y-78773317D01*
X103407478Y-78778099D01*
X103417188Y-78783093D01*
X103426872Y-78788300D01*
X103436531Y-78793719D01*
X103446165Y-78799351D01*
X103455774Y-78805195D01*
X103465358Y-78811252D01*
X103474916Y-78817521D01*
X103484449Y-78824003D01*
X103493956Y-78830697D01*
X103503288Y-78837508D01*
X103512323Y-78844337D01*
X103521062Y-78851186D01*
X103529505Y-78858054D01*
X103537652Y-78864942D01*
X103545502Y-78871849D01*
X103553056Y-78878775D01*
X103560314Y-78885721D01*
X103567276Y-78892686D01*
X103573941Y-78899670D01*
X103580310Y-78906673D01*
X103586383Y-78913696D01*
X103597640Y-78927800D01*
X103607712Y-78941980D01*
X103616600Y-78956239D01*
X103624302Y-78970574D01*
X103630819Y-78984987D01*
X103636151Y-78999477D01*
X103640299Y-79014044D01*
X103643261Y-79028689D01*
X103645039Y-79043410D01*
X103645631Y-79058210D01*
X103644835Y-79075059D01*
X103642448Y-79090822D01*
X103638470Y-79105497D01*
X103632900Y-79119086D01*
X103625739Y-79131587D01*
X103616986Y-79143001D01*
X103606642Y-79153328D01*
X103594706Y-79162568D01*
X103581180Y-79170721D01*
X103566061Y-79177787D01*
X103549352Y-79183766D01*
X103531051Y-79188658D01*
X103521303Y-79190696D01*
X103511158Y-79192463D01*
X103500615Y-79193958D01*
X103489674Y-79195181D01*
X103478336Y-79196132D01*
X103466599Y-79196811D01*
X103454465Y-79197219D01*
X103441933Y-79197355D01*
X103431686Y-79197248D01*
X103421463Y-79196930D01*
X103411263Y-79196398D01*
X103401087Y-79195655D01*
X103390934Y-79194698D01*
X103380804Y-79193529D01*
X103370698Y-79192148D01*
X103360615Y-79190554D01*
X103350555Y-79188748D01*
X103340519Y-79186729D01*
X103330506Y-79184497D01*
X103320517Y-79182053D01*
X103310551Y-79179397D01*
X103300608Y-79176528D01*
X103290689Y-79173446D01*
X103280793Y-79170152D01*
X103270921Y-79166646D01*
X103261072Y-79162926D01*
X103251246Y-79158995D01*
X103241443Y-79154851D01*
X103231664Y-79150494D01*
X103221909Y-79145925D01*
X103212177Y-79141143D01*
X103202468Y-79136149D01*
X103192782Y-79130942D01*
X103183120Y-79125523D01*
X103173481Y-79119891D01*
X103163866Y-79114047D01*
X103154274Y-79107990D01*
X103144705Y-79101721D01*
X103135160Y-79095239D01*
X103125638Y-79088545D01*
X103116276Y-79081736D01*
X103107212Y-79074911D01*
X103098445Y-79068071D01*
X103089975Y-79061215D01*
X103081802Y-79054343D01*
X103073926Y-79047455D01*
X103066348Y-79040551D01*
X103059067Y-79033631D01*
X103052083Y-79026695D01*
X103045396Y-79019744D01*
X103039006Y-79012776D01*
X103032914Y-79005793D01*
X103021620Y-78991779D01*
X103011516Y-78977701D01*
X103002600Y-78963560D01*
X102994873Y-78949355D01*
X102989051Y-78936650D01*
X103051632Y-78936650D01*
X103052401Y-78949642D01*
X103054706Y-78962240D01*
X103058549Y-78974444D01*
X103063929Y-78986253D01*
X103070845Y-78997669D01*
X103076310Y-79005060D01*
X103082458Y-79012276D01*
X103089289Y-79019318D01*
X103096804Y-79026183D01*
X103105001Y-79032874D01*
X103113881Y-79039390D01*
X103123445Y-79045730D01*
X103133692Y-79051895D01*
X103139071Y-79054912D01*
X103150135Y-79060715D01*
X103161526Y-79066144D01*
X103173246Y-79071198D01*
X103185294Y-79075877D01*
X103197671Y-79080183D01*
X103210375Y-79084114D01*
X103223408Y-79087670D01*
X103236769Y-79090853D01*
X103250458Y-79093660D01*
X103264475Y-79096094D01*
X103278820Y-79098153D01*
X103293494Y-79099838D01*
X103308496Y-79101148D01*
X103323826Y-79102084D01*
X103339484Y-79102646D01*
X103355471Y-79102833D01*
X103368514Y-79102716D01*
X103381143Y-79102366D01*
X103393358Y-79101784D01*
X103405159Y-79100968D01*
X103416546Y-79099919D01*
X103427518Y-79098636D01*
X103438077Y-79097121D01*
X103448222Y-79095373D01*
X103457952Y-79093391D01*
X103476171Y-79088728D01*
X103492734Y-79083133D01*
X103507641Y-79076606D01*
X103520891Y-79069146D01*
X103532485Y-79060753D01*
X103542422Y-79051428D01*
X103550704Y-79041170D01*
X103557329Y-79029980D01*
X103562297Y-79017858D01*
X103565610Y-79004802D01*
X103567266Y-78990815D01*
X103567473Y-78983471D01*
X103566709Y-78970361D01*
X103564416Y-78957657D01*
X103560595Y-78945359D01*
X103555246Y-78933466D01*
X103548368Y-78921979D01*
X103542934Y-78914546D01*
X103536820Y-78907294D01*
X103530027Y-78900222D01*
X103522555Y-78893330D01*
X103514403Y-78886619D01*
X103505572Y-78880088D01*
X103496062Y-78873737D01*
X103485872Y-78867567D01*
X103480523Y-78864549D01*
X103469486Y-78858747D01*
X103458114Y-78853318D01*
X103446405Y-78848264D01*
X103434361Y-78843584D01*
X103421981Y-78839279D01*
X103409265Y-78835348D01*
X103396213Y-78831791D01*
X103382826Y-78828609D01*
X103369102Y-78825801D01*
X103355043Y-78823368D01*
X103340648Y-78821309D01*
X103325917Y-78819624D01*
X103310850Y-78818314D01*
X103295448Y-78817378D01*
X103279709Y-78816816D01*
X103263635Y-78816629D01*
X103250592Y-78816746D01*
X103237963Y-78817098D01*
X103225748Y-78817684D01*
X103213947Y-78818504D01*
X103202560Y-78819559D01*
X103191587Y-78820848D01*
X103181029Y-78822372D01*
X103170884Y-78824130D01*
X103161153Y-78826123D01*
X103142934Y-78830811D01*
X103126372Y-78836437D01*
X103111465Y-78843001D01*
X103098215Y-78850502D01*
X103086621Y-78858941D01*
X103076684Y-78868318D01*
X103068402Y-78878632D01*
X103061777Y-78889884D01*
X103056808Y-78902074D01*
X103053496Y-78915201D01*
X103051839Y-78929266D01*
X103051632Y-78936650D01*
X102989051Y-78936650D01*
X102988334Y-78935086D01*
X102982985Y-78920754D01*
X102978824Y-78906359D01*
X102975852Y-78891900D01*
X102974069Y-78877377D01*
X102973475Y-78862791D01*
X102974270Y-78845728D01*
X102976658Y-78829767D01*
X102980636Y-78814906D01*
X102986206Y-78801145D01*
X102993367Y-78788486D01*
X103002120Y-78776928D01*
X103012464Y-78766470D01*
X103024399Y-78757113D01*
X103037926Y-78748857D01*
X103053044Y-78741702D01*
X103069754Y-78735647D01*
X103088055Y-78730694D01*
X103097802Y-78728630D01*
X103107948Y-78726841D01*
X103118491Y-78725327D01*
X103129431Y-78724089D01*
X103140770Y-78723126D01*
X103152507Y-78722438D01*
X103164641Y-78722025D01*
X103177173Y-78721887D01*
X103187465Y-78721993D01*
G37*
G36*
X103426789Y-78404689D02*
G01*
X103431903Y-78396803D01*
X103439283Y-78390114D01*
X103448668Y-78386822D01*
X103451458Y-78386664D01*
X103464098Y-78387705D01*
X103474058Y-78389851D01*
X103484431Y-78393168D01*
X103495216Y-78397656D01*
X103506413Y-78403315D01*
X103518022Y-78410145D01*
X103525990Y-78415348D01*
X103534142Y-78421072D01*
X103542477Y-78427316D01*
X103550995Y-78434081D01*
X103559696Y-78441366D01*
X103568580Y-78449171D01*
X103573091Y-78453269D01*
X103581875Y-78461484D01*
X103590093Y-78469532D01*
X103597743Y-78477414D01*
X103604827Y-78485129D01*
X103611344Y-78492677D01*
X103617295Y-78500059D01*
X103625158Y-78510820D01*
X103631746Y-78521206D01*
X103637059Y-78531217D01*
X103641097Y-78540853D01*
X103643860Y-78550114D01*
X103645348Y-78559001D01*
X103645631Y-78564717D01*
X103644908Y-78573909D01*
X103641692Y-78584759D01*
X103635905Y-78594002D01*
X103627545Y-78601637D01*
X103616614Y-78607665D01*
X103606727Y-78611131D01*
X103595393Y-78613693D01*
X103582613Y-78615351D01*
X103568385Y-78616104D01*
X103563321Y-78616154D01*
X103550716Y-78616069D01*
X103538057Y-78615811D01*
X103525345Y-78615382D01*
X103512580Y-78614781D01*
X103499761Y-78614008D01*
X103486888Y-78613063D01*
X103473963Y-78611947D01*
X103464233Y-78610997D01*
X103460983Y-78610659D01*
X103399678Y-78603845D01*
X102921695Y-78556144D01*
X102908119Y-78554668D01*
X102894683Y-78553015D01*
X102881387Y-78551185D01*
X102868233Y-78549178D01*
X102855219Y-78546995D01*
X102842346Y-78544634D01*
X102829614Y-78542097D01*
X102817022Y-78539383D01*
X102804571Y-78536492D01*
X102792261Y-78533424D01*
X102780091Y-78530179D01*
X102768063Y-78526757D01*
X102756175Y-78523158D01*
X102744427Y-78519383D01*
X102732821Y-78515430D01*
X102721355Y-78511301D01*
X102710030Y-78506995D01*
X102698846Y-78502512D01*
X102687802Y-78497852D01*
X102676899Y-78493015D01*
X102666137Y-78488001D01*
X102655515Y-78482810D01*
X102645035Y-78477443D01*
X102634695Y-78471898D01*
X102624495Y-78466177D01*
X102614437Y-78460279D01*
X102604519Y-78454204D01*
X102594742Y-78447952D01*
X102585105Y-78441523D01*
X102575610Y-78434917D01*
X102566255Y-78428135D01*
X102557041Y-78421175D01*
X102548040Y-78414080D01*
X102539324Y-78406919D01*
X102530895Y-78399691D01*
X102522751Y-78392396D01*
X102514893Y-78385035D01*
X102507321Y-78377607D01*
X102500035Y-78370113D01*
X102493034Y-78362552D01*
X102486319Y-78354925D01*
X102479890Y-78347231D01*
X102473746Y-78339471D01*
X102467888Y-78331644D01*
X102462316Y-78323750D01*
X102457030Y-78315790D01*
X102452029Y-78307764D01*
X102447315Y-78299671D01*
X102442886Y-78291511D01*
X102438742Y-78283285D01*
X102434885Y-78274992D01*
X102431313Y-78266633D01*
X102428027Y-78258207D01*
X102425026Y-78249714D01*
X102422312Y-78241155D01*
X102419883Y-78232530D01*
X102417740Y-78223838D01*
X102415883Y-78215079D01*
X102414311Y-78206254D01*
X102413025Y-78197362D01*
X102412025Y-78188404D01*
X102411311Y-78179379D01*
X102410882Y-78170288D01*
X102410739Y-78161130D01*
X102410906Y-78150201D01*
X102411407Y-78139809D01*
X102412242Y-78129954D01*
X102413411Y-78120635D01*
X102414913Y-78111853D01*
X102417157Y-78102023D01*
X102417578Y-78100460D01*
X102515519Y-78188387D01*
X102512353Y-78197697D01*
X102509723Y-78207489D01*
X102507630Y-78217764D01*
X102506074Y-78228522D01*
X102505215Y-78237476D01*
X102504700Y-78246739D01*
X102504528Y-78256311D01*
X102504811Y-78267725D01*
X102505658Y-78278774D01*
X102507070Y-78289459D01*
X102509047Y-78299781D01*
X102511589Y-78309738D01*
X102514695Y-78319331D01*
X102518366Y-78328560D01*
X102522602Y-78337424D01*
X102527403Y-78345925D01*
X102532769Y-78354062D01*
X102538700Y-78361835D01*
X102545195Y-78369243D01*
X102552255Y-78376288D01*
X102559880Y-78382968D01*
X102568070Y-78389284D01*
X102576824Y-78395237D01*
X102586224Y-78400868D01*
X102596410Y-78406276D01*
X102607381Y-78411460D01*
X102619139Y-78416422D01*
X102631684Y-78421160D01*
X102645014Y-78425675D01*
X102659130Y-78429966D01*
X102674033Y-78434035D01*
X102689722Y-78437880D01*
X102706197Y-78441502D01*
X102723458Y-78444900D01*
X102741505Y-78448076D01*
X102760338Y-78451028D01*
X102770050Y-78452420D01*
X102779958Y-78453757D01*
X102790063Y-78455037D01*
X102800364Y-78456262D01*
X102810861Y-78457431D01*
X102821556Y-78458545D01*
X103395038Y-78515917D01*
X103407164Y-78517135D01*
X103418628Y-78518233D01*
X103429432Y-78519211D01*
X103439574Y-78520070D01*
X103452069Y-78521028D01*
X103463388Y-78521773D01*
X103473531Y-78522306D01*
X103484558Y-78522672D01*
X103490293Y-78522732D01*
X103501292Y-78522563D01*
X103511210Y-78522059D01*
X103522750Y-78520864D01*
X103532367Y-78519071D01*
X103541684Y-78515989D01*
X103549678Y-78510107D01*
X103551842Y-78503607D01*
X103550477Y-78494748D01*
X103546381Y-78485318D01*
X103540882Y-78477022D01*
X103533486Y-78468329D01*
X103526205Y-78461089D01*
X103517710Y-78453594D01*
X103513007Y-78449752D01*
X103503112Y-78442268D01*
X103492964Y-78435312D01*
X103482565Y-78428886D01*
X103471913Y-78422989D01*
X103461010Y-78417620D01*
X103449855Y-78412781D01*
X103438448Y-78408471D01*
X103426789Y-78404689D01*
G37*
G36*
X103426789Y-78020006D02*
G01*
X103432254Y-78012698D01*
X103439669Y-78006057D01*
X103448283Y-78003300D01*
X103459242Y-78005194D01*
X103468447Y-78008560D01*
X103479171Y-78013609D01*
X103488211Y-78018500D01*
X103498105Y-78024338D01*
X103508853Y-78031122D01*
X103520456Y-78038853D01*
X103528665Y-78044533D01*
X103537255Y-78050634D01*
X103546224Y-78057156D01*
X103558262Y-78066155D01*
X103569523Y-78075071D01*
X103580007Y-78083905D01*
X103589715Y-78092657D01*
X103598646Y-78101326D01*
X103606800Y-78109912D01*
X103614178Y-78118417D01*
X103620779Y-78126838D01*
X103626604Y-78135178D01*
X103631652Y-78143435D01*
X103635923Y-78151609D01*
X103640874Y-78163716D01*
X103644078Y-78175638D01*
X103645534Y-78187374D01*
X103645631Y-78191245D01*
X103644604Y-78201807D01*
X103641525Y-78210960D01*
X103636392Y-78218705D01*
X103629206Y-78225042D01*
X103619966Y-78229971D01*
X103608674Y-78233492D01*
X103598857Y-78235208D01*
X103587886Y-78236132D01*
X103579930Y-78236308D01*
X103568420Y-78235857D01*
X103555168Y-78234847D01*
X103542870Y-78233711D01*
X103528549Y-78232251D01*
X103517879Y-78231097D01*
X103506310Y-78229798D01*
X103493842Y-78228356D01*
X103480475Y-78226769D01*
X103466210Y-78225038D01*
X103451046Y-78223163D01*
X103434983Y-78221143D01*
X103418022Y-78218979D01*
X103409204Y-78217843D01*
X103225045Y-78193663D01*
X103178394Y-78187508D01*
X103141025Y-78182452D01*
X103131023Y-78181253D01*
X103120478Y-78180243D01*
X103109747Y-78179567D01*
X103101214Y-78179375D01*
X103091433Y-78179799D01*
X103080526Y-78181817D01*
X103071276Y-78186854D01*
X103067297Y-78195672D01*
X103067264Y-78196741D01*
X103068226Y-78205835D01*
X103071111Y-78215064D01*
X103075919Y-78224428D01*
X103082651Y-78233928D01*
X103091307Y-78243563D01*
X103098145Y-78250061D01*
X103105839Y-78256619D01*
X103114388Y-78263238D01*
X103123791Y-78269917D01*
X103134049Y-78276656D01*
X103145162Y-78283455D01*
X103157130Y-78290314D01*
X103169953Y-78297233D01*
X103176685Y-78300715D01*
X103169510Y-78306859D01*
X103160901Y-78311227D01*
X103153726Y-78312365D01*
X103142968Y-78311280D01*
X103131332Y-78308024D01*
X103122029Y-78304157D01*
X103112232Y-78299070D01*
X103101942Y-78292761D01*
X103091158Y-78285231D01*
X103083694Y-78279533D01*
X103076011Y-78273292D01*
X103068108Y-78266509D01*
X103059986Y-78259183D01*
X103051645Y-78251314D01*
X103043084Y-78242903D01*
X103034655Y-78234303D01*
X103026769Y-78225925D01*
X103019428Y-78217768D01*
X103012630Y-78209834D01*
X103006376Y-78202120D01*
X103000666Y-78194628D01*
X102993120Y-78183806D01*
X102986798Y-78173482D01*
X102981700Y-78163656D01*
X102977825Y-78154329D01*
X102975174Y-78145501D01*
X102973543Y-78134505D01*
X102973475Y-78131894D01*
X102974574Y-78121023D01*
X102977871Y-78111602D01*
X102983367Y-78103630D01*
X102991060Y-78097108D01*
X103000952Y-78092035D01*
X103013042Y-78088411D01*
X103023552Y-78086645D01*
X103035299Y-78085694D01*
X103043817Y-78085512D01*
X103053751Y-78085912D01*
X103064577Y-78086776D01*
X103076015Y-78087902D01*
X103087068Y-78089112D01*
X103096906Y-78090257D01*
X103099504Y-78090568D01*
X103144933Y-78096064D01*
X103155146Y-78097331D01*
X103164889Y-78098544D01*
X103175369Y-78099851D01*
X103185299Y-78101089D01*
X103196603Y-78102499D01*
X103199644Y-78102878D01*
X103393328Y-78128157D01*
X103436803Y-78134312D01*
X103448474Y-78135766D01*
X103459398Y-78137076D01*
X103469574Y-78138244D01*
X103481981Y-78139578D01*
X103493060Y-78140658D01*
X103502811Y-78141484D01*
X103513131Y-78142159D01*
X103522777Y-78142445D01*
X103532654Y-78141904D01*
X103542645Y-78139500D01*
X103550451Y-78133054D01*
X103551842Y-78127058D01*
X103550743Y-78117265D01*
X103547445Y-78107421D01*
X103541950Y-78097528D01*
X103534256Y-78087584D01*
X103524364Y-78077589D01*
X103516549Y-78070899D01*
X103507756Y-78064186D01*
X103497986Y-78057450D01*
X103487240Y-78050692D01*
X103475516Y-78043912D01*
X103462815Y-78037110D01*
X103449138Y-78030285D01*
X103434483Y-78023438D01*
X103426789Y-78020006D01*
G37*
G36*
X102895317Y-78144204D02*
G01*
X102749993Y-78092327D01*
X102745866Y-78083768D01*
X102741547Y-78075401D01*
X102737035Y-78067226D01*
X102732331Y-78059244D01*
X102727433Y-78051454D01*
X102722343Y-78043857D01*
X102717061Y-78036452D01*
X102708775Y-78025705D01*
X102700056Y-78015390D01*
X102690904Y-78005509D01*
X102681317Y-77996060D01*
X102671297Y-77987044D01*
X102660844Y-77978461D01*
X102669533Y-77974253D01*
X102679153Y-77972360D01*
X102681116Y-77972306D01*
X102693001Y-77972977D01*
X102705086Y-77974992D01*
X102717372Y-77978349D01*
X102729858Y-77983049D01*
X102742544Y-77989093D01*
X102755431Y-77996479D01*
X102768518Y-78005208D01*
X102781805Y-78015280D01*
X102795293Y-78026695D01*
X102808981Y-78039454D01*
X102815900Y-78046336D01*
X102822869Y-78053555D01*
X102829889Y-78061109D01*
X102836958Y-78068999D01*
X102844078Y-78077224D01*
X102851247Y-78085785D01*
X102858467Y-78094683D01*
X102865737Y-78103915D01*
X102873057Y-78113484D01*
X102880427Y-78123388D01*
X102887847Y-78133628D01*
X102895317Y-78144204D01*
G37*
G36*
X103603866Y-77779965D02*
G01*
X103647829Y-77872288D01*
X103626580Y-77870530D01*
X103576510Y-77865474D01*
X103529127Y-77860418D01*
X103214298Y-77828325D01*
X103178394Y-77824588D01*
X103168148Y-77823712D01*
X103158412Y-77822953D01*
X103146962Y-77822168D01*
X103136311Y-77821566D01*
X103126459Y-77821146D01*
X103115692Y-77820884D01*
X103110739Y-77820851D01*
X103100550Y-77821160D01*
X103089723Y-77822416D01*
X103079534Y-77825198D01*
X103070703Y-77831071D01*
X103067306Y-77839417D01*
X103067264Y-77840635D01*
X103068226Y-77849391D01*
X103071111Y-77858267D01*
X103075919Y-77867263D01*
X103082651Y-77876379D01*
X103091307Y-77885615D01*
X103101885Y-77894970D01*
X103110006Y-77901274D01*
X103118982Y-77907630D01*
X103128813Y-77914040D01*
X103139499Y-77920503D01*
X103151039Y-77927020D01*
X103163435Y-77933589D01*
X103176685Y-77940212D01*
X103169674Y-77947119D01*
X103161839Y-77952491D01*
X103154214Y-77954501D01*
X103143617Y-77953443D01*
X103132095Y-77950269D01*
X103122848Y-77946500D01*
X103113081Y-77941542D01*
X103102795Y-77935393D01*
X103091990Y-77928054D01*
X103080665Y-77919524D01*
X103072826Y-77913177D01*
X103064756Y-77906301D01*
X103056456Y-77898896D01*
X103047925Y-77890962D01*
X103043572Y-77886796D01*
X103035084Y-77878445D01*
X103027143Y-77870317D01*
X103019750Y-77862412D01*
X103012905Y-77854730D01*
X103006607Y-77847272D01*
X103000857Y-77840037D01*
X102993258Y-77829603D01*
X102986892Y-77819671D01*
X102981758Y-77810242D01*
X102977856Y-77801314D01*
X102974570Y-77790193D01*
X102973475Y-77779965D01*
X102974136Y-77770497D01*
X102977074Y-77759322D01*
X102982364Y-77749803D01*
X102990004Y-77741940D01*
X102999995Y-77735731D01*
X103009031Y-77732162D01*
X103019390Y-77729523D01*
X103031070Y-77727816D01*
X103044073Y-77727040D01*
X103048702Y-77726988D01*
X103059051Y-77727181D01*
X103069460Y-77727665D01*
X103079386Y-77728314D01*
X103090240Y-77729179D01*
X103099993Y-77730066D01*
X103155436Y-77734902D01*
X103201842Y-77739738D01*
X103250446Y-77744794D01*
X103235560Y-77735617D01*
X103221003Y-77726332D01*
X103206777Y-77716939D01*
X103192881Y-77707438D01*
X103179315Y-77697829D01*
X103166079Y-77688111D01*
X103153174Y-77678286D01*
X103140598Y-77668352D01*
X103128352Y-77658310D01*
X103116437Y-77648159D01*
X103104852Y-77637901D01*
X103093596Y-77627534D01*
X103082671Y-77617059D01*
X103072076Y-77606476D01*
X103061811Y-77595785D01*
X103051877Y-77584986D01*
X103042383Y-77574232D01*
X103033501Y-77563680D01*
X103025232Y-77553329D01*
X103017576Y-77543179D01*
X103010532Y-77533229D01*
X103004100Y-77523481D01*
X102998282Y-77513933D01*
X102993075Y-77504587D01*
X102988481Y-77495441D01*
X102984500Y-77486497D01*
X102981131Y-77477753D01*
X102978375Y-77469210D01*
X102975389Y-77456772D01*
X102973781Y-77444787D01*
X102973475Y-77437048D01*
X102974295Y-77426323D01*
X102976755Y-77416653D01*
X102980855Y-77408039D01*
X102986595Y-77400479D01*
X102993975Y-77393974D01*
X103002996Y-77388524D01*
X103013656Y-77384128D01*
X103025956Y-77380788D01*
X103039897Y-77378502D01*
X103050102Y-77377565D01*
X103061035Y-77377096D01*
X103066775Y-77377037D01*
X103078396Y-77377277D01*
X103089602Y-77377842D01*
X103099562Y-77378534D01*
X103110408Y-77379440D01*
X103122139Y-77380558D01*
X103134756Y-77381888D01*
X103144800Y-77383026D01*
X103151772Y-77383852D01*
X103409204Y-77417264D01*
X103423436Y-77419032D01*
X103437096Y-77420626D01*
X103450186Y-77422046D01*
X103462705Y-77423292D01*
X103474652Y-77424364D01*
X103486029Y-77425262D01*
X103496834Y-77425987D01*
X103507069Y-77426538D01*
X103519827Y-77427001D01*
X103531570Y-77427156D01*
X103541913Y-77426732D01*
X103552011Y-77425104D01*
X103561548Y-77421034D01*
X103567158Y-77412894D01*
X103567473Y-77409790D01*
X103565519Y-77398820D01*
X103561489Y-77390186D01*
X103555261Y-77381205D01*
X103546835Y-77371876D01*
X103539996Y-77365464D01*
X103532180Y-77358897D01*
X103523387Y-77352175D01*
X103513618Y-77345299D01*
X103502871Y-77338268D01*
X103491147Y-77331083D01*
X103478447Y-77323743D01*
X103464769Y-77316248D01*
X103450115Y-77308599D01*
X103442421Y-77304717D01*
X103448092Y-77297491D01*
X103455775Y-77291535D01*
X103462937Y-77289769D01*
X103474104Y-77290848D01*
X103486110Y-77294083D01*
X103495665Y-77297925D01*
X103505693Y-77302981D01*
X103516193Y-77309249D01*
X103527166Y-77316731D01*
X103534743Y-77322393D01*
X103542530Y-77328595D01*
X103550527Y-77335335D01*
X103558734Y-77342615D01*
X103567151Y-77350434D01*
X103575778Y-77358792D01*
X103584236Y-77367320D01*
X103592149Y-77375646D01*
X103599517Y-77383772D01*
X103606338Y-77391696D01*
X103612614Y-77399420D01*
X103618345Y-77406943D01*
X103625917Y-77417850D01*
X103632261Y-77428306D01*
X103637377Y-77438309D01*
X103641265Y-77447860D01*
X103643926Y-77456959D01*
X103645563Y-77468388D01*
X103645631Y-77471120D01*
X103644437Y-77482402D01*
X103640853Y-77492181D01*
X103634881Y-77500455D01*
X103626519Y-77507225D01*
X103615769Y-77512490D01*
X103606138Y-77515452D01*
X103595163Y-77517567D01*
X103582845Y-77518837D01*
X103569183Y-77519260D01*
X103558316Y-77519146D01*
X103546689Y-77518804D01*
X103534302Y-77518234D01*
X103521155Y-77517436D01*
X103507248Y-77516410D01*
X103492581Y-77515156D01*
X103482381Y-77514194D01*
X103471844Y-77513130D01*
X103460968Y-77511965D01*
X103449755Y-77510698D01*
X103438204Y-77509330D01*
X103426315Y-77507861D01*
X103414089Y-77506290D01*
X103248981Y-77484528D01*
X103239036Y-77483251D01*
X103229353Y-77482056D01*
X103215319Y-77480417D01*
X103201873Y-77478964D01*
X103189015Y-77477697D01*
X103176746Y-77476615D01*
X103165064Y-77475719D01*
X103153971Y-77475008D01*
X103143466Y-77474482D01*
X103133549Y-77474142D01*
X103121242Y-77473977D01*
X103108591Y-77474510D01*
X103097626Y-77476107D01*
X103086293Y-77479600D01*
X103077596Y-77484758D01*
X103070638Y-77493143D01*
X103067738Y-77501960D01*
X103067264Y-77508049D01*
X103067727Y-77517949D01*
X103069115Y-77527867D01*
X103071429Y-77537802D01*
X103074668Y-77547754D01*
X103078832Y-77557723D01*
X103083922Y-77567709D01*
X103089938Y-77577713D01*
X103096878Y-77587733D01*
X103104745Y-77597771D01*
X103113537Y-77607826D01*
X103123254Y-77617898D01*
X103133896Y-77627988D01*
X103145465Y-77638094D01*
X103157958Y-77648218D01*
X103171377Y-77658359D01*
X103185722Y-77668517D01*
X103200567Y-77678419D01*
X103215550Y-77687792D01*
X103230670Y-77696636D01*
X103245928Y-77704952D01*
X103261323Y-77712738D01*
X103276855Y-77719995D01*
X103292525Y-77726724D01*
X103308332Y-77732923D01*
X103324276Y-77738594D01*
X103340358Y-77743736D01*
X103356577Y-77748349D01*
X103372934Y-77752432D01*
X103389428Y-77755987D01*
X103406059Y-77759013D01*
X103422828Y-77761510D01*
X103439734Y-77763478D01*
X103603866Y-77779965D01*
G37*
G36*
X103395526Y-76228265D02*
G01*
X103400903Y-76220731D01*
X103409054Y-76215373D01*
X103417264Y-76213977D01*
X103429007Y-76215145D01*
X103441642Y-76218648D01*
X103451705Y-76222809D01*
X103462270Y-76228283D01*
X103473338Y-76235070D01*
X103484908Y-76243172D01*
X103492900Y-76249303D01*
X103501116Y-76256017D01*
X103509554Y-76263316D01*
X103518216Y-76271199D01*
X103527102Y-76279665D01*
X103536210Y-76288715D01*
X103543904Y-76296676D01*
X103551353Y-76304705D01*
X103558558Y-76312800D01*
X103565519Y-76320964D01*
X103572236Y-76329194D01*
X103578709Y-76337492D01*
X103584937Y-76345857D01*
X103590921Y-76354290D01*
X103596660Y-76362790D01*
X103602156Y-76371358D01*
X103607407Y-76379993D01*
X103612414Y-76388695D01*
X103617177Y-76397465D01*
X103621695Y-76406302D01*
X103625969Y-76415207D01*
X103630000Y-76424179D01*
X103633785Y-76433218D01*
X103637327Y-76442325D01*
X103640624Y-76451499D01*
X103643677Y-76460741D01*
X103646486Y-76470050D01*
X103649050Y-76479426D01*
X103651371Y-76488870D01*
X103653447Y-76498381D01*
X103655279Y-76507960D01*
X103656866Y-76517606D01*
X103658210Y-76527319D01*
X103659309Y-76537100D01*
X103660163Y-76546948D01*
X103660774Y-76556864D01*
X103661140Y-76566847D01*
X103661263Y-76576898D01*
X103660851Y-76592986D01*
X103659618Y-76608661D01*
X103657562Y-76623925D01*
X103654683Y-76638777D01*
X103650982Y-76653216D01*
X103646459Y-76667243D01*
X103641114Y-76680858D01*
X103634945Y-76694061D01*
X103627955Y-76706852D01*
X103620142Y-76719230D01*
X103611507Y-76731197D01*
X103602049Y-76742751D01*
X103591769Y-76753893D01*
X103580666Y-76764623D01*
X103568741Y-76774940D01*
X103555994Y-76784846D01*
X103542523Y-76794242D01*
X103528490Y-76803033D01*
X103513894Y-76811216D01*
X103498734Y-76818794D01*
X103483012Y-76825766D01*
X103466727Y-76832131D01*
X103449879Y-76837890D01*
X103432468Y-76843043D01*
X103414494Y-76847590D01*
X103395958Y-76851530D01*
X103376858Y-76854864D01*
X103367097Y-76856304D01*
X103357196Y-76857592D01*
X103347153Y-76858729D01*
X103336970Y-76859714D01*
X103326646Y-76860547D01*
X103316182Y-76861229D01*
X103305577Y-76861760D01*
X103294831Y-76862139D01*
X103283944Y-76862366D01*
X103272916Y-76862442D01*
X103257137Y-76862300D01*
X103241518Y-76861874D01*
X103226060Y-76861165D01*
X103210764Y-76860172D01*
X103195629Y-76858895D01*
X103180656Y-76857334D01*
X103165843Y-76855489D01*
X103151192Y-76853361D01*
X103136702Y-76850948D01*
X103122373Y-76848252D01*
X103108206Y-76845273D01*
X103094199Y-76842009D01*
X103080354Y-76838462D01*
X103066671Y-76834631D01*
X103053148Y-76830516D01*
X103039787Y-76826117D01*
X103026587Y-76821434D01*
X103013548Y-76816468D01*
X103000670Y-76811218D01*
X102987954Y-76805684D01*
X102975399Y-76799866D01*
X102963005Y-76793765D01*
X102950772Y-76787380D01*
X102938701Y-76780711D01*
X102926790Y-76773758D01*
X102915042Y-76766521D01*
X102903454Y-76759001D01*
X102892027Y-76751197D01*
X102880762Y-76743109D01*
X102869658Y-76734737D01*
X102858715Y-76726081D01*
X102847934Y-76717142D01*
X102837385Y-76707992D01*
X102827171Y-76698706D01*
X102817292Y-76689284D01*
X102807748Y-76679725D01*
X102798539Y-76670029D01*
X102789665Y-76660197D01*
X102781125Y-76650228D01*
X102772921Y-76640123D01*
X102765051Y-76629881D01*
X102757516Y-76619503D01*
X102750316Y-76608988D01*
X102743451Y-76598337D01*
X102736921Y-76587549D01*
X102730726Y-76576625D01*
X102724866Y-76565564D01*
X102719340Y-76554366D01*
X102714149Y-76543032D01*
X102709294Y-76531562D01*
X102704773Y-76519955D01*
X102700587Y-76508211D01*
X102696736Y-76496331D01*
X102693219Y-76484315D01*
X102690038Y-76472161D01*
X102687192Y-76459872D01*
X102684680Y-76447446D01*
X102682503Y-76434883D01*
X102680661Y-76422184D01*
X102679154Y-76409348D01*
X102677982Y-76396375D01*
X102677145Y-76383267D01*
X102676643Y-76370021D01*
X102676475Y-76356639D01*
X102676661Y-76342925D01*
X102677220Y-76329148D01*
X102678150Y-76315310D01*
X102679452Y-76301410D01*
X102681127Y-76287448D01*
X102683173Y-76273424D01*
X102685592Y-76259339D01*
X102688382Y-76245191D01*
X102691545Y-76230982D01*
X102695080Y-76216711D01*
X102698987Y-76202378D01*
X102703266Y-76187984D01*
X102707917Y-76173527D01*
X102712940Y-76159009D01*
X102718335Y-76144429D01*
X102724103Y-76129787D01*
X102828639Y-76171332D01*
X102859169Y-76182983D01*
X102869583Y-76187815D01*
X102878231Y-76192969D01*
X102886280Y-76199579D01*
X102892458Y-76207877D01*
X102895176Y-76216806D01*
X102895317Y-76219473D01*
X102894081Y-76228417D01*
X102893119Y-76232442D01*
X102883971Y-76229102D01*
X102874403Y-76226289D01*
X102864771Y-76224405D01*
X102857215Y-76223869D01*
X102845556Y-76224735D01*
X102834272Y-76227331D01*
X102823361Y-76231659D01*
X102812824Y-76237718D01*
X102805167Y-76243398D01*
X102797720Y-76250051D01*
X102790484Y-76257679D01*
X102783458Y-76266280D01*
X102776642Y-76275855D01*
X102774417Y-76279263D01*
X102768088Y-76289771D01*
X102762381Y-76300603D01*
X102757297Y-76311760D01*
X102752836Y-76323241D01*
X102748997Y-76335047D01*
X102745780Y-76347177D01*
X102743186Y-76359632D01*
X102741215Y-76372411D01*
X102739866Y-76385516D01*
X102739313Y-76394432D01*
X102739036Y-76403493D01*
X102739002Y-76408077D01*
X102739132Y-76417447D01*
X102739524Y-76426706D01*
X102740178Y-76435855D01*
X102741093Y-76444893D01*
X102742269Y-76453821D01*
X102743707Y-76462639D01*
X102745406Y-76471347D01*
X102749589Y-76488431D01*
X102754817Y-76505073D01*
X102761091Y-76521275D01*
X102768411Y-76537035D01*
X102776776Y-76552353D01*
X102786187Y-76567231D01*
X102796644Y-76581666D01*
X102808146Y-76595661D01*
X102820694Y-76609214D01*
X102827360Y-76615825D01*
X102834288Y-76622326D01*
X102841477Y-76628716D01*
X102848927Y-76634996D01*
X102856639Y-76641166D01*
X102864612Y-76647226D01*
X102872847Y-76653175D01*
X102881275Y-76658976D01*
X102889862Y-76664594D01*
X102898605Y-76670027D01*
X102907506Y-76675277D01*
X102916565Y-76680342D01*
X102925781Y-76685223D01*
X102935154Y-76689919D01*
X102944685Y-76694432D01*
X102954373Y-76698760D01*
X102964218Y-76702904D01*
X102974221Y-76706864D01*
X102984382Y-76710640D01*
X102994700Y-76714232D01*
X103005175Y-76717639D01*
X103015807Y-76720862D01*
X103026598Y-76723901D01*
X103037545Y-76726756D01*
X103048650Y-76729427D01*
X103059912Y-76731913D01*
X103071332Y-76734216D01*
X103082909Y-76736334D01*
X103094644Y-76738268D01*
X103106536Y-76740017D01*
X103118586Y-76741583D01*
X103130792Y-76742964D01*
X103143157Y-76744162D01*
X103155678Y-76745175D01*
X103168358Y-76746003D01*
X103181194Y-76746648D01*
X103194188Y-76747108D01*
X103207340Y-76747385D01*
X103220648Y-76747477D01*
X103230933Y-76747412D01*
X103241086Y-76747218D01*
X103251108Y-76746895D01*
X103260998Y-76746443D01*
X103270758Y-76745861D01*
X103289883Y-76744311D01*
X103308484Y-76742243D01*
X103326559Y-76739658D01*
X103344111Y-76736557D01*
X103361137Y-76732939D01*
X103377639Y-76728803D01*
X103393616Y-76724151D01*
X103409068Y-76718982D01*
X103423995Y-76713296D01*
X103438398Y-76707093D01*
X103452276Y-76700373D01*
X103465629Y-76693136D01*
X103478458Y-76685382D01*
X103484675Y-76681311D01*
X103496594Y-76672867D01*
X103507745Y-76664076D01*
X103518126Y-76654938D01*
X103527738Y-76645454D01*
X103536581Y-76635622D01*
X103544656Y-76625443D01*
X103551961Y-76614918D01*
X103558497Y-76604045D01*
X103564265Y-76592826D01*
X103569263Y-76581260D01*
X103573493Y-76569347D01*
X103576953Y-76557086D01*
X103579644Y-76544480D01*
X103581567Y-76531526D01*
X103582720Y-76518225D01*
X103583105Y-76504577D01*
X103582894Y-76494605D01*
X103582261Y-76484636D01*
X103581207Y-76474670D01*
X103579731Y-76464708D01*
X103577834Y-76454749D01*
X103575514Y-76444794D01*
X103572773Y-76434842D01*
X103569610Y-76424893D01*
X103566026Y-76414948D01*
X103562020Y-76405006D01*
X103557592Y-76395068D01*
X103552742Y-76385133D01*
X103547471Y-76375202D01*
X103541778Y-76365274D01*
X103535664Y-76355350D01*
X103529127Y-76345429D01*
X103522251Y-76335646D01*
X103515179Y-76326191D01*
X103507910Y-76317064D01*
X103500444Y-76308266D01*
X103492782Y-76299795D01*
X103484923Y-76291652D01*
X103476868Y-76283837D01*
X103468616Y-76276351D01*
X103460168Y-76269192D01*
X103451523Y-76262361D01*
X103442681Y-76255859D01*
X103433644Y-76249684D01*
X103424409Y-76243837D01*
X103414978Y-76238319D01*
X103405350Y-76233128D01*
X103395526Y-76228265D01*
G37*
G36*
X103459565Y-75512428D02*
G01*
X103468678Y-75515753D01*
X103479326Y-75520740D01*
X103488318Y-75525571D01*
X103498173Y-75531337D01*
X103508892Y-75538039D01*
X103520473Y-75545676D01*
X103528673Y-75551286D01*
X103537257Y-75557312D01*
X103546224Y-75563754D01*
X103558262Y-75572754D01*
X103569523Y-75581673D01*
X103580007Y-75590511D01*
X103589715Y-75599268D01*
X103598646Y-75607945D01*
X103606800Y-75616541D01*
X103614178Y-75625057D01*
X103620779Y-75633491D01*
X103626604Y-75641845D01*
X103631652Y-75650119D01*
X103635923Y-75658311D01*
X103640874Y-75670449D01*
X103644078Y-75682404D01*
X103645534Y-75694179D01*
X103645631Y-75698063D01*
X103644593Y-75708625D01*
X103641479Y-75717778D01*
X103636289Y-75725523D01*
X103629023Y-75731860D01*
X103619680Y-75736789D01*
X103608262Y-75740309D01*
X103598336Y-75742026D01*
X103587242Y-75742950D01*
X103579197Y-75743126D01*
X103568099Y-75742851D01*
X103556811Y-75742160D01*
X103545963Y-75741232D01*
X103536097Y-75740224D01*
X103525479Y-75739000D01*
X103523265Y-75738729D01*
X103469043Y-75732575D01*
X103409448Y-75724441D01*
X103359378Y-75717627D01*
X103374924Y-75726419D01*
X103390115Y-75735319D01*
X103404951Y-75744327D01*
X103419432Y-75753444D01*
X103433558Y-75762668D01*
X103447329Y-75772001D01*
X103460745Y-75781442D01*
X103473806Y-75790991D01*
X103486513Y-75800649D01*
X103498864Y-75810414D01*
X103510861Y-75820288D01*
X103522502Y-75830270D01*
X103533789Y-75840360D01*
X103544721Y-75850559D01*
X103555297Y-75860865D01*
X103565519Y-75871280D01*
X103575220Y-75881664D01*
X103584296Y-75891878D01*
X103592745Y-75901922D01*
X103600568Y-75911795D01*
X103607766Y-75921499D01*
X103614337Y-75931033D01*
X103620283Y-75940397D01*
X103625603Y-75949590D01*
X103630297Y-75958614D01*
X103634365Y-75967468D01*
X103637808Y-75976152D01*
X103640624Y-75984665D01*
X103643675Y-75997117D01*
X103645318Y-76009186D01*
X103645631Y-76017020D01*
X103645047Y-76027268D01*
X103643295Y-76036855D01*
X103640376Y-76045781D01*
X103636289Y-76054045D01*
X103631034Y-76061649D01*
X103624611Y-76068591D01*
X103617020Y-76074872D01*
X103608262Y-76080492D01*
X103598336Y-76085451D01*
X103587242Y-76089749D01*
X103574980Y-76093385D01*
X103561550Y-76096360D01*
X103546953Y-76098675D01*
X103531188Y-76100328D01*
X103514255Y-76101319D01*
X103496154Y-76101650D01*
X103483340Y-76101529D01*
X103470634Y-76101168D01*
X103458036Y-76100566D01*
X103445547Y-76099723D01*
X103433165Y-76098639D01*
X103420892Y-76097314D01*
X103408728Y-76095749D01*
X103396671Y-76093942D01*
X103384723Y-76091895D01*
X103372883Y-76089607D01*
X103361152Y-76087078D01*
X103349529Y-76084308D01*
X103338014Y-76081298D01*
X103326607Y-76078046D01*
X103315309Y-76074554D01*
X103304118Y-76070820D01*
X103293037Y-76066846D01*
X103282063Y-76062631D01*
X103271198Y-76058175D01*
X103260441Y-76053479D01*
X103249792Y-76048541D01*
X103239252Y-76043363D01*
X103228820Y-76037944D01*
X103218496Y-76032283D01*
X103208281Y-76026382D01*
X103198173Y-76020241D01*
X103188174Y-76013858D01*
X103178284Y-76007234D01*
X103168501Y-76000370D01*
X103158827Y-75993265D01*
X103149262Y-75985919D01*
X103139804Y-75978332D01*
X103130533Y-75970580D01*
X103121556Y-75962739D01*
X103112873Y-75954810D01*
X103104484Y-75946791D01*
X103096390Y-75938684D01*
X103088590Y-75930488D01*
X103081085Y-75922203D01*
X103073874Y-75913829D01*
X103066957Y-75905366D01*
X103060335Y-75896814D01*
X103054006Y-75888174D01*
X103047973Y-75879444D01*
X103042233Y-75870626D01*
X103036788Y-75861719D01*
X103031637Y-75852723D01*
X103026781Y-75843638D01*
X103022219Y-75834464D01*
X103017951Y-75825201D01*
X103013977Y-75815850D01*
X103010298Y-75806410D01*
X103006913Y-75796880D01*
X103006734Y-75796322D01*
X103051632Y-75796322D01*
X103052079Y-75807013D01*
X103053418Y-75817490D01*
X103055651Y-75827752D01*
X103058777Y-75837799D01*
X103062795Y-75847632D01*
X103067707Y-75857249D01*
X103073511Y-75866653D01*
X103080209Y-75875841D01*
X103087799Y-75884815D01*
X103096283Y-75893574D01*
X103105660Y-75902119D01*
X103115929Y-75910449D01*
X103127092Y-75918564D01*
X103139148Y-75926465D01*
X103152096Y-75934151D01*
X103165938Y-75941622D01*
X103180440Y-75948729D01*
X103195369Y-75955378D01*
X103210726Y-75961568D01*
X103226510Y-75967300D01*
X103242722Y-75972573D01*
X103259361Y-75977387D01*
X103276427Y-75981743D01*
X103293921Y-75985641D01*
X103311843Y-75989080D01*
X103330191Y-75992060D01*
X103348968Y-75994582D01*
X103368171Y-75996645D01*
X103377933Y-75997505D01*
X103387802Y-75998250D01*
X103397778Y-75998881D01*
X103407861Y-75999396D01*
X103418050Y-75999798D01*
X103428346Y-76000084D01*
X103438750Y-76000256D01*
X103449260Y-76000314D01*
X103459789Y-76000127D01*
X103469639Y-75999568D01*
X103483140Y-75998031D01*
X103495113Y-75995655D01*
X103505557Y-75992441D01*
X103514473Y-75988388D01*
X103523983Y-75981680D01*
X103530776Y-75973482D01*
X103534852Y-75963793D01*
X103536210Y-75952613D01*
X103535412Y-75942108D01*
X103533016Y-75931201D01*
X103529023Y-75919893D01*
X103523433Y-75908182D01*
X103518819Y-75900152D01*
X103513496Y-75891943D01*
X103507462Y-75883556D01*
X103500719Y-75874989D01*
X103493265Y-75866245D01*
X103485102Y-75857322D01*
X103476230Y-75848220D01*
X103466647Y-75838939D01*
X103456354Y-75829480D01*
X103445352Y-75819842D01*
X103437662Y-75813343D01*
X103429889Y-75807005D01*
X103422033Y-75800830D01*
X103414093Y-75794818D01*
X103406069Y-75788967D01*
X103397962Y-75783279D01*
X103389772Y-75777753D01*
X103381498Y-75772389D01*
X103373140Y-75767188D01*
X103364699Y-75762149D01*
X103356175Y-75757272D01*
X103347567Y-75752557D01*
X103338876Y-75748005D01*
X103330101Y-75743615D01*
X103321242Y-75739388D01*
X103312301Y-75735322D01*
X103303275Y-75731419D01*
X103294167Y-75727678D01*
X103284974Y-75724100D01*
X103275699Y-75720684D01*
X103266339Y-75717430D01*
X103256897Y-75714338D01*
X103247370Y-75711409D01*
X103237761Y-75708642D01*
X103228068Y-75706037D01*
X103218291Y-75703595D01*
X103208431Y-75701314D01*
X103198487Y-75699196D01*
X103188460Y-75697241D01*
X103178350Y-75695448D01*
X103168156Y-75693816D01*
X103157878Y-75692348D01*
X103085826Y-75682456D01*
X103079716Y-75693019D01*
X103074206Y-75703605D01*
X103069297Y-75714214D01*
X103064989Y-75724847D01*
X103061283Y-75735502D01*
X103058177Y-75746181D01*
X103055673Y-75756883D01*
X103053770Y-75767608D01*
X103052467Y-75778356D01*
X103051766Y-75789128D01*
X103051632Y-75796322D01*
X103006734Y-75796322D01*
X103003823Y-75787262D01*
X103001027Y-75777555D01*
X102998525Y-75767759D01*
X102996317Y-75757874D01*
X102994404Y-75747901D01*
X102992785Y-75737838D01*
X102991461Y-75727687D01*
X102990431Y-75717447D01*
X102989695Y-75707118D01*
X102989253Y-75696700D01*
X102989106Y-75686193D01*
X102989259Y-75674287D01*
X102989716Y-75662720D01*
X102990478Y-75651494D01*
X102991545Y-75640608D01*
X102992917Y-75630062D01*
X102994593Y-75619856D01*
X102996575Y-75609990D01*
X102998861Y-75600464D01*
X103001452Y-75591278D01*
X103004348Y-75582432D01*
X103006448Y-75576723D01*
X103016278Y-75579196D01*
X103021346Y-75580460D01*
X103056762Y-75587934D01*
X103067465Y-75590040D01*
X103078341Y-75592142D01*
X103088318Y-75594008D01*
X103098091Y-75595666D01*
X103099504Y-75595847D01*
X103395282Y-75635415D01*
X103438025Y-75640910D01*
X103449604Y-75642364D01*
X103460436Y-75643674D01*
X103470521Y-75644842D01*
X103482805Y-75646176D01*
X103493762Y-75647256D01*
X103505590Y-75648249D01*
X103515343Y-75648845D01*
X103523021Y-75649043D01*
X103532816Y-75648503D01*
X103542723Y-75646098D01*
X103550463Y-75639652D01*
X103551842Y-75633656D01*
X103550743Y-75623869D01*
X103547445Y-75614043D01*
X103541950Y-75604178D01*
X103534256Y-75594274D01*
X103524364Y-75584332D01*
X103516549Y-75577683D01*
X103507756Y-75571016D01*
X103497986Y-75564332D01*
X103487240Y-75557631D01*
X103475516Y-75550913D01*
X103462815Y-75544178D01*
X103449138Y-75537425D01*
X103434483Y-75530655D01*
X103426789Y-75527264D01*
X103432285Y-75519955D01*
X103439841Y-75513315D01*
X103448771Y-75510558D01*
X103459565Y-75512428D01*
G37*
G36*
X103067264Y-75261943D02*
G01*
X103369637Y-75292718D01*
X103379667Y-75293702D01*
X103394086Y-75295061D01*
X103407754Y-75296276D01*
X103420670Y-75297348D01*
X103432835Y-75298277D01*
X103444249Y-75299064D01*
X103454912Y-75299707D01*
X103464823Y-75300208D01*
X103476869Y-75300652D01*
X103487579Y-75300843D01*
X103490048Y-75300851D01*
X103503885Y-75300432D01*
X103516361Y-75299174D01*
X103527475Y-75297078D01*
X103537229Y-75294143D01*
X103548117Y-75288926D01*
X103556585Y-75282218D01*
X103562634Y-75274019D01*
X103566264Y-75264330D01*
X103567473Y-75253150D01*
X103566649Y-75243512D01*
X103564176Y-75233804D01*
X103560054Y-75224027D01*
X103554284Y-75214181D01*
X103546865Y-75204264D01*
X103537798Y-75194278D01*
X103530837Y-75187582D01*
X103523143Y-75180856D01*
X103514717Y-75174098D01*
X103505558Y-75167309D01*
X103495666Y-75160490D01*
X103485041Y-75153639D01*
X103473684Y-75146758D01*
X103482434Y-75141502D01*
X103491956Y-75138103D01*
X103497376Y-75137526D01*
X103507443Y-75138477D01*
X103517984Y-75141331D01*
X103528997Y-75146088D01*
X103537568Y-75150905D01*
X103546405Y-75156792D01*
X103555509Y-75163749D01*
X103564878Y-75171776D01*
X103574514Y-75180874D01*
X103581086Y-75187534D01*
X103587776Y-75194669D01*
X103591165Y-75198415D01*
X103597760Y-75205961D01*
X103603930Y-75213373D01*
X103609675Y-75220654D01*
X103617494Y-75231327D01*
X103624355Y-75241702D01*
X103630259Y-75251780D01*
X103635206Y-75261561D01*
X103639195Y-75271044D01*
X103642227Y-75280229D01*
X103644301Y-75289117D01*
X103645578Y-75300505D01*
X103645631Y-75303269D01*
X103645143Y-75313916D01*
X103643677Y-75323877D01*
X103641235Y-75333150D01*
X103637815Y-75341737D01*
X103633419Y-75349637D01*
X103624993Y-75360198D01*
X103614368Y-75369214D01*
X103606064Y-75374366D01*
X103596782Y-75378831D01*
X103586524Y-75382610D01*
X103575289Y-75385701D01*
X103563077Y-75388105D01*
X103549888Y-75389822D01*
X103535722Y-75390853D01*
X103520579Y-75391196D01*
X103508149Y-75391031D01*
X103497660Y-75390691D01*
X103486170Y-75390166D01*
X103473680Y-75389455D01*
X103460190Y-75388558D01*
X103445699Y-75387477D01*
X103435483Y-75386652D01*
X103424822Y-75385745D01*
X103413716Y-75384756D01*
X103402166Y-75383685D01*
X103390172Y-75382531D01*
X103377733Y-75381294D01*
X103371346Y-75380645D01*
X103067264Y-75350310D01*
X103067264Y-75480662D01*
X102989106Y-75408342D01*
X102989106Y-75342177D01*
X102866008Y-75329207D01*
X102832791Y-75238422D01*
X102989106Y-75253810D01*
X102989106Y-74991786D01*
X103067264Y-75064106D01*
X103067264Y-75261943D01*
G37*
G36*
X103426789Y-74759218D02*
G01*
X103431903Y-74751332D01*
X103439283Y-74744643D01*
X103448668Y-74741351D01*
X103451458Y-74741193D01*
X103464098Y-74742234D01*
X103474058Y-74744380D01*
X103484431Y-74747697D01*
X103495216Y-74752185D01*
X103506413Y-74757844D01*
X103518022Y-74764674D01*
X103525990Y-74769877D01*
X103534142Y-74775601D01*
X103542477Y-74781845D01*
X103550995Y-74788610D01*
X103559696Y-74795895D01*
X103568580Y-74803700D01*
X103573091Y-74807798D01*
X103581875Y-74816013D01*
X103590093Y-74824061D01*
X103597743Y-74831943D01*
X103604827Y-74839658D01*
X103611344Y-74847206D01*
X103617295Y-74854588D01*
X103625158Y-74865349D01*
X103631746Y-74875735D01*
X103637059Y-74885746D01*
X103641097Y-74895382D01*
X103643860Y-74904643D01*
X103645348Y-74913530D01*
X103645631Y-74919246D01*
X103644908Y-74928438D01*
X103641692Y-74939288D01*
X103635905Y-74948531D01*
X103627545Y-74956166D01*
X103616614Y-74962194D01*
X103606727Y-74965660D01*
X103595393Y-74968222D01*
X103582613Y-74969880D01*
X103568385Y-74970633D01*
X103563321Y-74970683D01*
X103550716Y-74970598D01*
X103538057Y-74970340D01*
X103525345Y-74969911D01*
X103512580Y-74969310D01*
X103499761Y-74968537D01*
X103486888Y-74967592D01*
X103473963Y-74966476D01*
X103464233Y-74965526D01*
X103460983Y-74965188D01*
X103399678Y-74958374D01*
X102921695Y-74910673D01*
X102908119Y-74909197D01*
X102894683Y-74907544D01*
X102881387Y-74905714D01*
X102868233Y-74903707D01*
X102855219Y-74901524D01*
X102842346Y-74899163D01*
X102829614Y-74896626D01*
X102817022Y-74893912D01*
X102804571Y-74891021D01*
X102792261Y-74887953D01*
X102780091Y-74884708D01*
X102768063Y-74881286D01*
X102756175Y-74877687D01*
X102744427Y-74873912D01*
X102732821Y-74869959D01*
X102721355Y-74865830D01*
X102710030Y-74861524D01*
X102698846Y-74857041D01*
X102687802Y-74852381D01*
X102676899Y-74847544D01*
X102666137Y-74842530D01*
X102655515Y-74837339D01*
X102645035Y-74831972D01*
X102634695Y-74826427D01*
X102624495Y-74820706D01*
X102614437Y-74814808D01*
X102604519Y-74808733D01*
X102594742Y-74802481D01*
X102585105Y-74796052D01*
X102575610Y-74789446D01*
X102566255Y-74782664D01*
X102557041Y-74775704D01*
X102548040Y-74768609D01*
X102539324Y-74761448D01*
X102530895Y-74754220D01*
X102522751Y-74746925D01*
X102514893Y-74739564D01*
X102507321Y-74732136D01*
X102500035Y-74724642D01*
X102493034Y-74717081D01*
X102486319Y-74709454D01*
X102479890Y-74701760D01*
X102473746Y-74694000D01*
X102467888Y-74686173D01*
X102462316Y-74678279D01*
X102457030Y-74670319D01*
X102452029Y-74662293D01*
X102447315Y-74654200D01*
X102442886Y-74646040D01*
X102438742Y-74637814D01*
X102434885Y-74629521D01*
X102431313Y-74621162D01*
X102428027Y-74612736D01*
X102425026Y-74604243D01*
X102422312Y-74595684D01*
X102419883Y-74587059D01*
X102417740Y-74578367D01*
X102415883Y-74569608D01*
X102414311Y-74560783D01*
X102413025Y-74551891D01*
X102412025Y-74542933D01*
X102411311Y-74533908D01*
X102410882Y-74524817D01*
X102410739Y-74515659D01*
X102410906Y-74504730D01*
X102411407Y-74494338D01*
X102412242Y-74484483D01*
X102413411Y-74475164D01*
X102414913Y-74466382D01*
X102417157Y-74456552D01*
X102417578Y-74454989D01*
X102515519Y-74542916D01*
X102512353Y-74552225D01*
X102509723Y-74562017D01*
X102507630Y-74572293D01*
X102506074Y-74583051D01*
X102505215Y-74592005D01*
X102504700Y-74601268D01*
X102504528Y-74610840D01*
X102504811Y-74622254D01*
X102505658Y-74633303D01*
X102507070Y-74643988D01*
X102509047Y-74654310D01*
X102511589Y-74664267D01*
X102514695Y-74673860D01*
X102518366Y-74683089D01*
X102522602Y-74691953D01*
X102527403Y-74700454D01*
X102532769Y-74708591D01*
X102538700Y-74716364D01*
X102545195Y-74723772D01*
X102552255Y-74730817D01*
X102559880Y-74737497D01*
X102568070Y-74743813D01*
X102576824Y-74749766D01*
X102586224Y-74755397D01*
X102596410Y-74760805D01*
X102607381Y-74765989D01*
X102619139Y-74770951D01*
X102631684Y-74775689D01*
X102645014Y-74780204D01*
X102659130Y-74784495D01*
X102674033Y-74788564D01*
X102689722Y-74792409D01*
X102706197Y-74796031D01*
X102723458Y-74799429D01*
X102741505Y-74802605D01*
X102760338Y-74805557D01*
X102770050Y-74806949D01*
X102779958Y-74808286D01*
X102790063Y-74809566D01*
X102800364Y-74810791D01*
X102810861Y-74811960D01*
X102821556Y-74813073D01*
X103395038Y-74870446D01*
X103407164Y-74871664D01*
X103418628Y-74872762D01*
X103429432Y-74873740D01*
X103439574Y-74874599D01*
X103452069Y-74875557D01*
X103463388Y-74876302D01*
X103473531Y-74876835D01*
X103484558Y-74877201D01*
X103490293Y-74877260D01*
X103501292Y-74877092D01*
X103511210Y-74876588D01*
X103522750Y-74875393D01*
X103532367Y-74873600D01*
X103541684Y-74870518D01*
X103549678Y-74864636D01*
X103551842Y-74858136D01*
X103550477Y-74849277D01*
X103546381Y-74839847D01*
X103540882Y-74831551D01*
X103533486Y-74822858D01*
X103526205Y-74815618D01*
X103517710Y-74808123D01*
X103513007Y-74804281D01*
X103503112Y-74796797D01*
X103492964Y-74789841D01*
X103482565Y-74783415D01*
X103471913Y-74777518D01*
X103461010Y-74772149D01*
X103449855Y-74767310D01*
X103438448Y-74762999D01*
X103426789Y-74759218D01*
G37*
G36*
X103426789Y-74374535D02*
G01*
X103432254Y-74367226D01*
X103439669Y-74360586D01*
X103448283Y-74357829D01*
X103459242Y-74359723D01*
X103468447Y-74363089D01*
X103479171Y-74368138D01*
X103488211Y-74373029D01*
X103498105Y-74378867D01*
X103508853Y-74385651D01*
X103520456Y-74393382D01*
X103528665Y-74399062D01*
X103537255Y-74405163D01*
X103546224Y-74411685D01*
X103558262Y-74420684D01*
X103569523Y-74429600D01*
X103580007Y-74438434D01*
X103589715Y-74447185D01*
X103598646Y-74455855D01*
X103606800Y-74464441D01*
X103614178Y-74472945D01*
X103620779Y-74481367D01*
X103626604Y-74489707D01*
X103631652Y-74497964D01*
X103635923Y-74506138D01*
X103640874Y-74518245D01*
X103644078Y-74530167D01*
X103645534Y-74541903D01*
X103645631Y-74545774D01*
X103644604Y-74556336D01*
X103641525Y-74565489D01*
X103636392Y-74573234D01*
X103629206Y-74579571D01*
X103619966Y-74584500D01*
X103608674Y-74588020D01*
X103598857Y-74589737D01*
X103587886Y-74590661D01*
X103579930Y-74590837D01*
X103568420Y-74590386D01*
X103555168Y-74589376D01*
X103542870Y-74588240D01*
X103528549Y-74586780D01*
X103517879Y-74585626D01*
X103506310Y-74584327D01*
X103493842Y-74582885D01*
X103480475Y-74581298D01*
X103466210Y-74579567D01*
X103451046Y-74577692D01*
X103434983Y-74575672D01*
X103418022Y-74573508D01*
X103409204Y-74572372D01*
X103225045Y-74548192D01*
X103178394Y-74542037D01*
X103141025Y-74536981D01*
X103131023Y-74535782D01*
X103120478Y-74534772D01*
X103109747Y-74534096D01*
X103101214Y-74533904D01*
X103091433Y-74534328D01*
X103080526Y-74536346D01*
X103071276Y-74541383D01*
X103067297Y-74550201D01*
X103067264Y-74551270D01*
X103068226Y-74560363D01*
X103071111Y-74569593D01*
X103075919Y-74578957D01*
X103082651Y-74588457D01*
X103091307Y-74598092D01*
X103098145Y-74604590D01*
X103105839Y-74611148D01*
X103114388Y-74617767D01*
X103123791Y-74624446D01*
X103134049Y-74631185D01*
X103145162Y-74637983D01*
X103157130Y-74644843D01*
X103169953Y-74651762D01*
X103176685Y-74655244D01*
X103169510Y-74661387D01*
X103160901Y-74665756D01*
X103153726Y-74666894D01*
X103142968Y-74665809D01*
X103131332Y-74662553D01*
X103122029Y-74658686D01*
X103112232Y-74653599D01*
X103101942Y-74647290D01*
X103091158Y-74639760D01*
X103083694Y-74634062D01*
X103076011Y-74627821D01*
X103068108Y-74621038D01*
X103059986Y-74613712D01*
X103051645Y-74605843D01*
X103043084Y-74597431D01*
X103034655Y-74588832D01*
X103026769Y-74580454D01*
X103019428Y-74572297D01*
X103012630Y-74564363D01*
X103006376Y-74556649D01*
X103000666Y-74549157D01*
X102993120Y-74538335D01*
X102986798Y-74528011D01*
X102981700Y-74518185D01*
X102977825Y-74508858D01*
X102975174Y-74500030D01*
X102973543Y-74489034D01*
X102973475Y-74486423D01*
X102974574Y-74475552D01*
X102977871Y-74466131D01*
X102983367Y-74458159D01*
X102991060Y-74451637D01*
X103000952Y-74446564D01*
X103013042Y-74442940D01*
X103023552Y-74441174D01*
X103035299Y-74440223D01*
X103043817Y-74440041D01*
X103053751Y-74440441D01*
X103064577Y-74441305D01*
X103076015Y-74442431D01*
X103087068Y-74443641D01*
X103096906Y-74444786D01*
X103099504Y-74445097D01*
X103144933Y-74450593D01*
X103155146Y-74451860D01*
X103164889Y-74453073D01*
X103175369Y-74454380D01*
X103185299Y-74455618D01*
X103196603Y-74457028D01*
X103199644Y-74457407D01*
X103393328Y-74482686D01*
X103436803Y-74488841D01*
X103448474Y-74490295D01*
X103459398Y-74491605D01*
X103469574Y-74492773D01*
X103481981Y-74494107D01*
X103493060Y-74495187D01*
X103502811Y-74496013D01*
X103513131Y-74496688D01*
X103522777Y-74496974D01*
X103532654Y-74496433D01*
X103542645Y-74494029D01*
X103550451Y-74487583D01*
X103551842Y-74481587D01*
X103550743Y-74471794D01*
X103547445Y-74461950D01*
X103541950Y-74452056D01*
X103534256Y-74442112D01*
X103524364Y-74432118D01*
X103516549Y-74425428D01*
X103507756Y-74418714D01*
X103497986Y-74411979D01*
X103487240Y-74405221D01*
X103475516Y-74398441D01*
X103462815Y-74391639D01*
X103449138Y-74384814D01*
X103434483Y-74377967D01*
X103426789Y-74374535D01*
G37*
G36*
X102895317Y-74498733D02*
G01*
X102749993Y-74446856D01*
X102745866Y-74438297D01*
X102741547Y-74429930D01*
X102737035Y-74421755D01*
X102732331Y-74413773D01*
X102727433Y-74405983D01*
X102722343Y-74398386D01*
X102717061Y-74390981D01*
X102708775Y-74380234D01*
X102700056Y-74369919D01*
X102690904Y-74360038D01*
X102681317Y-74350589D01*
X102671297Y-74341573D01*
X102660844Y-74332990D01*
X102669533Y-74328782D01*
X102679153Y-74326889D01*
X102681116Y-74326835D01*
X102693001Y-74327506D01*
X102705086Y-74329521D01*
X102717372Y-74332878D01*
X102729858Y-74337578D01*
X102742544Y-74343622D01*
X102755431Y-74351008D01*
X102768518Y-74359737D01*
X102781805Y-74369809D01*
X102795293Y-74381224D01*
X102808981Y-74393983D01*
X102815900Y-74400865D01*
X102822869Y-74408084D01*
X102829889Y-74415638D01*
X102836958Y-74423528D01*
X102844078Y-74431753D01*
X102851247Y-74440314D01*
X102858467Y-74449211D01*
X102865737Y-74458444D01*
X102873057Y-74468013D01*
X102880427Y-74477917D01*
X102887847Y-74488157D01*
X102895317Y-74498733D01*
G37*
G36*
X103603866Y-74134494D02*
G01*
X103647829Y-74226817D01*
X103626580Y-74225059D01*
X103576510Y-74220003D01*
X103529127Y-74214947D01*
X103214298Y-74182854D01*
X103178394Y-74179117D01*
X103168148Y-74178241D01*
X103158412Y-74177482D01*
X103146962Y-74176697D01*
X103136311Y-74176095D01*
X103126459Y-74175675D01*
X103115692Y-74175413D01*
X103110739Y-74175380D01*
X103100550Y-74175689D01*
X103089723Y-74176945D01*
X103079534Y-74179727D01*
X103070703Y-74185600D01*
X103067306Y-74193946D01*
X103067264Y-74195163D01*
X103068226Y-74203920D01*
X103071111Y-74212796D01*
X103075919Y-74221792D01*
X103082651Y-74230908D01*
X103091307Y-74240144D01*
X103101885Y-74249499D01*
X103110006Y-74255803D01*
X103118982Y-74262159D01*
X103128813Y-74268569D01*
X103139499Y-74275032D01*
X103151039Y-74281549D01*
X103163435Y-74288118D01*
X103176685Y-74294741D01*
X103169674Y-74301648D01*
X103161839Y-74307020D01*
X103154214Y-74309030D01*
X103143617Y-74307972D01*
X103132095Y-74304798D01*
X103122848Y-74301029D01*
X103113081Y-74296071D01*
X103102795Y-74289922D01*
X103091990Y-74282583D01*
X103080665Y-74274053D01*
X103072826Y-74267706D01*
X103064756Y-74260830D01*
X103056456Y-74253425D01*
X103047925Y-74245491D01*
X103043572Y-74241325D01*
X103035084Y-74232974D01*
X103027143Y-74224846D01*
X103019750Y-74216941D01*
X103012905Y-74209259D01*
X103006607Y-74201801D01*
X103000857Y-74194566D01*
X102993258Y-74184132D01*
X102986892Y-74174200D01*
X102981758Y-74164771D01*
X102977856Y-74155843D01*
X102974570Y-74144722D01*
X102973475Y-74134494D01*
X102974136Y-74125026D01*
X102977074Y-74113851D01*
X102982364Y-74104332D01*
X102990004Y-74096469D01*
X102999995Y-74090260D01*
X103009031Y-74086691D01*
X103019390Y-74084052D01*
X103031070Y-74082345D01*
X103044073Y-74081569D01*
X103048702Y-74081517D01*
X103059051Y-74081710D01*
X103069460Y-74082193D01*
X103079386Y-74082843D01*
X103090240Y-74083708D01*
X103099993Y-74084595D01*
X103155436Y-74089431D01*
X103201842Y-74094267D01*
X103250446Y-74099323D01*
X103235560Y-74090146D01*
X103221003Y-74080861D01*
X103206777Y-74071468D01*
X103192881Y-74061967D01*
X103179315Y-74052358D01*
X103166079Y-74042640D01*
X103153174Y-74032815D01*
X103140598Y-74022881D01*
X103128352Y-74012839D01*
X103116437Y-74002688D01*
X103104852Y-73992430D01*
X103093596Y-73982063D01*
X103082671Y-73971588D01*
X103072076Y-73961005D01*
X103061811Y-73950314D01*
X103051877Y-73939515D01*
X103042383Y-73928761D01*
X103033501Y-73918209D01*
X103025232Y-73907858D01*
X103017576Y-73897708D01*
X103010532Y-73887758D01*
X103004100Y-73878010D01*
X102998282Y-73868462D01*
X102993075Y-73859116D01*
X102988481Y-73849970D01*
X102984500Y-73841025D01*
X102981131Y-73832282D01*
X102978375Y-73823739D01*
X102975389Y-73811301D01*
X102973781Y-73799316D01*
X102973475Y-73791577D01*
X102974295Y-73780852D01*
X102976755Y-73771182D01*
X102980855Y-73762568D01*
X102986595Y-73755008D01*
X102993975Y-73748503D01*
X103002996Y-73743053D01*
X103013656Y-73738657D01*
X103025956Y-73735317D01*
X103039897Y-73733031D01*
X103050102Y-73732094D01*
X103061035Y-73731625D01*
X103066775Y-73731566D01*
X103078396Y-73731806D01*
X103089602Y-73732371D01*
X103099562Y-73733063D01*
X103110408Y-73733968D01*
X103122139Y-73735086D01*
X103134756Y-73736417D01*
X103144800Y-73737555D01*
X103151772Y-73738381D01*
X103409204Y-73771793D01*
X103423436Y-73773561D01*
X103437096Y-73775155D01*
X103450186Y-73776575D01*
X103462705Y-73777821D01*
X103474652Y-73778893D01*
X103486029Y-73779791D01*
X103496834Y-73780516D01*
X103507069Y-73781067D01*
X103519827Y-73781530D01*
X103531570Y-73781685D01*
X103541913Y-73781261D01*
X103552011Y-73779633D01*
X103561548Y-73775563D01*
X103567158Y-73767423D01*
X103567473Y-73764319D01*
X103565519Y-73753349D01*
X103561489Y-73744715D01*
X103555261Y-73735734D01*
X103546835Y-73726405D01*
X103539996Y-73719993D01*
X103532180Y-73713426D01*
X103523387Y-73706704D01*
X103513618Y-73699828D01*
X103502871Y-73692797D01*
X103491147Y-73685612D01*
X103478447Y-73678272D01*
X103464769Y-73670777D01*
X103450115Y-73663128D01*
X103442421Y-73659246D01*
X103448092Y-73652020D01*
X103455775Y-73646064D01*
X103462937Y-73644298D01*
X103474104Y-73645377D01*
X103486110Y-73648612D01*
X103495665Y-73652454D01*
X103505693Y-73657510D01*
X103516193Y-73663778D01*
X103527166Y-73671260D01*
X103534743Y-73676922D01*
X103542530Y-73683124D01*
X103550527Y-73689864D01*
X103558734Y-73697144D01*
X103567151Y-73704963D01*
X103575778Y-73713321D01*
X103584236Y-73721849D01*
X103592149Y-73730175D01*
X103599517Y-73738301D01*
X103606338Y-73746225D01*
X103612614Y-73753949D01*
X103618345Y-73761472D01*
X103625917Y-73772379D01*
X103632261Y-73782835D01*
X103637377Y-73792838D01*
X103641265Y-73802389D01*
X103643926Y-73811488D01*
X103645563Y-73822917D01*
X103645631Y-73825648D01*
X103644437Y-73836931D01*
X103640853Y-73846710D01*
X103634881Y-73854984D01*
X103626519Y-73861754D01*
X103615769Y-73867019D01*
X103606138Y-73869981D01*
X103595163Y-73872096D01*
X103582845Y-73873366D01*
X103569183Y-73873789D01*
X103558316Y-73873675D01*
X103546689Y-73873333D01*
X103534302Y-73872763D01*
X103521155Y-73871965D01*
X103507248Y-73870939D01*
X103492581Y-73869685D01*
X103482381Y-73868723D01*
X103471844Y-73867659D01*
X103460968Y-73866494D01*
X103449755Y-73865227D01*
X103438204Y-73863859D01*
X103426315Y-73862390D01*
X103414089Y-73860819D01*
X103248981Y-73839057D01*
X103239036Y-73837780D01*
X103229353Y-73836584D01*
X103215319Y-73834946D01*
X103201873Y-73833493D01*
X103189015Y-73832226D01*
X103176746Y-73831144D01*
X103165064Y-73830248D01*
X103153971Y-73829537D01*
X103143466Y-73829011D01*
X103133549Y-73828671D01*
X103121242Y-73828506D01*
X103108591Y-73829039D01*
X103097626Y-73830636D01*
X103086293Y-73834129D01*
X103077596Y-73839287D01*
X103070638Y-73847672D01*
X103067738Y-73856489D01*
X103067264Y-73862578D01*
X103067727Y-73872478D01*
X103069115Y-73882396D01*
X103071429Y-73892331D01*
X103074668Y-73902283D01*
X103078832Y-73912252D01*
X103083922Y-73922238D01*
X103089938Y-73932242D01*
X103096878Y-73942262D01*
X103104745Y-73952300D01*
X103113537Y-73962355D01*
X103123254Y-73972427D01*
X103133896Y-73982517D01*
X103145465Y-73992623D01*
X103157958Y-74002747D01*
X103171377Y-74012888D01*
X103185722Y-74023046D01*
X103200567Y-74032948D01*
X103215550Y-74042321D01*
X103230670Y-74051165D01*
X103245928Y-74059480D01*
X103261323Y-74067267D01*
X103276855Y-74074524D01*
X103292525Y-74081253D01*
X103308332Y-74087452D01*
X103324276Y-74093123D01*
X103340358Y-74098265D01*
X103356577Y-74102877D01*
X103372934Y-74106961D01*
X103389428Y-74110516D01*
X103406059Y-74113542D01*
X103422828Y-74116039D01*
X103439734Y-74118007D01*
X103603866Y-74134494D01*
G37*
D11*
%TO.C,J2*%
X100000000Y-100000000D03*
%TD*%
D12*
%TO.C,D4*%
X105800000Y-84200000D03*
X105800000Y-82800000D03*
%TD*%
D13*
%TO.C,D8*%
X94200000Y-70450000D03*
X94200000Y-72550000D03*
%TD*%
D14*
%TO.C,SC1*%
X100000000Y-70437500D03*
D15*
X100000000Y-91437500D03*
%TD*%
D16*
%TO.C,J4*%
X98800000Y-105400000D03*
D17*
X100070000Y-105400000D03*
X101340000Y-105400000D03*
%TD*%
D18*
%TO.C,C8*%
X101600000Y-103880000D03*
X101600000Y-102920000D03*
%TD*%
D19*
%TO.C,C7*%
X97500000Y-93525000D03*
X97500000Y-96475000D03*
%TD*%
D20*
%TO.C,R4*%
X96670000Y-102580000D03*
X97690000Y-102580000D03*
%TD*%
D21*
%TO.C,Q1*%
X97187500Y-105712500D03*
D22*
X97187500Y-104762500D03*
D21*
X97187500Y-103812500D03*
X94912500Y-103812500D03*
X94912500Y-104762500D03*
X94912500Y-105712500D03*
%TD*%
D23*
%TO.C,R6*%
X106050000Y-101350000D03*
X106050000Y-99700000D03*
%TD*%
D24*
%TO.C,Q3*%
X104057500Y-97952500D03*
D21*
X104057500Y-97002500D03*
X104057500Y-96052500D03*
X101782500Y-96052500D03*
D25*
X101876250Y-97002500D03*
D26*
X101782500Y-97952500D03*
%TD*%
D27*
%TO.C,J3*%
X105600000Y-88625000D03*
D17*
X105600000Y-89895000D03*
D28*
X105600000Y-91165000D03*
%TD*%
D29*
%TO.C,Q4*%
X93700000Y-94187500D03*
D30*
X95600000Y-94187500D03*
D31*
X94650000Y-92380000D03*
%TD*%
D32*
%TO.C,C4*%
X94200000Y-86200000D03*
X94200000Y-88100000D03*
%TD*%
D33*
%TO.C,L1*%
X95497500Y-102330000D03*
X93922500Y-102330000D03*
%TD*%
D34*
%TO.C,R3*%
X98262500Y-99450000D03*
D35*
X98237500Y-101100000D03*
%TD*%
D36*
%TO.C,C5*%
X94200000Y-83800000D03*
X94200000Y-81900000D03*
%TD*%
D20*
%TO.C,R1*%
X93890000Y-90600000D03*
X94910000Y-90600000D03*
%TD*%
D37*
%TO.C,R2*%
X106275000Y-97080000D03*
D38*
X106275000Y-96075000D03*
%TD*%
D39*
%TO.C,H1*%
X100000000Y-67200000D03*
%TD*%
D40*
%TO.C,U1*%
X95550000Y-96275000D03*
X94900000Y-96275000D03*
X94250000Y-96275000D03*
X93600000Y-96275000D03*
X93600000Y-100500000D03*
X94250000Y-100500000D03*
X94900000Y-100500000D03*
D41*
X95507500Y-100500000D03*
%TD*%
D21*
%TO.C,Q2*%
X105720000Y-94890000D03*
X105720000Y-93940000D03*
X105720000Y-92990000D03*
X103445000Y-92990000D03*
X103445000Y-93940000D03*
X103445000Y-94890000D03*
%TD*%
D20*
%TO.C,R7*%
X93890000Y-89400000D03*
X94910000Y-89400000D03*
%TD*%
D11*
%TO.C,J1*%
X100000000Y-93800000D03*
%TD*%
D42*
%TO.C,D2*%
X105750000Y-77850000D03*
X105750000Y-75750000D03*
%TD*%
D43*
%TO.C,C2*%
X105600000Y-72875000D03*
D44*
X105600000Y-69925000D03*
%TD*%
D42*
%TO.C,D9*%
X94190000Y-75950000D03*
X94190000Y-73850000D03*
%TD*%
D45*
%TO.C,R5*%
X101797500Y-99375000D03*
D46*
X101810000Y-101025000D03*
%TD*%
D47*
%TO.C,U2*%
X102750000Y-103350000D03*
D48*
X102750000Y-103750000D03*
X102750000Y-104150000D03*
X102750000Y-104550000D03*
D49*
X102750000Y-104950000D03*
D50*
X103400000Y-105600000D03*
D51*
X103800000Y-105600000D03*
X104200000Y-105600000D03*
X104600000Y-105600000D03*
D52*
X105000000Y-105600000D03*
D53*
X105650000Y-104950000D03*
D48*
X105650000Y-104550000D03*
X105650000Y-104150000D03*
X105650000Y-103750000D03*
D54*
X105650000Y-103350000D03*
D55*
X105000000Y-102700000D03*
D51*
X104600000Y-102700000D03*
D56*
X104200000Y-102725000D03*
D51*
X103800000Y-102700000D03*
D57*
X103400000Y-102700000D03*
D58*
X104200000Y-104150000D03*
%TD*%
D42*
%TO.C,D1*%
X105750000Y-81350000D03*
X105750000Y-79250000D03*
%TD*%
D32*
%TO.C,C9*%
X94200000Y-77700000D03*
X94200000Y-79600000D03*
%TD*%
D59*
%TO.C,C6*%
X95580000Y-86300000D03*
D60*
X105800000Y-86300000D03*
%TD*%
D61*
%TO.C,D6*%
X100000000Y-97200000D03*
%TD*%
D59*
%TO.C,C3*%
X95580000Y-74400000D03*
D62*
X105800000Y-74400000D03*
%TD*%
D63*
%TO.C,D3*%
X103350000Y-100000000D03*
%TD*%
D64*
%TO.C,C1*%
X96020000Y-98200000D03*
D65*
X105800000Y-98200000D03*
%TD*%
D61*
%TO.C,D7*%
X100000000Y-102600000D03*
%TD*%
D63*
%TO.C,D5*%
X96770000Y-100210000D03*
%TD*%
M02*
