%TF.GenerationSoftware,KiCad,Pcbnew,7.0.11*%
%TF.CreationDate,2026-04-20T08:28:50-05:00*%
%TF.ProjectId,lightsaber_necklace,6c696768-7473-4616-9265-725f6e65636b,rev?*%
%TF.SameCoordinates,Original*%
%TF.FileFunction,Legend,Top*%
%TF.FilePolarity,Positive*%
%FSLAX46Y46*%
G04 Gerber Fmt 4.6, Leading zero omitted, Abs format (unit mm)*
G04 Created by KiCad (PCBNEW 7.0.11) date 2026-04-20 08:28:50*
%MOMM*%
%LPD*%
G01*
G04 APERTURE LIST*
%ADD10C,0.100000*%
%ADD11C,0.200000*%
%ADD12C,0.150000*%
%ADD13C,0.140000*%
%ADD14C,0.137500*%
%ADD15C,0.125000*%
%ADD16C,0.120000*%
G04 APERTURE END LIST*
D10*
X105200000Y-100000000D02*
G75*
G03*
X94800000Y-100000000I-5200000J0D01*
G01*
X94800000Y-100000000D02*
G75*
G03*
X105200000Y-100000000I5200000J0D01*
G01*
D11*
X95500000Y-69200000D02*
X104500000Y-69200000D01*
X104500000Y-92600000D01*
X95500000Y-92600000D01*
X95500000Y-69200000D01*
D12*
X93603333Y-71806033D02*
X93603333Y-71106033D01*
X93603333Y-71106033D02*
X93770000Y-71106033D01*
X93770000Y-71106033D02*
X93870000Y-71139366D01*
X93870000Y-71139366D02*
X93936667Y-71206033D01*
X93936667Y-71206033D02*
X93970000Y-71272700D01*
X93970000Y-71272700D02*
X94003333Y-71406033D01*
X94003333Y-71406033D02*
X94003333Y-71506033D01*
X94003333Y-71506033D02*
X93970000Y-71639366D01*
X93970000Y-71639366D02*
X93936667Y-71706033D01*
X93936667Y-71706033D02*
X93870000Y-71772700D01*
X93870000Y-71772700D02*
X93770000Y-71806033D01*
X93770000Y-71806033D02*
X93603333Y-71806033D01*
X94403333Y-71406033D02*
X94336667Y-71372700D01*
X94336667Y-71372700D02*
X94303333Y-71339366D01*
X94303333Y-71339366D02*
X94270000Y-71272700D01*
X94270000Y-71272700D02*
X94270000Y-71239366D01*
X94270000Y-71239366D02*
X94303333Y-71172700D01*
X94303333Y-71172700D02*
X94336667Y-71139366D01*
X94336667Y-71139366D02*
X94403333Y-71106033D01*
X94403333Y-71106033D02*
X94536667Y-71106033D01*
X94536667Y-71106033D02*
X94603333Y-71139366D01*
X94603333Y-71139366D02*
X94636667Y-71172700D01*
X94636667Y-71172700D02*
X94670000Y-71239366D01*
X94670000Y-71239366D02*
X94670000Y-71272700D01*
X94670000Y-71272700D02*
X94636667Y-71339366D01*
X94636667Y-71339366D02*
X94603333Y-71372700D01*
X94603333Y-71372700D02*
X94536667Y-71406033D01*
X94536667Y-71406033D02*
X94403333Y-71406033D01*
X94403333Y-71406033D02*
X94336667Y-71439366D01*
X94336667Y-71439366D02*
X94303333Y-71472700D01*
X94303333Y-71472700D02*
X94270000Y-71539366D01*
X94270000Y-71539366D02*
X94270000Y-71672700D01*
X94270000Y-71672700D02*
X94303333Y-71739366D01*
X94303333Y-71739366D02*
X94336667Y-71772700D01*
X94336667Y-71772700D02*
X94403333Y-71806033D01*
X94403333Y-71806033D02*
X94536667Y-71806033D01*
X94536667Y-71806033D02*
X94603333Y-71772700D01*
X94603333Y-71772700D02*
X94636667Y-71739366D01*
X94636667Y-71739366D02*
X94670000Y-71672700D01*
X94670000Y-71672700D02*
X94670000Y-71539366D01*
X94670000Y-71539366D02*
X94636667Y-71472700D01*
X94636667Y-71472700D02*
X94603333Y-71439366D01*
X94603333Y-71439366D02*
X94536667Y-71406033D01*
X97383333Y-95499366D02*
X97350000Y-95532700D01*
X97350000Y-95532700D02*
X97250000Y-95566033D01*
X97250000Y-95566033D02*
X97183333Y-95566033D01*
X97183333Y-95566033D02*
X97083333Y-95532700D01*
X97083333Y-95532700D02*
X97016667Y-95466033D01*
X97016667Y-95466033D02*
X96983333Y-95399366D01*
X96983333Y-95399366D02*
X96950000Y-95266033D01*
X96950000Y-95266033D02*
X96950000Y-95166033D01*
X96950000Y-95166033D02*
X96983333Y-95032700D01*
X96983333Y-95032700D02*
X97016667Y-94966033D01*
X97016667Y-94966033D02*
X97083333Y-94899366D01*
X97083333Y-94899366D02*
X97183333Y-94866033D01*
X97183333Y-94866033D02*
X97250000Y-94866033D01*
X97250000Y-94866033D02*
X97350000Y-94899366D01*
X97350000Y-94899366D02*
X97383333Y-94932700D01*
X97616667Y-94866033D02*
X98083333Y-94866033D01*
X98083333Y-94866033D02*
X97783333Y-95566033D01*
X96432700Y-105266666D02*
X96399366Y-105333333D01*
X96399366Y-105333333D02*
X96332700Y-105400000D01*
X96332700Y-105400000D02*
X96232700Y-105500000D01*
X96232700Y-105500000D02*
X96199366Y-105566666D01*
X96199366Y-105566666D02*
X96199366Y-105633333D01*
X96366033Y-105600000D02*
X96332700Y-105666666D01*
X96332700Y-105666666D02*
X96266033Y-105733333D01*
X96266033Y-105733333D02*
X96132700Y-105766666D01*
X96132700Y-105766666D02*
X95899366Y-105766666D01*
X95899366Y-105766666D02*
X95766033Y-105733333D01*
X95766033Y-105733333D02*
X95699366Y-105666666D01*
X95699366Y-105666666D02*
X95666033Y-105600000D01*
X95666033Y-105600000D02*
X95666033Y-105466666D01*
X95666033Y-105466666D02*
X95699366Y-105400000D01*
X95699366Y-105400000D02*
X95766033Y-105333333D01*
X95766033Y-105333333D02*
X95899366Y-105300000D01*
X95899366Y-105300000D02*
X96132700Y-105300000D01*
X96132700Y-105300000D02*
X96266033Y-105333333D01*
X96266033Y-105333333D02*
X96332700Y-105400000D01*
X96332700Y-105400000D02*
X96366033Y-105466666D01*
X96366033Y-105466666D02*
X96366033Y-105600000D01*
X96366033Y-104633333D02*
X96366033Y-105033333D01*
X96366033Y-104833333D02*
X95666033Y-104833333D01*
X95666033Y-104833333D02*
X95766033Y-104900000D01*
X95766033Y-104900000D02*
X95832700Y-104966667D01*
X95832700Y-104966667D02*
X95866033Y-105033333D01*
X103332700Y-97526666D02*
X103299366Y-97593333D01*
X103299366Y-97593333D02*
X103232700Y-97660000D01*
X103232700Y-97660000D02*
X103132700Y-97760000D01*
X103132700Y-97760000D02*
X103099366Y-97826666D01*
X103099366Y-97826666D02*
X103099366Y-97893333D01*
X103266033Y-97860000D02*
X103232700Y-97926666D01*
X103232700Y-97926666D02*
X103166033Y-97993333D01*
X103166033Y-97993333D02*
X103032700Y-98026666D01*
X103032700Y-98026666D02*
X102799366Y-98026666D01*
X102799366Y-98026666D02*
X102666033Y-97993333D01*
X102666033Y-97993333D02*
X102599366Y-97926666D01*
X102599366Y-97926666D02*
X102566033Y-97860000D01*
X102566033Y-97860000D02*
X102566033Y-97726666D01*
X102566033Y-97726666D02*
X102599366Y-97660000D01*
X102599366Y-97660000D02*
X102666033Y-97593333D01*
X102666033Y-97593333D02*
X102799366Y-97560000D01*
X102799366Y-97560000D02*
X103032700Y-97560000D01*
X103032700Y-97560000D02*
X103166033Y-97593333D01*
X103166033Y-97593333D02*
X103232700Y-97660000D01*
X103232700Y-97660000D02*
X103266033Y-97726666D01*
X103266033Y-97726666D02*
X103266033Y-97860000D01*
X102566033Y-97326667D02*
X102566033Y-96893333D01*
X102566033Y-96893333D02*
X102832700Y-97126667D01*
X102832700Y-97126667D02*
X102832700Y-97026667D01*
X102832700Y-97026667D02*
X102866033Y-96960000D01*
X102866033Y-96960000D02*
X102899366Y-96926667D01*
X102899366Y-96926667D02*
X102966033Y-96893333D01*
X102966033Y-96893333D02*
X103132700Y-96893333D01*
X103132700Y-96893333D02*
X103199366Y-96926667D01*
X103199366Y-96926667D02*
X103232700Y-96960000D01*
X103232700Y-96960000D02*
X103266033Y-97026667D01*
X103266033Y-97026667D02*
X103266033Y-97226667D01*
X103266033Y-97226667D02*
X103232700Y-97293333D01*
X103232700Y-97293333D02*
X103199366Y-97326667D01*
D13*
G36*
X105192480Y-91728980D02*
G01*
X105201114Y-91729369D01*
X105209655Y-91729966D01*
X105218104Y-91730769D01*
X105226460Y-91731779D01*
X105234723Y-91732997D01*
X105242894Y-91734422D01*
X105250972Y-91736053D01*
X105258957Y-91737892D01*
X105266849Y-91739937D01*
X105274648Y-91742190D01*
X105282355Y-91744650D01*
X105289969Y-91747316D01*
X105297491Y-91750190D01*
X105304919Y-91753271D01*
X105312256Y-91756548D01*
X105319464Y-91760011D01*
X105326544Y-91763659D01*
X105333496Y-91767494D01*
X105340319Y-91771513D01*
X105347015Y-91775719D01*
X105353582Y-91780110D01*
X105360020Y-91784687D01*
X105366331Y-91789449D01*
X105372513Y-91794397D01*
X105378568Y-91799531D01*
X105384494Y-91804850D01*
X105390291Y-91810356D01*
X105395961Y-91816046D01*
X105401502Y-91821923D01*
X105406915Y-91827985D01*
X105412208Y-91834197D01*
X105417354Y-91840564D01*
X105422352Y-91847089D01*
X105427202Y-91853769D01*
X105431905Y-91860606D01*
X105436460Y-91867599D01*
X105440867Y-91874748D01*
X105445127Y-91882054D01*
X105449239Y-91889516D01*
X105453203Y-91897134D01*
X105457019Y-91904909D01*
X105460688Y-91912839D01*
X105464209Y-91920926D01*
X105467583Y-91929170D01*
X105470808Y-91937569D01*
X105473886Y-91946125D01*
X105476797Y-91954800D01*
X105479519Y-91963599D01*
X105482054Y-91972522D01*
X105484401Y-91981569D01*
X105486560Y-91990741D01*
X105488532Y-92000037D01*
X105490316Y-92009457D01*
X105491912Y-92019001D01*
X105493320Y-92028670D01*
X105494540Y-92038462D01*
X105495573Y-92048379D01*
X105496418Y-92058420D01*
X105497075Y-92068586D01*
X105497544Y-92078875D01*
X105497826Y-92089289D01*
X105497920Y-92099827D01*
X105497826Y-92110134D01*
X105497544Y-92120325D01*
X105497075Y-92130399D01*
X105496418Y-92140358D01*
X105495573Y-92150200D01*
X105494540Y-92159926D01*
X105493320Y-92169535D01*
X105491912Y-92179029D01*
X105490316Y-92188406D01*
X105488532Y-92197667D01*
X105486560Y-92206812D01*
X105484401Y-92215841D01*
X105482054Y-92224753D01*
X105479519Y-92233550D01*
X105476797Y-92242230D01*
X105473886Y-92250794D01*
X105470808Y-92259205D01*
X105467583Y-92267469D01*
X105464209Y-92275586D01*
X105460688Y-92283556D01*
X105457019Y-92291379D01*
X105453203Y-92299055D01*
X105449239Y-92306585D01*
X105445127Y-92313967D01*
X105440867Y-92321203D01*
X105436460Y-92328291D01*
X105431905Y-92335233D01*
X105427202Y-92342028D01*
X105422352Y-92348675D01*
X105417354Y-92355176D01*
X105412208Y-92361530D01*
X105406915Y-92367737D01*
X105401502Y-92373787D01*
X105395961Y-92379668D01*
X105390291Y-92385380D01*
X105384494Y-92390925D01*
X105378568Y-92396301D01*
X105372513Y-92401509D01*
X105366331Y-92406549D01*
X105360020Y-92411420D01*
X105353582Y-92416123D01*
X105347015Y-92420658D01*
X105340319Y-92425024D01*
X105333496Y-92429222D01*
X105326544Y-92433252D01*
X105319464Y-92437114D01*
X105312256Y-92440807D01*
X105304919Y-92444332D01*
X105297491Y-92447669D01*
X105289969Y-92450799D01*
X105282355Y-92453722D01*
X105274648Y-92456438D01*
X105266849Y-92458948D01*
X105258957Y-92461250D01*
X105250972Y-92463345D01*
X105242894Y-92465233D01*
X105234723Y-92466914D01*
X105226460Y-92468388D01*
X105218104Y-92469655D01*
X105209655Y-92470714D01*
X105201114Y-92471567D01*
X105192480Y-92472213D01*
X105183753Y-92472652D01*
X105174933Y-92472884D01*
X105166221Y-92472780D01*
X105157597Y-92472470D01*
X105149062Y-92471952D01*
X105140614Y-92471227D01*
X105132255Y-92470296D01*
X105123983Y-92469157D01*
X105115800Y-92467811D01*
X105107705Y-92466259D01*
X105099699Y-92464499D01*
X105091780Y-92462532D01*
X105083950Y-92460358D01*
X105076207Y-92457977D01*
X105068553Y-92455389D01*
X105060987Y-92452594D01*
X105053509Y-92449592D01*
X105046120Y-92446383D01*
X105038855Y-92442985D01*
X105031717Y-92439414D01*
X105024704Y-92435670D01*
X105017818Y-92431755D01*
X105011057Y-92427667D01*
X105004423Y-92423407D01*
X104997914Y-92418974D01*
X104991531Y-92414369D01*
X104985274Y-92409592D01*
X104979144Y-92404643D01*
X104973139Y-92399521D01*
X104967260Y-92394227D01*
X104961507Y-92388760D01*
X104955879Y-92383122D01*
X104950378Y-92377311D01*
X104945003Y-92371327D01*
X104939781Y-92365162D01*
X104934701Y-92358847D01*
X104929765Y-92352382D01*
X104924972Y-92345767D01*
X104920322Y-92339003D01*
X104915815Y-92332090D01*
X104911451Y-92325027D01*
X104907231Y-92317814D01*
X104903153Y-92310451D01*
X104899219Y-92302939D01*
X104895428Y-92295278D01*
X104891779Y-92287467D01*
X104888274Y-92279506D01*
X104884912Y-92271396D01*
X104881694Y-92263136D01*
X104878618Y-92254726D01*
X104875707Y-92246162D01*
X104872985Y-92237482D01*
X104870450Y-92228686D01*
X104868103Y-92219773D01*
X104865944Y-92210745D01*
X104863972Y-92201600D01*
X104862189Y-92192339D01*
X104860593Y-92182961D01*
X104859184Y-92173468D01*
X104857964Y-92163858D01*
X104856931Y-92154132D01*
X104856086Y-92144290D01*
X104855429Y-92134332D01*
X104854960Y-92124257D01*
X104854678Y-92114066D01*
X104854584Y-92103759D01*
X104854654Y-92095895D01*
X104975338Y-92095895D01*
X104975395Y-92102828D01*
X104975565Y-92109693D01*
X104976032Y-92119862D01*
X104976755Y-92129878D01*
X104977732Y-92139741D01*
X104978965Y-92149451D01*
X104980453Y-92159008D01*
X104982195Y-92168411D01*
X104984193Y-92177661D01*
X104986446Y-92186757D01*
X104988953Y-92195701D01*
X104989846Y-92198648D01*
X104992669Y-92207320D01*
X104995699Y-92215770D01*
X104998934Y-92223998D01*
X105002376Y-92232003D01*
X105006023Y-92239786D01*
X105009877Y-92247346D01*
X105013937Y-92254684D01*
X105018203Y-92261800D01*
X105022675Y-92268693D01*
X105027353Y-92275364D01*
X105030586Y-92279688D01*
X105035622Y-92285939D01*
X105040838Y-92291935D01*
X105046235Y-92297676D01*
X105051812Y-92303161D01*
X105057569Y-92308391D01*
X105063507Y-92313365D01*
X105069625Y-92318084D01*
X105075923Y-92322548D01*
X105082402Y-92326756D01*
X105089061Y-92330708D01*
X105093600Y-92333201D01*
X105100573Y-92336654D01*
X105107698Y-92339767D01*
X105114975Y-92342540D01*
X105122403Y-92344974D01*
X105129984Y-92347068D01*
X105137717Y-92348823D01*
X105145602Y-92350238D01*
X105153638Y-92351313D01*
X105161827Y-92352049D01*
X105170168Y-92352445D01*
X105175812Y-92352521D01*
X105184257Y-92352351D01*
X105192555Y-92351842D01*
X105200706Y-92350993D01*
X105208710Y-92349804D01*
X105216567Y-92348276D01*
X105224277Y-92346408D01*
X105231841Y-92344201D01*
X105239258Y-92341654D01*
X105246528Y-92338767D01*
X105253651Y-92335541D01*
X105258318Y-92333201D01*
X105265200Y-92329419D01*
X105271890Y-92325381D01*
X105278386Y-92321088D01*
X105284689Y-92316540D01*
X105290799Y-92311736D01*
X105296716Y-92306676D01*
X105302439Y-92301361D01*
X105307969Y-92295791D01*
X105313306Y-92289965D01*
X105318450Y-92283884D01*
X105321772Y-92279688D01*
X105326614Y-92273165D01*
X105331247Y-92266420D01*
X105335671Y-92259453D01*
X105339886Y-92252263D01*
X105343893Y-92244851D01*
X105347692Y-92237216D01*
X105351281Y-92229359D01*
X105354662Y-92221280D01*
X105357835Y-92212978D01*
X105360798Y-92204454D01*
X105362658Y-92198648D01*
X105365251Y-92189756D01*
X105367589Y-92180710D01*
X105369671Y-92171511D01*
X105371499Y-92162159D01*
X105373072Y-92152654D01*
X105374389Y-92142995D01*
X105375452Y-92133183D01*
X105376260Y-92123218D01*
X105376812Y-92113100D01*
X105377110Y-92102828D01*
X105377166Y-92095895D01*
X105377039Y-92086243D01*
X105376656Y-92076715D01*
X105376019Y-92067310D01*
X105375126Y-92058028D01*
X105373978Y-92048869D01*
X105372576Y-92039833D01*
X105370918Y-92030921D01*
X105369006Y-92022132D01*
X105366838Y-92013466D01*
X105364415Y-92004923D01*
X105362658Y-91999297D01*
X105359834Y-91990966D01*
X105356800Y-91982838D01*
X105353559Y-91974910D01*
X105350108Y-91967184D01*
X105346449Y-91959659D01*
X105342581Y-91952335D01*
X105338504Y-91945213D01*
X105334219Y-91938293D01*
X105329725Y-91931573D01*
X105325023Y-91925055D01*
X105321772Y-91920822D01*
X105316757Y-91914636D01*
X105311549Y-91908708D01*
X105306147Y-91903039D01*
X105300553Y-91897628D01*
X105294765Y-91892476D01*
X105288784Y-91887583D01*
X105282610Y-91882947D01*
X105276242Y-91878571D01*
X105269681Y-91874452D01*
X105262928Y-91870592D01*
X105258318Y-91868163D01*
X105251293Y-91864771D01*
X105244121Y-91861713D01*
X105236802Y-91858989D01*
X105229336Y-91856598D01*
X105221724Y-91854541D01*
X105213964Y-91852818D01*
X105206058Y-91851428D01*
X105198005Y-91850371D01*
X105189805Y-91849648D01*
X105181458Y-91849259D01*
X105175812Y-91849185D01*
X105167371Y-91849352D01*
X105159081Y-91849852D01*
X105150942Y-91850686D01*
X105142956Y-91851854D01*
X105135122Y-91853355D01*
X105127440Y-91855190D01*
X105119910Y-91857358D01*
X105112532Y-91859860D01*
X105105306Y-91862696D01*
X105098232Y-91865865D01*
X105093600Y-91868163D01*
X105086821Y-91871850D01*
X105080222Y-91875796D01*
X105073804Y-91880001D01*
X105067566Y-91884464D01*
X105061508Y-91889185D01*
X105055630Y-91894165D01*
X105049933Y-91899403D01*
X105044416Y-91904900D01*
X105039079Y-91910655D01*
X105033923Y-91916669D01*
X105030586Y-91920822D01*
X105025770Y-91927205D01*
X105021161Y-91933791D01*
X105016758Y-91940577D01*
X105012561Y-91947565D01*
X105008569Y-91954754D01*
X105004784Y-91962145D01*
X105001206Y-91969737D01*
X104997833Y-91977530D01*
X104994666Y-91985525D01*
X104991705Y-91993721D01*
X104989846Y-91999297D01*
X104987253Y-92007757D01*
X104984916Y-92016341D01*
X104982833Y-92025048D01*
X104981005Y-92033878D01*
X104979433Y-92042832D01*
X104978115Y-92051908D01*
X104977052Y-92061108D01*
X104976245Y-92070431D01*
X104975692Y-92079877D01*
X104975395Y-92089447D01*
X104975338Y-92095895D01*
X104854654Y-92095895D01*
X104854678Y-92093219D01*
X104854960Y-92082800D01*
X104855429Y-92072500D01*
X104856086Y-92062321D01*
X104856931Y-92052261D01*
X104857964Y-92042322D01*
X104859184Y-92032504D01*
X104860593Y-92022805D01*
X104862189Y-92013227D01*
X104863972Y-92003769D01*
X104865944Y-91994431D01*
X104868103Y-91985213D01*
X104870450Y-91976116D01*
X104872985Y-91967138D01*
X104875707Y-91958281D01*
X104878618Y-91949545D01*
X104881694Y-91940927D01*
X104884912Y-91932469D01*
X104888274Y-91924171D01*
X104891779Y-91916034D01*
X104895428Y-91908058D01*
X104899219Y-91900241D01*
X104903153Y-91892585D01*
X104907231Y-91885089D01*
X104911451Y-91877753D01*
X104915815Y-91870578D01*
X104920322Y-91863563D01*
X104924972Y-91856708D01*
X104929765Y-91850013D01*
X104934701Y-91843479D01*
X104939781Y-91837105D01*
X104945003Y-91830891D01*
X104950378Y-91824846D01*
X104955879Y-91818977D01*
X104961507Y-91813284D01*
X104967260Y-91807768D01*
X104973139Y-91802428D01*
X104979144Y-91797264D01*
X104985274Y-91792276D01*
X104991531Y-91787465D01*
X104997914Y-91782830D01*
X105004423Y-91778371D01*
X105011057Y-91774089D01*
X105017818Y-91769983D01*
X105024704Y-91766054D01*
X105031717Y-91762300D01*
X105038855Y-91758723D01*
X105046120Y-91755323D01*
X105053509Y-91752114D01*
X105060987Y-91749112D01*
X105068553Y-91746317D01*
X105076207Y-91743729D01*
X105083950Y-91741348D01*
X105091780Y-91739174D01*
X105099699Y-91737207D01*
X105107705Y-91735447D01*
X105115800Y-91733895D01*
X105123983Y-91732549D01*
X105132255Y-91731410D01*
X105140614Y-91730479D01*
X105149062Y-91729754D01*
X105157597Y-91729236D01*
X105166221Y-91728926D01*
X105174933Y-91728822D01*
X105183753Y-91728798D01*
X105192480Y-91728980D01*
G37*
G36*
X105585994Y-91739764D02*
G01*
X105981081Y-91739764D01*
X105981081Y-91860127D01*
X105701765Y-91860127D01*
X105701765Y-92035200D01*
X105965108Y-92035200D01*
X105965108Y-92155563D01*
X105701765Y-92155563D01*
X105701765Y-92451000D01*
X105585994Y-92451000D01*
X105585994Y-91739764D01*
G37*
G36*
X106067836Y-91739764D02*
G01*
X106462923Y-91739764D01*
X106462923Y-91860127D01*
X106183607Y-91860127D01*
X106183607Y-92035200D01*
X106446950Y-92035200D01*
X106446950Y-92155563D01*
X106183607Y-92155563D01*
X106183607Y-92451000D01*
X106067836Y-92451000D01*
X106067836Y-91739764D01*
G37*
D14*
G36*
X105179574Y-88051000D02*
G01*
X105058674Y-88051000D01*
X105007627Y-87897810D01*
X104775767Y-87897810D01*
X104726198Y-88051000D01*
X104607716Y-88051000D01*
X104700819Y-87777448D01*
X104812440Y-87777448D01*
X104970282Y-87777448D01*
X104892100Y-87514667D01*
X104812440Y-87777448D01*
X104700819Y-87777448D01*
X104849785Y-87339764D01*
X104939788Y-87339764D01*
X105179574Y-88051000D01*
G37*
G36*
X105674056Y-87790954D02*
G01*
X105673988Y-87798984D01*
X105673785Y-87806918D01*
X105673446Y-87814756D01*
X105672973Y-87822498D01*
X105672363Y-87830144D01*
X105671619Y-87837693D01*
X105670739Y-87845146D01*
X105669723Y-87852503D01*
X105668573Y-87859764D01*
X105667287Y-87866929D01*
X105665865Y-87873997D01*
X105664308Y-87880970D01*
X105662616Y-87887846D01*
X105660788Y-87894626D01*
X105658825Y-87901310D01*
X105656727Y-87907898D01*
X105654511Y-87914376D01*
X105652195Y-87920731D01*
X105649780Y-87926963D01*
X105647265Y-87933073D01*
X105644650Y-87939060D01*
X105640541Y-87947809D01*
X105636207Y-87956282D01*
X105631649Y-87964479D01*
X105626867Y-87972399D01*
X105621861Y-87980042D01*
X105616630Y-87987409D01*
X105611175Y-87994500D01*
X105609307Y-87996802D01*
X105603569Y-88003513D01*
X105597640Y-88009927D01*
X105591520Y-88016044D01*
X105585209Y-88021862D01*
X105578706Y-88027384D01*
X105572012Y-88032608D01*
X105565127Y-88037534D01*
X105558050Y-88042162D01*
X105550782Y-88046494D01*
X105545831Y-88049216D01*
X105540795Y-88051806D01*
X105538244Y-88053051D01*
X105533095Y-88055453D01*
X105527890Y-88057699D01*
X105522630Y-88059791D01*
X105517314Y-88061728D01*
X105511942Y-88063510D01*
X105506514Y-88065137D01*
X105501031Y-88066609D01*
X105495493Y-88067926D01*
X105489899Y-88069088D01*
X105484249Y-88070095D01*
X105478543Y-88070947D01*
X105472782Y-88071644D01*
X105466965Y-88072186D01*
X105461093Y-88072574D01*
X105455165Y-88072806D01*
X105449181Y-88072884D01*
X105443214Y-88072806D01*
X105437301Y-88072574D01*
X105431443Y-88072186D01*
X105425639Y-88071644D01*
X105419890Y-88070947D01*
X105414196Y-88070095D01*
X105408556Y-88069088D01*
X105402971Y-88067926D01*
X105397440Y-88066609D01*
X105391964Y-88065137D01*
X105386542Y-88063510D01*
X105381175Y-88061728D01*
X105375862Y-88059791D01*
X105370605Y-88057699D01*
X105365401Y-88055453D01*
X105360252Y-88053051D01*
X105355172Y-88050527D01*
X105350173Y-88047871D01*
X105345256Y-88045083D01*
X105338035Y-88040653D01*
X105330997Y-88035925D01*
X105324144Y-88030899D01*
X105317475Y-88025576D01*
X105310990Y-88019956D01*
X105304689Y-88014038D01*
X105298572Y-88007822D01*
X105292640Y-88001309D01*
X105288787Y-87996802D01*
X105283212Y-87989804D01*
X105277870Y-87982529D01*
X105272762Y-87974977D01*
X105267888Y-87967149D01*
X105263247Y-87959045D01*
X105258841Y-87950664D01*
X105254668Y-87942007D01*
X105250729Y-87933073D01*
X105248232Y-87926963D01*
X105245840Y-87920731D01*
X105243552Y-87914376D01*
X105241367Y-87907898D01*
X105239318Y-87901310D01*
X105237400Y-87894626D01*
X105235615Y-87887846D01*
X105233962Y-87880970D01*
X105232441Y-87873997D01*
X105231053Y-87866929D01*
X105229797Y-87859764D01*
X105228673Y-87852503D01*
X105227681Y-87845146D01*
X105226821Y-87837693D01*
X105226094Y-87830144D01*
X105225499Y-87822498D01*
X105225036Y-87814756D01*
X105224706Y-87806918D01*
X105224507Y-87798984D01*
X105224441Y-87790954D01*
X105224441Y-87339764D01*
X105330565Y-87339764D01*
X105330565Y-87794203D01*
X105330709Y-87802275D01*
X105331142Y-87810465D01*
X105331863Y-87818771D01*
X105332874Y-87827194D01*
X105333890Y-87834017D01*
X105335090Y-87840915D01*
X105336475Y-87847887D01*
X105338106Y-87854785D01*
X105339976Y-87861543D01*
X105342086Y-87868163D01*
X105344435Y-87874644D01*
X105347023Y-87880986D01*
X105349850Y-87887189D01*
X105352917Y-87893253D01*
X105356222Y-87899178D01*
X105359820Y-87904863D01*
X105363695Y-87910291D01*
X105367847Y-87915463D01*
X105372275Y-87920378D01*
X105376981Y-87925037D01*
X105381964Y-87929440D01*
X105387224Y-87933586D01*
X105392761Y-87937475D01*
X105398609Y-87941002D01*
X105404801Y-87944058D01*
X105411337Y-87946644D01*
X105418217Y-87948759D01*
X105423604Y-87950038D01*
X105429183Y-87951052D01*
X105434957Y-87951801D01*
X105440924Y-87952286D01*
X105447085Y-87952506D01*
X105449181Y-87952521D01*
X105455431Y-87952389D01*
X105461484Y-87951992D01*
X105467341Y-87951331D01*
X105473002Y-87950405D01*
X105478468Y-87949215D01*
X105483737Y-87947760D01*
X105490458Y-87945410D01*
X105496830Y-87942588D01*
X105502854Y-87939297D01*
X105505736Y-87937475D01*
X105511271Y-87933586D01*
X105516524Y-87929440D01*
X105521497Y-87925037D01*
X105526188Y-87920378D01*
X105530598Y-87915463D01*
X105534727Y-87910291D01*
X105538574Y-87904863D01*
X105542140Y-87899178D01*
X105545475Y-87893253D01*
X105548563Y-87887189D01*
X105551403Y-87880986D01*
X105553995Y-87874644D01*
X105556340Y-87868163D01*
X105558436Y-87861543D01*
X105560286Y-87854785D01*
X105561887Y-87847887D01*
X105563304Y-87840915D01*
X105564532Y-87834017D01*
X105565571Y-87827194D01*
X105566604Y-87818771D01*
X105567342Y-87810465D01*
X105567785Y-87802275D01*
X105567932Y-87794203D01*
X105567932Y-87339764D01*
X105674056Y-87339764D01*
X105674056Y-87790954D01*
G37*
G36*
X105894497Y-87460127D02*
G01*
X105726580Y-87460127D01*
X105726580Y-87339764D01*
X106168538Y-87339764D01*
X106168538Y-87460127D01*
X106000621Y-87460127D01*
X106000621Y-88051000D01*
X105894497Y-88051000D01*
X105894497Y-87460127D01*
G37*
G36*
X106504336Y-87328980D02*
G01*
X106512250Y-87329369D01*
X106520080Y-87329966D01*
X106527825Y-87330769D01*
X106535484Y-87331779D01*
X106543059Y-87332997D01*
X106550549Y-87334422D01*
X106557953Y-87336053D01*
X106565273Y-87337892D01*
X106572507Y-87339937D01*
X106579657Y-87342190D01*
X106586722Y-87344650D01*
X106593701Y-87347316D01*
X106600596Y-87350190D01*
X106607405Y-87353271D01*
X106614130Y-87356548D01*
X106620738Y-87360011D01*
X106627228Y-87363659D01*
X106633600Y-87367494D01*
X106639855Y-87371513D01*
X106645993Y-87375719D01*
X106652012Y-87380110D01*
X106657915Y-87384687D01*
X106663699Y-87389449D01*
X106669367Y-87394397D01*
X106674916Y-87399531D01*
X106680348Y-87404850D01*
X106685663Y-87410356D01*
X106690860Y-87416046D01*
X106695940Y-87421923D01*
X106700901Y-87427985D01*
X106705754Y-87434197D01*
X106710471Y-87440564D01*
X106715052Y-87447089D01*
X106719498Y-87453769D01*
X106723809Y-87460606D01*
X106727984Y-87467599D01*
X106732024Y-87474748D01*
X106735929Y-87482054D01*
X106739698Y-87489516D01*
X106743332Y-87497134D01*
X106746830Y-87504909D01*
X106750193Y-87512839D01*
X106753421Y-87520926D01*
X106756513Y-87529170D01*
X106759470Y-87537569D01*
X106762292Y-87546125D01*
X106764960Y-87554800D01*
X106767455Y-87563599D01*
X106769779Y-87572522D01*
X106771930Y-87581569D01*
X106773910Y-87590741D01*
X106775717Y-87600037D01*
X106777352Y-87609457D01*
X106778815Y-87619001D01*
X106780106Y-87628670D01*
X106781225Y-87638462D01*
X106782171Y-87648379D01*
X106782946Y-87658420D01*
X106783548Y-87668586D01*
X106783978Y-87678875D01*
X106784237Y-87689289D01*
X106784323Y-87699827D01*
X106784237Y-87710134D01*
X106783978Y-87720325D01*
X106783548Y-87730399D01*
X106782946Y-87740358D01*
X106782171Y-87750200D01*
X106781225Y-87759926D01*
X106780106Y-87769535D01*
X106778815Y-87779029D01*
X106777352Y-87788406D01*
X106775717Y-87797667D01*
X106773910Y-87806812D01*
X106771930Y-87815841D01*
X106769779Y-87824753D01*
X106767455Y-87833550D01*
X106764960Y-87842230D01*
X106762292Y-87850794D01*
X106759470Y-87859205D01*
X106756513Y-87867469D01*
X106753421Y-87875586D01*
X106750193Y-87883556D01*
X106746830Y-87891379D01*
X106743332Y-87899055D01*
X106739698Y-87906585D01*
X106735929Y-87913967D01*
X106732024Y-87921203D01*
X106727984Y-87928291D01*
X106723809Y-87935233D01*
X106719498Y-87942028D01*
X106715052Y-87948675D01*
X106710471Y-87955176D01*
X106705754Y-87961530D01*
X106700901Y-87967737D01*
X106695940Y-87973787D01*
X106690860Y-87979668D01*
X106685663Y-87985380D01*
X106680348Y-87990925D01*
X106674916Y-87996301D01*
X106669367Y-88001509D01*
X106663699Y-88006549D01*
X106657915Y-88011420D01*
X106652012Y-88016123D01*
X106645993Y-88020658D01*
X106639855Y-88025024D01*
X106633600Y-88029222D01*
X106627228Y-88033252D01*
X106620738Y-88037114D01*
X106614130Y-88040807D01*
X106607405Y-88044332D01*
X106600596Y-88047669D01*
X106593701Y-88050799D01*
X106586722Y-88053722D01*
X106579657Y-88056438D01*
X106572507Y-88058948D01*
X106565273Y-88061250D01*
X106557953Y-88063345D01*
X106550549Y-88065233D01*
X106543059Y-88066914D01*
X106535484Y-88068388D01*
X106527825Y-88069655D01*
X106520080Y-88070714D01*
X106512250Y-88071567D01*
X106504336Y-88072213D01*
X106496336Y-88072652D01*
X106488251Y-88072884D01*
X106480265Y-88072780D01*
X106472360Y-88072470D01*
X106464536Y-88071952D01*
X106456792Y-88071227D01*
X106449129Y-88070296D01*
X106441547Y-88069157D01*
X106434046Y-88067811D01*
X106426626Y-88066259D01*
X106419286Y-88064499D01*
X106412028Y-88062532D01*
X106404850Y-88060358D01*
X106397753Y-88057977D01*
X106390736Y-88055389D01*
X106383801Y-88052594D01*
X106376946Y-88049592D01*
X106370172Y-88046383D01*
X106363513Y-88042985D01*
X106356970Y-88039414D01*
X106350542Y-88035670D01*
X106344229Y-88031755D01*
X106338032Y-88027667D01*
X106331950Y-88023407D01*
X106325984Y-88018974D01*
X106320133Y-88014369D01*
X106314398Y-88009592D01*
X106308778Y-88004643D01*
X106303273Y-87999521D01*
X106297884Y-87994227D01*
X106292610Y-87988760D01*
X106287452Y-87983122D01*
X106282409Y-87977311D01*
X106277482Y-87971327D01*
X106272695Y-87965162D01*
X106268039Y-87958847D01*
X106263514Y-87952382D01*
X106259120Y-87945767D01*
X106254858Y-87939003D01*
X106250727Y-87932090D01*
X106246726Y-87925027D01*
X106242858Y-87917814D01*
X106239120Y-87910451D01*
X106235513Y-87902939D01*
X106232038Y-87895278D01*
X106228694Y-87887467D01*
X106225481Y-87879506D01*
X106222399Y-87871396D01*
X106219448Y-87863136D01*
X106216629Y-87854726D01*
X106213961Y-87846162D01*
X106211466Y-87837482D01*
X106209142Y-87828686D01*
X106206991Y-87819773D01*
X106205011Y-87810745D01*
X106203204Y-87801600D01*
X106201569Y-87792339D01*
X106200106Y-87782961D01*
X106198815Y-87773468D01*
X106197696Y-87763858D01*
X106196750Y-87754132D01*
X106195975Y-87744290D01*
X106195373Y-87734332D01*
X106194942Y-87724257D01*
X106194684Y-87714066D01*
X106194598Y-87703759D01*
X106194662Y-87695895D01*
X106305289Y-87695895D01*
X106305341Y-87702828D01*
X106305497Y-87709693D01*
X106305925Y-87719862D01*
X106306588Y-87729878D01*
X106307484Y-87739741D01*
X106308614Y-87749451D01*
X106309978Y-87759008D01*
X106311575Y-87768411D01*
X106313406Y-87777661D01*
X106315471Y-87786757D01*
X106317770Y-87795701D01*
X106318588Y-87798648D01*
X106321176Y-87807320D01*
X106323953Y-87815770D01*
X106326919Y-87823998D01*
X106330074Y-87832003D01*
X106333417Y-87839786D01*
X106336950Y-87847346D01*
X106340671Y-87854684D01*
X106344582Y-87861800D01*
X106348681Y-87868693D01*
X106352969Y-87875364D01*
X106355933Y-87879688D01*
X106360549Y-87885939D01*
X106365331Y-87891935D01*
X106370278Y-87897676D01*
X106375390Y-87903161D01*
X106380668Y-87908391D01*
X106386111Y-87913365D01*
X106391719Y-87918084D01*
X106397492Y-87922548D01*
X106403431Y-87926756D01*
X106409535Y-87930708D01*
X106413696Y-87933201D01*
X106420088Y-87936654D01*
X106426619Y-87939767D01*
X106433289Y-87942540D01*
X106440099Y-87944974D01*
X106447048Y-87947068D01*
X106454136Y-87948823D01*
X106461364Y-87950238D01*
X106468731Y-87951313D01*
X106476237Y-87952049D01*
X106483883Y-87952445D01*
X106489057Y-87952521D01*
X106496798Y-87952351D01*
X106504405Y-87951842D01*
X106511876Y-87950993D01*
X106519213Y-87949804D01*
X106526416Y-87948276D01*
X106533484Y-87946408D01*
X106540417Y-87944201D01*
X106547215Y-87941654D01*
X106553880Y-87938767D01*
X106560409Y-87935541D01*
X106564687Y-87933201D01*
X106570996Y-87929419D01*
X106577128Y-87925381D01*
X106583083Y-87921088D01*
X106588861Y-87916540D01*
X106594462Y-87911736D01*
X106599885Y-87906676D01*
X106605132Y-87901361D01*
X106610201Y-87895791D01*
X106615093Y-87889965D01*
X106619809Y-87883884D01*
X106622854Y-87879688D01*
X106627292Y-87873165D01*
X106631539Y-87866420D01*
X106635594Y-87859453D01*
X106639459Y-87852263D01*
X106643132Y-87844851D01*
X106646613Y-87837216D01*
X106649904Y-87829359D01*
X106653003Y-87821280D01*
X106655911Y-87812978D01*
X106658628Y-87804454D01*
X106660333Y-87798648D01*
X106662709Y-87789756D01*
X106664852Y-87780710D01*
X106666761Y-87771511D01*
X106668437Y-87762159D01*
X106669878Y-87752654D01*
X106671086Y-87742995D01*
X106672060Y-87733183D01*
X106672801Y-87723218D01*
X106673307Y-87713100D01*
X106673580Y-87702828D01*
X106673632Y-87695895D01*
X106673515Y-87686243D01*
X106673164Y-87676715D01*
X106672580Y-87667310D01*
X106671762Y-87658028D01*
X106670710Y-87648869D01*
X106669424Y-87639833D01*
X106667904Y-87630921D01*
X106666151Y-87622132D01*
X106664164Y-87613466D01*
X106661943Y-87604923D01*
X106660333Y-87599297D01*
X106657744Y-87590966D01*
X106654963Y-87582838D01*
X106651991Y-87574910D01*
X106648828Y-87567184D01*
X106645474Y-87559659D01*
X106641928Y-87552335D01*
X106638192Y-87545213D01*
X106634264Y-87538293D01*
X106630144Y-87531573D01*
X106625834Y-87525055D01*
X106622854Y-87520822D01*
X106618257Y-87514636D01*
X106613482Y-87508708D01*
X106608531Y-87503039D01*
X106603403Y-87497628D01*
X106598097Y-87492476D01*
X106592614Y-87487583D01*
X106586955Y-87482947D01*
X106581118Y-87478571D01*
X106575104Y-87474452D01*
X106568913Y-87470592D01*
X106564687Y-87468163D01*
X106558247Y-87464771D01*
X106551673Y-87461713D01*
X106544964Y-87458989D01*
X106538121Y-87456598D01*
X106531143Y-87454541D01*
X106524030Y-87452818D01*
X106516782Y-87451428D01*
X106509401Y-87450371D01*
X106501884Y-87449648D01*
X106494233Y-87449259D01*
X106489057Y-87449185D01*
X106481319Y-87449352D01*
X106473720Y-87449852D01*
X106466260Y-87450686D01*
X106458939Y-87451854D01*
X106451758Y-87453355D01*
X106444716Y-87455190D01*
X106437814Y-87457358D01*
X106431051Y-87459860D01*
X106424427Y-87462696D01*
X106417942Y-87465865D01*
X106413696Y-87468163D01*
X106407482Y-87471850D01*
X106401433Y-87475796D01*
X106395549Y-87480001D01*
X106389831Y-87484464D01*
X106384278Y-87489185D01*
X106378890Y-87494165D01*
X106373668Y-87499403D01*
X106368611Y-87504900D01*
X106363719Y-87510655D01*
X106358992Y-87516669D01*
X106355933Y-87520822D01*
X106351519Y-87527205D01*
X106347294Y-87533791D01*
X106343257Y-87540577D01*
X106339410Y-87547565D01*
X106335751Y-87554754D01*
X106332282Y-87562145D01*
X106329001Y-87569737D01*
X106325909Y-87577530D01*
X106323006Y-87585525D01*
X106320292Y-87593721D01*
X106318588Y-87599297D01*
X106316211Y-87607757D01*
X106314069Y-87616341D01*
X106312159Y-87625048D01*
X106310484Y-87633878D01*
X106309042Y-87642832D01*
X106307835Y-87651908D01*
X106306861Y-87661108D01*
X106306120Y-87670431D01*
X106305614Y-87679877D01*
X106305341Y-87689447D01*
X106305289Y-87695895D01*
X106194662Y-87695895D01*
X106194684Y-87693219D01*
X106194942Y-87682800D01*
X106195373Y-87672500D01*
X106195975Y-87662321D01*
X106196750Y-87652261D01*
X106197696Y-87642322D01*
X106198815Y-87632504D01*
X106200106Y-87622805D01*
X106201569Y-87613227D01*
X106203204Y-87603769D01*
X106205011Y-87594431D01*
X106206991Y-87585213D01*
X106209142Y-87576116D01*
X106211466Y-87567138D01*
X106213961Y-87558281D01*
X106216629Y-87549545D01*
X106219448Y-87540927D01*
X106222399Y-87532469D01*
X106225481Y-87524171D01*
X106228694Y-87516034D01*
X106232038Y-87508058D01*
X106235513Y-87500241D01*
X106239120Y-87492585D01*
X106242858Y-87485089D01*
X106246726Y-87477753D01*
X106250727Y-87470578D01*
X106254858Y-87463563D01*
X106259120Y-87456708D01*
X106263514Y-87450013D01*
X106268039Y-87443479D01*
X106272695Y-87437105D01*
X106277482Y-87430891D01*
X106282409Y-87424846D01*
X106287452Y-87418977D01*
X106292610Y-87413284D01*
X106297884Y-87407768D01*
X106303273Y-87402428D01*
X106308778Y-87397264D01*
X106314398Y-87392276D01*
X106320133Y-87387465D01*
X106325984Y-87382830D01*
X106331950Y-87378371D01*
X106338032Y-87374089D01*
X106344229Y-87369983D01*
X106350542Y-87366054D01*
X106356970Y-87362300D01*
X106363513Y-87358723D01*
X106370172Y-87355323D01*
X106376946Y-87352114D01*
X106383801Y-87349112D01*
X106390736Y-87346317D01*
X106397753Y-87343729D01*
X106404850Y-87341348D01*
X106412028Y-87339174D01*
X106419286Y-87337207D01*
X106426626Y-87335447D01*
X106434046Y-87333895D01*
X106441547Y-87332549D01*
X106449129Y-87331410D01*
X106456792Y-87330479D01*
X106464536Y-87329754D01*
X106472360Y-87329236D01*
X106480265Y-87328926D01*
X106488251Y-87328822D01*
X106496336Y-87328798D01*
X106504336Y-87328980D01*
G37*
D12*
X94088333Y-87438345D02*
X94056429Y-87470250D01*
X94056429Y-87470250D02*
X93960714Y-87502154D01*
X93960714Y-87502154D02*
X93896905Y-87502154D01*
X93896905Y-87502154D02*
X93801191Y-87470250D01*
X93801191Y-87470250D02*
X93737381Y-87406440D01*
X93737381Y-87406440D02*
X93705476Y-87342630D01*
X93705476Y-87342630D02*
X93673572Y-87215011D01*
X93673572Y-87215011D02*
X93673572Y-87119297D01*
X93673572Y-87119297D02*
X93705476Y-86991678D01*
X93705476Y-86991678D02*
X93737381Y-86927869D01*
X93737381Y-86927869D02*
X93801191Y-86864059D01*
X93801191Y-86864059D02*
X93896905Y-86832154D01*
X93896905Y-86832154D02*
X93960714Y-86832154D01*
X93960714Y-86832154D02*
X94056429Y-86864059D01*
X94056429Y-86864059D02*
X94088333Y-86895964D01*
X94662619Y-87055488D02*
X94662619Y-87502154D01*
X94503095Y-86800250D02*
X94343572Y-87278821D01*
X94343572Y-87278821D02*
X94758333Y-87278821D01*
D15*
X94984809Y-102363333D02*
X94984809Y-102601428D01*
X94984809Y-102601428D02*
X94484809Y-102601428D01*
X94984809Y-101934761D02*
X94984809Y-102220475D01*
X94984809Y-102077618D02*
X94484809Y-102077618D01*
X94484809Y-102077618D02*
X94556238Y-102125237D01*
X94556238Y-102125237D02*
X94603857Y-102172856D01*
X94603857Y-102172856D02*
X94627666Y-102220475D01*
D12*
X94083333Y-83129366D02*
X94050000Y-83162700D01*
X94050000Y-83162700D02*
X93950000Y-83196033D01*
X93950000Y-83196033D02*
X93883333Y-83196033D01*
X93883333Y-83196033D02*
X93783333Y-83162700D01*
X93783333Y-83162700D02*
X93716667Y-83096033D01*
X93716667Y-83096033D02*
X93683333Y-83029366D01*
X93683333Y-83029366D02*
X93650000Y-82896033D01*
X93650000Y-82896033D02*
X93650000Y-82796033D01*
X93650000Y-82796033D02*
X93683333Y-82662700D01*
X93683333Y-82662700D02*
X93716667Y-82596033D01*
X93716667Y-82596033D02*
X93783333Y-82529366D01*
X93783333Y-82529366D02*
X93883333Y-82496033D01*
X93883333Y-82496033D02*
X93950000Y-82496033D01*
X93950000Y-82496033D02*
X94050000Y-82529366D01*
X94050000Y-82529366D02*
X94083333Y-82562700D01*
X94716667Y-82496033D02*
X94383333Y-82496033D01*
X94383333Y-82496033D02*
X94350000Y-82829366D01*
X94350000Y-82829366D02*
X94383333Y-82796033D01*
X94383333Y-82796033D02*
X94450000Y-82762700D01*
X94450000Y-82762700D02*
X94616667Y-82762700D01*
X94616667Y-82762700D02*
X94683333Y-82796033D01*
X94683333Y-82796033D02*
X94716667Y-82829366D01*
X94716667Y-82829366D02*
X94750000Y-82896033D01*
X94750000Y-82896033D02*
X94750000Y-83062700D01*
X94750000Y-83062700D02*
X94716667Y-83129366D01*
X94716667Y-83129366D02*
X94683333Y-83162700D01*
X94683333Y-83162700D02*
X94616667Y-83196033D01*
X94616667Y-83196033D02*
X94450000Y-83196033D01*
X94450000Y-83196033D02*
X94383333Y-83162700D01*
X94383333Y-83162700D02*
X94350000Y-83129366D01*
X93429819Y-99281904D02*
X94239342Y-99281904D01*
X94239342Y-99281904D02*
X94334580Y-99234285D01*
X94334580Y-99234285D02*
X94382200Y-99186666D01*
X94382200Y-99186666D02*
X94429819Y-99091428D01*
X94429819Y-99091428D02*
X94429819Y-98900952D01*
X94429819Y-98900952D02*
X94382200Y-98805714D01*
X94382200Y-98805714D02*
X94334580Y-98758095D01*
X94334580Y-98758095D02*
X94239342Y-98710476D01*
X94239342Y-98710476D02*
X93429819Y-98710476D01*
X94429819Y-97710476D02*
X94429819Y-98281904D01*
X94429819Y-97996190D02*
X93429819Y-97996190D01*
X93429819Y-97996190D02*
X93572676Y-98091428D01*
X93572676Y-98091428D02*
X93667914Y-98186666D01*
X93667914Y-98186666D02*
X93715533Y-98281904D01*
X104995200Y-94644166D02*
X104961866Y-94710833D01*
X104961866Y-94710833D02*
X104895200Y-94777500D01*
X104895200Y-94777500D02*
X104795200Y-94877500D01*
X104795200Y-94877500D02*
X104761866Y-94944166D01*
X104761866Y-94944166D02*
X104761866Y-95010833D01*
X104928533Y-94977500D02*
X104895200Y-95044166D01*
X104895200Y-95044166D02*
X104828533Y-95110833D01*
X104828533Y-95110833D02*
X104695200Y-95144166D01*
X104695200Y-95144166D02*
X104461866Y-95144166D01*
X104461866Y-95144166D02*
X104328533Y-95110833D01*
X104328533Y-95110833D02*
X104261866Y-95044166D01*
X104261866Y-95044166D02*
X104228533Y-94977500D01*
X104228533Y-94977500D02*
X104228533Y-94844166D01*
X104228533Y-94844166D02*
X104261866Y-94777500D01*
X104261866Y-94777500D02*
X104328533Y-94710833D01*
X104328533Y-94710833D02*
X104461866Y-94677500D01*
X104461866Y-94677500D02*
X104695200Y-94677500D01*
X104695200Y-94677500D02*
X104828533Y-94710833D01*
X104828533Y-94710833D02*
X104895200Y-94777500D01*
X104895200Y-94777500D02*
X104928533Y-94844166D01*
X104928533Y-94844166D02*
X104928533Y-94977500D01*
X104295200Y-94410833D02*
X104261866Y-94377500D01*
X104261866Y-94377500D02*
X104228533Y-94310833D01*
X104228533Y-94310833D02*
X104228533Y-94144167D01*
X104228533Y-94144167D02*
X104261866Y-94077500D01*
X104261866Y-94077500D02*
X104295200Y-94044167D01*
X104295200Y-94044167D02*
X104361866Y-94010833D01*
X104361866Y-94010833D02*
X104428533Y-94010833D01*
X104428533Y-94010833D02*
X104528533Y-94044167D01*
X104528533Y-94044167D02*
X104928533Y-94444167D01*
X104928533Y-94444167D02*
X104928533Y-94010833D01*
X105285476Y-77102154D02*
X105285476Y-76432154D01*
X105285476Y-76432154D02*
X105445000Y-76432154D01*
X105445000Y-76432154D02*
X105540714Y-76464059D01*
X105540714Y-76464059D02*
X105604524Y-76527869D01*
X105604524Y-76527869D02*
X105636429Y-76591678D01*
X105636429Y-76591678D02*
X105668333Y-76719297D01*
X105668333Y-76719297D02*
X105668333Y-76815011D01*
X105668333Y-76815011D02*
X105636429Y-76942630D01*
X105636429Y-76942630D02*
X105604524Y-77006440D01*
X105604524Y-77006440D02*
X105540714Y-77070250D01*
X105540714Y-77070250D02*
X105445000Y-77102154D01*
X105445000Y-77102154D02*
X105285476Y-77102154D01*
X105923572Y-76495964D02*
X105955476Y-76464059D01*
X105955476Y-76464059D02*
X106019286Y-76432154D01*
X106019286Y-76432154D02*
X106178810Y-76432154D01*
X106178810Y-76432154D02*
X106242619Y-76464059D01*
X106242619Y-76464059D02*
X106274524Y-76495964D01*
X106274524Y-76495964D02*
X106306429Y-76559773D01*
X106306429Y-76559773D02*
X106306429Y-76623583D01*
X106306429Y-76623583D02*
X106274524Y-76719297D01*
X106274524Y-76719297D02*
X105891667Y-77102154D01*
X105891667Y-77102154D02*
X106306429Y-77102154D01*
X105593333Y-71719366D02*
X105560000Y-71752700D01*
X105560000Y-71752700D02*
X105460000Y-71786033D01*
X105460000Y-71786033D02*
X105393333Y-71786033D01*
X105393333Y-71786033D02*
X105293333Y-71752700D01*
X105293333Y-71752700D02*
X105226667Y-71686033D01*
X105226667Y-71686033D02*
X105193333Y-71619366D01*
X105193333Y-71619366D02*
X105160000Y-71486033D01*
X105160000Y-71486033D02*
X105160000Y-71386033D01*
X105160000Y-71386033D02*
X105193333Y-71252700D01*
X105193333Y-71252700D02*
X105226667Y-71186033D01*
X105226667Y-71186033D02*
X105293333Y-71119366D01*
X105293333Y-71119366D02*
X105393333Y-71086033D01*
X105393333Y-71086033D02*
X105460000Y-71086033D01*
X105460000Y-71086033D02*
X105560000Y-71119366D01*
X105560000Y-71119366D02*
X105593333Y-71152700D01*
X105860000Y-71152700D02*
X105893333Y-71119366D01*
X105893333Y-71119366D02*
X105960000Y-71086033D01*
X105960000Y-71086033D02*
X106126667Y-71086033D01*
X106126667Y-71086033D02*
X106193333Y-71119366D01*
X106193333Y-71119366D02*
X106226667Y-71152700D01*
X106226667Y-71152700D02*
X106260000Y-71219366D01*
X106260000Y-71219366D02*
X106260000Y-71286033D01*
X106260000Y-71286033D02*
X106226667Y-71386033D01*
X106226667Y-71386033D02*
X105826667Y-71786033D01*
X105826667Y-71786033D02*
X106260000Y-71786033D01*
X93623333Y-75216033D02*
X93623333Y-74516033D01*
X93623333Y-74516033D02*
X93790000Y-74516033D01*
X93790000Y-74516033D02*
X93890000Y-74549366D01*
X93890000Y-74549366D02*
X93956667Y-74616033D01*
X93956667Y-74616033D02*
X93990000Y-74682700D01*
X93990000Y-74682700D02*
X94023333Y-74816033D01*
X94023333Y-74816033D02*
X94023333Y-74916033D01*
X94023333Y-74916033D02*
X93990000Y-75049366D01*
X93990000Y-75049366D02*
X93956667Y-75116033D01*
X93956667Y-75116033D02*
X93890000Y-75182700D01*
X93890000Y-75182700D02*
X93790000Y-75216033D01*
X93790000Y-75216033D02*
X93623333Y-75216033D01*
X94356667Y-75216033D02*
X94490000Y-75216033D01*
X94490000Y-75216033D02*
X94556667Y-75182700D01*
X94556667Y-75182700D02*
X94590000Y-75149366D01*
X94590000Y-75149366D02*
X94656667Y-75049366D01*
X94656667Y-75049366D02*
X94690000Y-74916033D01*
X94690000Y-74916033D02*
X94690000Y-74649366D01*
X94690000Y-74649366D02*
X94656667Y-74582700D01*
X94656667Y-74582700D02*
X94623333Y-74549366D01*
X94623333Y-74549366D02*
X94556667Y-74516033D01*
X94556667Y-74516033D02*
X94423333Y-74516033D01*
X94423333Y-74516033D02*
X94356667Y-74549366D01*
X94356667Y-74549366D02*
X94323333Y-74582700D01*
X94323333Y-74582700D02*
X94290000Y-74649366D01*
X94290000Y-74649366D02*
X94290000Y-74816033D01*
X94290000Y-74816033D02*
X94323333Y-74882700D01*
X94323333Y-74882700D02*
X94356667Y-74916033D01*
X94356667Y-74916033D02*
X94423333Y-74949366D01*
X94423333Y-74949366D02*
X94556667Y-74949366D01*
X94556667Y-74949366D02*
X94623333Y-74916033D01*
X94623333Y-74916033D02*
X94656667Y-74882700D01*
X94656667Y-74882700D02*
X94690000Y-74816033D01*
X105285476Y-80332154D02*
X105285476Y-79662154D01*
X105285476Y-79662154D02*
X105445000Y-79662154D01*
X105445000Y-79662154D02*
X105540714Y-79694059D01*
X105540714Y-79694059D02*
X105604524Y-79757869D01*
X105604524Y-79757869D02*
X105636429Y-79821678D01*
X105636429Y-79821678D02*
X105668333Y-79949297D01*
X105668333Y-79949297D02*
X105668333Y-80045011D01*
X105668333Y-80045011D02*
X105636429Y-80172630D01*
X105636429Y-80172630D02*
X105604524Y-80236440D01*
X105604524Y-80236440D02*
X105540714Y-80300250D01*
X105540714Y-80300250D02*
X105445000Y-80332154D01*
X105445000Y-80332154D02*
X105285476Y-80332154D01*
X106306429Y-80332154D02*
X105923572Y-80332154D01*
X106115000Y-80332154D02*
X106115000Y-79662154D01*
X106115000Y-79662154D02*
X106051191Y-79757869D01*
X106051191Y-79757869D02*
X105987381Y-79821678D01*
X105987381Y-79821678D02*
X105923572Y-79853583D01*
X94098333Y-78898345D02*
X94066429Y-78930250D01*
X94066429Y-78930250D02*
X93970714Y-78962154D01*
X93970714Y-78962154D02*
X93906905Y-78962154D01*
X93906905Y-78962154D02*
X93811191Y-78930250D01*
X93811191Y-78930250D02*
X93747381Y-78866440D01*
X93747381Y-78866440D02*
X93715476Y-78802630D01*
X93715476Y-78802630D02*
X93683572Y-78675011D01*
X93683572Y-78675011D02*
X93683572Y-78579297D01*
X93683572Y-78579297D02*
X93715476Y-78451678D01*
X93715476Y-78451678D02*
X93747381Y-78387869D01*
X93747381Y-78387869D02*
X93811191Y-78324059D01*
X93811191Y-78324059D02*
X93906905Y-78292154D01*
X93906905Y-78292154D02*
X93970714Y-78292154D01*
X93970714Y-78292154D02*
X94066429Y-78324059D01*
X94066429Y-78324059D02*
X94098333Y-78355964D01*
X94417381Y-78962154D02*
X94545000Y-78962154D01*
X94545000Y-78962154D02*
X94608810Y-78930250D01*
X94608810Y-78930250D02*
X94640714Y-78898345D01*
X94640714Y-78898345D02*
X94704524Y-78802630D01*
X94704524Y-78802630D02*
X94736429Y-78675011D01*
X94736429Y-78675011D02*
X94736429Y-78419773D01*
X94736429Y-78419773D02*
X94704524Y-78355964D01*
X94704524Y-78355964D02*
X94672619Y-78324059D01*
X94672619Y-78324059D02*
X94608810Y-78292154D01*
X94608810Y-78292154D02*
X94481191Y-78292154D01*
X94481191Y-78292154D02*
X94417381Y-78324059D01*
X94417381Y-78324059D02*
X94385476Y-78355964D01*
X94385476Y-78355964D02*
X94353572Y-78419773D01*
X94353572Y-78419773D02*
X94353572Y-78579297D01*
X94353572Y-78579297D02*
X94385476Y-78643107D01*
X94385476Y-78643107D02*
X94417381Y-78675011D01*
X94417381Y-78675011D02*
X94481191Y-78706916D01*
X94481191Y-78706916D02*
X94608810Y-78706916D01*
X94608810Y-78706916D02*
X94672619Y-78675011D01*
X94672619Y-78675011D02*
X94704524Y-78643107D01*
X94704524Y-78643107D02*
X94736429Y-78579297D01*
D16*
%TO.C,D4*%
X105200000Y-84760000D02*
X106400000Y-84760000D01*
X105200000Y-82800000D02*
X105200000Y-84760000D01*
X106400000Y-82800000D02*
X106400000Y-84760000D01*
%TO.C,D8*%
X95050000Y-69890000D02*
X93350000Y-69890000D01*
X95050000Y-69890000D02*
X95050000Y-72550000D01*
X93350000Y-69890000D02*
X93350000Y-72550000D01*
%TO.C,C8*%
X101240000Y-103507836D02*
X101240000Y-103292164D01*
X101960000Y-103507836D02*
X101960000Y-103292164D01*
%TO.C,C7*%
X98410000Y-94288748D02*
X98410000Y-95711252D01*
X96590000Y-94288748D02*
X96590000Y-95711252D01*
%TO.C,R4*%
X97026359Y-102200000D02*
X97333641Y-102200000D01*
X97026359Y-102960000D02*
X97333641Y-102960000D01*
%TO.C,Q1*%
X96050000Y-106322500D02*
X96850000Y-106322500D01*
X96050000Y-106322500D02*
X95250000Y-106322500D01*
X97590000Y-106602500D02*
X97110000Y-106602500D01*
X97350000Y-106272500D01*
X97590000Y-106602500D01*
G36*
X97590000Y-106602500D02*
G01*
X97110000Y-106602500D01*
X97350000Y-106272500D01*
X97590000Y-106602500D01*
G37*
%TO.C,R6*%
X105527500Y-100762258D02*
X105527500Y-100287742D01*
X106572500Y-100762258D02*
X106572500Y-100287742D01*
%TO.C,Q3*%
X102920000Y-98562500D02*
X103720000Y-98562500D01*
X102920000Y-98562500D02*
X102120000Y-98562500D01*
X104460000Y-98842500D02*
X103980000Y-98842500D01*
X104220000Y-98512500D01*
X104460000Y-98842500D01*
G36*
X104460000Y-98842500D02*
G01*
X103980000Y-98842500D01*
X104220000Y-98512500D01*
X104460000Y-98842500D01*
G37*
%TO.C,Q4*%
X93090000Y-93250000D02*
X93090000Y-93900000D01*
X93090000Y-93250000D02*
X93090000Y-92600000D01*
X96210000Y-93250000D02*
X96210000Y-93900000D01*
X96210000Y-93250000D02*
X96210000Y-92600000D01*
X93140000Y-94412500D02*
X92810000Y-94652500D01*
X92810000Y-94172500D01*
X93140000Y-94412500D01*
G36*
X93140000Y-94412500D02*
G01*
X92810000Y-94652500D01*
X92810000Y-94172500D01*
X93140000Y-94412500D01*
G37*
%TO.C,C4*%
X94935000Y-86888748D02*
X94935000Y-87411252D01*
X93465000Y-86888748D02*
X93465000Y-87411252D01*
%TO.C,L1*%
X94872779Y-102840000D02*
X94547221Y-102840000D01*
X94872779Y-101820000D02*
X94547221Y-101820000D01*
%TO.C,R3*%
X98722500Y-100037742D02*
X98722500Y-100512258D01*
X97677500Y-100037742D02*
X97677500Y-100512258D01*
%TO.C,C5*%
X93465000Y-83111252D02*
X93465000Y-82588748D01*
X94935000Y-83111252D02*
X94935000Y-82588748D01*
%TO.C,R1*%
X94246359Y-90220000D02*
X94553641Y-90220000D01*
X94246359Y-90980000D02*
X94553641Y-90980000D01*
%TO.C,R2*%
X105920000Y-96723641D02*
X105920000Y-96416359D01*
X106680000Y-96723641D02*
X106680000Y-96416359D01*
%TO.C,U1*%
X96185000Y-98387500D02*
X96185000Y-96887500D01*
X96185000Y-98387500D02*
X96185000Y-99887500D01*
X92965000Y-98387500D02*
X92965000Y-96887500D01*
X92965000Y-98387500D02*
X92965000Y-99887500D01*
X96340000Y-96415000D02*
X96010000Y-96175000D01*
X96340000Y-95935000D01*
X96340000Y-96415000D01*
G36*
X96340000Y-96415000D02*
G01*
X96010000Y-96175000D01*
X96340000Y-95935000D01*
X96340000Y-96415000D01*
G37*
%TO.C,Q2*%
X104582500Y-95500000D02*
X105382500Y-95500000D01*
X104582500Y-95500000D02*
X103782500Y-95500000D01*
X106122500Y-95780000D02*
X105642500Y-95780000D01*
X105882500Y-95450000D01*
X106122500Y-95780000D01*
G36*
X106122500Y-95780000D02*
G01*
X105642500Y-95780000D01*
X105882500Y-95450000D01*
X106122500Y-95780000D01*
G37*
%TO.C,R7*%
X94246359Y-89020000D02*
X94553641Y-89020000D01*
X94246359Y-89780000D02*
X94553641Y-89780000D01*
%TO.C,D2*%
X104900000Y-78410000D02*
X106600000Y-78410000D01*
X104900000Y-78410000D02*
X104900000Y-75750000D01*
X106600000Y-78410000D02*
X106600000Y-75750000D01*
%TO.C,C2*%
X104690000Y-72111252D02*
X104690000Y-70688748D01*
X106510000Y-72111252D02*
X106510000Y-70688748D01*
%TO.C,D9*%
X93340000Y-76510000D02*
X95040000Y-76510000D01*
X93340000Y-76510000D02*
X93340000Y-73850000D01*
X95040000Y-76510000D02*
X95040000Y-73850000D01*
%TO.C,R5*%
X102332500Y-99962742D02*
X102332500Y-100437258D01*
X101287500Y-99962742D02*
X101287500Y-100437258D01*
%TO.C,U2*%
X102590000Y-102990000D02*
X102590000Y-102780000D01*
X102590000Y-105760000D02*
X102590000Y-105310000D01*
X103040000Y-102540000D02*
X102890000Y-102540000D01*
X103040000Y-105760000D02*
X102590000Y-105760000D01*
X105360000Y-102540000D02*
X105810000Y-102540000D01*
X105360000Y-105760000D02*
X105810000Y-105760000D01*
X105810000Y-102540000D02*
X105810000Y-102990000D01*
X105810000Y-105760000D02*
X105810000Y-105310000D01*
X102590000Y-102540000D02*
X102350000Y-102210000D01*
X102830000Y-102210000D01*
X102590000Y-102540000D01*
G36*
X102590000Y-102540000D02*
G01*
X102350000Y-102210000D01*
X102830000Y-102210000D01*
X102590000Y-102540000D01*
G37*
%TO.C,D1*%
X104900000Y-81910000D02*
X106600000Y-81910000D01*
X104900000Y-81910000D02*
X104900000Y-79250000D01*
X106600000Y-81910000D02*
X106600000Y-79250000D01*
%TO.C,C9*%
X94935000Y-78388748D02*
X94935000Y-78911252D01*
X93465000Y-78388748D02*
X93465000Y-78911252D01*
%TD*%
M02*
