%TF.GenerationSoftware,KiCad,Pcbnew,7.0.11*%
%TF.CreationDate,2026-04-20T08:28:50-05:00*%
%TF.ProjectId,lightsaber_necklace,6c696768-7473-4616-9265-725f6e65636b,rev?*%
%TF.SameCoordinates,Original*%
%TF.FileFunction,Copper,L4,Bot*%
%TF.FilePolarity,Positive*%
%FSLAX46Y46*%
G04 Gerber Fmt 4.6, Leading zero omitted, Abs format (unit mm)*
G04 Created by KiCad (PCBNEW 7.0.11) date 2026-04-20 08:28:50*
%MOMM*%
%LPD*%
G01*
G04 APERTURE LIST*
G04 Aperture macros list*
%AMRoundRect*
0 Rectangle with rounded corners*
0 $1 Rounding radius*
0 $2 $3 $4 $5 $6 $7 $8 $9 X,Y pos of 4 corners*
0 Add a 4 corners polygon primitive as box body*
4,1,4,$2,$3,$4,$5,$6,$7,$8,$9,$2,$3,0*
0 Add four circle primitives for the rounded corners*
1,1,$1+$1,$2,$3*
1,1,$1+$1,$4,$5*
1,1,$1+$1,$6,$7*
1,1,$1+$1,$8,$9*
0 Add four rect primitives between the rounded corners*
20,1,$1+$1,$2,$3,$4,$5,0*
20,1,$1+$1,$4,$5,$6,$7,0*
20,1,$1+$1,$6,$7,$8,$9,0*
20,1,$1+$1,$8,$9,$2,$3,0*%
G04 Aperture macros list end*
%TA.AperFunction,ComponentPad*%
%ADD10C,2.000000*%
%TD*%
%TA.AperFunction,ComponentPad*%
%ADD11RoundRect,0.400000X0.100000X-0.100000X0.100000X0.100000X-0.100000X0.100000X-0.100000X-0.100000X0*%
%TD*%
%TA.AperFunction,ComponentPad*%
%ADD12O,1.000000X1.000000*%
%TD*%
%TA.AperFunction,ComponentPad*%
%ADD13C,1.000000*%
%TD*%
%TA.AperFunction,ComponentPad*%
%ADD14RoundRect,0.250000X-0.250000X-0.250000X0.250000X-0.250000X0.250000X0.250000X-0.250000X0.250000X0*%
%TD*%
%TA.AperFunction,ComponentPad*%
%ADD15C,3.750000*%
%TD*%
%TA.AperFunction,ComponentPad*%
%ADD16O,1.670000X1.500000*%
%TD*%
%TA.AperFunction,ComponentPad*%
%ADD17C,1.500000*%
%TD*%
%TA.AperFunction,SMDPad,CuDef*%
%ADD18RoundRect,0.225000X0.225000X1.025000X-0.225000X1.025000X-0.225000X-1.025000X0.225000X-1.025000X0*%
%TD*%
%TA.AperFunction,SMDPad,CuDef*%
%ADD19RoundRect,0.127500X0.127500X0.227500X-0.127500X0.227500X-0.127500X-0.227500X0.127500X-0.227500X0*%
%TD*%
%TA.AperFunction,SMDPad,CuDef*%
%ADD20RoundRect,0.680000X0.170000X0.570000X-0.170000X0.570000X-0.170000X-0.570000X0.170000X-0.570000X0*%
%TD*%
%TA.AperFunction,SMDPad,CuDef*%
%ADD21C,1.000000*%
%TD*%
%TA.AperFunction,ComponentPad*%
%ADD22C,1.480000*%
%TD*%
%TA.AperFunction,SMDPad,CuDef*%
%ADD23RoundRect,0.280000X0.195000X0.595000X-0.195000X0.595000X-0.195000X-0.595000X0.195000X-0.595000X0*%
%TD*%
%TA.AperFunction,SMDPad,CuDef*%
%ADD24RoundRect,0.190000X0.285000X0.685000X-0.285000X0.685000X-0.285000X-0.685000X0.285000X-0.685000X0*%
%TD*%
%TA.AperFunction,ComponentPad*%
%ADD25O,1.670000X1.450000*%
%TD*%
%TA.AperFunction,ComponentPad*%
%ADD26C,1.400000*%
%TD*%
%TA.AperFunction,SMDPad,CuDef*%
%ADD27RoundRect,0.522500X0.427500X0.627500X-0.427500X0.627500X-0.427500X-0.627500X0.427500X-0.627500X0*%
%TD*%
%TA.AperFunction,SMDPad,CuDef*%
%ADD28RoundRect,0.630000X0.270000X0.545000X-0.270000X0.545000X-0.270000X-0.545000X0.270000X-0.545000X0*%
%TD*%
%TA.AperFunction,SMDPad,CuDef*%
%ADD29RoundRect,0.190000X-0.285000X-0.685000X0.285000X-0.685000X0.285000X0.685000X-0.285000X0.685000X0*%
%TD*%
%TA.AperFunction,SMDPad,CuDef*%
%ADD30RoundRect,0.210000X-0.265000X-0.665000X0.265000X-0.665000X0.265000X0.665000X-0.265000X0.665000X0*%
%TD*%
%TA.AperFunction,ViaPad*%
%ADD31C,0.500000*%
%TD*%
%TA.AperFunction,ViaPad*%
%ADD32C,0.600000*%
%TD*%
%TA.AperFunction,Conductor*%
%ADD33C,0.600000*%
%TD*%
%TA.AperFunction,Conductor*%
%ADD34C,0.300000*%
%TD*%
%TA.AperFunction,Conductor*%
%ADD35C,0.200000*%
%TD*%
%TA.AperFunction,Conductor*%
%ADD36C,0.160000*%
%TD*%
%TA.AperFunction,Conductor*%
%ADD37C,0.400000*%
%TD*%
G04 APERTURE END LIST*
D10*
%TO.P,J2,1,Pin_1*%
%TO.N,GND*%
X100000000Y-100000000D03*
%TD*%
D11*
%TO.P,J4,1,Pin_1*%
%TO.N,/Vout*%
X98800000Y-105400000D03*
D12*
%TO.P,J4,2,Pin_2*%
%TO.N,UPDI*%
X100070000Y-105400000D03*
%TO.P,J4,3,Pin_3*%
%TO.N,GND*%
X101340000Y-105400000D03*
%TD*%
D13*
%TO.P,J3,1,Pin_1*%
%TO.N,GND*%
X105600000Y-88625000D03*
D12*
%TO.P,J3,2,Pin_2*%
X105600000Y-89895000D03*
D14*
%TO.P,J3,3,Pin_3*%
%TO.N,/EN*%
X105600000Y-91165000D03*
%TD*%
D15*
%TO.P,H1,1,1*%
%TO.N,Net-(C2-Pad2)*%
X100000000Y-67200000D03*
%TD*%
D10*
%TO.P,J1,1,Pin_1*%
%TO.N,GND*%
X100000000Y-93800000D03*
%TD*%
D16*
%TO.P,C6,1*%
%TO.N,supaCap*%
X95580000Y-86300000D03*
D17*
%TO.P,C6,2*%
%TO.N,GND*%
X105800000Y-86300000D03*
%TD*%
D18*
%TO.P,D6,1,K*%
%TO.N,Net-(D6-K)*%
X101750000Y-97200000D03*
D19*
X101550000Y-97575000D03*
%TO.P,D6,2,A*%
%TO.N,/Vout*%
X98450000Y-96825000D03*
D20*
X97850000Y-97200000D03*
%TD*%
D21*
%TO.P,TP1,1,1*%
%TO.N,combined_solars*%
X94060000Y-89410000D03*
%TD*%
D16*
%TO.P,C3,1*%
%TO.N,supaCap*%
X95580000Y-74400000D03*
D22*
%TO.P,C3,2*%
%TO.N,GND*%
X105800000Y-74400000D03*
%TD*%
D23*
%TO.P,D3,1,K*%
%TO.N,Net-(D3-K)*%
X104900000Y-100000000D03*
D24*
%TO.P,D3,2,A*%
%TO.N,/Vout*%
X101800000Y-100000000D03*
%TD*%
D25*
%TO.P,C1,1*%
%TO.N,supaCap*%
X96020000Y-98200000D03*
D26*
%TO.P,C1,2*%
%TO.N,GND*%
X105800000Y-98200000D03*
%TD*%
D27*
%TO.P,D7,1,K*%
%TO.N,Net-(D7-K)*%
X102300000Y-102600000D03*
D19*
X101600000Y-102975000D03*
%TO.P,D7,2,A*%
%TO.N,/Vout*%
X98450000Y-102225000D03*
D28*
X97800000Y-102675000D03*
%TD*%
D29*
%TO.P,D5,1,K*%
%TO.N,Net-(D5-K)*%
X95220000Y-100210000D03*
D30*
%TO.P,D5,2,A*%
%TO.N,/Vout*%
X98320000Y-100210000D03*
%TD*%
D31*
%TO.N,supaCap*%
X95700000Y-94900000D03*
X95400000Y-93350000D03*
X94200000Y-69950000D03*
X105950000Y-80600000D03*
%TO.N,GND*%
X96863868Y-95673430D03*
X103797708Y-103609240D03*
X94720000Y-101610000D03*
X96300000Y-104900000D03*
X94440000Y-87951847D03*
X96030000Y-105590000D03*
X106350000Y-101800000D03*
X98352588Y-95382588D03*
X104809437Y-104686219D03*
X94840000Y-82550000D03*
X104560000Y-92710000D03*
X94850000Y-80700000D03*
%TO.N,/VFb*%
X99030356Y-103821717D03*
X105119424Y-96626080D03*
X94850000Y-95337850D03*
X104000000Y-93900000D03*
X106350000Y-100250000D03*
%TO.N,combined_solars*%
X93900000Y-76650000D03*
X93890000Y-89400000D03*
X93700000Y-92900000D03*
%TO.N,LEDPOWA*%
X94610000Y-92800000D03*
X93700000Y-103600000D03*
D32*
%TO.N,Net-(D3-K)*%
X102820000Y-94845735D03*
D31*
%TO.N,UPDI*%
X104400000Y-101590000D03*
%TO.N,TURBO*%
X102796586Y-105180577D03*
X98262966Y-104568701D03*
%TO.N,FET4*%
X105250000Y-102700000D03*
X106350000Y-92580000D03*
%TO.N,FET2*%
X103636716Y-101627197D03*
X103894006Y-95639999D03*
%TO.N,FET1*%
X106350000Y-95300000D03*
X106000000Y-105350000D03*
%TO.N,/Vout*%
X94150000Y-97528558D03*
X105780000Y-96036340D03*
X96800000Y-94000000D03*
%TO.N,Net-(D5-K)*%
X96830000Y-94800000D03*
%TO.N,Net-(Q2B-D)*%
X102920000Y-98265000D03*
X102121942Y-94571474D03*
D32*
%TO.N,Net-(D6-K)*%
X99177350Y-101266452D03*
X101510958Y-95252501D03*
D31*
%TO.N,Net-(D7-K)*%
X102330000Y-101920000D03*
%TO.N,Net-(C2-Pad2)*%
X105150000Y-69300000D03*
D32*
%TO.N,/EN*%
X94600000Y-91057842D03*
%TD*%
D33*
%TO.N,supaCap*%
X96150000Y-80250000D02*
X105600000Y-80250000D01*
X105600000Y-80250000D02*
X105950000Y-80600000D01*
X94200000Y-72800000D02*
X95800000Y-74400000D01*
D34*
X95700000Y-94900000D02*
X95800000Y-95000000D01*
D33*
X95400000Y-86700000D02*
X95800000Y-86300000D01*
X94200000Y-69950000D02*
X94200000Y-72800000D01*
X95800000Y-86300000D02*
X95800000Y-80600000D01*
X95800000Y-80600000D02*
X95800000Y-74400000D01*
X95800000Y-80600000D02*
X96150000Y-80250000D01*
X95400000Y-93350000D02*
X95400000Y-86700000D01*
%TO.N,GND*%
X105800000Y-89695000D02*
X105600000Y-89895000D01*
X105800000Y-86300000D02*
X105800000Y-89695000D01*
D34*
%TO.N,/VFb*%
X104000000Y-93900000D02*
X104500000Y-94400000D01*
X104500000Y-94400000D02*
X104500000Y-96828198D01*
D35*
X104702118Y-96626080D02*
X104500000Y-96828198D01*
X105119424Y-96626080D02*
X104702118Y-96626080D01*
%TO.N,combined_solars*%
X93890000Y-89400000D02*
X93890000Y-77450000D01*
X93700000Y-89590000D02*
X93890000Y-89400000D01*
X93700000Y-92900000D02*
X93700000Y-89590000D01*
X93900000Y-77440000D02*
X93890000Y-77450000D01*
X93900000Y-76650000D02*
X93900000Y-77440000D01*
%TO.N,Net-(D3-K)*%
X103210000Y-95235735D02*
X103210000Y-96030000D01*
X104800000Y-99900000D02*
X104900000Y-100000000D01*
X102820000Y-94845735D02*
X103210000Y-95235735D01*
X104800000Y-98330000D02*
X104800000Y-99900000D01*
X103210000Y-96030000D02*
X103850000Y-96670000D01*
X103850000Y-96670000D02*
X103850000Y-97380000D01*
X103850000Y-97380000D02*
X104800000Y-98330000D01*
%TO.N,UPDI*%
X104250000Y-104640000D02*
X103050000Y-105840000D01*
X101710686Y-104550000D02*
X100920000Y-104550000D01*
X100920000Y-104550000D02*
X100070000Y-105400000D01*
X104470000Y-101660000D02*
X104470000Y-103860000D01*
X102246586Y-105408395D02*
X102246586Y-105085900D01*
X104250000Y-104080000D02*
X104250000Y-104640000D01*
X102678191Y-105840000D02*
X102246586Y-105408395D01*
X104400000Y-101590000D02*
X104470000Y-101660000D01*
X103050000Y-105840000D02*
X102678191Y-105840000D01*
X104470000Y-103860000D02*
X104250000Y-104080000D01*
X102246586Y-105085900D02*
X101710686Y-104550000D01*
%TO.N,TURBO*%
X98294265Y-104600000D02*
X98262966Y-104568701D01*
X100600000Y-104150000D02*
X100150000Y-104600000D01*
X101876372Y-104150000D02*
X100600000Y-104150000D01*
X102796586Y-105070214D02*
X101876372Y-104150000D01*
X102796586Y-105180577D02*
X102796586Y-105070214D01*
X100150000Y-104600000D02*
X98294265Y-104600000D01*
D36*
%TO.N,FET2*%
X103655663Y-101594337D02*
X103655663Y-101544337D01*
X103655663Y-101594337D02*
X103700000Y-101550000D01*
D35*
X103655663Y-101608250D02*
X103655663Y-101594337D01*
X103636716Y-101627197D02*
X103655663Y-101608250D01*
D36*
X103655663Y-101544337D02*
X103670000Y-101530000D01*
D34*
%TO.N,/Vout*%
X97700000Y-94670000D02*
X97700000Y-97200000D01*
D33*
X97850000Y-105550000D02*
X98650000Y-105550000D01*
X93720000Y-102380000D02*
X94230000Y-102890000D01*
D35*
X99800000Y-95100000D02*
X97700000Y-97200000D01*
X96580000Y-94120000D02*
X96700000Y-94000000D01*
D34*
X97030000Y-94000000D02*
X97700000Y-94670000D01*
D33*
X98650000Y-105550000D02*
X98800000Y-105400000D01*
D34*
X94150000Y-97528558D02*
X94250000Y-97428558D01*
D35*
X101800000Y-100000000D02*
X101800000Y-99700000D01*
X105050000Y-95306340D02*
X105050000Y-94100000D01*
D33*
X97700000Y-102600000D02*
X97050000Y-103250000D01*
D35*
X100538478Y-95100000D02*
X99800000Y-95100000D01*
D37*
X99150000Y-98650000D02*
X97700000Y-97200000D01*
D33*
X94230000Y-102890000D02*
X97410000Y-102890000D01*
D35*
X105050000Y-94100000D02*
X104300000Y-93350000D01*
D33*
X98200000Y-102100000D02*
X98200000Y-100100000D01*
D34*
X94630000Y-94120000D02*
X96580000Y-94120000D01*
X93550000Y-98128558D02*
X93550000Y-102210000D01*
D37*
X101800000Y-99700000D02*
X100750000Y-98650000D01*
D33*
X97050000Y-104750000D02*
X97850000Y-105550000D01*
D34*
X94150000Y-97528558D02*
X93550000Y-98128558D01*
X96700000Y-94000000D02*
X97030000Y-94000000D01*
D33*
X97050000Y-103250000D02*
X97050000Y-104750000D01*
D34*
X93550000Y-102210000D02*
X93720000Y-102380000D01*
D35*
X100750000Y-98650000D02*
X99150000Y-98650000D01*
D33*
X98200000Y-100100000D02*
X98300000Y-100000000D01*
D35*
X102288478Y-93350000D02*
X100538478Y-95100000D01*
X105780000Y-96036340D02*
X105050000Y-95306340D01*
D34*
X94250000Y-94500000D02*
X94630000Y-94120000D01*
X94250000Y-97428558D02*
X94250000Y-94500000D01*
D35*
X104300000Y-93350000D02*
X102288478Y-93350000D01*
D33*
X97410000Y-102890000D02*
X97700000Y-102600000D01*
X97700000Y-102600000D02*
X98200000Y-102100000D01*
D35*
%TO.N,Net-(D5-K)*%
X94870000Y-96760000D02*
X96830000Y-94800000D01*
X94410000Y-98167659D02*
X94870000Y-97707659D01*
X95200000Y-100000000D02*
X94410000Y-99210000D01*
X94870000Y-97707659D02*
X94870000Y-96760000D01*
X94410000Y-99210000D02*
X94410000Y-98167659D01*
%TO.N,Net-(Q2B-D)*%
X102750000Y-98095000D02*
X102920000Y-98265000D01*
X102750000Y-95830000D02*
X102750000Y-98095000D01*
X102220000Y-94669532D02*
X102220000Y-95300000D01*
X102121942Y-94571474D02*
X102220000Y-94669532D01*
X102220000Y-95300000D02*
X102750000Y-95830000D01*
%TO.N,Net-(D6-K)*%
X101510958Y-96960958D02*
X101750000Y-97200000D01*
X101510958Y-95252501D02*
X101510958Y-96960958D01*
D34*
%TO.N,Net-(C2-Pad2)*%
X100000000Y-67200000D02*
X101200000Y-67200000D01*
%TD*%
%TA.AperFunction,Conductor*%
%TO.N,GND*%
G36*
X96292539Y-103610185D02*
G01*
X96338294Y-103662989D01*
X96349500Y-103714500D01*
X96349500Y-104725078D01*
X96349274Y-104732566D01*
X96345642Y-104792603D01*
X96345642Y-104792605D01*
X96356483Y-104851770D01*
X96357610Y-104859171D01*
X96364859Y-104918871D01*
X96364860Y-104918874D01*
X96368451Y-104928343D01*
X96374474Y-104949946D01*
X96376304Y-104959930D01*
X96376305Y-104959932D01*
X96392143Y-104995124D01*
X96400991Y-105014782D01*
X96403854Y-105021694D01*
X96425182Y-105077930D01*
X96425183Y-105077931D01*
X96430936Y-105086266D01*
X96441961Y-105105813D01*
X96446120Y-105115055D01*
X96446124Y-105115060D01*
X96483215Y-105162403D01*
X96487655Y-105168438D01*
X96521812Y-105217924D01*
X96521816Y-105217929D01*
X96566828Y-105257805D01*
X96572283Y-105262940D01*
X97297162Y-105987819D01*
X97330647Y-106049142D01*
X97325663Y-106118834D01*
X97283791Y-106174767D01*
X97218327Y-106199184D01*
X97209481Y-106199500D01*
X94604875Y-106199500D01*
X94595146Y-106199118D01*
X94422084Y-106185497D01*
X94402866Y-106182453D01*
X94238823Y-106143070D01*
X94220317Y-106137057D01*
X94064452Y-106072495D01*
X94047115Y-106063661D01*
X93903274Y-105975515D01*
X93887533Y-105964079D01*
X93759246Y-105854513D01*
X93745486Y-105840753D01*
X93635920Y-105712466D01*
X93624484Y-105696725D01*
X93536338Y-105552884D01*
X93527504Y-105535547D01*
X93489664Y-105444194D01*
X93462940Y-105379675D01*
X93456931Y-105361183D01*
X93417545Y-105197128D01*
X93414502Y-105177915D01*
X93413756Y-105168438D01*
X93400882Y-105004853D01*
X93400500Y-104995124D01*
X93400500Y-104354422D01*
X93420185Y-104287383D01*
X93472989Y-104241628D01*
X93542147Y-104231684D01*
X93554156Y-104234021D01*
X93621015Y-104250500D01*
X93621017Y-104250500D01*
X93778985Y-104250500D01*
X93932365Y-104212696D01*
X94072240Y-104139283D01*
X94190483Y-104034530D01*
X94280220Y-103904523D01*
X94336237Y-103756818D01*
X94343190Y-103699553D01*
X94370812Y-103635376D01*
X94428746Y-103596319D01*
X94466286Y-103590500D01*
X96225500Y-103590500D01*
X96292539Y-103610185D01*
G37*
%TD.AperFunction*%
%TA.AperFunction,Conductor*%
G36*
X105911792Y-100737298D02*
G01*
X105940655Y-100756411D01*
X105969064Y-100781579D01*
X105977762Y-100789285D01*
X106117634Y-100862696D01*
X106271014Y-100900500D01*
X106271015Y-100900500D01*
X106428983Y-100900500D01*
X106428985Y-100900500D01*
X106445826Y-100896349D01*
X106515626Y-100899418D01*
X106572689Y-100939737D01*
X106598894Y-101004506D01*
X106599500Y-101016746D01*
X106599500Y-104736534D01*
X106579815Y-104803573D01*
X106527011Y-104849328D01*
X106457853Y-104859272D01*
X106394297Y-104830247D01*
X106393275Y-104829351D01*
X106372240Y-104810717D01*
X106372238Y-104810715D01*
X106232365Y-104737303D01*
X106078986Y-104699500D01*
X106078985Y-104699500D01*
X105921015Y-104699500D01*
X105921014Y-104699500D01*
X105767634Y-104737303D01*
X105627762Y-104810715D01*
X105509516Y-104915471D01*
X105419781Y-105045475D01*
X105419780Y-105045476D01*
X105363762Y-105193181D01*
X105344722Y-105349999D01*
X105344722Y-105350000D01*
X105363762Y-105506818D01*
X105381233Y-105552884D01*
X105419780Y-105654523D01*
X105509517Y-105784530D01*
X105627760Y-105889283D01*
X105627762Y-105889284D01*
X105709248Y-105932052D01*
X105759460Y-105980636D01*
X105775435Y-106048655D01*
X105752100Y-106114513D01*
X105696864Y-106157300D01*
X105680569Y-106162422D01*
X105597133Y-106182453D01*
X105577915Y-106185497D01*
X105404854Y-106199118D01*
X105395125Y-106199500D01*
X103697675Y-106199500D01*
X103630636Y-106179815D01*
X103584881Y-106127011D01*
X103574937Y-106057853D01*
X103603962Y-105994297D01*
X103609994Y-105987819D01*
X103829529Y-105768284D01*
X104556428Y-105041383D01*
X104577069Y-105024750D01*
X104581128Y-105022143D01*
X104613660Y-104984596D01*
X104619684Y-104978128D01*
X104629213Y-104968600D01*
X104629213Y-104968599D01*
X104629220Y-104968593D01*
X104637319Y-104957772D01*
X104642850Y-104950909D01*
X104675377Y-104913373D01*
X104677375Y-104908995D01*
X104690907Y-104886189D01*
X104693796Y-104882331D01*
X104711149Y-104835801D01*
X104714534Y-104827630D01*
X104735165Y-104782457D01*
X104735850Y-104777685D01*
X104742409Y-104751992D01*
X104744091Y-104747483D01*
X104747633Y-104697951D01*
X104748580Y-104689148D01*
X104750500Y-104675799D01*
X104750500Y-104662308D01*
X104750816Y-104653461D01*
X104751686Y-104641292D01*
X104754359Y-104603927D01*
X104753332Y-104599206D01*
X104750500Y-104572858D01*
X104750500Y-104342388D01*
X104770185Y-104275349D01*
X104795898Y-104249645D01*
X104794428Y-104247948D01*
X104801122Y-104242146D01*
X104801128Y-104242143D01*
X104833653Y-104204605D01*
X104839658Y-104198155D01*
X104849221Y-104188593D01*
X104857316Y-104177778D01*
X104862859Y-104170899D01*
X104895377Y-104133373D01*
X104897375Y-104128995D01*
X104910907Y-104106189D01*
X104913796Y-104102331D01*
X104931149Y-104055801D01*
X104934534Y-104047630D01*
X104936100Y-104044201D01*
X104955165Y-104002457D01*
X104955850Y-103997685D01*
X104962409Y-103971992D01*
X104963903Y-103967986D01*
X104964091Y-103967483D01*
X104967633Y-103917951D01*
X104968580Y-103909148D01*
X104970500Y-103895799D01*
X104970500Y-103882308D01*
X104970816Y-103873461D01*
X104972458Y-103850500D01*
X104974359Y-103823927D01*
X104973332Y-103819206D01*
X104970500Y-103792858D01*
X104970500Y-103459352D01*
X104990185Y-103392313D01*
X105042989Y-103346558D01*
X105112147Y-103336614D01*
X105124170Y-103338954D01*
X105171015Y-103350500D01*
X105328985Y-103350500D01*
X105482365Y-103312696D01*
X105521622Y-103292092D01*
X105622240Y-103239283D01*
X105740483Y-103134530D01*
X105830220Y-103004523D01*
X105886237Y-102856818D01*
X105905278Y-102700000D01*
X105886237Y-102543182D01*
X105830220Y-102395477D01*
X105740483Y-102265470D01*
X105622240Y-102160717D01*
X105622238Y-102160716D01*
X105622237Y-102160715D01*
X105482365Y-102087303D01*
X105328986Y-102049500D01*
X105328985Y-102049500D01*
X105171015Y-102049500D01*
X105171014Y-102049500D01*
X105125106Y-102060815D01*
X105055304Y-102057746D01*
X104998242Y-102017425D01*
X104972037Y-101952656D01*
X104979490Y-101896447D01*
X104995319Y-101854711D01*
X105036237Y-101746818D01*
X105055278Y-101590000D01*
X105036237Y-101433182D01*
X105036234Y-101433176D01*
X105035219Y-101429054D01*
X105035356Y-101425927D01*
X105035333Y-101425736D01*
X105035364Y-101425732D01*
X105038284Y-101359252D01*
X105078600Y-101302187D01*
X105143368Y-101275978D01*
X105149987Y-101275500D01*
X105149998Y-101275500D01*
X105218564Y-101269269D01*
X105376337Y-101220106D01*
X105464018Y-101167101D01*
X105517754Y-101134617D01*
X105517755Y-101134615D01*
X105517760Y-101134613D01*
X105634613Y-101017760D01*
X105642626Y-101004506D01*
X105720105Y-100876338D01*
X105720106Y-100876337D01*
X105740048Y-100812338D01*
X105778782Y-100754194D01*
X105842807Y-100726218D01*
X105911792Y-100737298D01*
G37*
%TD.AperFunction*%
%TA.AperFunction,Conductor*%
G36*
X103885629Y-102256089D02*
G01*
X103942690Y-102296409D01*
X103968895Y-102361179D01*
X103969500Y-102373416D01*
X103969500Y-103597612D01*
X103949815Y-103664651D01*
X103924104Y-103690364D01*
X103925569Y-103692055D01*
X103918867Y-103697861D01*
X103886353Y-103735384D01*
X103880329Y-103741854D01*
X103870780Y-103751403D01*
X103862678Y-103762226D01*
X103857132Y-103769108D01*
X103824624Y-103806625D01*
X103824617Y-103806636D01*
X103822615Y-103811020D01*
X103809100Y-103833799D01*
X103806206Y-103837664D01*
X103806200Y-103837675D01*
X103788851Y-103884191D01*
X103785466Y-103892365D01*
X103764835Y-103937543D01*
X103764833Y-103937550D01*
X103764146Y-103942327D01*
X103757598Y-103967986D01*
X103755910Y-103972513D01*
X103755909Y-103972516D01*
X103752365Y-104022054D01*
X103751420Y-104030840D01*
X103750890Y-104034530D01*
X103749500Y-104044200D01*
X103749500Y-104057690D01*
X103749184Y-104066537D01*
X103745641Y-104116069D01*
X103745641Y-104116073D01*
X103746666Y-104120785D01*
X103749500Y-104147143D01*
X103749500Y-104381324D01*
X103729815Y-104448363D01*
X103713181Y-104469005D01*
X103448650Y-104733535D01*
X103387327Y-104767020D01*
X103317635Y-104762036D01*
X103278743Y-104738670D01*
X103168826Y-104641293D01*
X103168824Y-104641292D01*
X103028951Y-104567880D01*
X103026831Y-104567358D01*
X103025307Y-104566498D01*
X103021936Y-104565220D01*
X103022130Y-104564706D01*
X102968829Y-104534643D01*
X102790014Y-104355828D01*
X102756529Y-104294505D01*
X102761513Y-104224813D01*
X102803385Y-104168880D01*
X102867970Y-104144529D01*
X102868084Y-104144519D01*
X102872684Y-104144158D01*
X103060096Y-104093941D01*
X103232971Y-104005857D01*
X103383754Y-103883754D01*
X103505857Y-103732971D01*
X103593941Y-103560096D01*
X103644158Y-103372684D01*
X103650500Y-103292100D01*
X103650500Y-102390915D01*
X103670185Y-102323876D01*
X103722989Y-102278121D01*
X103744821Y-102270519D01*
X103815826Y-102253019D01*
X103885629Y-102256089D01*
G37*
%TD.AperFunction*%
%TA.AperFunction,Conductor*%
G36*
X94305703Y-100878492D02*
G01*
X94343477Y-100937270D01*
X94347439Y-100956022D01*
X94359696Y-101049142D01*
X94359699Y-101049151D01*
X94383308Y-101106149D01*
X94419200Y-101192798D01*
X94513851Y-101316149D01*
X94637202Y-101410800D01*
X94780849Y-101470301D01*
X94896299Y-101485500D01*
X95543700Y-101485499D01*
X95543703Y-101485499D01*
X95659142Y-101470303D01*
X95659146Y-101470301D01*
X95659151Y-101470301D01*
X95802798Y-101410800D01*
X95895589Y-101339598D01*
X95960757Y-101314404D01*
X96029202Y-101328442D01*
X96052278Y-101344261D01*
X96128746Y-101410521D01*
X96310752Y-101515602D01*
X96310753Y-101515602D01*
X96310756Y-101515604D01*
X96495536Y-101579557D01*
X96552451Y-101620085D01*
X96578419Y-101684950D01*
X96573641Y-101732732D01*
X96514410Y-101927988D01*
X96499670Y-102077654D01*
X96473509Y-102142441D01*
X96416475Y-102182800D01*
X96376267Y-102189500D01*
X94571519Y-102189500D01*
X94504480Y-102169815D01*
X94483838Y-102153181D01*
X94185369Y-101854711D01*
X94148026Y-101825454D01*
X94107394Y-101768613D01*
X94100500Y-101727844D01*
X94100500Y-100972205D01*
X94120185Y-100905166D01*
X94172989Y-100859411D01*
X94242147Y-100849467D01*
X94305703Y-100878492D01*
G37*
%TD.AperFunction*%
%TA.AperFunction,Conductor*%
G36*
X104936333Y-97250920D02*
G01*
X105040439Y-97276580D01*
X105198411Y-97276580D01*
X105198411Y-97276579D01*
X105209375Y-97273876D01*
X105212683Y-97273062D01*
X105282485Y-97276129D01*
X105330041Y-97305777D01*
X105824264Y-97800000D01*
X105768519Y-97800000D01*
X105674852Y-97814835D01*
X105561955Y-97872359D01*
X105472359Y-97961955D01*
X105414835Y-98074852D01*
X105395014Y-98200000D01*
X105398641Y-98222905D01*
X105191682Y-98015946D01*
X105180092Y-98002571D01*
X105179222Y-98001408D01*
X105169677Y-97991863D01*
X105163658Y-97985400D01*
X105131128Y-97947857D01*
X105131125Y-97947854D01*
X105127066Y-97945246D01*
X105106428Y-97928614D01*
X104702832Y-97525018D01*
X104669347Y-97463695D01*
X104674331Y-97394003D01*
X104716203Y-97338070D01*
X104733459Y-97327242D01*
X104820447Y-97282169D01*
X104822017Y-97280702D01*
X104823778Y-97279817D01*
X104827380Y-97277275D01*
X104827761Y-97277815D01*
X104884441Y-97249325D01*
X104936333Y-97250920D01*
G37*
%TD.AperFunction*%
%TA.AperFunction,Conductor*%
G36*
X97065628Y-95432165D02*
G01*
X97122690Y-95472486D01*
X97148895Y-95537255D01*
X97149500Y-95549493D01*
X97149500Y-95618530D01*
X97129815Y-95685569D01*
X97095003Y-95721219D01*
X97070479Y-95737819D01*
X96988929Y-95793013D01*
X96988924Y-95793017D01*
X96843017Y-95938924D01*
X96843013Y-95938929D01*
X96727351Y-96109821D01*
X96646124Y-96299502D01*
X96646122Y-96299509D01*
X96602261Y-96501135D01*
X96602261Y-96501141D01*
X96599500Y-96547491D01*
X96599500Y-96547500D01*
X96599500Y-96994093D01*
X96579815Y-97061132D01*
X96527011Y-97106887D01*
X96457853Y-97116831D01*
X96452033Y-97115852D01*
X96237473Y-97074500D01*
X96237472Y-97074500D01*
X95856382Y-97074500D01*
X95696029Y-97089812D01*
X95696022Y-97089813D01*
X95529434Y-97138728D01*
X95459565Y-97138728D01*
X95400787Y-97100953D01*
X95371762Y-97037398D01*
X95370500Y-97019751D01*
X95370500Y-97018676D01*
X95390185Y-96951637D01*
X95406819Y-96930995D01*
X96074966Y-96262848D01*
X96855783Y-95482030D01*
X96913787Y-95449316D01*
X96995826Y-95429096D01*
X97065628Y-95432165D01*
G37*
%TD.AperFunction*%
%TA.AperFunction,Conductor*%
G36*
X99182300Y-92514889D02*
G01*
X99228820Y-92567021D01*
X99235900Y-92611637D01*
X99884911Y-93260647D01*
X99850217Y-93265416D01*
X99711542Y-93325651D01*
X99594261Y-93421066D01*
X99507072Y-93544585D01*
X99458103Y-93682367D01*
X98820870Y-93045134D01*
X98764516Y-93131391D01*
X98764514Y-93131395D01*
X98671317Y-93343864D01*
X98614361Y-93568781D01*
X98595202Y-93799994D01*
X98595202Y-93800005D01*
X98614361Y-94031218D01*
X98671317Y-94256135D01*
X98764516Y-94468609D01*
X98820869Y-94554864D01*
X99461904Y-93913830D01*
X99476884Y-93985915D01*
X99546442Y-94120156D01*
X99649638Y-94230652D01*
X99778819Y-94309209D01*
X99885237Y-94339026D01*
X99593162Y-94631100D01*
X99564916Y-94652247D01*
X99557666Y-94656206D01*
X99553800Y-94659100D01*
X99531022Y-94672614D01*
X99526636Y-94674617D01*
X99526630Y-94674621D01*
X99526628Y-94674622D01*
X99526627Y-94674623D01*
X99511992Y-94687304D01*
X99489089Y-94707149D01*
X99482215Y-94712688D01*
X99471406Y-94720780D01*
X99471402Y-94720783D01*
X99461853Y-94730331D01*
X99455387Y-94736350D01*
X99417862Y-94768866D01*
X99417854Y-94768876D01*
X99415243Y-94772938D01*
X99398616Y-94793568D01*
X98581777Y-95610407D01*
X98520454Y-95643892D01*
X98450762Y-95638908D01*
X98445284Y-95636714D01*
X98350507Y-95596128D01*
X98350496Y-95596124D01*
X98350494Y-95596124D01*
X98348130Y-95595609D01*
X98347068Y-95595029D01*
X98344879Y-95594330D01*
X98345013Y-95593907D01*
X98286811Y-95562120D01*
X98253332Y-95500794D01*
X98250500Y-95474446D01*
X98250500Y-94681521D01*
X98250572Y-94677289D01*
X98250804Y-94670500D01*
X98252762Y-94613174D01*
X98252106Y-94610483D01*
X98243035Y-94573260D01*
X98240664Y-94560784D01*
X98235070Y-94520083D01*
X98235070Y-94520080D01*
X98234082Y-94517805D01*
X98227921Y-94503622D01*
X98221180Y-94483578D01*
X98216933Y-94466148D01*
X98196795Y-94430332D01*
X98191148Y-94418963D01*
X98174780Y-94381280D01*
X98163454Y-94367359D01*
X98151556Y-94349877D01*
X98142765Y-94334241D01*
X98113718Y-94305194D01*
X98105210Y-94295767D01*
X98079278Y-94263891D01*
X98064613Y-94253540D01*
X98048441Y-94239917D01*
X97427406Y-93618881D01*
X97424464Y-93615837D01*
X97380679Y-93568955D01*
X97345575Y-93547608D01*
X97335079Y-93540464D01*
X97332246Y-93538316D01*
X97323501Y-93531684D01*
X97302341Y-93515638D01*
X97302342Y-93515638D01*
X97285642Y-93509052D01*
X97266716Y-93499652D01*
X97251382Y-93490328D01*
X97211808Y-93479239D01*
X97199761Y-93475186D01*
X97197668Y-93474360D01*
X97172761Y-93461076D01*
X97172246Y-93460720D01*
X97032363Y-93387303D01*
X96878986Y-93349500D01*
X96878985Y-93349500D01*
X96721015Y-93349500D01*
X96721014Y-93349500D01*
X96567634Y-93387303D01*
X96427761Y-93460715D01*
X96427759Y-93460716D01*
X96340167Y-93538316D01*
X96276934Y-93568037D01*
X96257941Y-93569500D01*
X96218960Y-93569500D01*
X96151921Y-93549815D01*
X96106166Y-93497011D01*
X96095864Y-93430553D01*
X96100500Y-93392374D01*
X96100500Y-92662343D01*
X96120185Y-92595304D01*
X96172989Y-92549549D01*
X96222687Y-92538356D01*
X99114984Y-92496184D01*
X99182300Y-92514889D01*
G37*
%TD.AperFunction*%
%TA.AperFunction,Conductor*%
G36*
X105325520Y-80970185D02*
G01*
X105346157Y-80986814D01*
X105484633Y-81125290D01*
X105584944Y-81203878D01*
X105740069Y-81273695D01*
X105907394Y-81304358D01*
X106077196Y-81294086D01*
X106239606Y-81243478D01*
X106385185Y-81155472D01*
X106385189Y-81155468D01*
X106387819Y-81152839D01*
X106390218Y-81151528D01*
X106391094Y-81150843D01*
X106391207Y-81150988D01*
X106449142Y-81119354D01*
X106518834Y-81124338D01*
X106574767Y-81166210D01*
X106599184Y-81231674D01*
X106599500Y-81240520D01*
X106599500Y-85219810D01*
X106579815Y-85286849D01*
X106527011Y-85332604D01*
X106457853Y-85342548D01*
X106410223Y-85325238D01*
X106314789Y-85266149D01*
X106116063Y-85189163D01*
X106116058Y-85189162D01*
X105906561Y-85150000D01*
X105693439Y-85150000D01*
X105483941Y-85189162D01*
X105483940Y-85189162D01*
X105285206Y-85266151D01*
X105285202Y-85266153D01*
X105226662Y-85302398D01*
X105226662Y-85302399D01*
X105800000Y-85875736D01*
X105824264Y-85900000D01*
X105768519Y-85900000D01*
X105674852Y-85914835D01*
X105561955Y-85972359D01*
X105472359Y-86061955D01*
X105414835Y-86174852D01*
X105395014Y-86300000D01*
X105414835Y-86425148D01*
X105472359Y-86538045D01*
X105561955Y-86627641D01*
X105674852Y-86685165D01*
X105768519Y-86700000D01*
X105824262Y-86700000D01*
X105226662Y-87297599D01*
X105285204Y-87333847D01*
X105285208Y-87333849D01*
X105483936Y-87410836D01*
X105483941Y-87410837D01*
X105693439Y-87450000D01*
X105906561Y-87450000D01*
X106116058Y-87410837D01*
X106116063Y-87410836D01*
X106314789Y-87333850D01*
X106314798Y-87333846D01*
X106410223Y-87274762D01*
X106477583Y-87256207D01*
X106544283Y-87277015D01*
X106589144Y-87330580D01*
X106599500Y-87380189D01*
X106599500Y-88118135D01*
X106579815Y-88185174D01*
X106527011Y-88230929D01*
X106459315Y-88241074D01*
X106414135Y-88235126D01*
X105900991Y-88748270D01*
X105925000Y-88682306D01*
X105925000Y-88567694D01*
X105885801Y-88459993D01*
X105812129Y-88372195D01*
X105712871Y-88314888D01*
X105628436Y-88300000D01*
X105571564Y-88300000D01*
X105487129Y-88314888D01*
X105387871Y-88372195D01*
X105314199Y-88459993D01*
X105275000Y-88567694D01*
X105275000Y-88682306D01*
X105299009Y-88748273D01*
X104785863Y-88235127D01*
X104773281Y-88256921D01*
X104714819Y-88436846D01*
X104695043Y-88625000D01*
X104714819Y-88813154D01*
X104773278Y-88993072D01*
X104773283Y-88993084D01*
X104867870Y-89156915D01*
X104867872Y-89156918D01*
X104885980Y-89177029D01*
X104916209Y-89240020D01*
X104907583Y-89309356D01*
X104885980Y-89342971D01*
X104867872Y-89363081D01*
X104867870Y-89363084D01*
X104773283Y-89526915D01*
X104773279Y-89526924D01*
X104751160Y-89595000D01*
X105469615Y-89595000D01*
X105387871Y-89642195D01*
X105314199Y-89729993D01*
X105275000Y-89837694D01*
X105275000Y-89952306D01*
X105314199Y-90060007D01*
X105387871Y-90147805D01*
X105469615Y-90195000D01*
X104751160Y-90195000D01*
X104773279Y-90263075D01*
X104773280Y-90263076D01*
X104839406Y-90377612D01*
X104855877Y-90445512D01*
X104834982Y-90505883D01*
X104835890Y-90506420D01*
X104833254Y-90510877D01*
X104833025Y-90511539D01*
X104832231Y-90512606D01*
X104748255Y-90654603D01*
X104748254Y-90654606D01*
X104702402Y-90812426D01*
X104702401Y-90812432D01*
X104699500Y-90849298D01*
X104699500Y-91480701D01*
X104702401Y-91517567D01*
X104702402Y-91517573D01*
X104748254Y-91675393D01*
X104748255Y-91675396D01*
X104748256Y-91675398D01*
X104785681Y-91738681D01*
X104831917Y-91816862D01*
X104831923Y-91816870D01*
X104948129Y-91933076D01*
X104948133Y-91933079D01*
X104948135Y-91933081D01*
X105089602Y-92016744D01*
X105119740Y-92025500D01*
X105247426Y-92062597D01*
X105247429Y-92062597D01*
X105247431Y-92062598D01*
X105284306Y-92065500D01*
X105284314Y-92065500D01*
X105678454Y-92065500D01*
X105745493Y-92085185D01*
X105791248Y-92137989D01*
X105801192Y-92207147D01*
X105780505Y-92259939D01*
X105769780Y-92275476D01*
X105713762Y-92423181D01*
X105694722Y-92579999D01*
X105694722Y-92580000D01*
X105713762Y-92736818D01*
X105762313Y-92864834D01*
X105769780Y-92884523D01*
X105859517Y-93014530D01*
X105977760Y-93119283D01*
X105977762Y-93119284D01*
X106117634Y-93192696D01*
X106271014Y-93230500D01*
X106271015Y-93230500D01*
X106428983Y-93230500D01*
X106428985Y-93230500D01*
X106445826Y-93226349D01*
X106515626Y-93229418D01*
X106572689Y-93269737D01*
X106598894Y-93334506D01*
X106599500Y-93346746D01*
X106599500Y-94533253D01*
X106579815Y-94600292D01*
X106527011Y-94646047D01*
X106457853Y-94655991D01*
X106445829Y-94653651D01*
X106428986Y-94649500D01*
X106428985Y-94649500D01*
X106271015Y-94649500D01*
X106271014Y-94649500D01*
X106117634Y-94687303D01*
X105977762Y-94760715D01*
X105859516Y-94865471D01*
X105776550Y-94985668D01*
X105722267Y-95029658D01*
X105652818Y-95037318D01*
X105590254Y-95006214D01*
X105554436Y-94946224D01*
X105550500Y-94915228D01*
X105550500Y-94167143D01*
X105553334Y-94140785D01*
X105554359Y-94136073D01*
X105550816Y-94086537D01*
X105550500Y-94077690D01*
X105550500Y-94064201D01*
X105548579Y-94050843D01*
X105547633Y-94042045D01*
X105546928Y-94032191D01*
X105544091Y-93992517D01*
X105542407Y-93988002D01*
X105535850Y-93962312D01*
X105535165Y-93957543D01*
X105514530Y-93912360D01*
X105511155Y-93904212D01*
X105493796Y-93857669D01*
X105490905Y-93853807D01*
X105477379Y-93831010D01*
X105475377Y-93826627D01*
X105452305Y-93800000D01*
X105442860Y-93789100D01*
X105437306Y-93782207D01*
X105429228Y-93771416D01*
X105429226Y-93771413D01*
X105429221Y-93771407D01*
X105419677Y-93761863D01*
X105413658Y-93755400D01*
X105381128Y-93717857D01*
X105381125Y-93717854D01*
X105377066Y-93715246D01*
X105356428Y-93698614D01*
X104701385Y-93043571D01*
X104684750Y-93022928D01*
X104682145Y-93018874D01*
X104682143Y-93018872D01*
X104644614Y-92986353D01*
X104638143Y-92980329D01*
X104628593Y-92970779D01*
X104617785Y-92962688D01*
X104610904Y-92957144D01*
X104573373Y-92924623D01*
X104573372Y-92924622D01*
X104573367Y-92924619D01*
X104568983Y-92922617D01*
X104546194Y-92909096D01*
X104542331Y-92906204D01*
X104542329Y-92906203D01*
X104495790Y-92888845D01*
X104487622Y-92885461D01*
X104442457Y-92864835D01*
X104442455Y-92864834D01*
X104437682Y-92864148D01*
X104412000Y-92857593D01*
X104407486Y-92855909D01*
X104357946Y-92852365D01*
X104349159Y-92851420D01*
X104335799Y-92849500D01*
X104335797Y-92849500D01*
X104322308Y-92849500D01*
X104313461Y-92849184D01*
X104263929Y-92845641D01*
X104263925Y-92845641D01*
X104259215Y-92846666D01*
X104232857Y-92849500D01*
X102355621Y-92849500D01*
X102329263Y-92846666D01*
X102324552Y-92845641D01*
X102324548Y-92845641D01*
X102275017Y-92849184D01*
X102266170Y-92849500D01*
X102252678Y-92849500D01*
X102246541Y-92850382D01*
X102239318Y-92851420D01*
X102230532Y-92852365D01*
X102180994Y-92855909D01*
X102180991Y-92855910D01*
X102176464Y-92857598D01*
X102150805Y-92864146D01*
X102146028Y-92864833D01*
X102146021Y-92864835D01*
X102100843Y-92885466D01*
X102092669Y-92888851D01*
X102046153Y-92906200D01*
X102046142Y-92906206D01*
X102042277Y-92909100D01*
X102019498Y-92922615D01*
X102015114Y-92924617D01*
X102015103Y-92924624D01*
X101977586Y-92957132D01*
X101970704Y-92962678D01*
X101959881Y-92970780D01*
X101950332Y-92980329D01*
X101943862Y-92986353D01*
X101906339Y-93018867D01*
X101906332Y-93018876D01*
X101903721Y-93022938D01*
X101887094Y-93043568D01*
X101535110Y-93395551D01*
X101473787Y-93429036D01*
X101404095Y-93424052D01*
X101348162Y-93382180D01*
X101330148Y-93348134D01*
X101328681Y-93343862D01*
X101235484Y-93131393D01*
X101179128Y-93045133D01*
X100538095Y-93686167D01*
X100523116Y-93614085D01*
X100453558Y-93479844D01*
X100350362Y-93369348D01*
X100221181Y-93290791D01*
X100114762Y-93260973D01*
X100757602Y-92618132D01*
X100756760Y-92612348D01*
X100766573Y-92543171D01*
X100812228Y-92490281D01*
X100877653Y-92470483D01*
X104340000Y-92420000D01*
X104359804Y-89363081D01*
X104369849Y-87812625D01*
X105211888Y-87812625D01*
X105600000Y-88200736D01*
X105600001Y-88200736D01*
X105988110Y-87812625D01*
X105879644Y-87764334D01*
X105694594Y-87725000D01*
X105505406Y-87725000D01*
X105320355Y-87764334D01*
X105320351Y-87764335D01*
X105211888Y-87812625D01*
X104369849Y-87812625D01*
X104379648Y-86300000D01*
X104645073Y-86300000D01*
X104664737Y-86512216D01*
X104664738Y-86512219D01*
X104723060Y-86717203D01*
X104723063Y-86717209D01*
X104801335Y-86874400D01*
X105375736Y-86300000D01*
X105375736Y-86299999D01*
X104801335Y-85725598D01*
X104801334Y-85725598D01*
X104723066Y-85882783D01*
X104723058Y-85882803D01*
X104664738Y-86087780D01*
X104664737Y-86087783D01*
X104645073Y-86299999D01*
X104645073Y-86300000D01*
X104379648Y-86300000D01*
X104413507Y-81073697D01*
X104433625Y-81006786D01*
X104486724Y-80961374D01*
X104537504Y-80950500D01*
X105258481Y-80950500D01*
X105325520Y-80970185D01*
G37*
%TD.AperFunction*%
%TA.AperFunction,Conductor*%
G36*
X105900000Y-90071000D02*
G01*
X105880315Y-90138039D01*
X105827511Y-90183794D01*
X105776000Y-90195000D01*
X105730385Y-90195000D01*
X105812129Y-90147805D01*
X105885801Y-90060007D01*
X105900000Y-90020994D01*
X105900000Y-90071000D01*
G37*
%TD.AperFunction*%
%TA.AperFunction,Conductor*%
G36*
X105843039Y-89614685D02*
G01*
X105888794Y-89667489D01*
X105900000Y-89719000D01*
X105900000Y-89769005D01*
X105885801Y-89729993D01*
X105812129Y-89642195D01*
X105730385Y-89595000D01*
X105776000Y-89595000D01*
X105843039Y-89614685D01*
G37*
%TD.AperFunction*%
%TA.AperFunction,Conductor*%
G36*
X105487129Y-88935112D02*
G01*
X105571564Y-88950000D01*
X105628436Y-88950000D01*
X105712871Y-88935112D01*
X105715897Y-88933364D01*
X105687680Y-88961582D01*
X105626357Y-88995067D01*
X105556665Y-88990083D01*
X105512318Y-88961582D01*
X105484098Y-88933362D01*
X105487129Y-88935112D01*
G37*
%TD.AperFunction*%
%TA.AperFunction,Conductor*%
G36*
X94595703Y-87022533D02*
G01*
X94606128Y-87032698D01*
X94667138Y-87099622D01*
X94697754Y-87162424D01*
X94699500Y-87183159D01*
X94699500Y-88518906D01*
X94679815Y-88585945D01*
X94627011Y-88631700D01*
X94557853Y-88641644D01*
X94518823Y-88628138D01*
X94518666Y-88628492D01*
X94514551Y-88626660D01*
X94513511Y-88626300D01*
X94512728Y-88625848D01*
X94464064Y-88604181D01*
X94410827Y-88558931D01*
X94390506Y-88492081D01*
X94390500Y-88490902D01*
X94390500Y-87116246D01*
X94410185Y-87049207D01*
X94462989Y-87003452D01*
X94532147Y-86993508D01*
X94595703Y-87022533D01*
G37*
%TD.AperFunction*%
%TA.AperFunction,Conductor*%
G36*
X93605703Y-73180989D02*
G01*
X93622112Y-73198231D01*
X93633217Y-73212406D01*
X93637655Y-73218438D01*
X93671812Y-73267924D01*
X93671816Y-73267929D01*
X93716828Y-73307805D01*
X93722283Y-73312940D01*
X94357111Y-73947768D01*
X94390596Y-74009091D01*
X94385612Y-74078783D01*
X94385062Y-74080229D01*
X94383682Y-74083790D01*
X94383679Y-74083800D01*
X94367217Y-74171867D01*
X94344500Y-74293390D01*
X94344500Y-74506610D01*
X94383679Y-74716198D01*
X94460702Y-74915019D01*
X94572948Y-75096302D01*
X94716593Y-75253872D01*
X94864082Y-75365252D01*
X94886745Y-75382366D01*
X95030772Y-75454082D01*
X95082008Y-75501584D01*
X95099500Y-75565082D01*
X95099500Y-80525073D01*
X95097469Y-80547424D01*
X95095642Y-80557392D01*
X95095642Y-80557395D01*
X95099274Y-80617432D01*
X95099500Y-80624920D01*
X95099500Y-85134917D01*
X95079815Y-85201956D01*
X95030772Y-85245917D01*
X94886744Y-85317634D01*
X94716593Y-85446127D01*
X94606137Y-85567292D01*
X94546425Y-85603573D01*
X94476578Y-85601812D01*
X94418770Y-85562568D01*
X94391356Y-85498301D01*
X94390500Y-85483753D01*
X94390500Y-77577320D01*
X94393334Y-77550960D01*
X94394087Y-77547493D01*
X94394091Y-77547483D01*
X94397633Y-77497951D01*
X94398580Y-77489148D01*
X94400500Y-77475799D01*
X94400500Y-77462308D01*
X94400816Y-77453461D01*
X94404359Y-77403927D01*
X94403332Y-77399206D01*
X94400500Y-77372858D01*
X94400500Y-77108657D01*
X94420185Y-77041618D01*
X94422450Y-77038217D01*
X94480219Y-76954524D01*
X94480220Y-76954523D01*
X94536237Y-76806818D01*
X94555278Y-76650000D01*
X94536237Y-76493182D01*
X94480220Y-76345477D01*
X94390483Y-76215470D01*
X94272240Y-76110717D01*
X94272238Y-76110716D01*
X94272237Y-76110715D01*
X94132365Y-76037303D01*
X93978986Y-75999500D01*
X93978985Y-75999500D01*
X93821015Y-75999500D01*
X93821014Y-75999500D01*
X93667637Y-76037303D01*
X93582126Y-76082183D01*
X93513617Y-76095908D01*
X93448564Y-76070415D01*
X93407620Y-76013799D01*
X93400500Y-75972386D01*
X93400500Y-73274702D01*
X93420185Y-73207663D01*
X93472989Y-73161908D01*
X93542147Y-73151964D01*
X93605703Y-73180989D01*
G37*
%TD.AperFunction*%
%TA.AperFunction,Conductor*%
G36*
X102170541Y-65930820D02*
G01*
X102198121Y-65950016D01*
X102208042Y-65957695D01*
X102475164Y-66187011D01*
X102484268Y-66195665D01*
X102726817Y-66450827D01*
X102734999Y-66460358D01*
X102950485Y-66738742D01*
X102957661Y-66749052D01*
X103143884Y-67047820D01*
X103149980Y-67058802D01*
X103305021Y-67374874D01*
X103309974Y-67386417D01*
X103432237Y-67716538D01*
X103435998Y-67728523D01*
X103524243Y-68069343D01*
X103526771Y-68081647D01*
X103580079Y-68429626D01*
X103581350Y-68442122D01*
X103599341Y-68796864D01*
X103599500Y-68803145D01*
X103599500Y-68845763D01*
X103614314Y-68876526D01*
X103615407Y-68878795D01*
X103618245Y-68885140D01*
X103630022Y-68913572D01*
X103632822Y-68917762D01*
X103637751Y-68926393D01*
X103639210Y-68928222D01*
X103639211Y-68928223D01*
X103639212Y-68928224D01*
X103660747Y-68945398D01*
X103671105Y-68954655D01*
X103686426Y-68969976D01*
X103686428Y-68969977D01*
X103696581Y-68976761D01*
X103696500Y-68976881D01*
X103710692Y-68985253D01*
X103710767Y-68985289D01*
X103710768Y-68985289D01*
X103710769Y-68985290D01*
X103728701Y-68989382D01*
X103748554Y-68995710D01*
X103760118Y-69000500D01*
X103777410Y-69000500D01*
X104391121Y-69000500D01*
X104458160Y-69020185D01*
X104503915Y-69072989D01*
X104514217Y-69139447D01*
X104494722Y-69300000D01*
X104513762Y-69456818D01*
X104564107Y-69589565D01*
X104569780Y-69604523D01*
X104659517Y-69734530D01*
X104777760Y-69839283D01*
X104777762Y-69839284D01*
X104917634Y-69912696D01*
X105071014Y-69950500D01*
X105071015Y-69950500D01*
X105228985Y-69950500D01*
X105382365Y-69912696D01*
X105392027Y-69907625D01*
X105522240Y-69839283D01*
X105640483Y-69734530D01*
X105730220Y-69604523D01*
X105786237Y-69456818D01*
X105805278Y-69300000D01*
X105802876Y-69280221D01*
X105814335Y-69211301D01*
X105861238Y-69159514D01*
X105928694Y-69141306D01*
X105990760Y-69159548D01*
X106048506Y-69194935D01*
X106096725Y-69224484D01*
X106112466Y-69235920D01*
X106240753Y-69345486D01*
X106254513Y-69359246D01*
X106364079Y-69487533D01*
X106375515Y-69503274D01*
X106463661Y-69647115D01*
X106472495Y-69664452D01*
X106537057Y-69820317D01*
X106543070Y-69838823D01*
X106582453Y-70002866D01*
X106585497Y-70022084D01*
X106599118Y-70195146D01*
X106599500Y-70204875D01*
X106599500Y-73331572D01*
X106579815Y-73398611D01*
X106527011Y-73444366D01*
X106457853Y-73454310D01*
X106410223Y-73436999D01*
X106310322Y-73375143D01*
X106310316Y-73375140D01*
X106113314Y-73298822D01*
X105905635Y-73260000D01*
X105694365Y-73260000D01*
X105486685Y-73298822D01*
X105289684Y-73375140D01*
X105233926Y-73409663D01*
X105800000Y-73975736D01*
X105824264Y-74000000D01*
X105768519Y-74000000D01*
X105674852Y-74014835D01*
X105561955Y-74072359D01*
X105472359Y-74161955D01*
X105414835Y-74274852D01*
X105395014Y-74400000D01*
X105414835Y-74525148D01*
X105472359Y-74638045D01*
X105561955Y-74727641D01*
X105674852Y-74785165D01*
X105768519Y-74800000D01*
X105824262Y-74800000D01*
X105233927Y-75390335D01*
X105233927Y-75390336D01*
X105289677Y-75424856D01*
X105289681Y-75424858D01*
X105486685Y-75501177D01*
X105694365Y-75540000D01*
X105905635Y-75540000D01*
X106113314Y-75501177D01*
X106310316Y-75424859D01*
X106310316Y-75424858D01*
X106410222Y-75363000D01*
X106477583Y-75344444D01*
X106544282Y-75365252D01*
X106589144Y-75418817D01*
X106599500Y-75468427D01*
X106599500Y-79959480D01*
X106579815Y-80026519D01*
X106527011Y-80072274D01*
X106457853Y-80082218D01*
X106394297Y-80053193D01*
X106387819Y-80047161D01*
X106112940Y-79772283D01*
X106107805Y-79766828D01*
X106067929Y-79721816D01*
X106067924Y-79721812D01*
X106018438Y-79687655D01*
X106012403Y-79683215D01*
X105965060Y-79646124D01*
X105965055Y-79646120D01*
X105955813Y-79641961D01*
X105936266Y-79630936D01*
X105927931Y-79625183D01*
X105927932Y-79625183D01*
X105927930Y-79625182D01*
X105871694Y-79603854D01*
X105864790Y-79600994D01*
X105809932Y-79576305D01*
X105809930Y-79576304D01*
X105799946Y-79574474D01*
X105778343Y-79568451D01*
X105768874Y-79564860D01*
X105768871Y-79564859D01*
X105709171Y-79557610D01*
X105701770Y-79556483D01*
X105642609Y-79545642D01*
X105642603Y-79545642D01*
X105582567Y-79549274D01*
X105575079Y-79549500D01*
X104548187Y-79549500D01*
X104481148Y-79529815D01*
X104435393Y-79477011D01*
X104424190Y-79424697D01*
X104444896Y-76228533D01*
X104454634Y-74725351D01*
X104474752Y-74658442D01*
X104527851Y-74613030D01*
X104597073Y-74603535D01*
X104660439Y-74632971D01*
X104697832Y-74691993D01*
X104697897Y-74692222D01*
X104732424Y-74813573D01*
X104808792Y-74966941D01*
X104808793Y-74966941D01*
X105375736Y-74400000D01*
X104808792Y-73833056D01*
X104732427Y-73986418D01*
X104732424Y-73986424D01*
X104702222Y-74092578D01*
X104664943Y-74151671D01*
X104601634Y-74181229D01*
X104532394Y-74171867D01*
X104479208Y-74126558D01*
X104458960Y-74059686D01*
X104458959Y-74057841D01*
X104480000Y-70809999D01*
X100848614Y-70948905D01*
X100780871Y-70931798D01*
X100733131Y-70880781D01*
X100720551Y-70812053D01*
X100726832Y-70784041D01*
X100785368Y-70616754D01*
X100785369Y-70616749D01*
X100805565Y-70437503D01*
X100805565Y-70437496D01*
X100785369Y-70258250D01*
X100785368Y-70258245D01*
X100763289Y-70195146D01*
X100725789Y-70087978D01*
X100629816Y-69935238D01*
X100502262Y-69807684D01*
X100349520Y-69711709D01*
X100302454Y-69695240D01*
X100245679Y-69654518D01*
X100219932Y-69589565D01*
X100233389Y-69521003D01*
X100281776Y-69470601D01*
X100319215Y-69456583D01*
X100590206Y-69402680D01*
X100872664Y-69306798D01*
X101140191Y-69174869D01*
X101388209Y-69009149D01*
X101612474Y-68812474D01*
X101809149Y-68588209D01*
X101974869Y-68340191D01*
X102106798Y-68072664D01*
X102202680Y-67790206D01*
X102260873Y-67497650D01*
X102280382Y-67200000D01*
X102260873Y-66902350D01*
X102202680Y-66609794D01*
X102106798Y-66327336D01*
X102041865Y-66195665D01*
X101988495Y-66087440D01*
X101976499Y-66018608D01*
X102003620Y-65954217D01*
X102061249Y-65914711D01*
X102131087Y-65912632D01*
X102170541Y-65930820D01*
G37*
%TD.AperFunction*%
%TD*%
M02*
