%TF.GenerationSoftware,KiCad,Pcbnew,7.0.11*%
%TF.CreationDate,2026-03-17T23:03:58-05:00*%
%TF.ProjectId,lightsaber_necklace,6c696768-7473-4616-9265-725f6e65636b,rev?*%
%TF.SameCoordinates,Original*%
%TF.FileFunction,Legend,Top*%
%TF.FilePolarity,Positive*%
%FSLAX46Y46*%
G04 Gerber Fmt 4.6, Leading zero omitted, Abs format (unit mm)*
G04 Created by KiCad (PCBNEW 7.0.11) date 2026-03-17 23:03:58*
%MOMM*%
%LPD*%
G01*
G04 APERTURE LIST*
%ADD10C,0.100000*%
%ADD11C,0.200000*%
%ADD12C,0.150000*%
%ADD13C,0.140000*%
%ADD14C,0.137500*%
%ADD15C,0.125000*%
%ADD16C,0.120000*%
G04 APERTURE END LIST*
D10*
X105200000Y-100000000D02*
G75*
G03*
X94800000Y-100000000I-5200000J0D01*
G01*
X94800000Y-100000000D02*
G75*
G03*
X105200000Y-100000000I5200000J0D01*
G01*
D11*
X95500000Y-69200000D02*
X104500000Y-69200000D01*
X104500000Y-92600000D01*
X95500000Y-92600000D01*
X95500000Y-69200000D01*
D12*
X93603333Y-71806033D02*
X93603333Y-71106033D01*
X93603333Y-71106033D02*
X93770000Y-71106033D01*
X93770000Y-71106033D02*
X93870000Y-71139366D01*
X93870000Y-71139366D02*
X93936667Y-71206033D01*
X93936667Y-71206033D02*
X93970000Y-71272700D01*
X93970000Y-71272700D02*
X94003333Y-71406033D01*
X94003333Y-71406033D02*
X94003333Y-71506033D01*
X94003333Y-71506033D02*
X93970000Y-71639366D01*
X93970000Y-71639366D02*
X93936667Y-71706033D01*
X93936667Y-71706033D02*
X93870000Y-71772700D01*
X93870000Y-71772700D02*
X93770000Y-71806033D01*
X93770000Y-71806033D02*
X93603333Y-71806033D01*
X94403333Y-71406033D02*
X94336667Y-71372700D01*
X94336667Y-71372700D02*
X94303333Y-71339366D01*
X94303333Y-71339366D02*
X94270000Y-71272700D01*
X94270000Y-71272700D02*
X94270000Y-71239366D01*
X94270000Y-71239366D02*
X94303333Y-71172700D01*
X94303333Y-71172700D02*
X94336667Y-71139366D01*
X94336667Y-71139366D02*
X94403333Y-71106033D01*
X94403333Y-71106033D02*
X94536667Y-71106033D01*
X94536667Y-71106033D02*
X94603333Y-71139366D01*
X94603333Y-71139366D02*
X94636667Y-71172700D01*
X94636667Y-71172700D02*
X94670000Y-71239366D01*
X94670000Y-71239366D02*
X94670000Y-71272700D01*
X94670000Y-71272700D02*
X94636667Y-71339366D01*
X94636667Y-71339366D02*
X94603333Y-71372700D01*
X94603333Y-71372700D02*
X94536667Y-71406033D01*
X94536667Y-71406033D02*
X94403333Y-71406033D01*
X94403333Y-71406033D02*
X94336667Y-71439366D01*
X94336667Y-71439366D02*
X94303333Y-71472700D01*
X94303333Y-71472700D02*
X94270000Y-71539366D01*
X94270000Y-71539366D02*
X94270000Y-71672700D01*
X94270000Y-71672700D02*
X94303333Y-71739366D01*
X94303333Y-71739366D02*
X94336667Y-71772700D01*
X94336667Y-71772700D02*
X94403333Y-71806033D01*
X94403333Y-71806033D02*
X94536667Y-71806033D01*
X94536667Y-71806033D02*
X94603333Y-71772700D01*
X94603333Y-71772700D02*
X94636667Y-71739366D01*
X94636667Y-71739366D02*
X94670000Y-71672700D01*
X94670000Y-71672700D02*
X94670000Y-71539366D01*
X94670000Y-71539366D02*
X94636667Y-71472700D01*
X94636667Y-71472700D02*
X94603333Y-71439366D01*
X94603333Y-71439366D02*
X94536667Y-71406033D01*
X97383333Y-95499366D02*
X97350000Y-95532700D01*
X97350000Y-95532700D02*
X97250000Y-95566033D01*
X97250000Y-95566033D02*
X97183333Y-95566033D01*
X97183333Y-95566033D02*
X97083333Y-95532700D01*
X97083333Y-95532700D02*
X97016667Y-95466033D01*
X97016667Y-95466033D02*
X96983333Y-95399366D01*
X96983333Y-95399366D02*
X96950000Y-95266033D01*
X96950000Y-95266033D02*
X96950000Y-95166033D01*
X96950000Y-95166033D02*
X96983333Y-95032700D01*
X96983333Y-95032700D02*
X97016667Y-94966033D01*
X97016667Y-94966033D02*
X97083333Y-94899366D01*
X97083333Y-94899366D02*
X97183333Y-94866033D01*
X97183333Y-94866033D02*
X97250000Y-94866033D01*
X97250000Y-94866033D02*
X97350000Y-94899366D01*
X97350000Y-94899366D02*
X97383333Y-94932700D01*
X97616667Y-94866033D02*
X98083333Y-94866033D01*
X98083333Y-94866033D02*
X97783333Y-95566033D01*
X96432700Y-105266666D02*
X96399366Y-105333333D01*
X96399366Y-105333333D02*
X96332700Y-105400000D01*
X96332700Y-105400000D02*
X96232700Y-105500000D01*
X96232700Y-105500000D02*
X96199366Y-105566666D01*
X96199366Y-105566666D02*
X96199366Y-105633333D01*
X96366033Y-105600000D02*
X96332700Y-105666666D01*
X96332700Y-105666666D02*
X96266033Y-105733333D01*
X96266033Y-105733333D02*
X96132700Y-105766666D01*
X96132700Y-105766666D02*
X95899366Y-105766666D01*
X95899366Y-105766666D02*
X95766033Y-105733333D01*
X95766033Y-105733333D02*
X95699366Y-105666666D01*
X95699366Y-105666666D02*
X95666033Y-105600000D01*
X95666033Y-105600000D02*
X95666033Y-105466666D01*
X95666033Y-105466666D02*
X95699366Y-105400000D01*
X95699366Y-105400000D02*
X95766033Y-105333333D01*
X95766033Y-105333333D02*
X95899366Y-105300000D01*
X95899366Y-105300000D02*
X96132700Y-105300000D01*
X96132700Y-105300000D02*
X96266033Y-105333333D01*
X96266033Y-105333333D02*
X96332700Y-105400000D01*
X96332700Y-105400000D02*
X96366033Y-105466666D01*
X96366033Y-105466666D02*
X96366033Y-105600000D01*
X96366033Y-104633333D02*
X96366033Y-105033333D01*
X96366033Y-104833333D02*
X95666033Y-104833333D01*
X95666033Y-104833333D02*
X95766033Y-104900000D01*
X95766033Y-104900000D02*
X95832700Y-104966667D01*
X95832700Y-104966667D02*
X95866033Y-105033333D01*
X103332700Y-97526666D02*
X103299366Y-97593333D01*
X103299366Y-97593333D02*
X103232700Y-97660000D01*
X103232700Y-97660000D02*
X103132700Y-97760000D01*
X103132700Y-97760000D02*
X103099366Y-97826666D01*
X103099366Y-97826666D02*
X103099366Y-97893333D01*
X103266033Y-97860000D02*
X103232700Y-97926666D01*
X103232700Y-97926666D02*
X103166033Y-97993333D01*
X103166033Y-97993333D02*
X103032700Y-98026666D01*
X103032700Y-98026666D02*
X102799366Y-98026666D01*
X102799366Y-98026666D02*
X102666033Y-97993333D01*
X102666033Y-97993333D02*
X102599366Y-97926666D01*
X102599366Y-97926666D02*
X102566033Y-97860000D01*
X102566033Y-97860000D02*
X102566033Y-97726666D01*
X102566033Y-97726666D02*
X102599366Y-97660000D01*
X102599366Y-97660000D02*
X102666033Y-97593333D01*
X102666033Y-97593333D02*
X102799366Y-97560000D01*
X102799366Y-97560000D02*
X103032700Y-97560000D01*
X103032700Y-97560000D02*
X103166033Y-97593333D01*
X103166033Y-97593333D02*
X103232700Y-97660000D01*
X103232700Y-97660000D02*
X103266033Y-97726666D01*
X103266033Y-97726666D02*
X103266033Y-97860000D01*
X102566033Y-97326667D02*
X102566033Y-96893333D01*
X102566033Y-96893333D02*
X102832700Y-97126667D01*
X102832700Y-97126667D02*
X102832700Y-97026667D01*
X102832700Y-97026667D02*
X102866033Y-96960000D01*
X102866033Y-96960000D02*
X102899366Y-96926667D01*
X102899366Y-96926667D02*
X102966033Y-96893333D01*
X102966033Y-96893333D02*
X103132700Y-96893333D01*
X103132700Y-96893333D02*
X103199366Y-96926667D01*
X103199366Y-96926667D02*
X103232700Y-96960000D01*
X103232700Y-96960000D02*
X103266033Y-97026667D01*
X103266033Y-97026667D02*
X103266033Y-97226667D01*
X103266033Y-97226667D02*
X103232700Y-97293333D01*
X103232700Y-97293333D02*
X103199366Y-97326667D01*
D13*
G36*
X105122480Y-87303980D02*
G01*
X105131114Y-87304369D01*
X105139655Y-87304966D01*
X105148104Y-87305769D01*
X105156460Y-87306779D01*
X105164723Y-87307997D01*
X105172894Y-87309422D01*
X105180972Y-87311053D01*
X105188957Y-87312892D01*
X105196849Y-87314937D01*
X105204648Y-87317190D01*
X105212355Y-87319650D01*
X105219969Y-87322316D01*
X105227491Y-87325190D01*
X105234919Y-87328271D01*
X105242256Y-87331548D01*
X105249464Y-87335011D01*
X105256544Y-87338659D01*
X105263496Y-87342494D01*
X105270319Y-87346513D01*
X105277015Y-87350719D01*
X105283582Y-87355110D01*
X105290020Y-87359687D01*
X105296331Y-87364449D01*
X105302513Y-87369397D01*
X105308568Y-87374531D01*
X105314494Y-87379850D01*
X105320291Y-87385356D01*
X105325961Y-87391046D01*
X105331502Y-87396923D01*
X105336915Y-87402985D01*
X105342208Y-87409197D01*
X105347354Y-87415564D01*
X105352352Y-87422089D01*
X105357202Y-87428769D01*
X105361905Y-87435606D01*
X105366460Y-87442599D01*
X105370867Y-87449748D01*
X105375127Y-87457054D01*
X105379239Y-87464516D01*
X105383203Y-87472134D01*
X105387019Y-87479909D01*
X105390688Y-87487839D01*
X105394209Y-87495926D01*
X105397583Y-87504170D01*
X105400808Y-87512569D01*
X105403886Y-87521125D01*
X105406797Y-87529800D01*
X105409519Y-87538599D01*
X105412054Y-87547522D01*
X105414401Y-87556569D01*
X105416560Y-87565741D01*
X105418532Y-87575037D01*
X105420316Y-87584457D01*
X105421912Y-87594001D01*
X105423320Y-87603670D01*
X105424540Y-87613462D01*
X105425573Y-87623379D01*
X105426418Y-87633420D01*
X105427075Y-87643586D01*
X105427544Y-87653875D01*
X105427826Y-87664289D01*
X105427920Y-87674827D01*
X105427826Y-87685134D01*
X105427544Y-87695325D01*
X105427075Y-87705399D01*
X105426418Y-87715358D01*
X105425573Y-87725200D01*
X105424540Y-87734926D01*
X105423320Y-87744535D01*
X105421912Y-87754029D01*
X105420316Y-87763406D01*
X105418532Y-87772667D01*
X105416560Y-87781812D01*
X105414401Y-87790841D01*
X105412054Y-87799753D01*
X105409519Y-87808550D01*
X105406797Y-87817230D01*
X105403886Y-87825794D01*
X105400808Y-87834205D01*
X105397583Y-87842469D01*
X105394209Y-87850586D01*
X105390688Y-87858556D01*
X105387019Y-87866379D01*
X105383203Y-87874055D01*
X105379239Y-87881585D01*
X105375127Y-87888967D01*
X105370867Y-87896203D01*
X105366460Y-87903291D01*
X105361905Y-87910233D01*
X105357202Y-87917028D01*
X105352352Y-87923675D01*
X105347354Y-87930176D01*
X105342208Y-87936530D01*
X105336915Y-87942737D01*
X105331502Y-87948787D01*
X105325961Y-87954668D01*
X105320291Y-87960380D01*
X105314494Y-87965925D01*
X105308568Y-87971301D01*
X105302513Y-87976509D01*
X105296331Y-87981549D01*
X105290020Y-87986420D01*
X105283582Y-87991123D01*
X105277015Y-87995658D01*
X105270319Y-88000024D01*
X105263496Y-88004222D01*
X105256544Y-88008252D01*
X105249464Y-88012114D01*
X105242256Y-88015807D01*
X105234919Y-88019332D01*
X105227491Y-88022669D01*
X105219969Y-88025799D01*
X105212355Y-88028722D01*
X105204648Y-88031438D01*
X105196849Y-88033948D01*
X105188957Y-88036250D01*
X105180972Y-88038345D01*
X105172894Y-88040233D01*
X105164723Y-88041914D01*
X105156460Y-88043388D01*
X105148104Y-88044655D01*
X105139655Y-88045714D01*
X105131114Y-88046567D01*
X105122480Y-88047213D01*
X105113753Y-88047652D01*
X105104933Y-88047884D01*
X105096221Y-88047780D01*
X105087597Y-88047470D01*
X105079062Y-88046952D01*
X105070614Y-88046227D01*
X105062255Y-88045296D01*
X105053983Y-88044157D01*
X105045800Y-88042811D01*
X105037705Y-88041259D01*
X105029699Y-88039499D01*
X105021780Y-88037532D01*
X105013950Y-88035358D01*
X105006207Y-88032977D01*
X104998553Y-88030389D01*
X104990987Y-88027594D01*
X104983509Y-88024592D01*
X104976120Y-88021383D01*
X104968855Y-88017985D01*
X104961717Y-88014414D01*
X104954704Y-88010670D01*
X104947818Y-88006755D01*
X104941057Y-88002667D01*
X104934423Y-87998407D01*
X104927914Y-87993974D01*
X104921531Y-87989369D01*
X104915274Y-87984592D01*
X104909144Y-87979643D01*
X104903139Y-87974521D01*
X104897260Y-87969227D01*
X104891507Y-87963760D01*
X104885879Y-87958122D01*
X104880378Y-87952311D01*
X104875003Y-87946327D01*
X104869781Y-87940162D01*
X104864701Y-87933847D01*
X104859765Y-87927382D01*
X104854972Y-87920767D01*
X104850322Y-87914003D01*
X104845815Y-87907090D01*
X104841451Y-87900027D01*
X104837231Y-87892814D01*
X104833153Y-87885451D01*
X104829219Y-87877939D01*
X104825428Y-87870278D01*
X104821779Y-87862467D01*
X104818274Y-87854506D01*
X104814912Y-87846396D01*
X104811694Y-87838136D01*
X104808618Y-87829726D01*
X104805707Y-87821162D01*
X104802985Y-87812482D01*
X104800450Y-87803686D01*
X104798103Y-87794773D01*
X104795944Y-87785745D01*
X104793972Y-87776600D01*
X104792189Y-87767339D01*
X104790593Y-87757961D01*
X104789184Y-87748468D01*
X104787964Y-87738858D01*
X104786931Y-87729132D01*
X104786086Y-87719290D01*
X104785429Y-87709332D01*
X104784960Y-87699257D01*
X104784678Y-87689066D01*
X104784584Y-87678759D01*
X104784654Y-87670895D01*
X104905338Y-87670895D01*
X104905395Y-87677828D01*
X104905565Y-87684693D01*
X104906032Y-87694862D01*
X104906755Y-87704878D01*
X104907732Y-87714741D01*
X104908965Y-87724451D01*
X104910453Y-87734008D01*
X104912195Y-87743411D01*
X104914193Y-87752661D01*
X104916446Y-87761757D01*
X104918953Y-87770701D01*
X104919846Y-87773648D01*
X104922669Y-87782320D01*
X104925699Y-87790770D01*
X104928934Y-87798998D01*
X104932376Y-87807003D01*
X104936023Y-87814786D01*
X104939877Y-87822346D01*
X104943937Y-87829684D01*
X104948203Y-87836800D01*
X104952675Y-87843693D01*
X104957353Y-87850364D01*
X104960586Y-87854688D01*
X104965622Y-87860939D01*
X104970838Y-87866935D01*
X104976235Y-87872676D01*
X104981812Y-87878161D01*
X104987569Y-87883391D01*
X104993507Y-87888365D01*
X104999625Y-87893084D01*
X105005923Y-87897548D01*
X105012402Y-87901756D01*
X105019061Y-87905708D01*
X105023600Y-87908201D01*
X105030573Y-87911654D01*
X105037698Y-87914767D01*
X105044975Y-87917540D01*
X105052403Y-87919974D01*
X105059984Y-87922068D01*
X105067717Y-87923823D01*
X105075602Y-87925238D01*
X105083638Y-87926313D01*
X105091827Y-87927049D01*
X105100168Y-87927445D01*
X105105812Y-87927521D01*
X105114257Y-87927351D01*
X105122555Y-87926842D01*
X105130706Y-87925993D01*
X105138710Y-87924804D01*
X105146567Y-87923276D01*
X105154277Y-87921408D01*
X105161841Y-87919201D01*
X105169258Y-87916654D01*
X105176528Y-87913767D01*
X105183651Y-87910541D01*
X105188318Y-87908201D01*
X105195200Y-87904419D01*
X105201890Y-87900381D01*
X105208386Y-87896088D01*
X105214689Y-87891540D01*
X105220799Y-87886736D01*
X105226716Y-87881676D01*
X105232439Y-87876361D01*
X105237969Y-87870791D01*
X105243306Y-87864965D01*
X105248450Y-87858884D01*
X105251772Y-87854688D01*
X105256614Y-87848165D01*
X105261247Y-87841420D01*
X105265671Y-87834453D01*
X105269886Y-87827263D01*
X105273893Y-87819851D01*
X105277692Y-87812216D01*
X105281281Y-87804359D01*
X105284662Y-87796280D01*
X105287835Y-87787978D01*
X105290798Y-87779454D01*
X105292658Y-87773648D01*
X105295251Y-87764756D01*
X105297589Y-87755710D01*
X105299671Y-87746511D01*
X105301499Y-87737159D01*
X105303072Y-87727654D01*
X105304389Y-87717995D01*
X105305452Y-87708183D01*
X105306260Y-87698218D01*
X105306812Y-87688100D01*
X105307110Y-87677828D01*
X105307166Y-87670895D01*
X105307039Y-87661243D01*
X105306656Y-87651715D01*
X105306019Y-87642310D01*
X105305126Y-87633028D01*
X105303978Y-87623869D01*
X105302576Y-87614833D01*
X105300918Y-87605921D01*
X105299006Y-87597132D01*
X105296838Y-87588466D01*
X105294415Y-87579923D01*
X105292658Y-87574297D01*
X105289834Y-87565966D01*
X105286800Y-87557838D01*
X105283559Y-87549910D01*
X105280108Y-87542184D01*
X105276449Y-87534659D01*
X105272581Y-87527335D01*
X105268504Y-87520213D01*
X105264219Y-87513293D01*
X105259725Y-87506573D01*
X105255023Y-87500055D01*
X105251772Y-87495822D01*
X105246757Y-87489636D01*
X105241549Y-87483708D01*
X105236147Y-87478039D01*
X105230553Y-87472628D01*
X105224765Y-87467476D01*
X105218784Y-87462583D01*
X105212610Y-87457947D01*
X105206242Y-87453571D01*
X105199681Y-87449452D01*
X105192928Y-87445592D01*
X105188318Y-87443163D01*
X105181293Y-87439771D01*
X105174121Y-87436713D01*
X105166802Y-87433989D01*
X105159336Y-87431598D01*
X105151724Y-87429541D01*
X105143964Y-87427818D01*
X105136058Y-87426428D01*
X105128005Y-87425371D01*
X105119805Y-87424648D01*
X105111458Y-87424259D01*
X105105812Y-87424185D01*
X105097371Y-87424352D01*
X105089081Y-87424852D01*
X105080942Y-87425686D01*
X105072956Y-87426854D01*
X105065122Y-87428355D01*
X105057440Y-87430190D01*
X105049910Y-87432358D01*
X105042532Y-87434860D01*
X105035306Y-87437696D01*
X105028232Y-87440865D01*
X105023600Y-87443163D01*
X105016821Y-87446850D01*
X105010222Y-87450796D01*
X105003804Y-87455001D01*
X104997566Y-87459464D01*
X104991508Y-87464185D01*
X104985630Y-87469165D01*
X104979933Y-87474403D01*
X104974416Y-87479900D01*
X104969079Y-87485655D01*
X104963923Y-87491669D01*
X104960586Y-87495822D01*
X104955770Y-87502205D01*
X104951161Y-87508791D01*
X104946758Y-87515577D01*
X104942561Y-87522565D01*
X104938569Y-87529754D01*
X104934784Y-87537145D01*
X104931206Y-87544737D01*
X104927833Y-87552530D01*
X104924666Y-87560525D01*
X104921705Y-87568721D01*
X104919846Y-87574297D01*
X104917253Y-87582757D01*
X104914916Y-87591341D01*
X104912833Y-87600048D01*
X104911005Y-87608878D01*
X104909433Y-87617832D01*
X104908115Y-87626908D01*
X104907052Y-87636108D01*
X104906245Y-87645431D01*
X104905692Y-87654877D01*
X104905395Y-87664447D01*
X104905338Y-87670895D01*
X104784654Y-87670895D01*
X104784678Y-87668219D01*
X104784960Y-87657800D01*
X104785429Y-87647500D01*
X104786086Y-87637321D01*
X104786931Y-87627261D01*
X104787964Y-87617322D01*
X104789184Y-87607504D01*
X104790593Y-87597805D01*
X104792189Y-87588227D01*
X104793972Y-87578769D01*
X104795944Y-87569431D01*
X104798103Y-87560213D01*
X104800450Y-87551116D01*
X104802985Y-87542138D01*
X104805707Y-87533281D01*
X104808618Y-87524545D01*
X104811694Y-87515927D01*
X104814912Y-87507469D01*
X104818274Y-87499171D01*
X104821779Y-87491034D01*
X104825428Y-87483058D01*
X104829219Y-87475241D01*
X104833153Y-87467585D01*
X104837231Y-87460089D01*
X104841451Y-87452753D01*
X104845815Y-87445578D01*
X104850322Y-87438563D01*
X104854972Y-87431708D01*
X104859765Y-87425013D01*
X104864701Y-87418479D01*
X104869781Y-87412105D01*
X104875003Y-87405891D01*
X104880378Y-87399846D01*
X104885879Y-87393977D01*
X104891507Y-87388284D01*
X104897260Y-87382768D01*
X104903139Y-87377428D01*
X104909144Y-87372264D01*
X104915274Y-87367276D01*
X104921531Y-87362465D01*
X104927914Y-87357830D01*
X104934423Y-87353371D01*
X104941057Y-87349089D01*
X104947818Y-87344983D01*
X104954704Y-87341054D01*
X104961717Y-87337300D01*
X104968855Y-87333723D01*
X104976120Y-87330323D01*
X104983509Y-87327114D01*
X104990987Y-87324112D01*
X104998553Y-87321317D01*
X105006207Y-87318729D01*
X105013950Y-87316348D01*
X105021780Y-87314174D01*
X105029699Y-87312207D01*
X105037705Y-87310447D01*
X105045800Y-87308895D01*
X105053983Y-87307549D01*
X105062255Y-87306410D01*
X105070614Y-87305479D01*
X105079062Y-87304754D01*
X105087597Y-87304236D01*
X105096221Y-87303926D01*
X105104933Y-87303822D01*
X105113753Y-87303798D01*
X105122480Y-87303980D01*
G37*
G36*
X105515994Y-87314764D02*
G01*
X105911081Y-87314764D01*
X105911081Y-87435127D01*
X105631765Y-87435127D01*
X105631765Y-87610200D01*
X105895108Y-87610200D01*
X105895108Y-87730563D01*
X105631765Y-87730563D01*
X105631765Y-88026000D01*
X105515994Y-88026000D01*
X105515994Y-87314764D01*
G37*
G36*
X105997836Y-87314764D02*
G01*
X106392923Y-87314764D01*
X106392923Y-87435127D01*
X106113607Y-87435127D01*
X106113607Y-87610200D01*
X106376950Y-87610200D01*
X106376950Y-87730563D01*
X106113607Y-87730563D01*
X106113607Y-88026000D01*
X105997836Y-88026000D01*
X105997836Y-87314764D01*
G37*
D14*
G36*
X105179574Y-92436000D02*
G01*
X105058674Y-92436000D01*
X105007627Y-92282810D01*
X104775767Y-92282810D01*
X104726198Y-92436000D01*
X104607716Y-92436000D01*
X104700819Y-92162448D01*
X104812440Y-92162448D01*
X104970282Y-92162448D01*
X104892100Y-91899667D01*
X104812440Y-92162448D01*
X104700819Y-92162448D01*
X104849785Y-91724764D01*
X104939788Y-91724764D01*
X105179574Y-92436000D01*
G37*
G36*
X105674056Y-92175954D02*
G01*
X105673988Y-92183984D01*
X105673785Y-92191918D01*
X105673446Y-92199756D01*
X105672973Y-92207498D01*
X105672363Y-92215144D01*
X105671619Y-92222693D01*
X105670739Y-92230146D01*
X105669723Y-92237503D01*
X105668573Y-92244764D01*
X105667287Y-92251929D01*
X105665865Y-92258997D01*
X105664308Y-92265970D01*
X105662616Y-92272846D01*
X105660788Y-92279626D01*
X105658825Y-92286310D01*
X105656727Y-92292898D01*
X105654511Y-92299376D01*
X105652195Y-92305731D01*
X105649780Y-92311963D01*
X105647265Y-92318073D01*
X105644650Y-92324060D01*
X105640541Y-92332809D01*
X105636207Y-92341282D01*
X105631649Y-92349479D01*
X105626867Y-92357399D01*
X105621861Y-92365042D01*
X105616630Y-92372409D01*
X105611175Y-92379500D01*
X105609307Y-92381802D01*
X105603569Y-92388513D01*
X105597640Y-92394927D01*
X105591520Y-92401044D01*
X105585209Y-92406862D01*
X105578706Y-92412384D01*
X105572012Y-92417608D01*
X105565127Y-92422534D01*
X105558050Y-92427162D01*
X105550782Y-92431494D01*
X105545831Y-92434216D01*
X105540795Y-92436806D01*
X105538244Y-92438051D01*
X105533095Y-92440453D01*
X105527890Y-92442699D01*
X105522630Y-92444791D01*
X105517314Y-92446728D01*
X105511942Y-92448510D01*
X105506514Y-92450137D01*
X105501031Y-92451609D01*
X105495493Y-92452926D01*
X105489899Y-92454088D01*
X105484249Y-92455095D01*
X105478543Y-92455947D01*
X105472782Y-92456644D01*
X105466965Y-92457186D01*
X105461093Y-92457574D01*
X105455165Y-92457806D01*
X105449181Y-92457884D01*
X105443214Y-92457806D01*
X105437301Y-92457574D01*
X105431443Y-92457186D01*
X105425639Y-92456644D01*
X105419890Y-92455947D01*
X105414196Y-92455095D01*
X105408556Y-92454088D01*
X105402971Y-92452926D01*
X105397440Y-92451609D01*
X105391964Y-92450137D01*
X105386542Y-92448510D01*
X105381175Y-92446728D01*
X105375862Y-92444791D01*
X105370605Y-92442699D01*
X105365401Y-92440453D01*
X105360252Y-92438051D01*
X105355172Y-92435527D01*
X105350173Y-92432871D01*
X105345256Y-92430083D01*
X105338035Y-92425653D01*
X105330997Y-92420925D01*
X105324144Y-92415899D01*
X105317475Y-92410576D01*
X105310990Y-92404956D01*
X105304689Y-92399038D01*
X105298572Y-92392822D01*
X105292640Y-92386309D01*
X105288787Y-92381802D01*
X105283212Y-92374804D01*
X105277870Y-92367529D01*
X105272762Y-92359977D01*
X105267888Y-92352149D01*
X105263247Y-92344045D01*
X105258841Y-92335664D01*
X105254668Y-92327007D01*
X105250729Y-92318073D01*
X105248232Y-92311963D01*
X105245840Y-92305731D01*
X105243552Y-92299376D01*
X105241367Y-92292898D01*
X105239318Y-92286310D01*
X105237400Y-92279626D01*
X105235615Y-92272846D01*
X105233962Y-92265970D01*
X105232441Y-92258997D01*
X105231053Y-92251929D01*
X105229797Y-92244764D01*
X105228673Y-92237503D01*
X105227681Y-92230146D01*
X105226821Y-92222693D01*
X105226094Y-92215144D01*
X105225499Y-92207498D01*
X105225036Y-92199756D01*
X105224706Y-92191918D01*
X105224507Y-92183984D01*
X105224441Y-92175954D01*
X105224441Y-91724764D01*
X105330565Y-91724764D01*
X105330565Y-92179203D01*
X105330709Y-92187275D01*
X105331142Y-92195465D01*
X105331863Y-92203771D01*
X105332874Y-92212194D01*
X105333890Y-92219017D01*
X105335090Y-92225915D01*
X105336475Y-92232887D01*
X105338106Y-92239785D01*
X105339976Y-92246543D01*
X105342086Y-92253163D01*
X105344435Y-92259644D01*
X105347023Y-92265986D01*
X105349850Y-92272189D01*
X105352917Y-92278253D01*
X105356222Y-92284178D01*
X105359820Y-92289863D01*
X105363695Y-92295291D01*
X105367847Y-92300463D01*
X105372275Y-92305378D01*
X105376981Y-92310037D01*
X105381964Y-92314440D01*
X105387224Y-92318586D01*
X105392761Y-92322475D01*
X105398609Y-92326002D01*
X105404801Y-92329058D01*
X105411337Y-92331644D01*
X105418217Y-92333759D01*
X105423604Y-92335038D01*
X105429183Y-92336052D01*
X105434957Y-92336801D01*
X105440924Y-92337286D01*
X105447085Y-92337506D01*
X105449181Y-92337521D01*
X105455431Y-92337389D01*
X105461484Y-92336992D01*
X105467341Y-92336331D01*
X105473002Y-92335405D01*
X105478468Y-92334215D01*
X105483737Y-92332760D01*
X105490458Y-92330410D01*
X105496830Y-92327588D01*
X105502854Y-92324297D01*
X105505736Y-92322475D01*
X105511271Y-92318586D01*
X105516524Y-92314440D01*
X105521497Y-92310037D01*
X105526188Y-92305378D01*
X105530598Y-92300463D01*
X105534727Y-92295291D01*
X105538574Y-92289863D01*
X105542140Y-92284178D01*
X105545475Y-92278253D01*
X105548563Y-92272189D01*
X105551403Y-92265986D01*
X105553995Y-92259644D01*
X105556340Y-92253163D01*
X105558436Y-92246543D01*
X105560286Y-92239785D01*
X105561887Y-92232887D01*
X105563304Y-92225915D01*
X105564532Y-92219017D01*
X105565571Y-92212194D01*
X105566604Y-92203771D01*
X105567342Y-92195465D01*
X105567785Y-92187275D01*
X105567932Y-92179203D01*
X105567932Y-91724764D01*
X105674056Y-91724764D01*
X105674056Y-92175954D01*
G37*
G36*
X105894497Y-91845127D02*
G01*
X105726580Y-91845127D01*
X105726580Y-91724764D01*
X106168538Y-91724764D01*
X106168538Y-91845127D01*
X106000621Y-91845127D01*
X106000621Y-92436000D01*
X105894497Y-92436000D01*
X105894497Y-91845127D01*
G37*
G36*
X106504336Y-91713980D02*
G01*
X106512250Y-91714369D01*
X106520080Y-91714966D01*
X106527825Y-91715769D01*
X106535484Y-91716779D01*
X106543059Y-91717997D01*
X106550549Y-91719422D01*
X106557953Y-91721053D01*
X106565273Y-91722892D01*
X106572507Y-91724937D01*
X106579657Y-91727190D01*
X106586722Y-91729650D01*
X106593701Y-91732316D01*
X106600596Y-91735190D01*
X106607405Y-91738271D01*
X106614130Y-91741548D01*
X106620738Y-91745011D01*
X106627228Y-91748659D01*
X106633600Y-91752494D01*
X106639855Y-91756513D01*
X106645993Y-91760719D01*
X106652012Y-91765110D01*
X106657915Y-91769687D01*
X106663699Y-91774449D01*
X106669367Y-91779397D01*
X106674916Y-91784531D01*
X106680348Y-91789850D01*
X106685663Y-91795356D01*
X106690860Y-91801046D01*
X106695940Y-91806923D01*
X106700901Y-91812985D01*
X106705754Y-91819197D01*
X106710471Y-91825564D01*
X106715052Y-91832089D01*
X106719498Y-91838769D01*
X106723809Y-91845606D01*
X106727984Y-91852599D01*
X106732024Y-91859748D01*
X106735929Y-91867054D01*
X106739698Y-91874516D01*
X106743332Y-91882134D01*
X106746830Y-91889909D01*
X106750193Y-91897839D01*
X106753421Y-91905926D01*
X106756513Y-91914170D01*
X106759470Y-91922569D01*
X106762292Y-91931125D01*
X106764960Y-91939800D01*
X106767455Y-91948599D01*
X106769779Y-91957522D01*
X106771930Y-91966569D01*
X106773910Y-91975741D01*
X106775717Y-91985037D01*
X106777352Y-91994457D01*
X106778815Y-92004001D01*
X106780106Y-92013670D01*
X106781225Y-92023462D01*
X106782171Y-92033379D01*
X106782946Y-92043420D01*
X106783548Y-92053586D01*
X106783978Y-92063875D01*
X106784237Y-92074289D01*
X106784323Y-92084827D01*
X106784237Y-92095134D01*
X106783978Y-92105325D01*
X106783548Y-92115399D01*
X106782946Y-92125358D01*
X106782171Y-92135200D01*
X106781225Y-92144926D01*
X106780106Y-92154535D01*
X106778815Y-92164029D01*
X106777352Y-92173406D01*
X106775717Y-92182667D01*
X106773910Y-92191812D01*
X106771930Y-92200841D01*
X106769779Y-92209753D01*
X106767455Y-92218550D01*
X106764960Y-92227230D01*
X106762292Y-92235794D01*
X106759470Y-92244205D01*
X106756513Y-92252469D01*
X106753421Y-92260586D01*
X106750193Y-92268556D01*
X106746830Y-92276379D01*
X106743332Y-92284055D01*
X106739698Y-92291585D01*
X106735929Y-92298967D01*
X106732024Y-92306203D01*
X106727984Y-92313291D01*
X106723809Y-92320233D01*
X106719498Y-92327028D01*
X106715052Y-92333675D01*
X106710471Y-92340176D01*
X106705754Y-92346530D01*
X106700901Y-92352737D01*
X106695940Y-92358787D01*
X106690860Y-92364668D01*
X106685663Y-92370380D01*
X106680348Y-92375925D01*
X106674916Y-92381301D01*
X106669367Y-92386509D01*
X106663699Y-92391549D01*
X106657915Y-92396420D01*
X106652012Y-92401123D01*
X106645993Y-92405658D01*
X106639855Y-92410024D01*
X106633600Y-92414222D01*
X106627228Y-92418252D01*
X106620738Y-92422114D01*
X106614130Y-92425807D01*
X106607405Y-92429332D01*
X106600596Y-92432669D01*
X106593701Y-92435799D01*
X106586722Y-92438722D01*
X106579657Y-92441438D01*
X106572507Y-92443948D01*
X106565273Y-92446250D01*
X106557953Y-92448345D01*
X106550549Y-92450233D01*
X106543059Y-92451914D01*
X106535484Y-92453388D01*
X106527825Y-92454655D01*
X106520080Y-92455714D01*
X106512250Y-92456567D01*
X106504336Y-92457213D01*
X106496336Y-92457652D01*
X106488251Y-92457884D01*
X106480265Y-92457780D01*
X106472360Y-92457470D01*
X106464536Y-92456952D01*
X106456792Y-92456227D01*
X106449129Y-92455296D01*
X106441547Y-92454157D01*
X106434046Y-92452811D01*
X106426626Y-92451259D01*
X106419286Y-92449499D01*
X106412028Y-92447532D01*
X106404850Y-92445358D01*
X106397753Y-92442977D01*
X106390736Y-92440389D01*
X106383801Y-92437594D01*
X106376946Y-92434592D01*
X106370172Y-92431383D01*
X106363513Y-92427985D01*
X106356970Y-92424414D01*
X106350542Y-92420670D01*
X106344229Y-92416755D01*
X106338032Y-92412667D01*
X106331950Y-92408407D01*
X106325984Y-92403974D01*
X106320133Y-92399369D01*
X106314398Y-92394592D01*
X106308778Y-92389643D01*
X106303273Y-92384521D01*
X106297884Y-92379227D01*
X106292610Y-92373760D01*
X106287452Y-92368122D01*
X106282409Y-92362311D01*
X106277482Y-92356327D01*
X106272695Y-92350162D01*
X106268039Y-92343847D01*
X106263514Y-92337382D01*
X106259120Y-92330767D01*
X106254858Y-92324003D01*
X106250727Y-92317090D01*
X106246726Y-92310027D01*
X106242858Y-92302814D01*
X106239120Y-92295451D01*
X106235513Y-92287939D01*
X106232038Y-92280278D01*
X106228694Y-92272467D01*
X106225481Y-92264506D01*
X106222399Y-92256396D01*
X106219448Y-92248136D01*
X106216629Y-92239726D01*
X106213961Y-92231162D01*
X106211466Y-92222482D01*
X106209142Y-92213686D01*
X106206991Y-92204773D01*
X106205011Y-92195745D01*
X106203204Y-92186600D01*
X106201569Y-92177339D01*
X106200106Y-92167961D01*
X106198815Y-92158468D01*
X106197696Y-92148858D01*
X106196750Y-92139132D01*
X106195975Y-92129290D01*
X106195373Y-92119332D01*
X106194942Y-92109257D01*
X106194684Y-92099066D01*
X106194598Y-92088759D01*
X106194662Y-92080895D01*
X106305289Y-92080895D01*
X106305341Y-92087828D01*
X106305497Y-92094693D01*
X106305925Y-92104862D01*
X106306588Y-92114878D01*
X106307484Y-92124741D01*
X106308614Y-92134451D01*
X106309978Y-92144008D01*
X106311575Y-92153411D01*
X106313406Y-92162661D01*
X106315471Y-92171757D01*
X106317770Y-92180701D01*
X106318588Y-92183648D01*
X106321176Y-92192320D01*
X106323953Y-92200770D01*
X106326919Y-92208998D01*
X106330074Y-92217003D01*
X106333417Y-92224786D01*
X106336950Y-92232346D01*
X106340671Y-92239684D01*
X106344582Y-92246800D01*
X106348681Y-92253693D01*
X106352969Y-92260364D01*
X106355933Y-92264688D01*
X106360549Y-92270939D01*
X106365331Y-92276935D01*
X106370278Y-92282676D01*
X106375390Y-92288161D01*
X106380668Y-92293391D01*
X106386111Y-92298365D01*
X106391719Y-92303084D01*
X106397492Y-92307548D01*
X106403431Y-92311756D01*
X106409535Y-92315708D01*
X106413696Y-92318201D01*
X106420088Y-92321654D01*
X106426619Y-92324767D01*
X106433289Y-92327540D01*
X106440099Y-92329974D01*
X106447048Y-92332068D01*
X106454136Y-92333823D01*
X106461364Y-92335238D01*
X106468731Y-92336313D01*
X106476237Y-92337049D01*
X106483883Y-92337445D01*
X106489057Y-92337521D01*
X106496798Y-92337351D01*
X106504405Y-92336842D01*
X106511876Y-92335993D01*
X106519213Y-92334804D01*
X106526416Y-92333276D01*
X106533484Y-92331408D01*
X106540417Y-92329201D01*
X106547215Y-92326654D01*
X106553880Y-92323767D01*
X106560409Y-92320541D01*
X106564687Y-92318201D01*
X106570996Y-92314419D01*
X106577128Y-92310381D01*
X106583083Y-92306088D01*
X106588861Y-92301540D01*
X106594462Y-92296736D01*
X106599885Y-92291676D01*
X106605132Y-92286361D01*
X106610201Y-92280791D01*
X106615093Y-92274965D01*
X106619809Y-92268884D01*
X106622854Y-92264688D01*
X106627292Y-92258165D01*
X106631539Y-92251420D01*
X106635594Y-92244453D01*
X106639459Y-92237263D01*
X106643132Y-92229851D01*
X106646613Y-92222216D01*
X106649904Y-92214359D01*
X106653003Y-92206280D01*
X106655911Y-92197978D01*
X106658628Y-92189454D01*
X106660333Y-92183648D01*
X106662709Y-92174756D01*
X106664852Y-92165710D01*
X106666761Y-92156511D01*
X106668437Y-92147159D01*
X106669878Y-92137654D01*
X106671086Y-92127995D01*
X106672060Y-92118183D01*
X106672801Y-92108218D01*
X106673307Y-92098100D01*
X106673580Y-92087828D01*
X106673632Y-92080895D01*
X106673515Y-92071243D01*
X106673164Y-92061715D01*
X106672580Y-92052310D01*
X106671762Y-92043028D01*
X106670710Y-92033869D01*
X106669424Y-92024833D01*
X106667904Y-92015921D01*
X106666151Y-92007132D01*
X106664164Y-91998466D01*
X106661943Y-91989923D01*
X106660333Y-91984297D01*
X106657744Y-91975966D01*
X106654963Y-91967838D01*
X106651991Y-91959910D01*
X106648828Y-91952184D01*
X106645474Y-91944659D01*
X106641928Y-91937335D01*
X106638192Y-91930213D01*
X106634264Y-91923293D01*
X106630144Y-91916573D01*
X106625834Y-91910055D01*
X106622854Y-91905822D01*
X106618257Y-91899636D01*
X106613482Y-91893708D01*
X106608531Y-91888039D01*
X106603403Y-91882628D01*
X106598097Y-91877476D01*
X106592614Y-91872583D01*
X106586955Y-91867947D01*
X106581118Y-91863571D01*
X106575104Y-91859452D01*
X106568913Y-91855592D01*
X106564687Y-91853163D01*
X106558247Y-91849771D01*
X106551673Y-91846713D01*
X106544964Y-91843989D01*
X106538121Y-91841598D01*
X106531143Y-91839541D01*
X106524030Y-91837818D01*
X106516782Y-91836428D01*
X106509401Y-91835371D01*
X106501884Y-91834648D01*
X106494233Y-91834259D01*
X106489057Y-91834185D01*
X106481319Y-91834352D01*
X106473720Y-91834852D01*
X106466260Y-91835686D01*
X106458939Y-91836854D01*
X106451758Y-91838355D01*
X106444716Y-91840190D01*
X106437814Y-91842358D01*
X106431051Y-91844860D01*
X106424427Y-91847696D01*
X106417942Y-91850865D01*
X106413696Y-91853163D01*
X106407482Y-91856850D01*
X106401433Y-91860796D01*
X106395549Y-91865001D01*
X106389831Y-91869464D01*
X106384278Y-91874185D01*
X106378890Y-91879165D01*
X106373668Y-91884403D01*
X106368611Y-91889900D01*
X106363719Y-91895655D01*
X106358992Y-91901669D01*
X106355933Y-91905822D01*
X106351519Y-91912205D01*
X106347294Y-91918791D01*
X106343257Y-91925577D01*
X106339410Y-91932565D01*
X106335751Y-91939754D01*
X106332282Y-91947145D01*
X106329001Y-91954737D01*
X106325909Y-91962530D01*
X106323006Y-91970525D01*
X106320292Y-91978721D01*
X106318588Y-91984297D01*
X106316211Y-91992757D01*
X106314069Y-92001341D01*
X106312159Y-92010048D01*
X106310484Y-92018878D01*
X106309042Y-92027832D01*
X106307835Y-92036908D01*
X106306861Y-92046108D01*
X106306120Y-92055431D01*
X106305614Y-92064877D01*
X106305341Y-92074447D01*
X106305289Y-92080895D01*
X106194662Y-92080895D01*
X106194684Y-92078219D01*
X106194942Y-92067800D01*
X106195373Y-92057500D01*
X106195975Y-92047321D01*
X106196750Y-92037261D01*
X106197696Y-92027322D01*
X106198815Y-92017504D01*
X106200106Y-92007805D01*
X106201569Y-91998227D01*
X106203204Y-91988769D01*
X106205011Y-91979431D01*
X106206991Y-91970213D01*
X106209142Y-91961116D01*
X106211466Y-91952138D01*
X106213961Y-91943281D01*
X106216629Y-91934545D01*
X106219448Y-91925927D01*
X106222399Y-91917469D01*
X106225481Y-91909171D01*
X106228694Y-91901034D01*
X106232038Y-91893058D01*
X106235513Y-91885241D01*
X106239120Y-91877585D01*
X106242858Y-91870089D01*
X106246726Y-91862753D01*
X106250727Y-91855578D01*
X106254858Y-91848563D01*
X106259120Y-91841708D01*
X106263514Y-91835013D01*
X106268039Y-91828479D01*
X106272695Y-91822105D01*
X106277482Y-91815891D01*
X106282409Y-91809846D01*
X106287452Y-91803977D01*
X106292610Y-91798284D01*
X106297884Y-91792768D01*
X106303273Y-91787428D01*
X106308778Y-91782264D01*
X106314398Y-91777276D01*
X106320133Y-91772465D01*
X106325984Y-91767830D01*
X106331950Y-91763371D01*
X106338032Y-91759089D01*
X106344229Y-91754983D01*
X106350542Y-91751054D01*
X106356970Y-91747300D01*
X106363513Y-91743723D01*
X106370172Y-91740323D01*
X106376946Y-91737114D01*
X106383801Y-91734112D01*
X106390736Y-91731317D01*
X106397753Y-91728729D01*
X106404850Y-91726348D01*
X106412028Y-91724174D01*
X106419286Y-91722207D01*
X106426626Y-91720447D01*
X106434046Y-91718895D01*
X106441547Y-91717549D01*
X106449129Y-91716410D01*
X106456792Y-91715479D01*
X106464536Y-91714754D01*
X106472360Y-91714236D01*
X106480265Y-91713926D01*
X106488251Y-91713822D01*
X106496336Y-91713798D01*
X106504336Y-91713980D01*
G37*
D12*
X94088333Y-87438345D02*
X94056429Y-87470250D01*
X94056429Y-87470250D02*
X93960714Y-87502154D01*
X93960714Y-87502154D02*
X93896905Y-87502154D01*
X93896905Y-87502154D02*
X93801191Y-87470250D01*
X93801191Y-87470250D02*
X93737381Y-87406440D01*
X93737381Y-87406440D02*
X93705476Y-87342630D01*
X93705476Y-87342630D02*
X93673572Y-87215011D01*
X93673572Y-87215011D02*
X93673572Y-87119297D01*
X93673572Y-87119297D02*
X93705476Y-86991678D01*
X93705476Y-86991678D02*
X93737381Y-86927869D01*
X93737381Y-86927869D02*
X93801191Y-86864059D01*
X93801191Y-86864059D02*
X93896905Y-86832154D01*
X93896905Y-86832154D02*
X93960714Y-86832154D01*
X93960714Y-86832154D02*
X94056429Y-86864059D01*
X94056429Y-86864059D02*
X94088333Y-86895964D01*
X94662619Y-87055488D02*
X94662619Y-87502154D01*
X94503095Y-86800250D02*
X94343572Y-87278821D01*
X94343572Y-87278821D02*
X94758333Y-87278821D01*
D15*
X94984809Y-102363333D02*
X94984809Y-102601428D01*
X94984809Y-102601428D02*
X94484809Y-102601428D01*
X94984809Y-101934761D02*
X94984809Y-102220475D01*
X94984809Y-102077618D02*
X94484809Y-102077618D01*
X94484809Y-102077618D02*
X94556238Y-102125237D01*
X94556238Y-102125237D02*
X94603857Y-102172856D01*
X94603857Y-102172856D02*
X94627666Y-102220475D01*
D12*
X94083333Y-83129366D02*
X94050000Y-83162700D01*
X94050000Y-83162700D02*
X93950000Y-83196033D01*
X93950000Y-83196033D02*
X93883333Y-83196033D01*
X93883333Y-83196033D02*
X93783333Y-83162700D01*
X93783333Y-83162700D02*
X93716667Y-83096033D01*
X93716667Y-83096033D02*
X93683333Y-83029366D01*
X93683333Y-83029366D02*
X93650000Y-82896033D01*
X93650000Y-82896033D02*
X93650000Y-82796033D01*
X93650000Y-82796033D02*
X93683333Y-82662700D01*
X93683333Y-82662700D02*
X93716667Y-82596033D01*
X93716667Y-82596033D02*
X93783333Y-82529366D01*
X93783333Y-82529366D02*
X93883333Y-82496033D01*
X93883333Y-82496033D02*
X93950000Y-82496033D01*
X93950000Y-82496033D02*
X94050000Y-82529366D01*
X94050000Y-82529366D02*
X94083333Y-82562700D01*
X94716667Y-82496033D02*
X94383333Y-82496033D01*
X94383333Y-82496033D02*
X94350000Y-82829366D01*
X94350000Y-82829366D02*
X94383333Y-82796033D01*
X94383333Y-82796033D02*
X94450000Y-82762700D01*
X94450000Y-82762700D02*
X94616667Y-82762700D01*
X94616667Y-82762700D02*
X94683333Y-82796033D01*
X94683333Y-82796033D02*
X94716667Y-82829366D01*
X94716667Y-82829366D02*
X94750000Y-82896033D01*
X94750000Y-82896033D02*
X94750000Y-83062700D01*
X94750000Y-83062700D02*
X94716667Y-83129366D01*
X94716667Y-83129366D02*
X94683333Y-83162700D01*
X94683333Y-83162700D02*
X94616667Y-83196033D01*
X94616667Y-83196033D02*
X94450000Y-83196033D01*
X94450000Y-83196033D02*
X94383333Y-83162700D01*
X94383333Y-83162700D02*
X94350000Y-83129366D01*
X93429819Y-99281904D02*
X94239342Y-99281904D01*
X94239342Y-99281904D02*
X94334580Y-99234285D01*
X94334580Y-99234285D02*
X94382200Y-99186666D01*
X94382200Y-99186666D02*
X94429819Y-99091428D01*
X94429819Y-99091428D02*
X94429819Y-98900952D01*
X94429819Y-98900952D02*
X94382200Y-98805714D01*
X94382200Y-98805714D02*
X94334580Y-98758095D01*
X94334580Y-98758095D02*
X94239342Y-98710476D01*
X94239342Y-98710476D02*
X93429819Y-98710476D01*
X94429819Y-97710476D02*
X94429819Y-98281904D01*
X94429819Y-97996190D02*
X93429819Y-97996190D01*
X93429819Y-97996190D02*
X93572676Y-98091428D01*
X93572676Y-98091428D02*
X93667914Y-98186666D01*
X93667914Y-98186666D02*
X93715533Y-98281904D01*
X104995200Y-94644166D02*
X104961866Y-94710833D01*
X104961866Y-94710833D02*
X104895200Y-94777500D01*
X104895200Y-94777500D02*
X104795200Y-94877500D01*
X104795200Y-94877500D02*
X104761866Y-94944166D01*
X104761866Y-94944166D02*
X104761866Y-95010833D01*
X104928533Y-94977500D02*
X104895200Y-95044166D01*
X104895200Y-95044166D02*
X104828533Y-95110833D01*
X104828533Y-95110833D02*
X104695200Y-95144166D01*
X104695200Y-95144166D02*
X104461866Y-95144166D01*
X104461866Y-95144166D02*
X104328533Y-95110833D01*
X104328533Y-95110833D02*
X104261866Y-95044166D01*
X104261866Y-95044166D02*
X104228533Y-94977500D01*
X104228533Y-94977500D02*
X104228533Y-94844166D01*
X104228533Y-94844166D02*
X104261866Y-94777500D01*
X104261866Y-94777500D02*
X104328533Y-94710833D01*
X104328533Y-94710833D02*
X104461866Y-94677500D01*
X104461866Y-94677500D02*
X104695200Y-94677500D01*
X104695200Y-94677500D02*
X104828533Y-94710833D01*
X104828533Y-94710833D02*
X104895200Y-94777500D01*
X104895200Y-94777500D02*
X104928533Y-94844166D01*
X104928533Y-94844166D02*
X104928533Y-94977500D01*
X104295200Y-94410833D02*
X104261866Y-94377500D01*
X104261866Y-94377500D02*
X104228533Y-94310833D01*
X104228533Y-94310833D02*
X104228533Y-94144167D01*
X104228533Y-94144167D02*
X104261866Y-94077500D01*
X104261866Y-94077500D02*
X104295200Y-94044167D01*
X104295200Y-94044167D02*
X104361866Y-94010833D01*
X104361866Y-94010833D02*
X104428533Y-94010833D01*
X104428533Y-94010833D02*
X104528533Y-94044167D01*
X104528533Y-94044167D02*
X104928533Y-94444167D01*
X104928533Y-94444167D02*
X104928533Y-94010833D01*
X105285476Y-77102154D02*
X105285476Y-76432154D01*
X105285476Y-76432154D02*
X105445000Y-76432154D01*
X105445000Y-76432154D02*
X105540714Y-76464059D01*
X105540714Y-76464059D02*
X105604524Y-76527869D01*
X105604524Y-76527869D02*
X105636429Y-76591678D01*
X105636429Y-76591678D02*
X105668333Y-76719297D01*
X105668333Y-76719297D02*
X105668333Y-76815011D01*
X105668333Y-76815011D02*
X105636429Y-76942630D01*
X105636429Y-76942630D02*
X105604524Y-77006440D01*
X105604524Y-77006440D02*
X105540714Y-77070250D01*
X105540714Y-77070250D02*
X105445000Y-77102154D01*
X105445000Y-77102154D02*
X105285476Y-77102154D01*
X105923572Y-76495964D02*
X105955476Y-76464059D01*
X105955476Y-76464059D02*
X106019286Y-76432154D01*
X106019286Y-76432154D02*
X106178810Y-76432154D01*
X106178810Y-76432154D02*
X106242619Y-76464059D01*
X106242619Y-76464059D02*
X106274524Y-76495964D01*
X106274524Y-76495964D02*
X106306429Y-76559773D01*
X106306429Y-76559773D02*
X106306429Y-76623583D01*
X106306429Y-76623583D02*
X106274524Y-76719297D01*
X106274524Y-76719297D02*
X105891667Y-77102154D01*
X105891667Y-77102154D02*
X106306429Y-77102154D01*
X105593333Y-71719366D02*
X105560000Y-71752700D01*
X105560000Y-71752700D02*
X105460000Y-71786033D01*
X105460000Y-71786033D02*
X105393333Y-71786033D01*
X105393333Y-71786033D02*
X105293333Y-71752700D01*
X105293333Y-71752700D02*
X105226667Y-71686033D01*
X105226667Y-71686033D02*
X105193333Y-71619366D01*
X105193333Y-71619366D02*
X105160000Y-71486033D01*
X105160000Y-71486033D02*
X105160000Y-71386033D01*
X105160000Y-71386033D02*
X105193333Y-71252700D01*
X105193333Y-71252700D02*
X105226667Y-71186033D01*
X105226667Y-71186033D02*
X105293333Y-71119366D01*
X105293333Y-71119366D02*
X105393333Y-71086033D01*
X105393333Y-71086033D02*
X105460000Y-71086033D01*
X105460000Y-71086033D02*
X105560000Y-71119366D01*
X105560000Y-71119366D02*
X105593333Y-71152700D01*
X105860000Y-71152700D02*
X105893333Y-71119366D01*
X105893333Y-71119366D02*
X105960000Y-71086033D01*
X105960000Y-71086033D02*
X106126667Y-71086033D01*
X106126667Y-71086033D02*
X106193333Y-71119366D01*
X106193333Y-71119366D02*
X106226667Y-71152700D01*
X106226667Y-71152700D02*
X106260000Y-71219366D01*
X106260000Y-71219366D02*
X106260000Y-71286033D01*
X106260000Y-71286033D02*
X106226667Y-71386033D01*
X106226667Y-71386033D02*
X105826667Y-71786033D01*
X105826667Y-71786033D02*
X106260000Y-71786033D01*
X93623333Y-75216033D02*
X93623333Y-74516033D01*
X93623333Y-74516033D02*
X93790000Y-74516033D01*
X93790000Y-74516033D02*
X93890000Y-74549366D01*
X93890000Y-74549366D02*
X93956667Y-74616033D01*
X93956667Y-74616033D02*
X93990000Y-74682700D01*
X93990000Y-74682700D02*
X94023333Y-74816033D01*
X94023333Y-74816033D02*
X94023333Y-74916033D01*
X94023333Y-74916033D02*
X93990000Y-75049366D01*
X93990000Y-75049366D02*
X93956667Y-75116033D01*
X93956667Y-75116033D02*
X93890000Y-75182700D01*
X93890000Y-75182700D02*
X93790000Y-75216033D01*
X93790000Y-75216033D02*
X93623333Y-75216033D01*
X94356667Y-75216033D02*
X94490000Y-75216033D01*
X94490000Y-75216033D02*
X94556667Y-75182700D01*
X94556667Y-75182700D02*
X94590000Y-75149366D01*
X94590000Y-75149366D02*
X94656667Y-75049366D01*
X94656667Y-75049366D02*
X94690000Y-74916033D01*
X94690000Y-74916033D02*
X94690000Y-74649366D01*
X94690000Y-74649366D02*
X94656667Y-74582700D01*
X94656667Y-74582700D02*
X94623333Y-74549366D01*
X94623333Y-74549366D02*
X94556667Y-74516033D01*
X94556667Y-74516033D02*
X94423333Y-74516033D01*
X94423333Y-74516033D02*
X94356667Y-74549366D01*
X94356667Y-74549366D02*
X94323333Y-74582700D01*
X94323333Y-74582700D02*
X94290000Y-74649366D01*
X94290000Y-74649366D02*
X94290000Y-74816033D01*
X94290000Y-74816033D02*
X94323333Y-74882700D01*
X94323333Y-74882700D02*
X94356667Y-74916033D01*
X94356667Y-74916033D02*
X94423333Y-74949366D01*
X94423333Y-74949366D02*
X94556667Y-74949366D01*
X94556667Y-74949366D02*
X94623333Y-74916033D01*
X94623333Y-74916033D02*
X94656667Y-74882700D01*
X94656667Y-74882700D02*
X94690000Y-74816033D01*
X105285476Y-80332154D02*
X105285476Y-79662154D01*
X105285476Y-79662154D02*
X105445000Y-79662154D01*
X105445000Y-79662154D02*
X105540714Y-79694059D01*
X105540714Y-79694059D02*
X105604524Y-79757869D01*
X105604524Y-79757869D02*
X105636429Y-79821678D01*
X105636429Y-79821678D02*
X105668333Y-79949297D01*
X105668333Y-79949297D02*
X105668333Y-80045011D01*
X105668333Y-80045011D02*
X105636429Y-80172630D01*
X105636429Y-80172630D02*
X105604524Y-80236440D01*
X105604524Y-80236440D02*
X105540714Y-80300250D01*
X105540714Y-80300250D02*
X105445000Y-80332154D01*
X105445000Y-80332154D02*
X105285476Y-80332154D01*
X106306429Y-80332154D02*
X105923572Y-80332154D01*
X106115000Y-80332154D02*
X106115000Y-79662154D01*
X106115000Y-79662154D02*
X106051191Y-79757869D01*
X106051191Y-79757869D02*
X105987381Y-79821678D01*
X105987381Y-79821678D02*
X105923572Y-79853583D01*
X94098333Y-78898345D02*
X94066429Y-78930250D01*
X94066429Y-78930250D02*
X93970714Y-78962154D01*
X93970714Y-78962154D02*
X93906905Y-78962154D01*
X93906905Y-78962154D02*
X93811191Y-78930250D01*
X93811191Y-78930250D02*
X93747381Y-78866440D01*
X93747381Y-78866440D02*
X93715476Y-78802630D01*
X93715476Y-78802630D02*
X93683572Y-78675011D01*
X93683572Y-78675011D02*
X93683572Y-78579297D01*
X93683572Y-78579297D02*
X93715476Y-78451678D01*
X93715476Y-78451678D02*
X93747381Y-78387869D01*
X93747381Y-78387869D02*
X93811191Y-78324059D01*
X93811191Y-78324059D02*
X93906905Y-78292154D01*
X93906905Y-78292154D02*
X93970714Y-78292154D01*
X93970714Y-78292154D02*
X94066429Y-78324059D01*
X94066429Y-78324059D02*
X94098333Y-78355964D01*
X94417381Y-78962154D02*
X94545000Y-78962154D01*
X94545000Y-78962154D02*
X94608810Y-78930250D01*
X94608810Y-78930250D02*
X94640714Y-78898345D01*
X94640714Y-78898345D02*
X94704524Y-78802630D01*
X94704524Y-78802630D02*
X94736429Y-78675011D01*
X94736429Y-78675011D02*
X94736429Y-78419773D01*
X94736429Y-78419773D02*
X94704524Y-78355964D01*
X94704524Y-78355964D02*
X94672619Y-78324059D01*
X94672619Y-78324059D02*
X94608810Y-78292154D01*
X94608810Y-78292154D02*
X94481191Y-78292154D01*
X94481191Y-78292154D02*
X94417381Y-78324059D01*
X94417381Y-78324059D02*
X94385476Y-78355964D01*
X94385476Y-78355964D02*
X94353572Y-78419773D01*
X94353572Y-78419773D02*
X94353572Y-78579297D01*
X94353572Y-78579297D02*
X94385476Y-78643107D01*
X94385476Y-78643107D02*
X94417381Y-78675011D01*
X94417381Y-78675011D02*
X94481191Y-78706916D01*
X94481191Y-78706916D02*
X94608810Y-78706916D01*
X94608810Y-78706916D02*
X94672619Y-78675011D01*
X94672619Y-78675011D02*
X94704524Y-78643107D01*
X94704524Y-78643107D02*
X94736429Y-78579297D01*
D16*
%TO.C,D4*%
X105200000Y-84760000D02*
X106400000Y-84760000D01*
X105200000Y-82800000D02*
X105200000Y-84760000D01*
X106400000Y-82800000D02*
X106400000Y-84760000D01*
%TO.C,D8*%
X95050000Y-69890000D02*
X93350000Y-69890000D01*
X95050000Y-69890000D02*
X95050000Y-72550000D01*
X93350000Y-69890000D02*
X93350000Y-72550000D01*
%TO.C,C8*%
X101240000Y-103507836D02*
X101240000Y-103292164D01*
X101960000Y-103507836D02*
X101960000Y-103292164D01*
%TO.C,C7*%
X98410000Y-94288748D02*
X98410000Y-95711252D01*
X96590000Y-94288748D02*
X96590000Y-95711252D01*
%TO.C,R4*%
X97026359Y-102200000D02*
X97333641Y-102200000D01*
X97026359Y-102960000D02*
X97333641Y-102960000D01*
%TO.C,Q1*%
X96050000Y-106322500D02*
X96850000Y-106322500D01*
X96050000Y-106322500D02*
X95250000Y-106322500D01*
X97590000Y-106602500D02*
X97110000Y-106602500D01*
X97350000Y-106272500D01*
X97590000Y-106602500D01*
G36*
X97590000Y-106602500D02*
G01*
X97110000Y-106602500D01*
X97350000Y-106272500D01*
X97590000Y-106602500D01*
G37*
%TO.C,R6*%
X105527500Y-100762258D02*
X105527500Y-100287742D01*
X106572500Y-100762258D02*
X106572500Y-100287742D01*
%TO.C,Q3*%
X102920000Y-98562500D02*
X103720000Y-98562500D01*
X102920000Y-98562500D02*
X102120000Y-98562500D01*
X104460000Y-98842500D02*
X103980000Y-98842500D01*
X104220000Y-98512500D01*
X104460000Y-98842500D01*
G36*
X104460000Y-98842500D02*
G01*
X103980000Y-98842500D01*
X104220000Y-98512500D01*
X104460000Y-98842500D01*
G37*
%TO.C,Q4*%
X93090000Y-93250000D02*
X93090000Y-93900000D01*
X93090000Y-93250000D02*
X93090000Y-92600000D01*
X96210000Y-93250000D02*
X96210000Y-93900000D01*
X96210000Y-93250000D02*
X96210000Y-92600000D01*
X93140000Y-94412500D02*
X92810000Y-94652500D01*
X92810000Y-94172500D01*
X93140000Y-94412500D01*
G36*
X93140000Y-94412500D02*
G01*
X92810000Y-94652500D01*
X92810000Y-94172500D01*
X93140000Y-94412500D01*
G37*
%TO.C,C4*%
X94935000Y-86888748D02*
X94935000Y-87411252D01*
X93465000Y-86888748D02*
X93465000Y-87411252D01*
%TO.C,L1*%
X94872779Y-102840000D02*
X94547221Y-102840000D01*
X94872779Y-101820000D02*
X94547221Y-101820000D01*
%TO.C,R3*%
X98722500Y-100037742D02*
X98722500Y-100512258D01*
X97677500Y-100037742D02*
X97677500Y-100512258D01*
%TO.C,C5*%
X93465000Y-83111252D02*
X93465000Y-82588748D01*
X94935000Y-83111252D02*
X94935000Y-82588748D01*
%TO.C,R1*%
X94246359Y-90220000D02*
X94553641Y-90220000D01*
X94246359Y-90980000D02*
X94553641Y-90980000D01*
%TO.C,R2*%
X105920000Y-96723641D02*
X105920000Y-96416359D01*
X106680000Y-96723641D02*
X106680000Y-96416359D01*
%TO.C,U1*%
X96185000Y-98387500D02*
X96185000Y-96887500D01*
X96185000Y-98387500D02*
X96185000Y-99887500D01*
X92965000Y-98387500D02*
X92965000Y-96887500D01*
X92965000Y-98387500D02*
X92965000Y-99887500D01*
X96340000Y-96415000D02*
X96010000Y-96175000D01*
X96340000Y-95935000D01*
X96340000Y-96415000D01*
G36*
X96340000Y-96415000D02*
G01*
X96010000Y-96175000D01*
X96340000Y-95935000D01*
X96340000Y-96415000D01*
G37*
%TO.C,Q2*%
X104582500Y-95500000D02*
X105382500Y-95500000D01*
X104582500Y-95500000D02*
X103782500Y-95500000D01*
X106122500Y-95780000D02*
X105642500Y-95780000D01*
X105882500Y-95450000D01*
X106122500Y-95780000D01*
G36*
X106122500Y-95780000D02*
G01*
X105642500Y-95780000D01*
X105882500Y-95450000D01*
X106122500Y-95780000D01*
G37*
%TO.C,R7*%
X94246359Y-89020000D02*
X94553641Y-89020000D01*
X94246359Y-89780000D02*
X94553641Y-89780000D01*
%TO.C,D2*%
X104900000Y-78410000D02*
X106600000Y-78410000D01*
X104900000Y-78410000D02*
X104900000Y-75750000D01*
X106600000Y-78410000D02*
X106600000Y-75750000D01*
%TO.C,C2*%
X104690000Y-72111252D02*
X104690000Y-70688748D01*
X106510000Y-72111252D02*
X106510000Y-70688748D01*
%TO.C,D9*%
X93340000Y-76510000D02*
X95040000Y-76510000D01*
X93340000Y-76510000D02*
X93340000Y-73850000D01*
X95040000Y-76510000D02*
X95040000Y-73850000D01*
%TO.C,R5*%
X102332500Y-99962742D02*
X102332500Y-100437258D01*
X101287500Y-99962742D02*
X101287500Y-100437258D01*
%TO.C,U2*%
X102590000Y-102990000D02*
X102590000Y-102780000D01*
X102590000Y-105760000D02*
X102590000Y-105310000D01*
X103040000Y-102540000D02*
X102890000Y-102540000D01*
X103040000Y-105760000D02*
X102590000Y-105760000D01*
X105360000Y-102540000D02*
X105810000Y-102540000D01*
X105360000Y-105760000D02*
X105810000Y-105760000D01*
X105810000Y-102540000D02*
X105810000Y-102990000D01*
X105810000Y-105760000D02*
X105810000Y-105310000D01*
X102590000Y-102540000D02*
X102350000Y-102210000D01*
X102830000Y-102210000D01*
X102590000Y-102540000D01*
G36*
X102590000Y-102540000D02*
G01*
X102350000Y-102210000D01*
X102830000Y-102210000D01*
X102590000Y-102540000D01*
G37*
%TO.C,D1*%
X104900000Y-81910000D02*
X106600000Y-81910000D01*
X104900000Y-81910000D02*
X104900000Y-79250000D01*
X106600000Y-81910000D02*
X106600000Y-79250000D01*
%TO.C,C9*%
X94935000Y-78388748D02*
X94935000Y-78911252D01*
X93465000Y-78388748D02*
X93465000Y-78911252D01*
%TD*%
M02*
