%TF.GenerationSoftware,KiCad,Pcbnew,7.0.11*%
%TF.CreationDate,2026-04-20T08:28:50-05:00*%
%TF.ProjectId,lightsaber_necklace,6c696768-7473-4616-9265-725f6e65636b,rev?*%
%TF.SameCoordinates,Original*%
%TF.FileFunction,Copper,L3,Inr*%
%TF.FilePolarity,Positive*%
%FSLAX46Y46*%
G04 Gerber Fmt 4.6, Leading zero omitted, Abs format (unit mm)*
G04 Created by KiCad (PCBNEW 7.0.11) date 2026-04-20 08:28:50*
%MOMM*%
%LPD*%
G01*
G04 APERTURE LIST*
G04 Aperture macros list*
%AMRoundRect*
0 Rectangle with rounded corners*
0 $1 Rounding radius*
0 $2 $3 $4 $5 $6 $7 $8 $9 X,Y pos of 4 corners*
0 Add a 4 corners polygon primitive as box body*
4,1,4,$2,$3,$4,$5,$6,$7,$8,$9,$2,$3,0*
0 Add four circle primitives for the rounded corners*
1,1,$1+$1,$2,$3*
1,1,$1+$1,$4,$5*
1,1,$1+$1,$6,$7*
1,1,$1+$1,$8,$9*
0 Add four rect primitives between the rounded corners*
20,1,$1+$1,$2,$3,$4,$5,0*
20,1,$1+$1,$4,$5,$6,$7,0*
20,1,$1+$1,$6,$7,$8,$9,0*
20,1,$1+$1,$8,$9,$2,$3,0*%
G04 Aperture macros list end*
%TA.AperFunction,ComponentPad*%
%ADD10C,2.000000*%
%TD*%
%TA.AperFunction,ComponentPad*%
%ADD11RoundRect,0.525000X-3.225000X-0.525000X3.225000X-0.525000X3.225000X0.525000X-3.225000X0.525000X0*%
%TD*%
%TA.AperFunction,ComponentPad*%
%ADD12RoundRect,0.400000X0.100000X-0.100000X0.100000X0.100000X-0.100000X0.100000X-0.100000X-0.100000X0*%
%TD*%
%TA.AperFunction,ComponentPad*%
%ADD13O,1.000000X1.000000*%
%TD*%
%TA.AperFunction,ComponentPad*%
%ADD14C,1.000000*%
%TD*%
%TA.AperFunction,ComponentPad*%
%ADD15RoundRect,0.250000X-0.250000X-0.250000X0.250000X-0.250000X0.250000X0.250000X-0.250000X0.250000X0*%
%TD*%
%TA.AperFunction,ComponentPad*%
%ADD16C,3.750000*%
%TD*%
%TA.AperFunction,ComponentPad*%
%ADD17O,1.670000X1.500000*%
%TD*%
%TA.AperFunction,ComponentPad*%
%ADD18C,1.500000*%
%TD*%
%TA.AperFunction,ComponentPad*%
%ADD19C,1.480000*%
%TD*%
%TA.AperFunction,ComponentPad*%
%ADD20O,1.670000X1.450000*%
%TD*%
%TA.AperFunction,ComponentPad*%
%ADD21C,1.400000*%
%TD*%
%TA.AperFunction,ViaPad*%
%ADD22C,0.500000*%
%TD*%
%TA.AperFunction,ViaPad*%
%ADD23C,0.600000*%
%TD*%
%TA.AperFunction,Conductor*%
%ADD24C,0.800000*%
%TD*%
G04 APERTURE END LIST*
D10*
%TO.N,GND*%
%TO.C,J2*%
X100000000Y-100000000D03*
%TD*%
D11*
%TO.N,GND*%
%TO.C,SC1*%
X100000000Y-91437500D03*
%TD*%
D12*
%TO.N,/Vout*%
%TO.C,J4*%
X98800000Y-105400000D03*
D13*
%TO.N,UPDI*%
X100070000Y-105400000D03*
%TO.N,GND*%
X101340000Y-105400000D03*
%TD*%
D14*
%TO.N,GND*%
%TO.C,J3*%
X105600000Y-88625000D03*
D13*
X105600000Y-89895000D03*
D15*
%TO.N,/EN*%
X105600000Y-91165000D03*
%TD*%
D16*
%TO.N,Net-(C2-Pad2)*%
%TO.C,H1*%
X100000000Y-67200000D03*
%TD*%
D10*
%TO.N,GND*%
%TO.C,J1*%
X100000000Y-93800000D03*
%TD*%
D17*
%TO.N,supaCap*%
%TO.C,C6*%
X95580000Y-86300000D03*
D18*
%TO.N,GND*%
X105800000Y-86300000D03*
%TD*%
D17*
%TO.N,supaCap*%
%TO.C,C3*%
X95580000Y-74400000D03*
D19*
%TO.N,GND*%
X105800000Y-74400000D03*
%TD*%
D20*
%TO.N,supaCap*%
%TO.C,C1*%
X96020000Y-98200000D03*
D21*
%TO.N,GND*%
X105800000Y-98200000D03*
%TD*%
D22*
%TO.N,supaCap*%
X95700000Y-94900000D03*
X95400000Y-93350000D03*
X94200000Y-69950000D03*
X105950000Y-80600000D03*
%TO.N,GND*%
X96863868Y-95673430D03*
X103797708Y-103609240D03*
X94720000Y-101610000D03*
X96300000Y-104900000D03*
X94440000Y-87951847D03*
X96030000Y-105590000D03*
X106350000Y-101800000D03*
X98352588Y-95382588D03*
X104809437Y-104686219D03*
X94840000Y-82550000D03*
X104560000Y-92710000D03*
X94850000Y-80700000D03*
%TO.N,/VFb*%
X99030356Y-103821717D03*
X105119424Y-96626080D03*
X94850000Y-95337850D03*
X104000000Y-93900000D03*
X106350000Y-100250000D03*
%TO.N,combined_solars*%
X93900000Y-76650000D03*
X93890000Y-89400000D03*
X93700000Y-92900000D03*
%TO.N,LEDPOWA*%
X94610000Y-92800000D03*
X93700000Y-103600000D03*
D23*
%TO.N,Net-(D3-K)*%
X102820000Y-94845735D03*
D22*
%TO.N,UPDI*%
X104400000Y-101590000D03*
%TO.N,TURBO*%
X102796586Y-105180577D03*
X98262966Y-104568701D03*
%TO.N,FET4*%
X105250000Y-102700000D03*
X106350000Y-92580000D03*
%TO.N,FET2*%
X103636716Y-101627197D03*
X103894006Y-95639999D03*
%TO.N,FET1*%
X106350000Y-95300000D03*
X106000000Y-105350000D03*
%TO.N,/Vout*%
X94150000Y-97528558D03*
X105780000Y-96036340D03*
X96800000Y-94000000D03*
%TO.N,Net-(D5-K)*%
X96830000Y-94800000D03*
%TO.N,Net-(Q2B-D)*%
X102920000Y-98265000D03*
X102121942Y-94571474D03*
D23*
%TO.N,Net-(D6-K)*%
X99177350Y-101266452D03*
X101510958Y-95252501D03*
D22*
%TO.N,Net-(D7-K)*%
X102330000Y-101920000D03*
%TO.N,Net-(C2-Pad2)*%
X105150000Y-69300000D03*
D23*
%TO.N,/EN*%
X94600000Y-91057842D03*
%TD*%
D24*
%TO.N,GND*%
X100000000Y-91437500D02*
X100000000Y-93735176D01*
X100000000Y-93735176D02*
X98352588Y-95382588D01*
%TD*%
%TA.AperFunction,Conductor*%
%TO.N,GND*%
G36*
X97963443Y-65925881D02*
G01*
X98011112Y-65976964D01*
X98023597Y-66045709D01*
X98011504Y-66087439D01*
X97893212Y-66327313D01*
X97893200Y-66327340D01*
X97797322Y-66609786D01*
X97797318Y-66609801D01*
X97739129Y-66902339D01*
X97739127Y-66902351D01*
X97719618Y-67200000D01*
X97739127Y-67497648D01*
X97739129Y-67497660D01*
X97797318Y-67790198D01*
X97797322Y-67790213D01*
X97893200Y-68072659D01*
X97893209Y-68072680D01*
X98025131Y-68340192D01*
X98190852Y-68588210D01*
X98387525Y-68812474D01*
X98539085Y-68945388D01*
X98611791Y-69009149D01*
X98707335Y-69072989D01*
X98859807Y-69174868D01*
X99127319Y-69306790D01*
X99127324Y-69306792D01*
X99127336Y-69306798D01*
X99409794Y-69402680D01*
X99680781Y-69456582D01*
X99742691Y-69488967D01*
X99777265Y-69549682D01*
X99773526Y-69619452D01*
X99732660Y-69676124D01*
X99697545Y-69695240D01*
X99650479Y-69711709D01*
X99497737Y-69807684D01*
X99370184Y-69935237D01*
X99274211Y-70087976D01*
X99214631Y-70258245D01*
X99214630Y-70258250D01*
X99194435Y-70437496D01*
X99194435Y-70437503D01*
X99214630Y-70616749D01*
X99214631Y-70616754D01*
X99274211Y-70787023D01*
X99370184Y-70939762D01*
X99497738Y-71067316D01*
X99650478Y-71163289D01*
X99820745Y-71222868D01*
X99820750Y-71222869D01*
X99911246Y-71233065D01*
X99955040Y-71237999D01*
X99955043Y-71238000D01*
X99955046Y-71238000D01*
X100044957Y-71238000D01*
X100044958Y-71237999D01*
X100112104Y-71230434D01*
X100179249Y-71222869D01*
X100179252Y-71222868D01*
X100179255Y-71222868D01*
X100349522Y-71163289D01*
X100502262Y-71067316D01*
X100629816Y-70939762D01*
X100725789Y-70787022D01*
X100785368Y-70616755D01*
X100785369Y-70616749D01*
X100805565Y-70437503D01*
X100805565Y-70437496D01*
X100785369Y-70258250D01*
X100785368Y-70258245D01*
X100763289Y-70195146D01*
X100725789Y-70087978D01*
X100629816Y-69935238D01*
X100502262Y-69807684D01*
X100479181Y-69793181D01*
X100349520Y-69711709D01*
X100302454Y-69695240D01*
X100245679Y-69654518D01*
X100219932Y-69589565D01*
X100233389Y-69521003D01*
X100281776Y-69470601D01*
X100319215Y-69456583D01*
X100590206Y-69402680D01*
X100872664Y-69306798D01*
X101140191Y-69174869D01*
X101388209Y-69009149D01*
X101612474Y-68812474D01*
X101809149Y-68588209D01*
X101974869Y-68340191D01*
X102106798Y-68072664D01*
X102202680Y-67790206D01*
X102260873Y-67497650D01*
X102280382Y-67200000D01*
X102260873Y-66902350D01*
X102202680Y-66609794D01*
X102106798Y-66327336D01*
X102041865Y-66195665D01*
X101988495Y-66087440D01*
X101976499Y-66018608D01*
X102003620Y-65954217D01*
X102061249Y-65914711D01*
X102131087Y-65912632D01*
X102170541Y-65930820D01*
X102198121Y-65950016D01*
X102208042Y-65957695D01*
X102475164Y-66187011D01*
X102484268Y-66195665D01*
X102726817Y-66450827D01*
X102734999Y-66460358D01*
X102950485Y-66738742D01*
X102957661Y-66749052D01*
X103143884Y-67047820D01*
X103149980Y-67058802D01*
X103305021Y-67374874D01*
X103309974Y-67386417D01*
X103432237Y-67716538D01*
X103435998Y-67728523D01*
X103524243Y-68069343D01*
X103526771Y-68081647D01*
X103580079Y-68429626D01*
X103581350Y-68442122D01*
X103599341Y-68796864D01*
X103599500Y-68803145D01*
X103599500Y-68845763D01*
X103614314Y-68876526D01*
X103615407Y-68878795D01*
X103618245Y-68885140D01*
X103630022Y-68913572D01*
X103632822Y-68917762D01*
X103637751Y-68926393D01*
X103639210Y-68928222D01*
X103639211Y-68928223D01*
X103639212Y-68928224D01*
X103660747Y-68945398D01*
X103671105Y-68954655D01*
X103686426Y-68969976D01*
X103686428Y-68969977D01*
X103696581Y-68976761D01*
X103696500Y-68976881D01*
X103710692Y-68985253D01*
X103710767Y-68985289D01*
X103710768Y-68985289D01*
X103710769Y-68985290D01*
X103728701Y-68989382D01*
X103748554Y-68995710D01*
X103760118Y-69000500D01*
X103777410Y-69000500D01*
X104391121Y-69000500D01*
X104458160Y-69020185D01*
X104503915Y-69072989D01*
X104514217Y-69139447D01*
X104513763Y-69143180D01*
X104513763Y-69143182D01*
X104503272Y-69229584D01*
X104494722Y-69300000D01*
X104513762Y-69456818D01*
X104564107Y-69589565D01*
X104569780Y-69604523D01*
X104659517Y-69734530D01*
X104777760Y-69839283D01*
X104777762Y-69839284D01*
X104917634Y-69912696D01*
X105071014Y-69950500D01*
X105071015Y-69950500D01*
X105228985Y-69950500D01*
X105382365Y-69912696D01*
X105522240Y-69839283D01*
X105640483Y-69734530D01*
X105730220Y-69604523D01*
X105786237Y-69456818D01*
X105805278Y-69300000D01*
X105802876Y-69280221D01*
X105814335Y-69211301D01*
X105861238Y-69159514D01*
X105928694Y-69141306D01*
X105990760Y-69159548D01*
X106048506Y-69194935D01*
X106096725Y-69224484D01*
X106112466Y-69235920D01*
X106240753Y-69345486D01*
X106254513Y-69359246D01*
X106364079Y-69487533D01*
X106375515Y-69503274D01*
X106463661Y-69647115D01*
X106472495Y-69664452D01*
X106537057Y-69820317D01*
X106543070Y-69838823D01*
X106582453Y-70002866D01*
X106585497Y-70022084D01*
X106599118Y-70195146D01*
X106599500Y-70204875D01*
X106599500Y-73331572D01*
X106579815Y-73398611D01*
X106527011Y-73444366D01*
X106457853Y-73454310D01*
X106410223Y-73436999D01*
X106310322Y-73375143D01*
X106310316Y-73375140D01*
X106113314Y-73298822D01*
X105905635Y-73260000D01*
X105694365Y-73260000D01*
X105486685Y-73298822D01*
X105289684Y-73375140D01*
X105233926Y-73409663D01*
X105800000Y-73975736D01*
X105824264Y-74000000D01*
X105768519Y-74000000D01*
X105674852Y-74014835D01*
X105561955Y-74072359D01*
X105472359Y-74161955D01*
X105414835Y-74274852D01*
X105395014Y-74400000D01*
X105414835Y-74525148D01*
X105472359Y-74638045D01*
X105561955Y-74727641D01*
X105674852Y-74785165D01*
X105768519Y-74800000D01*
X105824262Y-74800000D01*
X105233927Y-75390335D01*
X105233927Y-75390336D01*
X105289677Y-75424856D01*
X105289681Y-75424858D01*
X105486685Y-75501177D01*
X105694365Y-75540000D01*
X105905635Y-75540000D01*
X106113314Y-75501177D01*
X106310316Y-75424859D01*
X106310316Y-75424858D01*
X106410222Y-75363000D01*
X106477583Y-75344444D01*
X106544282Y-75365252D01*
X106589144Y-75418817D01*
X106599500Y-75468427D01*
X106599500Y-80030830D01*
X106579815Y-80097869D01*
X106527011Y-80143624D01*
X106457853Y-80153568D01*
X106394297Y-80124543D01*
X106393274Y-80123646D01*
X106322240Y-80060717D01*
X106322238Y-80060715D01*
X106182365Y-79987303D01*
X106028986Y-79949500D01*
X106028985Y-79949500D01*
X105871015Y-79949500D01*
X105871014Y-79949500D01*
X105717634Y-79987303D01*
X105577762Y-80060715D01*
X105459516Y-80165471D01*
X105369781Y-80295475D01*
X105369780Y-80295476D01*
X105313762Y-80443181D01*
X105294722Y-80599999D01*
X105294722Y-80600000D01*
X105313762Y-80756818D01*
X105369780Y-80904523D01*
X105459517Y-81034530D01*
X105577760Y-81139283D01*
X105577762Y-81139284D01*
X105717634Y-81212696D01*
X105871014Y-81250500D01*
X105871015Y-81250500D01*
X106028985Y-81250500D01*
X106182365Y-81212696D01*
X106322237Y-81139285D01*
X106322238Y-81139283D01*
X106322240Y-81139283D01*
X106393275Y-81076351D01*
X106456506Y-81046632D01*
X106525770Y-81055816D01*
X106579073Y-81100988D01*
X106599493Y-81167807D01*
X106599500Y-81169169D01*
X106599500Y-85219810D01*
X106579815Y-85286849D01*
X106527011Y-85332604D01*
X106457853Y-85342548D01*
X106410223Y-85325238D01*
X106314789Y-85266149D01*
X106116063Y-85189163D01*
X106116058Y-85189162D01*
X105906561Y-85150000D01*
X105693439Y-85150000D01*
X105483941Y-85189162D01*
X105483940Y-85189162D01*
X105285206Y-85266151D01*
X105285202Y-85266153D01*
X105226662Y-85302398D01*
X105226662Y-85302399D01*
X105800000Y-85875736D01*
X105824264Y-85900000D01*
X105768519Y-85900000D01*
X105674852Y-85914835D01*
X105561955Y-85972359D01*
X105472359Y-86061955D01*
X105414835Y-86174852D01*
X105395014Y-86300000D01*
X105414835Y-86425148D01*
X105472359Y-86538045D01*
X105561955Y-86627641D01*
X105674852Y-86685165D01*
X105768519Y-86700000D01*
X105824262Y-86700000D01*
X105226662Y-87297599D01*
X105285204Y-87333847D01*
X105285208Y-87333849D01*
X105483936Y-87410836D01*
X105483941Y-87410837D01*
X105693439Y-87450000D01*
X105906561Y-87450000D01*
X106116058Y-87410837D01*
X106116063Y-87410836D01*
X106314789Y-87333850D01*
X106314798Y-87333846D01*
X106410223Y-87274762D01*
X106477583Y-87256207D01*
X106544283Y-87277015D01*
X106589144Y-87330580D01*
X106599500Y-87380189D01*
X106599500Y-88118135D01*
X106579815Y-88185174D01*
X106527011Y-88230929D01*
X106459315Y-88241074D01*
X106414135Y-88235126D01*
X105900991Y-88748270D01*
X105925000Y-88682306D01*
X105925000Y-88567694D01*
X105885801Y-88459993D01*
X105812129Y-88372195D01*
X105712871Y-88314888D01*
X105628436Y-88300000D01*
X105571564Y-88300000D01*
X105487129Y-88314888D01*
X105387871Y-88372195D01*
X105314199Y-88459993D01*
X105275000Y-88567694D01*
X105275000Y-88682306D01*
X105299009Y-88748273D01*
X104785863Y-88235127D01*
X104773281Y-88256921D01*
X104714819Y-88436846D01*
X104695043Y-88625000D01*
X104714819Y-88813154D01*
X104773278Y-88993072D01*
X104773283Y-88993084D01*
X104867870Y-89156915D01*
X104867872Y-89156918D01*
X104885980Y-89177029D01*
X104916209Y-89240020D01*
X104907583Y-89309356D01*
X104885980Y-89342971D01*
X104867872Y-89363081D01*
X104867870Y-89363084D01*
X104773283Y-89526915D01*
X104773279Y-89526924D01*
X104751160Y-89595000D01*
X105469615Y-89595000D01*
X105387871Y-89642195D01*
X105314199Y-89729993D01*
X105275000Y-89837694D01*
X105275000Y-89952306D01*
X105314199Y-90060007D01*
X105387871Y-90147805D01*
X105469615Y-90195000D01*
X104751160Y-90195000D01*
X104773279Y-90263075D01*
X104773280Y-90263076D01*
X104839406Y-90377612D01*
X104855877Y-90445512D01*
X104834982Y-90505883D01*
X104835890Y-90506420D01*
X104833254Y-90510877D01*
X104833025Y-90511539D01*
X104832231Y-90512606D01*
X104748255Y-90654603D01*
X104748254Y-90654606D01*
X104702402Y-90812426D01*
X104702401Y-90812432D01*
X104699500Y-90849298D01*
X104699500Y-91480701D01*
X104702401Y-91517567D01*
X104702402Y-91517573D01*
X104748254Y-91675393D01*
X104748255Y-91675396D01*
X104831917Y-91816862D01*
X104831923Y-91816870D01*
X104948129Y-91933076D01*
X104948133Y-91933079D01*
X104948135Y-91933081D01*
X105089602Y-92016744D01*
X105131224Y-92028836D01*
X105247426Y-92062597D01*
X105247429Y-92062597D01*
X105247431Y-92062598D01*
X105284306Y-92065500D01*
X105284314Y-92065500D01*
X105678454Y-92065500D01*
X105745493Y-92085185D01*
X105791248Y-92137989D01*
X105801192Y-92207147D01*
X105780505Y-92259939D01*
X105769780Y-92275476D01*
X105713762Y-92423181D01*
X105694722Y-92579999D01*
X105694722Y-92580000D01*
X105713762Y-92736818D01*
X105769780Y-92884523D01*
X105859517Y-93014530D01*
X105977760Y-93119283D01*
X105977762Y-93119284D01*
X106117634Y-93192696D01*
X106271014Y-93230500D01*
X106271015Y-93230500D01*
X106428983Y-93230500D01*
X106428985Y-93230500D01*
X106445826Y-93226349D01*
X106515626Y-93229418D01*
X106572689Y-93269737D01*
X106598894Y-93334506D01*
X106599500Y-93346746D01*
X106599500Y-94533253D01*
X106579815Y-94600292D01*
X106527011Y-94646047D01*
X106457853Y-94655991D01*
X106445829Y-94653651D01*
X106428986Y-94649500D01*
X106428985Y-94649500D01*
X106271015Y-94649500D01*
X106271014Y-94649500D01*
X106117634Y-94687303D01*
X105977762Y-94760715D01*
X105977760Y-94760717D01*
X105881794Y-94845735D01*
X105859516Y-94865471D01*
X105769781Y-94995475D01*
X105769780Y-94995476D01*
X105713763Y-95143180D01*
X105694100Y-95305119D01*
X105666478Y-95369297D01*
X105608544Y-95408353D01*
X105600681Y-95410568D01*
X105547636Y-95423642D01*
X105547634Y-95423643D01*
X105407762Y-95497055D01*
X105289516Y-95601811D01*
X105199781Y-95731815D01*
X105199780Y-95731816D01*
X105143763Y-95879520D01*
X105143026Y-95882511D01*
X105141887Y-95884465D01*
X105141103Y-95886535D01*
X105140758Y-95886404D01*
X105107867Y-95942890D01*
X105047684Y-95973635D01*
X105047721Y-95973785D01*
X105047083Y-95973942D01*
X105045647Y-95974676D01*
X105041493Y-95975319D01*
X104887058Y-96013383D01*
X104747186Y-96086795D01*
X104628940Y-96191551D01*
X104539205Y-96321555D01*
X104539204Y-96321556D01*
X104483186Y-96469261D01*
X104464146Y-96626079D01*
X104464146Y-96626080D01*
X104483186Y-96782898D01*
X104494225Y-96812004D01*
X104539204Y-96930603D01*
X104628941Y-97060610D01*
X104747184Y-97165363D01*
X104747186Y-97165364D01*
X104887058Y-97238776D01*
X105040438Y-97276580D01*
X105040439Y-97276580D01*
X105198411Y-97276580D01*
X105198411Y-97276579D01*
X105209375Y-97273876D01*
X105212683Y-97273062D01*
X105282485Y-97276129D01*
X105330041Y-97305777D01*
X105824264Y-97800000D01*
X105768519Y-97800000D01*
X105674852Y-97814835D01*
X105561955Y-97872359D01*
X105472359Y-97961955D01*
X105414835Y-98074852D01*
X105395014Y-98200000D01*
X105414835Y-98325148D01*
X105472359Y-98438045D01*
X105561955Y-98527641D01*
X105674852Y-98585165D01*
X105768519Y-98600000D01*
X105824262Y-98600000D01*
X105262981Y-99161280D01*
X105262982Y-99161281D01*
X105307581Y-99188895D01*
X105307588Y-99188899D01*
X105497678Y-99262539D01*
X105698072Y-99300000D01*
X105901928Y-99300000D01*
X106102321Y-99262539D01*
X106292414Y-99188897D01*
X106410222Y-99115954D01*
X106477582Y-99097398D01*
X106544282Y-99118206D01*
X106589144Y-99171771D01*
X106599500Y-99221381D01*
X106599500Y-99483253D01*
X106579815Y-99550292D01*
X106527011Y-99596047D01*
X106457853Y-99605991D01*
X106445829Y-99603651D01*
X106428986Y-99599500D01*
X106428985Y-99599500D01*
X106271015Y-99599500D01*
X106271014Y-99599500D01*
X106117634Y-99637303D01*
X105977762Y-99710715D01*
X105859516Y-99815471D01*
X105769781Y-99945475D01*
X105769780Y-99945476D01*
X105713762Y-100093181D01*
X105694722Y-100249999D01*
X105694722Y-100250000D01*
X105713762Y-100406818D01*
X105752598Y-100509218D01*
X105769780Y-100554523D01*
X105859517Y-100684530D01*
X105977760Y-100789283D01*
X105977762Y-100789284D01*
X106117634Y-100862696D01*
X106271014Y-100900500D01*
X106271015Y-100900500D01*
X106428983Y-100900500D01*
X106428985Y-100900500D01*
X106445826Y-100896349D01*
X106515626Y-100899418D01*
X106572689Y-100939737D01*
X106598894Y-101004506D01*
X106599500Y-101016746D01*
X106599500Y-104736534D01*
X106579815Y-104803573D01*
X106527011Y-104849328D01*
X106457853Y-104859272D01*
X106394297Y-104830247D01*
X106393275Y-104829351D01*
X106372240Y-104810717D01*
X106372238Y-104810715D01*
X106232365Y-104737303D01*
X106078986Y-104699500D01*
X106078985Y-104699500D01*
X105921015Y-104699500D01*
X105921014Y-104699500D01*
X105767634Y-104737303D01*
X105627762Y-104810715D01*
X105509516Y-104915471D01*
X105419781Y-105045475D01*
X105419780Y-105045476D01*
X105363762Y-105193181D01*
X105344722Y-105349999D01*
X105344722Y-105350000D01*
X105363762Y-105506818D01*
X105409536Y-105627511D01*
X105419780Y-105654523D01*
X105509517Y-105784530D01*
X105627760Y-105889283D01*
X105627762Y-105889284D01*
X105709248Y-105932052D01*
X105759460Y-105980636D01*
X105775435Y-106048655D01*
X105752100Y-106114513D01*
X105696864Y-106157300D01*
X105680569Y-106162422D01*
X105597133Y-106182453D01*
X105577915Y-106185497D01*
X105404854Y-106199118D01*
X105395125Y-106199500D01*
X102109704Y-106199500D01*
X102042665Y-106179815D01*
X101996910Y-106127011D01*
X101986966Y-106057853D01*
X102015991Y-105994297D01*
X102017554Y-105992528D01*
X102072127Y-105931918D01*
X102072129Y-105931915D01*
X102166716Y-105768084D01*
X102166722Y-105768070D01*
X102177980Y-105733422D01*
X102217417Y-105675746D01*
X102281775Y-105648547D01*
X102350621Y-105660461D01*
X102378134Y-105678920D01*
X102407627Y-105705048D01*
X102424348Y-105719862D01*
X102564220Y-105793273D01*
X102717600Y-105831077D01*
X102717601Y-105831077D01*
X102875571Y-105831077D01*
X103028951Y-105793273D01*
X103076944Y-105768084D01*
X103168826Y-105719860D01*
X103287069Y-105615107D01*
X103376806Y-105485100D01*
X103432823Y-105337395D01*
X103451864Y-105180577D01*
X103440853Y-105089888D01*
X103432823Y-105023758D01*
X103391754Y-104915470D01*
X103376806Y-104876054D01*
X103287069Y-104746047D01*
X103168826Y-104641294D01*
X103168824Y-104641293D01*
X103168823Y-104641292D01*
X103028951Y-104567880D01*
X102875572Y-104530077D01*
X102875571Y-104530077D01*
X102717601Y-104530077D01*
X102717600Y-104530077D01*
X102564220Y-104567880D01*
X102424348Y-104641292D01*
X102306101Y-104746048D01*
X102246056Y-104833038D01*
X102191773Y-104877028D01*
X102122325Y-104884687D01*
X102059760Y-104853583D01*
X102051857Y-104845569D01*
X101945539Y-104727490D01*
X101945536Y-104727488D01*
X101792478Y-104616283D01*
X101640000Y-104548395D01*
X101640000Y-105274005D01*
X101625801Y-105234993D01*
X101552129Y-105147195D01*
X101452871Y-105089888D01*
X101368436Y-105075000D01*
X101311564Y-105075000D01*
X101227129Y-105089888D01*
X101127871Y-105147195D01*
X101054199Y-105234993D01*
X101040000Y-105274005D01*
X101040000Y-104548395D01*
X100887522Y-104616283D01*
X100887517Y-104616286D01*
X100778310Y-104695630D01*
X100712504Y-104719110D01*
X100644450Y-104703284D01*
X100632540Y-104695630D01*
X100522734Y-104615851D01*
X100522729Y-104615848D01*
X100349807Y-104538857D01*
X100349802Y-104538855D01*
X100204001Y-104507865D01*
X100164646Y-104499500D01*
X99975354Y-104499500D01*
X99942897Y-104506398D01*
X99790197Y-104538855D01*
X99790192Y-104538857D01*
X99617271Y-104615848D01*
X99545301Y-104668137D01*
X99479494Y-104691616D01*
X99411440Y-104675790D01*
X99406444Y-104672812D01*
X99316761Y-104616460D01*
X99270470Y-104564125D01*
X99259822Y-104495071D01*
X99288197Y-104431223D01*
X99325107Y-104401670D01*
X99338168Y-104394814D01*
X99402596Y-104361000D01*
X99520839Y-104256247D01*
X99610576Y-104126240D01*
X99666593Y-103978535D01*
X99670715Y-103944585D01*
X99698336Y-103880407D01*
X99756270Y-103841350D01*
X99815952Y-103837524D01*
X99861418Y-103845775D01*
X99887452Y-103850500D01*
X99887453Y-103850500D01*
X100056148Y-103850500D01*
X100056155Y-103850500D01*
X100224188Y-103835377D01*
X100224192Y-103835376D01*
X100441160Y-103775496D01*
X100441162Y-103775495D01*
X100441170Y-103775493D01*
X100643973Y-103677829D01*
X100826078Y-103545522D01*
X100981632Y-103382825D01*
X101105635Y-103194968D01*
X101131469Y-103134528D01*
X101194100Y-102987995D01*
X101194099Y-102987995D01*
X101194103Y-102987988D01*
X101244191Y-102768537D01*
X101254290Y-102543670D01*
X101224075Y-102320613D01*
X101154517Y-102106536D01*
X101128261Y-102057745D01*
X101054138Y-101920000D01*
X101674722Y-101920000D01*
X101693762Y-102076818D01*
X101730312Y-102173191D01*
X101749780Y-102224523D01*
X101839517Y-102354530D01*
X101957760Y-102459283D01*
X101957762Y-102459284D01*
X102097634Y-102532696D01*
X102251014Y-102570500D01*
X102251015Y-102570500D01*
X102408985Y-102570500D01*
X102562365Y-102532696D01*
X102702240Y-102459283D01*
X102820483Y-102354530D01*
X102910220Y-102224523D01*
X102952085Y-102114132D01*
X102994263Y-102058430D01*
X103059860Y-102034373D01*
X103128051Y-102049600D01*
X103150252Y-102065287D01*
X103205388Y-102114133D01*
X103264475Y-102166479D01*
X103264477Y-102166481D01*
X103404350Y-102239893D01*
X103557730Y-102277697D01*
X103557731Y-102277697D01*
X103715701Y-102277697D01*
X103869081Y-102239893D01*
X103996171Y-102173189D01*
X104064674Y-102159465D01*
X104111418Y-102173190D01*
X104167635Y-102202696D01*
X104205453Y-102212017D01*
X104321014Y-102240500D01*
X104321015Y-102240500D01*
X104478986Y-102240500D01*
X104478986Y-102240499D01*
X104524892Y-102229185D01*
X104594694Y-102232253D01*
X104651756Y-102272572D01*
X104677962Y-102337341D01*
X104670510Y-102393552D01*
X104613763Y-102543181D01*
X104594722Y-102699999D01*
X104594722Y-102700000D01*
X104613762Y-102856818D01*
X104653996Y-102962904D01*
X104669780Y-103004523D01*
X104759517Y-103134530D01*
X104877760Y-103239283D01*
X104877762Y-103239284D01*
X105017634Y-103312696D01*
X105171014Y-103350500D01*
X105171015Y-103350500D01*
X105328985Y-103350500D01*
X105482365Y-103312696D01*
X105622240Y-103239283D01*
X105740483Y-103134530D01*
X105830220Y-103004523D01*
X105886237Y-102856818D01*
X105905278Y-102700000D01*
X105886237Y-102543182D01*
X105882260Y-102532696D01*
X105854418Y-102459283D01*
X105830220Y-102395477D01*
X105740483Y-102265470D01*
X105622240Y-102160717D01*
X105622238Y-102160716D01*
X105622237Y-102160715D01*
X105482365Y-102087303D01*
X105328986Y-102049500D01*
X105328985Y-102049500D01*
X105171015Y-102049500D01*
X105171014Y-102049500D01*
X105125105Y-102060815D01*
X105055303Y-102057745D01*
X104998241Y-102017425D01*
X104972036Y-101952655D01*
X104979489Y-101896446D01*
X104980216Y-101894528D01*
X104980220Y-101894523D01*
X105036237Y-101746818D01*
X105055278Y-101590000D01*
X105046245Y-101515601D01*
X105036237Y-101433181D01*
X105006948Y-101355954D01*
X104980220Y-101285477D01*
X104890483Y-101155470D01*
X104772240Y-101050717D01*
X104772238Y-101050716D01*
X104772237Y-101050715D01*
X104632365Y-100977303D01*
X104478986Y-100939500D01*
X104478985Y-100939500D01*
X104462606Y-100939500D01*
X104395567Y-100919815D01*
X104349812Y-100867011D01*
X104339868Y-100797853D01*
X104347486Y-100769419D01*
X104410725Y-100611457D01*
X104450500Y-100405085D01*
X104450500Y-99647575D01*
X104435528Y-99490782D01*
X104376316Y-99289125D01*
X104280011Y-99102318D01*
X104280009Y-99102316D01*
X104280008Y-99102313D01*
X104150094Y-98937116D01*
X104150090Y-98937112D01*
X103991253Y-98799478D01*
X103809249Y-98694398D01*
X103809245Y-98694396D01*
X103809244Y-98694396D01*
X103737800Y-98669669D01*
X103614876Y-98627124D01*
X103557962Y-98586595D01*
X103531994Y-98521730D01*
X103539490Y-98465974D01*
X103556237Y-98421818D01*
X103575278Y-98265000D01*
X103567386Y-98200000D01*
X104695287Y-98200000D01*
X104714096Y-98402989D01*
X104714097Y-98402992D01*
X104769881Y-98599056D01*
X104769889Y-98599076D01*
X104838623Y-98737112D01*
X105375736Y-98200000D01*
X105375736Y-98199999D01*
X104838623Y-97662886D01*
X104769886Y-97800932D01*
X104769881Y-97800943D01*
X104714097Y-97997007D01*
X104714096Y-97997010D01*
X104695287Y-98199999D01*
X104695287Y-98200000D01*
X103567386Y-98200000D01*
X103560854Y-98146202D01*
X103556237Y-98108181D01*
X103510861Y-97988535D01*
X103500220Y-97960477D01*
X103410483Y-97830470D01*
X103292240Y-97725717D01*
X103292238Y-97725716D01*
X103292237Y-97725715D01*
X103152365Y-97652303D01*
X102998986Y-97614500D01*
X102998985Y-97614500D01*
X102841015Y-97614500D01*
X102841014Y-97614500D01*
X102687634Y-97652303D01*
X102547762Y-97725715D01*
X102547760Y-97725717D01*
X102429811Y-97830210D01*
X102429516Y-97830471D01*
X102339781Y-97960475D01*
X102339780Y-97960476D01*
X102283762Y-98108181D01*
X102264722Y-98264999D01*
X102264722Y-98265000D01*
X102283762Y-98421818D01*
X102339780Y-98569523D01*
X102429517Y-98699530D01*
X102525053Y-98784167D01*
X102562179Y-98843355D01*
X102561412Y-98913221D01*
X102532570Y-98962551D01*
X102481012Y-99016623D01*
X102367388Y-99193425D01*
X102289274Y-99388544D01*
X102253196Y-99575736D01*
X102249500Y-99594915D01*
X102249500Y-100352425D01*
X102264472Y-100509218D01*
X102323684Y-100710875D01*
X102373019Y-100806572D01*
X102419991Y-100897686D01*
X102549905Y-101062883D01*
X102553986Y-101067163D01*
X102553121Y-101067987D01*
X102587537Y-101121542D01*
X102587534Y-101191412D01*
X102549757Y-101250188D01*
X102486200Y-101279211D01*
X102438884Y-101276869D01*
X102408986Y-101269500D01*
X102408985Y-101269500D01*
X102251015Y-101269500D01*
X102251014Y-101269500D01*
X102097634Y-101307303D01*
X101957762Y-101380715D01*
X101839516Y-101485471D01*
X101749781Y-101615475D01*
X101749780Y-101615476D01*
X101693762Y-101763181D01*
X101674722Y-101919999D01*
X101674722Y-101920000D01*
X101054138Y-101920000D01*
X101047853Y-101908321D01*
X101047851Y-101908318D01*
X101038383Y-101896446D01*
X100999100Y-101847186D01*
X100907510Y-101732336D01*
X100737996Y-101584235D01*
X100737994Y-101584234D01*
X100581024Y-101490448D01*
X100533571Y-101439166D01*
X100521376Y-101370368D01*
X100548311Y-101305899D01*
X100585607Y-101274946D01*
X100757602Y-101181867D01*
X100757602Y-101181866D01*
X100115088Y-100539352D01*
X100149783Y-100534584D01*
X100288458Y-100474349D01*
X100405739Y-100378934D01*
X100492928Y-100255415D01*
X100541895Y-100117632D01*
X101179128Y-100754865D01*
X101235480Y-100668613D01*
X101235485Y-100668605D01*
X101328682Y-100456135D01*
X101385638Y-100231218D01*
X101404798Y-100000005D01*
X101404798Y-99999994D01*
X101385638Y-99768781D01*
X101328682Y-99543864D01*
X101235484Y-99331393D01*
X101179128Y-99245133D01*
X100538095Y-99886167D01*
X100523116Y-99814085D01*
X100453558Y-99679844D01*
X100350362Y-99569348D01*
X100221181Y-99490791D01*
X100114762Y-99460973D01*
X100757603Y-98818132D01*
X100757602Y-98818131D01*
X100564307Y-98713526D01*
X100564296Y-98713521D01*
X100342744Y-98637461D01*
X100285728Y-98597075D01*
X100259598Y-98532275D01*
X100272650Y-98463636D01*
X100320739Y-98412948D01*
X100350009Y-98400652D01*
X100441170Y-98375493D01*
X100643973Y-98277829D01*
X100826078Y-98145522D01*
X100981632Y-97982825D01*
X101105635Y-97794968D01*
X101135235Y-97725717D01*
X101194100Y-97587995D01*
X101194099Y-97587995D01*
X101194103Y-97587988D01*
X101244191Y-97368537D01*
X101254290Y-97143670D01*
X101224075Y-96920613D01*
X101154517Y-96706536D01*
X101144056Y-96687097D01*
X101047853Y-96508321D01*
X101047851Y-96508318D01*
X100907510Y-96332336D01*
X100902255Y-96327745D01*
X100737996Y-96184235D01*
X100544764Y-96068785D01*
X100426775Y-96024503D01*
X100334023Y-95989692D01*
X100112550Y-95949500D01*
X100112547Y-95949500D01*
X99943845Y-95949500D01*
X99905399Y-95952960D01*
X99775813Y-95964622D01*
X99775807Y-95964623D01*
X99558839Y-96024503D01*
X99558826Y-96024508D01*
X99356033Y-96122167D01*
X99356025Y-96122171D01*
X99173927Y-96254473D01*
X99173925Y-96254474D01*
X99018366Y-96417176D01*
X98894363Y-96605033D01*
X98805899Y-96812004D01*
X98805895Y-96812017D01*
X98755810Y-97031457D01*
X98755808Y-97031468D01*
X98748534Y-97193439D01*
X98745710Y-97256330D01*
X98775925Y-97479387D01*
X98775926Y-97479390D01*
X98845483Y-97693465D01*
X98952146Y-97891678D01*
X98952148Y-97891681D01*
X99092489Y-98067663D01*
X99092491Y-98067664D01*
X99092492Y-98067666D01*
X99262004Y-98215765D01*
X99455236Y-98331215D01*
X99654735Y-98406088D01*
X99710583Y-98448073D01*
X99734866Y-98513587D01*
X99719875Y-98581830D01*
X99670369Y-98631134D01*
X99651427Y-98639462D01*
X99435707Y-98713520D01*
X99435693Y-98713526D01*
X99242395Y-98818132D01*
X99884911Y-99460647D01*
X99850217Y-99465416D01*
X99711542Y-99525651D01*
X99594261Y-99621066D01*
X99507072Y-99744585D01*
X99458103Y-99882367D01*
X98820870Y-99245134D01*
X98764516Y-99331391D01*
X98764514Y-99331395D01*
X98671317Y-99543864D01*
X98614361Y-99768781D01*
X98595202Y-99999994D01*
X98595202Y-100000005D01*
X98614361Y-100231218D01*
X98671317Y-100456135D01*
X98736988Y-100605849D01*
X98745891Y-100675149D01*
X98715914Y-100738261D01*
X98705660Y-100748474D01*
X98649167Y-100798522D01*
X98649165Y-100798525D01*
X98552532Y-100938520D01*
X98492210Y-101097577D01*
X98492209Y-101097582D01*
X98471705Y-101266452D01*
X98492209Y-101435321D01*
X98492210Y-101435326D01*
X98552532Y-101594383D01*
X98614825Y-101684629D01*
X98649167Y-101734381D01*
X98754855Y-101828012D01*
X98776500Y-101847188D01*
X98826466Y-101873412D01*
X98876679Y-101921997D01*
X98892653Y-101990016D01*
X98882862Y-102031943D01*
X98805896Y-102212014D01*
X98805895Y-102212017D01*
X98755810Y-102431457D01*
X98755808Y-102431468D01*
X98745710Y-102656325D01*
X98745710Y-102656330D01*
X98775925Y-102879387D01*
X98775926Y-102879390D01*
X98838312Y-103071394D01*
X98840307Y-103141235D01*
X98804227Y-103201068D01*
X98778008Y-103219508D01*
X98658117Y-103282433D01*
X98539872Y-103387188D01*
X98450137Y-103517192D01*
X98450136Y-103517193D01*
X98394119Y-103664897D01*
X98376604Y-103809148D01*
X98348982Y-103873326D01*
X98291048Y-103912382D01*
X98253508Y-103918201D01*
X98183980Y-103918201D01*
X98030600Y-103956004D01*
X97890728Y-104029416D01*
X97772482Y-104134172D01*
X97682747Y-104264176D01*
X97682746Y-104264177D01*
X97626728Y-104411882D01*
X97607688Y-104568700D01*
X97607688Y-104568701D01*
X97626728Y-104725519D01*
X97659040Y-104810717D01*
X97682746Y-104873224D01*
X97772483Y-105003231D01*
X97865565Y-105085694D01*
X97902691Y-105144882D01*
X97906559Y-105192391D01*
X97899500Y-105255049D01*
X97899500Y-105544960D01*
X97914630Y-105679249D01*
X97914631Y-105679254D01*
X97974211Y-105849523D01*
X97999195Y-105889284D01*
X98056595Y-105980636D01*
X98073889Y-106008158D01*
X98071590Y-106009602D01*
X98093341Y-106062849D01*
X98080599Y-106131547D01*
X98032739Y-106182450D01*
X97969988Y-106199500D01*
X94604875Y-106199500D01*
X94595146Y-106199118D01*
X94422084Y-106185497D01*
X94402866Y-106182453D01*
X94238823Y-106143070D01*
X94220317Y-106137057D01*
X94064452Y-106072495D01*
X94047115Y-106063661D01*
X93903274Y-105975515D01*
X93887533Y-105964079D01*
X93759246Y-105854513D01*
X93745486Y-105840753D01*
X93635920Y-105712466D01*
X93624484Y-105696725D01*
X93536338Y-105552884D01*
X93527504Y-105535547D01*
X93495095Y-105457306D01*
X93462940Y-105379675D01*
X93456931Y-105361183D01*
X93417545Y-105197128D01*
X93414502Y-105177915D01*
X93412084Y-105147195D01*
X93400882Y-105004853D01*
X93400500Y-104995124D01*
X93400500Y-104354422D01*
X93420185Y-104287383D01*
X93472989Y-104241628D01*
X93542147Y-104231684D01*
X93554156Y-104234021D01*
X93621015Y-104250500D01*
X93621017Y-104250500D01*
X93778985Y-104250500D01*
X93932365Y-104212696D01*
X94072240Y-104139283D01*
X94190483Y-104034530D01*
X94280220Y-103904523D01*
X94336237Y-103756818D01*
X94355278Y-103600000D01*
X94345224Y-103517193D01*
X94336237Y-103443181D01*
X94286750Y-103312696D01*
X94280220Y-103295477D01*
X94190483Y-103165470D01*
X94072240Y-103060717D01*
X94072238Y-103060716D01*
X94072237Y-103060715D01*
X93932365Y-102987303D01*
X93778986Y-102949500D01*
X93778985Y-102949500D01*
X93621015Y-102949500D01*
X93621014Y-102949500D01*
X93554174Y-102965974D01*
X93484372Y-102962904D01*
X93427310Y-102922584D01*
X93401105Y-102857815D01*
X93400500Y-102845577D01*
X93400500Y-97985766D01*
X93420185Y-97918727D01*
X93472989Y-97872972D01*
X93542147Y-97863028D01*
X93605703Y-97892053D01*
X93626547Y-97915322D01*
X93659517Y-97963088D01*
X93777760Y-98067841D01*
X93777762Y-98067842D01*
X93917634Y-98141254D01*
X94071014Y-98179058D01*
X94071015Y-98179058D01*
X94228985Y-98179058D01*
X94382365Y-98141254D01*
X94445378Y-98108182D01*
X94522240Y-98067841D01*
X94578209Y-98018256D01*
X94641442Y-97988535D01*
X94710705Y-97997719D01*
X94764009Y-98042891D01*
X94784429Y-98109710D01*
X94783174Y-98128717D01*
X94780661Y-98146195D01*
X94780660Y-98146202D01*
X94790887Y-98360901D01*
X94841563Y-98569791D01*
X94841565Y-98569795D01*
X94907202Y-98713521D01*
X94930854Y-98765310D01*
X95053195Y-98937114D01*
X95055535Y-98940400D01*
X95055540Y-98940406D01*
X95211094Y-99088725D01*
X95211096Y-99088726D01*
X95211097Y-99088727D01*
X95391920Y-99204935D01*
X95591468Y-99284822D01*
X95669967Y-99299951D01*
X95732069Y-99331967D01*
X95767005Y-99392475D01*
X95763680Y-99462266D01*
X95761618Y-99467796D01*
X95709274Y-99598544D01*
X95676464Y-99768781D01*
X95669500Y-99804915D01*
X95669500Y-100562425D01*
X95684472Y-100719218D01*
X95743684Y-100920875D01*
X95793019Y-101016572D01*
X95839991Y-101107686D01*
X95969905Y-101272883D01*
X95969909Y-101272887D01*
X96128746Y-101410521D01*
X96310750Y-101515601D01*
X96310752Y-101515601D01*
X96310756Y-101515604D01*
X96509367Y-101584344D01*
X96717398Y-101614254D01*
X96927330Y-101604254D01*
X97131576Y-101554704D01*
X97217199Y-101515601D01*
X97322743Y-101467401D01*
X97322746Y-101467399D01*
X97322753Y-101467396D01*
X97493952Y-101345486D01*
X97530359Y-101307304D01*
X97638985Y-101193379D01*
X97640249Y-101191412D01*
X97752613Y-101016572D01*
X97830725Y-100821457D01*
X97870500Y-100615085D01*
X97870500Y-99857575D01*
X97855528Y-99700782D01*
X97796316Y-99499125D01*
X97700011Y-99312318D01*
X97700009Y-99312316D01*
X97700008Y-99312313D01*
X97570094Y-99147116D01*
X97570090Y-99147112D01*
X97411253Y-99009478D01*
X97229249Y-98904398D01*
X97229245Y-98904396D01*
X97229244Y-98904396D01*
X97199211Y-98894001D01*
X97142298Y-98853473D01*
X97116330Y-98788608D01*
X97129554Y-98720001D01*
X97132357Y-98714867D01*
X97158448Y-98669677D01*
X97228750Y-98466554D01*
X97259339Y-98253797D01*
X97249112Y-98039096D01*
X97198437Y-97830210D01*
X97109146Y-97634690D01*
X96984466Y-97459601D01*
X96984464Y-97459599D01*
X96984459Y-97459593D01*
X96828905Y-97311274D01*
X96648080Y-97195065D01*
X96448530Y-97115177D01*
X96237473Y-97074500D01*
X96237472Y-97074500D01*
X95856382Y-97074500D01*
X95696029Y-97089812D01*
X95696025Y-97089813D01*
X95489793Y-97150368D01*
X95298736Y-97248864D01*
X95129785Y-97381729D01*
X95129776Y-97381738D01*
X95012629Y-97516932D01*
X94953851Y-97554706D01*
X94883981Y-97554706D01*
X94825204Y-97516931D01*
X94796179Y-97453375D01*
X94795821Y-97450675D01*
X94786237Y-97371740D01*
X94730220Y-97224035D01*
X94640483Y-97094028D01*
X94522240Y-96989275D01*
X94522238Y-96989274D01*
X94522237Y-96989273D01*
X94382365Y-96915861D01*
X94228986Y-96878058D01*
X94228985Y-96878058D01*
X94071015Y-96878058D01*
X94071014Y-96878058D01*
X93917634Y-96915861D01*
X93777762Y-96989273D01*
X93659516Y-97094029D01*
X93626550Y-97141789D01*
X93572267Y-97185779D01*
X93502819Y-97193439D01*
X93440254Y-97162336D01*
X93404436Y-97102345D01*
X93400500Y-97071349D01*
X93400500Y-95337850D01*
X94194722Y-95337850D01*
X94213762Y-95494668D01*
X94254397Y-95601811D01*
X94269780Y-95642373D01*
X94359517Y-95772380D01*
X94477760Y-95877133D01*
X94477762Y-95877134D01*
X94617634Y-95950546D01*
X94771014Y-95988350D01*
X94771015Y-95988350D01*
X94928985Y-95988350D01*
X95082365Y-95950546D01*
X95154481Y-95912696D01*
X95222240Y-95877133D01*
X95340483Y-95772380D01*
X95430220Y-95642373D01*
X95439439Y-95618063D01*
X95481616Y-95562361D01*
X95547214Y-95538303D01*
X95585056Y-95541637D01*
X95621014Y-95550500D01*
X95621015Y-95550500D01*
X95778985Y-95550500D01*
X95932365Y-95512696D01*
X95947440Y-95504784D01*
X96072240Y-95439283D01*
X96190483Y-95334530D01*
X96210359Y-95305734D01*
X96264639Y-95261745D01*
X96334088Y-95254085D01*
X96394633Y-95283358D01*
X96419893Y-95305736D01*
X96457762Y-95339285D01*
X96597634Y-95412696D01*
X96751014Y-95450500D01*
X96751015Y-95450500D01*
X96908985Y-95450500D01*
X97062365Y-95412696D01*
X97202240Y-95339283D01*
X97320483Y-95234530D01*
X97410220Y-95104523D01*
X97466237Y-94956818D01*
X97485278Y-94800000D01*
X97466237Y-94643182D01*
X97410220Y-94495477D01*
X97377938Y-94448708D01*
X97356055Y-94382353D01*
X97373521Y-94314702D01*
X97377930Y-94307839D01*
X97380220Y-94304523D01*
X97436237Y-94156818D01*
X97455278Y-94000000D01*
X97436237Y-93843182D01*
X97434228Y-93837886D01*
X97398312Y-93743182D01*
X97380220Y-93695477D01*
X97290483Y-93565470D01*
X97172240Y-93460717D01*
X97172238Y-93460716D01*
X97172237Y-93460715D01*
X97032365Y-93387303D01*
X96878986Y-93349500D01*
X96878985Y-93349500D01*
X96721015Y-93349500D01*
X96721014Y-93349500D01*
X96567634Y-93387303D01*
X96427762Y-93460715D01*
X96309517Y-93565469D01*
X96233741Y-93675250D01*
X96187494Y-93712726D01*
X96188371Y-93714194D01*
X96186070Y-93784026D01*
X96184250Y-93789161D01*
X96163763Y-93843181D01*
X96144722Y-93999999D01*
X96144722Y-94000000D01*
X96163762Y-94156818D01*
X96167111Y-94165647D01*
X96172477Y-94235310D01*
X96139328Y-94296816D01*
X96078189Y-94330636D01*
X96008471Y-94326033D01*
X95993542Y-94319412D01*
X95932365Y-94287303D01*
X95778986Y-94249500D01*
X95778985Y-94249500D01*
X95621015Y-94249500D01*
X95621014Y-94249500D01*
X95467634Y-94287303D01*
X95327762Y-94360715D01*
X95209516Y-94465471D01*
X95119779Y-94595478D01*
X95110559Y-94619788D01*
X95068380Y-94675490D01*
X95002782Y-94699546D01*
X94964945Y-94696212D01*
X94928988Y-94687350D01*
X94928985Y-94687350D01*
X94771015Y-94687350D01*
X94771014Y-94687350D01*
X94617634Y-94725153D01*
X94477762Y-94798565D01*
X94359516Y-94903321D01*
X94269781Y-95033325D01*
X94269780Y-95033326D01*
X94213762Y-95181031D01*
X94194722Y-95337849D01*
X94194722Y-95337850D01*
X93400500Y-95337850D01*
X93400500Y-93654422D01*
X93420185Y-93587383D01*
X93472989Y-93541628D01*
X93542147Y-93531684D01*
X93554156Y-93534021D01*
X93621015Y-93550500D01*
X93621017Y-93550500D01*
X93778985Y-93550500D01*
X93932365Y-93512696D01*
X94072240Y-93439283D01*
X94140638Y-93378687D01*
X94203867Y-93348968D01*
X94273131Y-93358151D01*
X94280488Y-93361709D01*
X94377634Y-93412696D01*
X94531014Y-93450500D01*
X94656813Y-93450500D01*
X94723852Y-93470185D01*
X94769607Y-93522989D01*
X94772755Y-93530529D01*
X94786007Y-93565471D01*
X94819780Y-93654523D01*
X94909517Y-93784530D01*
X95027760Y-93889283D01*
X95027762Y-93889284D01*
X95167634Y-93962696D01*
X95321014Y-94000500D01*
X95321015Y-94000500D01*
X95478985Y-94000500D01*
X95632365Y-93962696D01*
X95639832Y-93958777D01*
X95772240Y-93889283D01*
X95890483Y-93784530D01*
X95966258Y-93674749D01*
X96012503Y-93637272D01*
X96011627Y-93635804D01*
X96013930Y-93565972D01*
X96015739Y-93560864D01*
X96036237Y-93506818D01*
X96055278Y-93350000D01*
X96047666Y-93287304D01*
X96036237Y-93193181D01*
X95993055Y-93079321D01*
X95980220Y-93045477D01*
X95890483Y-92915470D01*
X95772240Y-92810717D01*
X95772238Y-92810716D01*
X95772237Y-92810715D01*
X95632365Y-92737303D01*
X95478986Y-92699500D01*
X95478985Y-92699500D01*
X95353187Y-92699500D01*
X95286148Y-92679815D01*
X95240393Y-92627011D01*
X95237245Y-92619471D01*
X95207351Y-92540649D01*
X95190220Y-92495477D01*
X95100483Y-92365470D01*
X94982240Y-92260717D01*
X94982238Y-92260716D01*
X94982237Y-92260715D01*
X94842365Y-92187303D01*
X94688986Y-92149500D01*
X94688985Y-92149500D01*
X94531015Y-92149500D01*
X94531014Y-92149500D01*
X94377634Y-92187303D01*
X94237761Y-92260715D01*
X94237759Y-92260717D01*
X94169363Y-92321310D01*
X94106130Y-92351031D01*
X94036867Y-92341847D01*
X94029511Y-92338290D01*
X93932365Y-92287303D01*
X93778986Y-92249500D01*
X93778985Y-92249500D01*
X93621015Y-92249500D01*
X93621014Y-92249500D01*
X93554174Y-92265974D01*
X93484372Y-92262904D01*
X93427310Y-92222584D01*
X93401105Y-92157815D01*
X93400500Y-92145577D01*
X93400500Y-92027243D01*
X95850000Y-92027243D01*
X95856355Y-92107997D01*
X95906682Y-92295815D01*
X95994957Y-92469067D01*
X96117324Y-92620175D01*
X96268432Y-92742542D01*
X96441684Y-92830817D01*
X96629502Y-92881144D01*
X96710256Y-92887499D01*
X96710270Y-92887500D01*
X98694726Y-92887500D01*
X98761765Y-92907185D01*
X98807520Y-92959989D01*
X98817464Y-93029147D01*
X98798535Y-93079321D01*
X98764516Y-93131390D01*
X98671317Y-93343864D01*
X98614361Y-93568781D01*
X98595202Y-93799994D01*
X98595202Y-93800005D01*
X98614361Y-94031218D01*
X98671317Y-94256135D01*
X98764516Y-94468609D01*
X98820869Y-94554864D01*
X99461904Y-93913829D01*
X99476884Y-93985915D01*
X99546442Y-94120156D01*
X99649638Y-94230652D01*
X99778819Y-94309209D01*
X99885236Y-94339025D01*
X99242396Y-94981866D01*
X99242396Y-94981867D01*
X99435692Y-95086473D01*
X99435706Y-95086479D01*
X99655139Y-95161811D01*
X99883993Y-95200000D01*
X100116007Y-95200000D01*
X100344860Y-95161811D01*
X100564293Y-95086479D01*
X100564311Y-95086472D01*
X100632802Y-95049406D01*
X100701130Y-95034810D01*
X100766502Y-95059472D01*
X100808163Y-95115562D01*
X100814916Y-95173405D01*
X100807495Y-95234528D01*
X100805313Y-95252501D01*
X100808601Y-95279581D01*
X100825817Y-95421370D01*
X100825818Y-95421375D01*
X100886140Y-95580432D01*
X100912116Y-95618064D01*
X100982775Y-95720430D01*
X101088463Y-95814061D01*
X101110108Y-95833237D01*
X101244368Y-95903702D01*
X101260733Y-95912291D01*
X101425902Y-95953001D01*
X101596014Y-95953001D01*
X101761183Y-95912291D01*
X101840650Y-95870582D01*
X101911807Y-95833237D01*
X101911808Y-95833235D01*
X101911810Y-95833235D01*
X102039141Y-95720430D01*
X102135776Y-95580431D01*
X102187043Y-95445248D01*
X102229220Y-95389546D01*
X102294818Y-95365488D01*
X102363008Y-95380715D01*
X102385211Y-95396403D01*
X102413396Y-95421373D01*
X102419147Y-95426468D01*
X102419149Y-95426470D01*
X102549089Y-95494668D01*
X102569775Y-95505525D01*
X102734944Y-95546235D01*
X102905056Y-95546235D01*
X103070225Y-95505525D01*
X103070231Y-95505521D01*
X103072179Y-95504784D01*
X103073711Y-95504665D01*
X103077508Y-95503730D01*
X103077663Y-95504361D01*
X103141842Y-95499412D01*
X103203350Y-95532556D01*
X103237175Y-95593693D01*
X103239254Y-95635662D01*
X103238728Y-95639996D01*
X103238728Y-95639999D01*
X103257768Y-95796817D01*
X103291794Y-95886535D01*
X103313786Y-95944522D01*
X103403523Y-96074529D01*
X103521766Y-96179282D01*
X103521768Y-96179283D01*
X103661640Y-96252695D01*
X103815020Y-96290499D01*
X103815021Y-96290499D01*
X103972991Y-96290499D01*
X104126371Y-96252695D01*
X104266246Y-96179282D01*
X104384489Y-96074529D01*
X104474226Y-95944522D01*
X104530243Y-95796817D01*
X104549284Y-95639999D01*
X104548758Y-95635662D01*
X104530243Y-95483180D01*
X104503512Y-95412696D01*
X104474226Y-95335476D01*
X104384489Y-95205469D01*
X104266246Y-95100716D01*
X104266244Y-95100715D01*
X104266243Y-95100714D01*
X104126371Y-95027302D01*
X103972992Y-94989499D01*
X103972991Y-94989499D01*
X103815021Y-94989499D01*
X103815020Y-94989499D01*
X103673146Y-95024466D01*
X103603343Y-95021396D01*
X103546282Y-94981076D01*
X103520077Y-94916306D01*
X103520375Y-94889129D01*
X103525645Y-94845735D01*
X103505140Y-94676863D01*
X103478115Y-94605605D01*
X103472749Y-94535944D01*
X103505896Y-94474438D01*
X103567035Y-94440616D01*
X103636753Y-94445218D01*
X103651684Y-94451840D01*
X103767634Y-94512696D01*
X103921014Y-94550500D01*
X103921015Y-94550500D01*
X104078985Y-94550500D01*
X104232365Y-94512696D01*
X104372240Y-94439283D01*
X104490483Y-94334530D01*
X104580220Y-94204523D01*
X104636237Y-94056818D01*
X104655278Y-93900000D01*
X104648398Y-93843333D01*
X104636237Y-93743181D01*
X104610284Y-93674750D01*
X104580220Y-93595477D01*
X104490483Y-93465470D01*
X104372240Y-93360717D01*
X104372238Y-93360716D01*
X104372237Y-93360715D01*
X104232365Y-93287303D01*
X104078986Y-93249500D01*
X104078985Y-93249500D01*
X103921015Y-93249500D01*
X103921014Y-93249500D01*
X103767634Y-93287303D01*
X103627762Y-93360715D01*
X103509516Y-93465471D01*
X103419781Y-93595475D01*
X103419780Y-93595476D01*
X103363762Y-93743181D01*
X103344722Y-93899999D01*
X103344722Y-93900000D01*
X103363763Y-94056819D01*
X103363763Y-94056821D01*
X103381909Y-94104668D01*
X103387276Y-94174331D01*
X103354128Y-94235837D01*
X103292989Y-94269658D01*
X103223271Y-94265056D01*
X103208341Y-94258434D01*
X103070226Y-94185945D01*
X102905056Y-94145235D01*
X102734944Y-94145235D01*
X102734941Y-94145235D01*
X102709600Y-94151481D01*
X102639798Y-94148411D01*
X102597703Y-94123902D01*
X102494182Y-94032191D01*
X102494179Y-94032188D01*
X102354307Y-93958777D01*
X102200928Y-93920974D01*
X102200927Y-93920974D01*
X102042957Y-93920974D01*
X102042956Y-93920974D01*
X101889576Y-93958777D01*
X101749704Y-94032189D01*
X101631459Y-94136943D01*
X101592302Y-94193673D01*
X101538018Y-94237663D01*
X101468570Y-94245322D01*
X101406005Y-94214218D01*
X101370188Y-94154227D01*
X101370046Y-94092791D01*
X101385638Y-94031216D01*
X101404798Y-93800005D01*
X101404798Y-93799994D01*
X101385638Y-93568781D01*
X101328682Y-93343864D01*
X101235483Y-93131390D01*
X101201465Y-93079321D01*
X101181278Y-93012432D01*
X101200458Y-92945246D01*
X101252916Y-92899096D01*
X101305274Y-92887500D01*
X103289730Y-92887500D01*
X103289743Y-92887499D01*
X103370497Y-92881144D01*
X103558315Y-92830817D01*
X103731567Y-92742542D01*
X103882675Y-92620175D01*
X104005042Y-92469067D01*
X104093317Y-92295815D01*
X104143644Y-92107997D01*
X104149999Y-92027243D01*
X104150000Y-92027230D01*
X104150000Y-91737500D01*
X100265686Y-91737500D01*
X100327641Y-91675545D01*
X100385165Y-91562648D01*
X100404986Y-91437500D01*
X100385165Y-91312352D01*
X100327641Y-91199455D01*
X100238045Y-91109859D01*
X100125148Y-91052335D01*
X100031481Y-91037500D01*
X99968519Y-91037500D01*
X99874852Y-91052335D01*
X99761955Y-91109859D01*
X99672359Y-91199455D01*
X99614835Y-91312352D01*
X99595014Y-91437500D01*
X99614835Y-91562648D01*
X99672359Y-91675545D01*
X99734314Y-91737500D01*
X95850000Y-91737500D01*
X95850000Y-92027243D01*
X93400500Y-92027243D01*
X93400500Y-91057842D01*
X93894355Y-91057842D01*
X93914859Y-91226711D01*
X93914860Y-91226716D01*
X93975182Y-91385773D01*
X94037475Y-91476019D01*
X94071817Y-91525771D01*
X94113443Y-91562648D01*
X94199150Y-91638578D01*
X94349773Y-91717631D01*
X94349775Y-91717632D01*
X94514944Y-91758342D01*
X94685056Y-91758342D01*
X94850225Y-91717632D01*
X94930704Y-91675393D01*
X95000849Y-91638578D01*
X95000850Y-91638576D01*
X95000852Y-91638576D01*
X95128183Y-91525771D01*
X95224818Y-91385772D01*
X95285140Y-91226714D01*
X95295973Y-91137500D01*
X95850000Y-91137500D01*
X99700000Y-91137500D01*
X99700000Y-89987500D01*
X100300000Y-89987500D01*
X100300000Y-91137500D01*
X104150000Y-91137500D01*
X104150000Y-90847769D01*
X104149999Y-90847756D01*
X104143644Y-90767002D01*
X104093317Y-90579184D01*
X104005042Y-90405932D01*
X103882675Y-90254824D01*
X103731567Y-90132457D01*
X103558315Y-90044182D01*
X103370497Y-89993855D01*
X103289743Y-89987500D01*
X100300000Y-89987500D01*
X99700000Y-89987500D01*
X96710256Y-89987500D01*
X96629502Y-89993855D01*
X96441684Y-90044182D01*
X96268432Y-90132457D01*
X96117324Y-90254824D01*
X95994957Y-90405932D01*
X95906682Y-90579184D01*
X95856355Y-90767002D01*
X95850000Y-90847756D01*
X95850000Y-91137500D01*
X95295973Y-91137500D01*
X95305645Y-91057842D01*
X95285140Y-90888970D01*
X95224818Y-90729912D01*
X95128183Y-90589913D01*
X95000852Y-90477108D01*
X95000849Y-90477105D01*
X94850226Y-90398052D01*
X94685056Y-90357342D01*
X94514944Y-90357342D01*
X94349773Y-90398052D01*
X94199150Y-90477105D01*
X94071816Y-90589914D01*
X93975182Y-90729910D01*
X93914860Y-90888967D01*
X93914859Y-90888972D01*
X93894355Y-91057842D01*
X93400500Y-91057842D01*
X93400500Y-90082862D01*
X93420185Y-90015823D01*
X93472989Y-89970068D01*
X93542147Y-89960124D01*
X93582126Y-89973066D01*
X93657634Y-90012696D01*
X93811014Y-90050500D01*
X93811015Y-90050500D01*
X93968985Y-90050500D01*
X94122365Y-90012696D01*
X94170371Y-89987500D01*
X94262240Y-89939283D01*
X94380483Y-89834530D01*
X94470220Y-89704523D01*
X94526237Y-89556818D01*
X94545278Y-89400000D01*
X94538354Y-89342971D01*
X94526237Y-89243181D01*
X94504992Y-89187164D01*
X94470220Y-89095477D01*
X94380483Y-88965470D01*
X94262240Y-88860717D01*
X94262238Y-88860716D01*
X94262237Y-88860715D01*
X94122365Y-88787303D01*
X93968986Y-88749500D01*
X93968985Y-88749500D01*
X93811015Y-88749500D01*
X93811014Y-88749500D01*
X93657634Y-88787303D01*
X93582126Y-88826934D01*
X93513618Y-88840660D01*
X93448564Y-88815168D01*
X93407620Y-88758552D01*
X93400500Y-88717138D01*
X93400500Y-87812625D01*
X105211888Y-87812625D01*
X105600000Y-88200736D01*
X105600001Y-88200736D01*
X105988110Y-87812625D01*
X105879644Y-87764334D01*
X105694594Y-87725000D01*
X105505406Y-87725000D01*
X105320355Y-87764334D01*
X105320351Y-87764335D01*
X105211888Y-87812625D01*
X93400500Y-87812625D01*
X93400500Y-86406610D01*
X94344500Y-86406610D01*
X94383679Y-86616198D01*
X94460702Y-86815019D01*
X94572948Y-86996302D01*
X94716593Y-87153872D01*
X94886746Y-87282367D01*
X95077606Y-87377403D01*
X95077608Y-87377403D01*
X95077611Y-87377405D01*
X95282690Y-87435756D01*
X95441806Y-87450500D01*
X95441810Y-87450500D01*
X95718190Y-87450500D01*
X95718194Y-87450500D01*
X95877310Y-87435756D01*
X96082389Y-87377405D01*
X96082393Y-87377403D01*
X96082394Y-87377403D01*
X96273253Y-87282367D01*
X96273253Y-87282366D01*
X96273255Y-87282366D01*
X96443407Y-87153872D01*
X96587052Y-86996302D01*
X96699298Y-86815019D01*
X96776321Y-86616198D01*
X96815500Y-86406610D01*
X96815500Y-86300000D01*
X104645073Y-86300000D01*
X104664737Y-86512216D01*
X104664738Y-86512219D01*
X104723060Y-86717203D01*
X104723063Y-86717209D01*
X104801335Y-86874400D01*
X105375736Y-86300000D01*
X105375736Y-86299999D01*
X104801335Y-85725598D01*
X104801334Y-85725598D01*
X104723066Y-85882783D01*
X104723058Y-85882803D01*
X104664738Y-86087780D01*
X104664737Y-86087783D01*
X104645073Y-86299999D01*
X104645073Y-86300000D01*
X96815500Y-86300000D01*
X96815500Y-86193390D01*
X96776321Y-85983802D01*
X96699298Y-85784981D01*
X96587052Y-85603698D01*
X96443407Y-85446128D01*
X96443406Y-85446127D01*
X96273253Y-85317632D01*
X96082393Y-85222596D01*
X95877310Y-85164244D01*
X95718194Y-85149500D01*
X95441806Y-85149500D01*
X95314513Y-85161295D01*
X95282689Y-85164244D01*
X95077607Y-85222596D01*
X95077605Y-85222596D01*
X94886746Y-85317632D01*
X94716593Y-85446127D01*
X94572947Y-85603699D01*
X94460702Y-85784980D01*
X94460701Y-85784982D01*
X94388112Y-85972359D01*
X94383679Y-85983802D01*
X94344500Y-86193390D01*
X94344500Y-86406610D01*
X93400500Y-86406610D01*
X93400500Y-77327613D01*
X93420185Y-77260574D01*
X93472989Y-77214819D01*
X93542147Y-77204875D01*
X93582125Y-77217816D01*
X93667635Y-77262696D01*
X93744325Y-77281598D01*
X93821014Y-77300500D01*
X93821015Y-77300500D01*
X93978985Y-77300500D01*
X94132365Y-77262696D01*
X94136408Y-77260574D01*
X94272240Y-77189283D01*
X94390483Y-77084530D01*
X94480220Y-76954523D01*
X94536237Y-76806818D01*
X94555278Y-76650000D01*
X94536237Y-76493182D01*
X94480220Y-76345477D01*
X94390483Y-76215470D01*
X94272240Y-76110717D01*
X94272238Y-76110716D01*
X94272237Y-76110715D01*
X94132365Y-76037303D01*
X93978986Y-75999500D01*
X93978985Y-75999500D01*
X93821015Y-75999500D01*
X93821014Y-75999500D01*
X93667637Y-76037303D01*
X93582126Y-76082183D01*
X93513617Y-76095908D01*
X93448564Y-76070415D01*
X93407620Y-76013799D01*
X93400500Y-75972386D01*
X93400500Y-74506610D01*
X94344500Y-74506610D01*
X94383679Y-74716198D01*
X94460702Y-74915019D01*
X94572948Y-75096302D01*
X94716593Y-75253872D01*
X94886746Y-75382367D01*
X95077606Y-75477403D01*
X95077608Y-75477403D01*
X95077611Y-75477405D01*
X95282690Y-75535756D01*
X95441806Y-75550500D01*
X95441810Y-75550500D01*
X95718190Y-75550500D01*
X95718194Y-75550500D01*
X95877310Y-75535756D01*
X96082389Y-75477405D01*
X96082393Y-75477403D01*
X96082394Y-75477403D01*
X96273253Y-75382367D01*
X96273253Y-75382366D01*
X96273255Y-75382366D01*
X96443407Y-75253872D01*
X96587052Y-75096302D01*
X96699298Y-74915019D01*
X96776321Y-74716198D01*
X96815500Y-74506610D01*
X96815500Y-74400000D01*
X104655116Y-74400000D01*
X104674609Y-74610369D01*
X104732426Y-74813577D01*
X104808792Y-74966941D01*
X104808793Y-74966941D01*
X105375736Y-74400000D01*
X104808792Y-73833056D01*
X104732427Y-73986417D01*
X104674609Y-74189630D01*
X104655116Y-74399999D01*
X104655116Y-74400000D01*
X96815500Y-74400000D01*
X96815500Y-74293390D01*
X96776321Y-74083802D01*
X96699298Y-73884981D01*
X96587052Y-73703698D01*
X96443407Y-73546128D01*
X96443406Y-73546127D01*
X96273253Y-73417632D01*
X96082393Y-73322596D01*
X95877310Y-73264244D01*
X95718194Y-73249500D01*
X95441806Y-73249500D01*
X95328491Y-73260000D01*
X95282689Y-73264244D01*
X95077607Y-73322596D01*
X95077605Y-73322596D01*
X94886746Y-73417632D01*
X94716593Y-73546127D01*
X94572947Y-73703699D01*
X94460702Y-73884980D01*
X94460701Y-73884982D01*
X94388112Y-74072359D01*
X94383679Y-74083802D01*
X94344500Y-74293390D01*
X94344500Y-74506610D01*
X93400500Y-74506610D01*
X93400500Y-70334771D01*
X93420185Y-70267732D01*
X93472989Y-70221977D01*
X93542147Y-70212033D01*
X93605703Y-70241058D01*
X93626549Y-70264330D01*
X93709517Y-70384530D01*
X93827760Y-70489283D01*
X93827762Y-70489284D01*
X93967634Y-70562696D01*
X94121014Y-70600500D01*
X94121015Y-70600500D01*
X94278985Y-70600500D01*
X94432365Y-70562696D01*
X94572240Y-70489283D01*
X94690483Y-70384530D01*
X94780220Y-70254523D01*
X94836237Y-70106818D01*
X94855278Y-69950000D01*
X94853486Y-69935237D01*
X94836237Y-69793181D01*
X94805338Y-69711709D01*
X94780220Y-69645477D01*
X94690483Y-69515470D01*
X94572240Y-69410717D01*
X94572238Y-69410716D01*
X94572237Y-69410715D01*
X94432365Y-69337303D01*
X94278986Y-69299500D01*
X94278985Y-69299500D01*
X94276117Y-69299500D01*
X94274094Y-69298906D01*
X94271540Y-69298596D01*
X94271591Y-69298171D01*
X94209078Y-69279815D01*
X94163323Y-69227011D01*
X94153379Y-69157853D01*
X94182404Y-69094297D01*
X94241182Y-69056523D01*
X94247161Y-69054927D01*
X94402875Y-69017544D01*
X94422078Y-69014502D01*
X94595146Y-69000881D01*
X94604875Y-69000500D01*
X96239882Y-69000500D01*
X96251438Y-68995712D01*
X96271295Y-68989383D01*
X96289231Y-68985290D01*
X96289234Y-68985288D01*
X96289310Y-68985252D01*
X96303494Y-68976885D01*
X96303414Y-68976765D01*
X96313569Y-68969978D01*
X96313568Y-68969978D01*
X96313574Y-68969976D01*
X96328906Y-68954643D01*
X96339243Y-68945404D01*
X96360788Y-68928224D01*
X96360790Y-68928220D01*
X96362250Y-68926390D01*
X96367190Y-68917742D01*
X96369973Y-68913576D01*
X96369976Y-68913574D01*
X96381763Y-68885117D01*
X96384593Y-68878791D01*
X96400500Y-68845763D01*
X96400500Y-68803145D01*
X96400659Y-68796865D01*
X96411241Y-68588209D01*
X96418650Y-68442110D01*
X96419918Y-68429639D01*
X96473231Y-68081628D01*
X96475752Y-68069361D01*
X96564003Y-67728513D01*
X96567758Y-67716548D01*
X96690028Y-67386408D01*
X96694974Y-67374882D01*
X96850023Y-67058794D01*
X96856115Y-67047820D01*
X96870381Y-67024931D01*
X97042343Y-66749044D01*
X97049502Y-66738758D01*
X97265006Y-66460350D01*
X97273175Y-66450834D01*
X97515743Y-66195652D01*
X97524821Y-66187023D01*
X97791966Y-65957687D01*
X97801868Y-65950023D01*
X97829458Y-65930819D01*
X97895723Y-65908680D01*
X97963443Y-65925881D01*
G37*
%TD.AperFunction*%
%TA.AperFunction,Conductor*%
G36*
X101054199Y-105565007D02*
G01*
X101127871Y-105652805D01*
X101209615Y-105700000D01*
X101164000Y-105700000D01*
X101096961Y-105680315D01*
X101051206Y-105627511D01*
X101040000Y-105576000D01*
X101040000Y-105525994D01*
X101054199Y-105565007D01*
G37*
%TD.AperFunction*%
%TA.AperFunction,Conductor*%
G36*
X101640000Y-105576000D02*
G01*
X101620315Y-105643039D01*
X101567511Y-105688794D01*
X101516000Y-105700000D01*
X101470385Y-105700000D01*
X101552129Y-105652805D01*
X101625801Y-105565007D01*
X101640000Y-105525994D01*
X101640000Y-105576000D01*
G37*
%TD.AperFunction*%
%TA.AperFunction,Conductor*%
G36*
X105900000Y-90071000D02*
G01*
X105880315Y-90138039D01*
X105827511Y-90183794D01*
X105776000Y-90195000D01*
X105730385Y-90195000D01*
X105812129Y-90147805D01*
X105885801Y-90060007D01*
X105900000Y-90020994D01*
X105900000Y-90071000D01*
G37*
%TD.AperFunction*%
%TA.AperFunction,Conductor*%
G36*
X105843039Y-89614685D02*
G01*
X105888794Y-89667489D01*
X105900000Y-89719000D01*
X105900000Y-89769005D01*
X105885801Y-89729993D01*
X105812129Y-89642195D01*
X105730385Y-89595000D01*
X105776000Y-89595000D01*
X105843039Y-89614685D01*
G37*
%TD.AperFunction*%
%TA.AperFunction,Conductor*%
G36*
X105487129Y-88935112D02*
G01*
X105571564Y-88950000D01*
X105628436Y-88950000D01*
X105712871Y-88935112D01*
X105715897Y-88933364D01*
X105687680Y-88961582D01*
X105626357Y-88995067D01*
X105556665Y-88990083D01*
X105512318Y-88961582D01*
X105484098Y-88933362D01*
X105487129Y-88935112D01*
G37*
%TD.AperFunction*%
%TD*%
M02*
