M48
; DRILL file {KiCad 7.0.11} date Tuesday, March 17, 2026 at 11:03:55 PM
; FORMAT={-:-/ absolute / metric / decimal}
; #@! TF.CreationDate,2026-03-17T23:03:55-05:00
; #@! TF.GenerationSoftware,Kicad,Pcbnew,7.0.11
; #@! TF.FileFunction,Plated,1,4,PTH
FMAT,2
METRIC
; #@! TA.AperFunction,Plated,PTH,ViaDrill
T1C0.300
; #@! TA.AperFunction,Plated,PTH,ComponentDrill
T2C0.650
; #@! TA.AperFunction,Plated,PTH,ComponentDrill
T3C0.800
; #@! TA.AperFunction,Plated,PTH,ComponentDrill
T4C1.100
; #@! TA.AperFunction,Plated,PTH,ComponentDrill
T5C2.200
%
G90
G05
T1
X93.7Y-92.9
X93.7Y-103.6
X93.89Y-89.4
X93.9Y-76.65
X94.15Y-97.529
X94.2Y-69.95
X94.44Y-87.952
X94.6Y-91.058
X94.61Y-92.8
X94.72Y-101.61
X94.84Y-82.55
X94.85Y-80.7
X94.85Y-95.338
X95.4Y-93.35
X95.7Y-94.9
X96.03Y-105.59
X96.3Y-104.9
X96.8Y-94.0
X96.83Y-94.8
X96.864Y-95.673
X98.263Y-104.569
X98.353Y-95.383
X99.03Y-103.822
X99.177Y-101.266
X101.511Y-95.253
X102.122Y-94.571
X102.33Y-101.92
X102.797Y-105.181
X102.82Y-94.846
X102.92Y-98.265
X103.637Y-101.627
X103.798Y-103.609
X103.894Y-95.64
X104.0Y-93.9
X104.4Y-101.59
X104.56Y-92.71
X104.809Y-104.686
X105.119Y-96.626
X105.15Y-69.3
X105.25Y-102.7
X105.25Y-105.7
X105.78Y-96.036
X105.95Y-80.6
X106.0Y-105.35
X106.35Y-92.58
X106.35Y-95.3
X106.35Y-100.25
X106.35Y-101.8
T2
X98.8Y-105.4
X100.07Y-105.4
X101.34Y-105.4
X105.6Y-88.625
X105.6Y-89.895
X105.6Y-91.165
T3
X100.0Y-70.438
X100.0Y-91.438
X105.8Y-74.4
X105.8Y-86.3
X105.8Y-98.2
T4
X100.0Y-93.8
X100.0Y-100.0
T5
X100.0Y-67.2
T3
X95.355Y-74.4G85X95.805Y-74.4
G05
X95.355Y-86.3G85X95.805Y-86.3
G05
X95.795Y-98.2G85X96.245Y-98.2
G05
M30
